<svg width="80" height="80" viewBox="0 0 80 80" fill="none" xmlns="http://www.w3.org/2000/svg">
<path d="M37.153 12.302C29.656 12.3971 22.4304 16.1981 17.5492 21.8893C9.06877 31.7774 5.98205 48.7351 13.8887 59.9992C21.4821 70.8172 36.6559 74.6705 49.154 72.1978C64.6273 69.1364 77.3093 54.5617 75.6236 38.4106C75.2454 34.7864 74.1483 31.26 72.4817 28.0235C66.2816 15.9828 50.2933 8.45723 37.1444 11.6657" fill="#EDC851"/>
<path d="M37.153 11.8735C33.457 11.8667 29.8067 12.7326 26.4488 14.2587C23.0791 15.7903 20.0255 18.0275 17.502 20.7327C15.2235 23.1751 13.3843 26.0159 11.9631 29.0337C10.5099 32.1198 9.47714 35.3954 8.92474 38.7624C8.36458 42.1771 8.27882 45.6335 8.75786 49.0627C9.22018 52.3725 10.2645 55.6139 11.9127 58.5265C13.5348 61.3931 15.7532 63.9339 18.3043 66.0099C20.897 68.1198 23.7989 69.7696 26.8962 71.0173C30.0004 72.2677 33.2629 73.0581 36.5793 73.4792C39.8003 73.8882 43.0742 73.9123 46.299 73.5302C49.6099 73.1379 52.8165 72.3287 55.8895 71.0295C58.9111 69.7521 61.7196 68.0417 64.2747 65.9866C66.8135 63.9446 69.0517 61.5435 70.9278 58.8804C72.7903 56.2366 74.26 53.3059 75.2462 50.2248C76.2479 47.0948 76.7311 43.7803 76.6335 40.4942C76.5115 36.3891 75.4879 32.3623 73.7488 28.6484C72.3499 25.661 70.4181 22.9482 68.1108 20.5936C65.8243 18.2602 63.1755 16.2656 60.3303 14.6636C57.4666 13.0513 54.3726 11.8121 51.1789 11.0335C49.5792 10.6435 47.9443 10.3536 46.301 10.2375C44.7279 10.1263 43.1351 10.184 41.5639 10.3095C40.7836 10.3718 39.9981 10.4685 39.2287 10.6139C38.4751 10.7563 37.7488 10.9843 37.0062 11.1642C36.3559 11.3217 36.6313 12.325 37.2827 12.1672C37.9959 11.9945 38.7583 11.9346 39.4796 11.846C40.2413 11.7525 41.0075 11.694 41.7739 11.6571C43.3175 11.5826 44.8531 11.7045 46.3859 11.8904C46.4851 11.9025 46.5842 11.9149 46.6832 11.9279C46.5582 11.9115 46.7646 11.9392 46.7999 11.9443C46.9449 11.9649 47.0899 11.9854 47.2351 12.0041L47.3625 12.0203C47.6339 12.0551 47.2795 12.0083 47.4354 12.0303C47.8177 12.0843 48.1991 12.144 48.5794 12.2111C49.3576 12.3485 50.1306 12.5136 50.8971 12.7062C52.441 13.0935 53.9575 13.5893 55.434 14.1836C55.5148 14.2161 55.5955 14.249 55.6761 14.2821C55.7067 14.2947 55.9516 14.3967 55.8348 14.3475C56.3966 14.5857 56.9521 14.8382 57.501 15.1047C58.2067 15.4475 58.901 15.8132 59.5828 16.2013C60.9674 16.9893 62.297 17.8704 63.5623 18.8385C63.6764 18.9259 63.5497 18.8275 63.6625 18.9164C63.7416 18.9788 63.821 19.0411 63.8998 19.1039C64.3716 19.48 64.8332 19.8688 65.284 20.2699C65.8711 20.7921 66.4388 21.3357 66.9859 21.8996C67.5194 22.4494 68.0319 23.0191 68.5226 23.6074C68.7033 23.8242 68.8809 24.0436 69.0553 24.2656C69.0814 24.2989 69.1075 24.3322 69.1334 24.3655C69.1698 24.4124 69.168 24.41 69.128 24.3585L69.1793 24.4256C69.4088 24.7277 69.6327 25.034 69.8511 25.3443C71.9485 28.3371 73.4239 31.7513 74.2339 35.3124C74.6405 37.0997 74.8591 38.8783 74.897 40.7146C74.9135 41.517 74.8953 42.3198 74.8425 43.1207C74.8168 43.5104 74.783 43.8996 74.7411 44.288C74.7192 44.4887 74.6953 44.6891 74.6695 44.8893C74.6875 44.7487 74.6602 44.9571 74.6542 44.9993C74.6379 45.1132 74.621 45.2269 74.6035 45.3406C74.3649 46.8803 73.9993 48.3997 73.5163 49.8808C73.2735 50.6253 72.9991 51.3583 72.7013 52.0825C72.6925 52.1039 72.6362 52.2374 72.6907 52.1088C72.674 52.1481 72.6572 52.1873 72.6403 52.2265C72.6066 52.3049 72.5726 52.3832 72.5383 52.4613C72.2976 53.0082 72.0412 53.548 71.7695 54.0802C71.0566 55.476 70.239 56.8179 69.3315 58.0957C69.1082 58.4101 68.8786 58.7197 68.6454 59.0267C68.6439 59.0287 68.5581 59.1404 68.6098 59.0735C68.6676 58.9985 68.5591 59.1383 68.5472 59.1535C68.3622 59.39 68.1741 59.624 67.9828 59.8554C67.4902 60.4512 66.9774 61.0301 66.4453 61.591C65.2887 62.8099 64.0449 63.943 62.7237 64.9812C62.6894 65.0082 62.5389 65.1254 62.5747 65.0978C61.485 65.9337 60.3466 66.704 59.1655 67.4047C58.4962 67.8018 57.8136 68.176 57.1189 68.5266C56.4623 68.8579 55.7951 69.1677 55.1183 69.4555C54.9834 69.5127 55.2251 69.4112 55.0897 69.4671C53.6205 70.0739 52.1129 70.5827 50.5719 70.9738C49.8057 71.1676 49.0328 71.3337 48.2547 71.4719C47.8783 71.5391 47.501 71.6005 47.1227 71.656C47.0243 71.6705 46.9258 71.6843 46.8273 71.6983C46.6587 71.7222 46.8925 71.6909 46.7234 71.7122C46.5111 71.7389 46.2987 71.7654 46.0861 71.7894C44.5246 71.9652 42.9525 72.0454 41.3811 72.0342C39.7755 72.0226 38.172 71.9153 36.5792 71.7129C36.5373 71.7075 36.3248 71.6796 36.4656 71.6987C36.364 71.6849 36.2625 71.6707 36.1611 71.656C35.552 71.5684 34.945 71.4667 34.3407 71.3511C33.5494 71.1997 32.763 71.0238 31.9827 70.8237C30.4414 70.4281 28.9243 69.9367 27.4469 69.3456C27.2713 69.2754 27.0963 69.2038 26.9219 69.1307C27.0556 69.1868 26.8067 69.0811 26.772 69.0662C26.3058 68.8648 25.8442 68.653 25.3875 68.431C24.6724 68.0832 23.9695 67.71 23.2817 67.311C22.5939 66.9119 21.9259 66.4903 21.2731 66.0414C20.9533 65.8215 20.6378 65.5953 20.3268 65.3631C20.2463 65.3028 20.1661 65.2422 20.086 65.1813C19.9623 65.0875 20.1142 65.2047 19.9922 65.1088C19.834 64.9847 19.677 64.8592 19.5211 64.7323C18.2957 63.7319 17.1535 62.629 16.1193 61.4319C15.8544 61.1252 15.5984 60.8115 15.3465 60.4943C15.2511 60.374 15.3647 60.5203 15.2715 60.3981C15.086 60.1554 14.9048 59.9094 14.7281 59.6602C14.256 58.995 13.8189 58.3057 13.4187 57.595C13.0286 56.9018 12.6729 56.1897 12.3531 55.4615C12.3344 55.4191 12.2433 55.2081 12.2582 55.2432C12.2912 55.3212 12.2352 55.1878 12.2346 55.1863C12.2122 55.132 12.1899 55.0777 12.1677 55.0232C11.9412 54.4652 11.7346 53.8993 11.5483 53.3267C11.046 51.7843 10.6921 50.1977 10.4649 48.5921C10.4501 48.4873 10.4641 48.5888 10.4666 48.6074C10.4587 48.5487 10.4512 48.4899 10.4439 48.4311C10.355 47.7237 10.2911 47.0135 10.2523 46.3016C10.2075 45.4818 10.1941 44.6605 10.2122 43.8397C10.2297 43.0301 10.277 42.2211 10.3526 41.4149C10.3919 40.9957 10.4392 40.5773 10.4933 40.1597C10.5069 40.0547 10.4942 40.1523 10.4915 40.1714C10.4977 40.1267 10.5039 40.082 10.5102 40.0372C10.5249 39.9329 10.54 39.8286 10.5556 39.7243C10.5869 39.5158 10.62 39.3076 10.6549 39.0997C10.9302 37.4653 11.3161 35.8515 11.8099 34.2694C12.0555 33.4816 12.329 32.7027 12.6231 31.9318C12.7665 31.555 12.9164 31.1806 13.0727 30.809C13.0265 30.9185 13.1281 30.6807 13.1421 30.6483C13.1776 30.5663 13.2134 30.4844 13.2495 30.4027C13.3396 30.1985 13.4316 29.9953 13.5255 29.7929C14.1995 28.34 14.9701 26.9315 15.8387 25.5856C17.6347 22.8026 19.8204 20.3034 22.5123 18.2273C25.3459 16.0418 28.5931 14.3717 32.0603 13.4659C33.725 13.0312 35.4332 12.7845 37.153 12.7307C37.7029 12.7134 37.7067 11.8746 37.153 11.8735V11.8735Z" fill="#EDC851"/>
<path d="M13.7675 29.8596C9.18457 28.1449 5.07594 22.2969 4.31722 17.5439C3.74138 13.9364 5.92474 10.1603 9.64746 9.45538C11.4841 9.10762 13.3876 9.53434 15.1297 10.2119C17.5683 11.1604 19.812 12.6067 21.6827 14.4362C21.2854 14.0476 21.3753 11.6131 21.348 10.9815C21.172 6.91162 24.1497 3.1597 28.1294 2.20722C30.2887 1.69042 32.728 2.13234 34.3712 3.62546C36.0977 5.19434 36.7286 7.6197 37.0864 9.92498C37.2855 11.2078 37.4261 12.499 37.5078 13.7947C31.3249 14.6644 25.3516 16.9906 20.2088 20.5312C16.9747 22.7578 13.8602 25.8649 13.5887 29.7819" fill="#F15C5B"/>
<path d="M13.9619 29.527C13.4282 29.2972 12.9174 29.0181 12.4306 28.701C11.9782 28.4064 11.4516 28.0322 11.0169 27.6666C10.0454 26.8499 9.16759 25.9126 8.38711 24.9131C8.31903 24.8259 8.37119 24.8923 8.38487 24.9102C8.35421 24.8701 8.32365 24.83 8.29319 24.7897C7.94831 24.3324 7.62347 23.8604 7.31959 23.3749C6.98259 22.8375 6.67188 22.284 6.38855 21.7164C6.26405 21.4668 6.14517 21.2145 6.03199 20.9596C6.01783 20.9278 5.95663 20.7895 6.01799 20.9313C5.97703 20.8367 5.93687 20.7418 5.89607 20.6471C5.88503 20.6215 5.81607 20.4723 5.88415 20.6198C5.87079 20.5909 5.85935 20.5602 5.84727 20.5308C5.78659 20.3833 5.72803 20.2349 5.67159 20.0857C5.45879 19.5231 5.27639 18.9486 5.13367 18.3642C5.06722 18.0928 5.01001 17.8193 4.96215 17.544C4.94967 17.4723 4.93799 17.4005 4.92711 17.3286C4.92263 17.2986 4.91951 17.268 4.91407 17.2382C4.94263 17.3935 4.92335 17.3097 4.91951 17.2729C4.90311 17.1148 4.88719 16.9571 4.87871 16.7983C4.86312 16.5057 4.86483 16.2124 4.88383 15.9199C4.89255 15.7856 4.90607 15.6518 4.92087 15.5181C4.93383 15.401 4.91503 15.5415 4.91495 15.5563C4.91511 15.5135 4.92783 15.466 4.93439 15.4237C4.94586 15.3502 4.95839 15.2769 4.97199 15.2038C5.06158 14.7233 5.1978 14.2526 5.37871 13.7986C5.39383 13.7606 5.42887 13.623 5.38071 13.7904C5.39255 13.7491 5.41631 13.7081 5.43375 13.6691C5.54776 13.4146 5.67629 13.1669 5.81871 12.9272C5.9383 12.726 6.06774 12.5308 6.20655 12.3424C6.21807 12.3268 6.33159 12.1878 6.26127 12.269C6.19647 12.3437 6.32655 12.189 6.34695 12.1644C6.48662 11.9959 6.63433 11.8341 6.78959 11.6798C6.95557 11.5151 7.13013 11.3592 7.31255 11.2129C7.32962 11.1991 7.34685 11.1855 7.36423 11.172C7.40263 11.1419 7.38722 11.1539 7.31799 11.2078C7.38791 11.1126 7.56199 11.0306 7.65967 10.9662C7.90112 10.807 8.1532 10.6646 8.41415 10.5399C8.47503 10.5109 8.53687 10.4841 8.59807 10.4558C8.68727 10.4145 8.44423 10.5166 8.58535 10.4609C8.62751 10.4442 8.66943 10.427 8.71175 10.4108C8.9842 10.3063 9.26356 10.2207 9.54783 10.1548C9.70877 10.1175 9.87104 10.0863 10.0343 10.0611C10.0679 10.0559 10.2024 10.0394 10.0677 10.0555C10.1078 10.0506 10.1479 10.046 10.1881 10.0417C10.2984 10.0299 10.409 10.0207 10.5198 10.0141C10.9127 9.99025 11.3074 9.99752 11.6995 10.031C11.7903 10.0388 11.881 10.0478 11.9715 10.0582C12.0057 10.0622 12.1407 10.0792 12.0042 10.0609C12.0445 10.0662 12.0846 10.0722 12.1248 10.0782C12.326 10.1086 12.5263 10.1447 12.7254 10.1866C13.5036 10.35 14.2631 10.5951 15.0021 10.8872C15.1255 10.936 15.2485 10.986 15.3709 11.0374C15.245 10.9848 15.3398 11.0242 15.3654 11.0354C15.5391 11.1114 15.7126 11.1876 15.8845 11.2676C17.1663 11.8643 18.3799 12.5979 19.5039 13.4556C19.5265 13.4728 19.5491 13.4901 19.5717 13.5075C19.5141 13.463 19.5048 13.456 19.5438 13.4864C19.8326 13.7174 20.1196 13.9498 20.3975 14.1938C20.668 14.4317 20.932 14.6769 21.1892 14.9291C21.4502 15.1848 21.9193 15.2088 22.1761 14.9291C22.4359 14.6461 22.4466 14.2235 22.1761 13.9422C22.097 13.8599 22.2715 14.1014 22.235 14.0194C22.2258 13.999 22.2125 13.9693 22.1989 13.9519C22.2962 14.0764 22.261 14.1138 22.2304 14.0154C22.218 13.9751 22.2072 13.9343 22.1981 13.893C22.1809 13.8177 22.1765 13.7374 22.1566 13.6631C22.1561 13.6613 22.1803 13.8663 22.1694 13.757C22.1673 13.7351 22.1643 13.7133 22.162 13.6914C22.1565 13.64 22.1517 13.5886 22.1475 13.5371C22.113 13.1156 22.0966 12.6916 22.0897 12.2686C22.0766 11.4702 22.0312 10.6503 22.11 9.8556C22.1162 9.79376 22.1234 9.73216 22.1306 9.67048C22.1373 9.61304 22.1699 9.5692 22.1226 9.72664C22.1308 9.69944 22.1319 9.66192 22.1361 9.63472C22.1558 9.50486 22.1787 9.37555 22.2047 9.2468C22.255 8.99776 22.3167 8.75096 22.3896 8.5076C22.4625 8.26424 22.546 8.02528 22.6401 7.78984C22.6514 7.76136 22.6634 7.73296 22.6747 7.70448C22.7107 7.6144 22.6151 7.8412 22.6544 7.75256C22.6793 7.6964 22.7036 7.64008 22.7291 7.58424C22.7833 7.46557 22.8401 7.34813 22.8995 7.232C23.1344 6.7737 23.4083 6.33643 23.7181 5.92504C23.827 5.7804 23.6315 6.03336 23.744 5.89152C23.7774 5.84928 23.8113 5.80739 23.8455 5.76584C24.0953 5.46224 24.3645 5.17503 24.6512 4.906C24.8368 4.73192 25.0319 4.56712 25.2302 4.40648C25.3273 4.32776 25.2026 4.4276 25.1903 4.43648C25.2154 4.41848 25.2395 4.39888 25.2642 4.38032C25.3137 4.3431 25.3636 4.3064 25.4139 4.27024C25.5271 4.18879 25.6422 4.10994 25.759 4.03376C26.193 3.7508 26.6496 3.52928 27.1163 3.30792C27.1027 3.3144 26.951 3.3752 27.069 3.32848C27.0981 3.31696 27.127 3.30496 27.1561 3.29344C27.2144 3.27035 27.273 3.24792 27.3317 3.22616C27.4569 3.17972 27.5832 3.13622 27.7105 3.09568C27.9625 3.01505 28.2183 2.9465 28.4769 2.89024C28.6107 2.86136 28.7453 2.8361 28.8806 2.81448C28.9144 2.80915 28.9483 2.80398 28.9822 2.79896C29.0706 2.78552 29.0072 2.7616 28.9371 2.80488C28.9843 2.77576 29.1117 2.78496 29.1673 2.77968C29.5862 2.74014 30.0077 2.73546 30.4274 2.76568C30.5557 2.77494 30.6837 2.78756 30.8113 2.80352C30.8691 2.81078 30.8453 2.80752 30.7398 2.79376C30.7868 2.77904 30.8928 2.81704 30.9426 2.8256C31.153 2.8617 31.3616 2.90713 31.5679 2.96176C31.8395 3.03392 32.1046 3.12424 32.3659 3.2272C32.4265 3.25104 32.4554 3.22936 32.3275 3.2104C32.3534 3.21424 32.3995 3.24192 32.4206 3.25144C32.4823 3.27928 32.5436 3.30808 32.6045 3.33784C32.7337 3.40111 32.8606 3.46889 32.9851 3.54104C33.1023 3.609 33.217 3.68113 33.329 3.75728C33.3852 3.79536 33.4406 3.8344 33.4954 3.8744C33.5228 3.8944 33.5498 3.91504 33.577 3.9352C33.6522 3.99064 33.4577 3.83832 33.5648 3.92704C33.7894 4.11296 34.0026 4.3096 34.2001 4.52432C34.2923 4.62473 34.3813 4.72809 34.4669 4.83424C34.488 4.8604 34.5078 4.88944 34.5303 4.91416C34.5303 4.91416 34.4399 4.79288 34.4886 4.8612C34.5329 4.92336 34.5792 4.98408 34.623 5.04672C34.7882 5.28401 34.9394 5.53072 35.0759 5.7856C35.1407 5.90614 35.2024 6.02819 35.2612 6.15176C35.2907 6.21379 35.3195 6.27611 35.3476 6.33872C35.3617 6.37008 35.3754 6.40168 35.3893 6.43312C35.4474 6.56408 35.346 6.32544 35.3822 6.41544C35.4888 6.68088 35.589 6.948 35.6772 7.22024C35.8551 7.76952 35.9954 8.3316 36.1142 8.8964C36.2426 9.50681 36.3422 10.123 36.4307 10.7403C36.443 10.8259 36.4546 10.9117 36.4667 10.9973C36.4834 11.1147 36.4499 10.8673 36.4651 10.985L36.482 11.1137C36.5056 11.2961 36.528 11.4786 36.5493 11.6614C36.5906 12.016 36.6274 12.3712 36.6597 12.7267C36.7082 13.2601 36.719 13.4382 36.742 13.7945L37.3038 13.0566C35.2169 13.3529 33.1563 13.8118 31.1409 14.4291C29.0829 15.0596 27.0727 15.8541 25.1356 16.7921C23.2537 17.7034 21.439 18.7587 19.7226 19.9533C18.1378 21.0562 16.6244 22.3091 15.4015 23.8117C14.1916 25.2983 13.2228 27.0338 12.9373 28.9518C12.8962 29.2274 12.8621 29.5038 12.8419 29.7818C12.8136 30.1721 13.2054 30.5454 13.5883 30.5282C14.017 30.509 14.3044 30.1998 14.3347 29.7818C14.3427 29.6715 14.3525 29.5614 14.3647 29.4516C14.3679 29.423 14.3892 29.2562 14.3731 29.3747C14.3583 29.4842 14.3703 29.3955 14.3737 29.3738C14.3801 29.3322 14.3862 29.2906 14.393 29.2491C14.4294 29.0263 14.475 28.805 14.5295 28.5859C14.6079 28.2714 14.704 27.9616 14.8175 27.6579C14.8378 27.6035 14.8586 27.5492 14.8798 27.4951C14.8915 27.4654 14.9619 27.2965 14.9174 27.3998C14.8721 27.5047 14.9374 27.3542 14.9486 27.3288C15.0191 27.1688 15.094 27.0107 15.1731 26.8547C15.2716 26.6607 15.3759 26.4698 15.4861 26.2822C15.7173 25.8884 15.973 25.5091 16.2474 25.1443C16.2628 25.1239 16.2786 25.1037 16.2938 25.0831C16.3434 25.0162 16.2547 25.1331 16.2545 25.1334C16.2884 25.0845 16.3284 25.039 16.3655 24.9924C16.4404 24.8986 16.5164 24.8057 16.5936 24.7138C16.7378 24.5424 16.8857 24.3741 17.0372 24.209C17.3549 23.8639 17.6862 23.5316 18.0303 23.2128C18.3696 22.8985 18.719 22.5955 19.0782 22.3042C19.166 22.2328 19.2544 22.162 19.3434 22.0918C19.3908 22.0544 19.4419 22.0192 19.4872 21.9792C19.4863 21.98 19.3714 22.068 19.438 22.0172L19.5207 21.9539C19.7065 21.8124 19.8942 21.6735 20.0837 21.537C21.739 20.3446 23.5054 19.297 25.3279 18.3818C26.0708 18.0088 26.8249 17.6586 27.5893 17.3318L27.6693 17.2977C27.7697 17.2544 27.5474 17.3486 27.6482 17.3065C28.7265 16.8535 29.8238 16.447 30.937 16.0882C32.8971 15.4561 34.9028 14.9748 36.9364 14.6486C37.1941 14.6074 37.4522 14.5686 37.7106 14.5323C38.0213 14.4886 38.2916 14.0964 38.2725 13.7944C38.177 12.2839 38.0136 10.7747 37.763 9.28185C37.5532 8.032 37.2376 6.81504 36.7197 5.65528C36.1971 4.4852 35.4211 3.4552 34.399 2.67864C33.377 1.90208 32.1472 1.48192 30.8874 1.31816C28.4739 1.00448 26.062 1.86744 24.1842 3.36112C22.46 4.73264 21.1926 6.756 20.7791 8.92592C20.6681 9.50864 20.605 10.1044 20.6101 10.6979C20.6131 11.0487 20.6242 11.3994 20.6266 11.7503C20.6294 12.1915 20.6354 12.633 20.6625 13.0734C20.666 13.1307 20.6699 13.188 20.6742 13.2452C20.6791 13.3096 20.723 13.6733 20.7002 13.472C20.686 13.3465 20.6954 13.435 20.6996 13.4662C20.7108 13.5478 20.721 13.6294 20.7323 13.711C20.7394 13.7624 20.7468 13.8138 20.755 13.865C20.7822 14.0335 20.8145 14.2039 20.8715 14.3653C20.8994 14.4443 20.9347 14.521 20.967 14.598C20.8428 14.3026 20.9659 14.6084 21.0013 14.6752C21.0505 14.7681 21.1157 14.8542 21.1887 14.9294L22.1756 13.9425C19.9338 11.7668 17.1528 10.0566 14.1522 9.1588C12.5535 8.68048 10.8333 8.4832 9.19383 8.87264C7.95087 9.16784 6.79871 9.82353 5.89191 10.7209C4.06271 12.531 3.29447 15.1958 3.69983 17.7137C4.11055 20.2649 5.32199 22.6954 6.83095 24.7701C8.37087 26.8874 10.3394 28.8567 12.7805 29.8961C13.0708 30.0197 13.3644 30.1334 13.6646 30.2309C13.8451 30.2895 14.0508 30.1774 14.119 30.0078C14.1834 29.848 14.1398 29.6036 13.9614 29.5267L13.9619 29.527Z" fill="#F45B5B"/>
<path d="M35.3415 15.0239C32.0281 15.0112 28.7553 15.7822 25.7421 17.1431C22.7215 18.5075 19.9839 20.5075 17.7204 22.926C15.6755 25.1108 14.0255 27.6547 12.7509 30.3576C11.4471 33.1223 10.5199 36.056 10.025 39.0734C9.52146 42.1431 9.44522 45.2455 9.87586 48.3281C10.2901 51.2936 11.2279 54.1982 12.7047 56.8078C14.1579 59.3759 16.1456 61.6543 18.4311 63.5142C20.7616 65.4107 23.3665 66.8917 26.1507 68.0131C28.9331 69.1339 31.8563 69.8391 34.8288 70.2165C37.7072 70.5819 40.6328 70.6035 43.5147 70.262C46.4915 69.9094 49.3694 69.1821 52.1324 68.0145C54.8407 66.87 57.355 65.3349 59.6447 63.4932C61.9199 61.6632 63.9236 59.5104 65.6048 57.1239C67.2738 54.7548 68.5894 52.1271 69.4728 49.3663C70.3702 46.5619 70.803 43.5901 70.7153 40.6459C70.6056 36.9603 69.6856 33.3477 68.1243 30.0137C66.8709 27.3375 65.1383 24.9066 63.0711 22.7975C61.0225 20.7071 58.6485 18.9195 56.0994 17.4844C53.5338 16.0402 50.7607 14.9293 47.8995 14.232C46.4626 13.8819 44.9931 13.6203 43.5165 13.5201C42.8099 13.4724 42.1012 13.4622 41.3935 13.4894C40.6996 13.5158 40.0491 13.5373 39.2833 13.5995C38.5802 13.6567 37.8714 13.7448 37.1785 13.879C36.5066 14.0091 35.8511 14.2235 35.1956 14.3823C34.5453 14.5399 34.8207 15.5431 35.4722 15.3854C36.1099 15.2309 36.8297 15.1834 37.4207 15.1125C38.1014 15.0308 38.7861 14.9807 39.4709 14.9487C40.1655 14.9161 40.8516 14.9185 41.5449 14.9701C41.8861 14.9955 42.2267 15.0431 42.568 15.063C42.4103 15.0538 42.7363 15.079 42.7956 15.0851C42.8841 15.0942 42.9727 15.1023 43.0612 15.1115C43.2385 15.1301 43.4156 15.1503 43.5925 15.1723C43.6409 15.1783 43.8699 15.2086 43.7127 15.1871C43.788 15.1973 43.8634 15.208 43.9387 15.2189C44.0761 15.2388 44.2135 15.2582 44.3513 15.276L44.4651 15.2904C44.7083 15.3218 44.3659 15.2752 44.5063 15.2963C44.8476 15.3475 45.1887 15.3979 45.5287 15.4579C46.2241 15.5807 46.9149 15.7284 47.5998 15.9005C48.9795 16.2468 50.3346 16.6899 51.654 17.2212C51.7262 17.2503 51.7983 17.2796 51.8703 17.3092C51.9121 17.3263 52.1351 17.4197 51.9906 17.3585C52.1578 17.4294 52.3245 17.5018 52.4906 17.5756C53.4636 18.0081 54.4145 18.4886 55.3398 19.0155C56.5767 19.7203 57.7648 20.5077 58.8958 21.3723C59.0226 21.4692 58.8417 21.329 58.9669 21.4278C59.0376 21.4836 59.1085 21.5391 59.179 21.5953C59.6007 21.9313 60.0132 22.2788 60.4159 22.6373C60.9405 23.104 61.4478 23.5899 61.9367 24.0938C62.4134 24.5851 62.8715 25.0942 63.3099 25.62C63.4714 25.8138 63.6301 26.0099 63.7859 26.2083C63.8092 26.238 63.8325 26.2678 63.8557 26.2976C63.9163 26.3753 63.786 26.2051 63.8824 26.3328C64.0868 26.6034 64.2881 26.8761 64.4827 27.1538C66.3762 29.856 67.6602 32.8328 68.3895 36.0399C68.7595 37.6672 68.9438 39.1595 68.9783 40.8429C69.0003 41.9092 68.9537 42.9759 68.8388 44.0363C68.8195 44.2156 68.7968 44.3945 68.7749 44.5735C68.794 44.4172 68.7733 44.5852 68.7644 44.6471C68.7499 44.7489 68.7348 44.8505 68.7191 44.9521C68.5058 46.328 68.179 47.6858 67.7472 49.0094C67.5302 49.6747 67.2848 50.3296 67.0188 50.9769C67.0062 51.0078 66.9529 51.1321 67.0187 50.9781L66.9738 51.0833C66.8684 51.3285 66.7593 51.5722 66.6467 51.8142C66.502 52.1254 66.3515 52.4339 66.1954 52.7396C65.5583 53.987 64.8275 55.1861 64.0165 56.3279C63.8167 56.6085 63.6123 56.8859 63.4034 57.1599C63.3966 57.1688 63.319 57.2698 63.3789 57.1921C63.444 57.1076 63.3453 57.2351 63.3303 57.2542C63.2831 57.3145 63.2356 57.3747 63.1879 57.4347C62.6385 58.1254 62.0593 58.792 61.4519 59.4323C60.4184 60.5216 59.3069 61.5341 58.1262 62.4619C58.0986 62.4835 57.9381 62.6083 58.0025 62.5587C58.0797 62.4991 57.9782 62.5771 57.9695 62.5837C57.9287 62.6148 57.8878 62.646 57.8467 62.6771C57.4878 62.9485 57.123 63.2121 56.7527 63.4678C56.1702 63.8699 55.5741 64.2518 54.9654 64.6129C54.0569 65.1519 53.1211 65.6434 52.1618 66.0855C51.9277 66.1933 51.6922 66.2982 51.4554 66.3999L51.3487 66.4455C51.2231 66.4993 51.4722 66.3954 51.3455 66.4465C50.0267 66.9789 48.6879 67.4427 47.3083 67.7929C46.6236 67.9661 45.9329 68.1145 45.2375 68.238C44.9012 68.298 44.5641 68.3528 44.226 68.4025C44.1381 68.4155 44.05 68.4278 43.962 68.4403C43.7863 68.4651 44.0703 68.427 43.8941 68.4494C43.7044 68.4737 43.5146 68.4967 43.3246 68.5183C41.9291 68.6755 40.5243 68.7471 39.1201 68.7371C37.6853 68.7268 36.2523 68.6309 34.8289 68.4499C34.7673 68.4421 34.5948 68.4191 34.7523 68.4406C34.1167 68.3542 33.4835 68.2507 32.8535 68.1301C32.1464 67.9948 31.4436 67.8376 30.7463 67.6587C29.3689 67.3052 28.0133 66.8661 26.6929 66.3379C26.5361 66.275 26.3797 66.211 26.2238 66.1459C26.38 66.2111 26.1603 66.1184 26.1123 66.0976C25.6957 65.9177 25.2832 65.7285 24.8751 65.53C24.2359 65.2192 23.6079 64.8857 22.9932 64.5291C22.3785 64.1726 21.7816 63.7958 21.1983 63.3946C20.9125 63.1981 20.6305 62.996 20.3527 62.7884C20.2807 62.7345 20.209 62.6804 20.1375 62.626C20.0041 62.5248 20.2043 62.6794 20.0727 62.5759C19.9313 62.4651 19.7909 62.3529 19.6516 62.2395C18.5567 61.3454 17.5359 60.3599 16.6117 59.29C16.3756 59.0157 16.1453 58.7363 15.9211 58.4521C15.8175 58.3214 15.9699 58.5179 15.8687 58.3852C15.703 58.1683 15.5411 57.9484 15.3831 57.7258C14.9612 57.1314 14.5706 56.5154 14.2129 55.8803C13.8643 55.2608 13.5465 54.6244 13.2607 53.9736C13.2396 53.9255 13.2187 53.8773 13.1978 53.8291C13.1935 53.8193 13.1421 53.699 13.1807 53.7899C13.2192 53.8807 13.1684 53.7603 13.1643 53.7503C13.1443 53.7017 13.1244 53.6531 13.1046 53.6045C12.9024 53.1058 12.7178 52.6001 12.5512 52.0884C12.1015 50.7073 11.7971 49.2928 11.5831 47.8575C11.5675 47.7531 11.5862 47.8828 11.5879 47.8961C11.581 47.8436 11.5742 47.7911 11.5676 47.7386C11.5344 47.4756 11.5053 47.2121 11.4801 46.9483C11.4447 46.578 11.4167 46.207 11.3963 45.8355C11.3564 45.1029 11.3444 44.3691 11.3605 43.6355C11.3762 42.912 11.4184 42.1891 11.486 41.4686C11.5211 41.0939 11.5655 40.7205 11.6118 40.347C11.6247 40.2421 11.6088 40.3684 11.6068 40.3825L11.6235 40.2626C11.6366 40.1693 11.6501 40.0761 11.6641 39.983C11.692 39.7967 11.7216 39.6106 11.7528 39.4247C11.9988 37.9642 12.3437 36.522 12.7851 35.1082C13.0046 34.4042 13.2491 33.7083 13.5115 33.0192C13.6397 32.6826 13.7735 32.348 13.9126 32.0157C13.8521 32.1603 13.9468 31.9364 13.965 31.8943C13.9967 31.821 14.0286 31.7478 14.0608 31.6747C14.1412 31.4923 14.2234 31.3106 14.3071 31.1297C14.9087 29.831 15.5967 28.5718 16.3721 27.3687C16.7558 26.7734 17.1627 26.1943 17.5875 25.6278C17.6411 25.5564 17.6929 25.484 17.7466 25.4128C17.7682 25.3842 17.8816 25.2351 17.8439 25.2843C17.7915 25.3525 17.8685 25.2526 17.8726 25.2474C17.9039 25.2073 17.9354 25.1672 17.9668 25.1272C18.0219 25.0573 18.0773 24.9878 18.1331 24.9186C18.3765 24.6159 18.6268 24.3189 18.8838 24.0276C19.9146 22.8599 21.0922 21.7485 22.2968 20.8141C24.8187 18.858 27.7151 17.361 30.805 16.5459C32.2874 16.155 33.809 15.932 35.3412 15.8811C35.891 15.8627 35.8951 15.0261 35.3412 15.0239L35.3415 15.0239Z" fill="black"/>
<path d="M33.3397 23.4287C33.5312 24.1312 33.7123 24.8366 33.8829 25.5446C34.0547 26.2591 34.2154 26.9782 34.4051 27.6882C34.7829 29.1014 35.1582 30.5158 35.5608 31.9221C35.9634 33.3284 36.3711 34.7332 36.784 36.1365C37.4034 38.2415 37.6384 38.9204 38.0747 40.3091C38.5134 41.7048 38.9526 43.1005 39.4166 44.4881L39.5917 45.0111C39.6563 45.2038 39.7714 45.3727 39.9502 45.4773C40.1174 45.5751 40.3639 45.6166 40.5514 45.5559C40.9375 45.431 41.2326 45.0114 41.0962 44.5963C40.6393 43.2057 40.1735 41.8182 39.7118 40.4292C39.25 39.0403 38.7932 37.6492 38.3416 36.2567C37.8898 34.8638 37.415 33.4781 36.9582 32.0867C36.5036 30.7015 36.0376 29.3203 35.579 27.9365C35.1178 26.5452 34.5874 25.1764 34.1531 23.7764C34.0986 23.6008 34.0442 23.4251 33.9899 23.2495C33.9379 23.0812 33.7522 22.9567 33.5753 23.014C33.401 23.0704 33.2902 23.2463 33.3398 23.4287H33.3397Z" fill="black"/>
<path d="M38.6383 42.8153C43.3646 40.2528 48.5219 38.4876 53.8272 37.6165C54.3593 37.5292 54.9169 37.4526 55.4278 37.6249C55.9387 37.7971 56.3804 38.2985 56.2991 38.8316C56.2233 39.3277 55.7559 39.6536 55.3291 39.9176C51.0625 42.5568 46.632 45.0675 41.775 46.324C41.0818 46.5033 40.3563 46.657 39.6546 46.5141C38.9529 46.3711 38.2797 45.857 38.1671 45.1499C38.0195 44.2241 38.8185 43.4461 39.5428 42.851" fill="#8170F9"/>
<path d="M38.7962 43.0856C39.0486 42.963 39.2204 42.8848 39.4787 42.7819C39.7484 42.6746 40.0152 42.5658 40.2798 42.446C40.6356 42.2848 40.9935 42.128 41.3532 41.9756C41.4681 41.9266 41.2589 42.015 41.3732 41.9671L41.4736 41.925C41.5405 41.8971 41.6076 41.8693 41.6747 41.8416C41.9768 41.717 42.2802 41.5956 42.5847 41.4772C42.639 41.4561 42.6934 41.4354 42.7466 41.4114C42.6109 41.4726 42.7263 41.4204 42.7534 41.4093C42.877 41.3586 43.0007 41.3085 43.1247 41.2589C43.6208 41.0604 44.1201 40.8701 44.6225 40.6881C46.6226 39.9636 48.6667 39.3538 50.7417 38.8842C51.9045 38.621 53.08 38.3875 54.2615 38.225L54.0828 38.249C54.3995 38.2068 54.7186 38.1818 55.037 38.2198L54.8558 38.1955C55.0174 38.2175 55.1758 38.2546 55.327 38.3163L55.1632 38.2472C55.2799 38.2979 55.3899 38.3628 55.4906 38.4406L55.3513 38.333C55.4426 38.406 55.525 38.4895 55.5966 38.5818L55.4886 38.4419C55.5454 38.5189 55.5931 38.5998 55.6316 38.6874L55.5617 38.5218C55.5935 38.6001 55.6161 38.6798 55.629 38.7633L55.6042 38.5784C55.6134 38.6538 55.6139 38.7277 55.6057 38.8032L55.6306 38.6179C55.6185 38.7021 55.596 38.7845 55.5636 38.8632L55.6341 38.6962C55.596 38.7814 55.5483 38.8619 55.4918 38.9362L55.6015 38.7943C55.5054 38.9169 55.3924 39.022 55.2704 39.1183L55.413 39.0081C55.1672 39.1979 54.8952 39.3518 54.6298 39.5122C54.3295 39.694 54.0285 39.8746 53.7268 40.0541C53.128 40.4109 52.5254 40.7614 51.9193 41.1057C50.7024 41.7958 49.469 42.4596 48.2107 43.0714C47.5049 43.4152 46.79 43.7403 46.067 44.0462L46.2506 43.9687C44.8397 44.563 43.3938 45.0705 41.9127 45.4602C41.4784 45.5746 41.0415 45.6858 40.5959 45.746L40.8114 45.717C40.4742 45.7602 40.1399 45.7658 39.8026 45.7218L40.0201 45.751C39.8261 45.723 39.639 45.675 39.4574 45.601L39.6517 45.683C39.4822 45.6118 39.3223 45.5198 39.1755 45.4092L39.3392 45.5356C39.2122 45.4364 39.0978 45.322 38.9986 45.1949L39.1244 45.3577C39.0351 45.2343 38.9585 45.1148 38.891 44.9781L38.9692 45.1633C38.9235 45.0338 38.8815 44.9112 38.863 44.7742L38.8894 44.9707C38.8752 44.846 38.876 44.7201 38.8918 44.5956L38.8667 44.7828C38.8909 44.6159 38.949 44.4666 38.999 44.3073L38.933 44.4638C38.9791 44.3798 39.0093 44.288 39.0463 44.1998L38.9816 44.353C39.0427 44.212 39.1205 44.0796 39.1725 43.9346L39.0202 44.1959C39.0765 44.1233 39.1325 44.0506 39.1866 43.9762C39.2554 43.8817 39.0967 44.0866 39.1718 43.9951C39.1886 43.9747 39.205 43.9539 39.2218 43.9335C39.2931 43.8477 39.3671 43.7642 39.4437 43.6831C39.591 43.5266 39.738 43.3485 39.9038 43.212C40.1107 43.0415 40.0935 42.6643 39.9038 42.4901C39.6838 42.2882 39.4026 42.3082 39.1818 42.4901C39.3043 42.3892 39.1874 42.4775 39.1596 42.497C39.1343 42.5147 39.1091 42.5325 39.084 42.5504C38.9953 42.6138 38.9116 42.6848 38.8224 42.747C38.9932 42.6278 38.7718 42.7877 38.7238 42.828C38.6994 42.8485 38.6751 42.8693 38.651 42.8902C38.5907 42.9424 38.5316 42.996 38.4737 43.0507C38.4201 43.1014 38.3679 43.1534 38.317 43.2067C38.2775 43.2481 38.239 43.2904 38.2015 43.3336C38.299 43.2661 38.3045 43.2647 38.218 43.3292C38.0655 43.447 37.8941 43.636 37.802 43.8025L37.9044 43.6699C37.6441 43.994 37.4871 44.3742 37.4319 44.7852C37.3738 45.2174 37.456 45.6211 37.6447 46.012C37.8175 46.3698 38.1326 46.6498 38.4518 46.8746C38.7264 47.0681 39.0558 47.2103 39.3816 47.2889C40.2231 47.4919 41.0935 47.3337 41.9154 47.117C42.599 46.9367 43.2756 46.7294 43.9445 46.501C45.3304 46.0274 46.6885 45.4675 48.0151 44.8475C49.2977 44.2482 50.5526 43.5899 51.7822 42.8886C53.0192 42.183 54.235 41.4409 55.4414 40.6842C56.0562 40.2986 56.7283 39.8831 56.9443 39.1422C57.1801 38.3332 56.6874 37.4772 55.9618 37.1117C55.1768 36.7162 54.3169 36.8518 53.4877 36.9987C52.7875 37.1227 52.0902 37.2623 51.3962 37.4174C50.0072 37.7278 48.6326 38.0993 47.2764 38.5309C45.8838 38.974 44.5191 39.4924 43.1746 40.0645C42.5162 40.345 41.8674 40.6474 41.2292 40.9713C40.5991 41.2906 39.9519 41.6046 39.3592 41.9896C39.068 42.1787 38.778 42.3662 38.4804 42.545C38.3401 42.6294 38.2757 42.83 38.3681 42.9733C38.4658 43.1248 38.6384 43.1622 38.7963 43.0856H38.7962Z" fill="#8170F9"/>
<path d="M31.1508 18.3716C30.9356 18.7248 30.891 19.1373 30.9604 19.5386C30.9733 19.6129 30.9926 19.6862 31.0185 19.757C31.0552 19.8578 31.0949 19.9671 31.1541 20.0578C31.2133 20.1486 31.2842 20.2375 31.3608 20.315C31.4367 20.3919 31.5281 20.4719 31.6353 20.4963C31.7027 20.5117 31.775 20.5177 31.8444 20.5161C32.1206 20.5099 32.3246 20.2503 32.253 19.9797C32.2216 19.8609 32.1835 19.7619 32.0936 19.6692C32.0551 19.6303 32.0186 19.5895 31.9842 19.5469L32.0607 19.6459C31.9784 19.5371 31.9033 19.4215 31.8487 19.2962L31.8962 19.4087C31.8513 19.301 31.8204 19.188 31.8042 19.0725L31.8202 19.1914C31.8066 19.0829 31.8069 18.973 31.8211 18.8646L31.8059 18.9776C31.813 18.9302 31.8222 18.8831 31.835 18.8368C31.8458 18.7972 31.9064 18.6492 31.8493 18.7798C31.8945 18.6764 31.9213 18.5814 31.8901 18.4681C31.8642 18.3742 31.7917 18.2726 31.7042 18.2263C31.5073 18.1223 31.2684 18.1783 31.1507 18.3714L31.1508 18.3716ZM47.0917 63.6511L47.1426 64.0038C47.151 64.0612 47.157 64.1196 47.1676 64.1766C47.1785 64.2352 47.1983 64.2934 47.2137 64.3509C47.2295 64.4193 47.2628 64.4825 47.3102 64.5343C47.348 64.5928 47.4001 64.6406 47.4616 64.6732L47.5905 64.7276C47.66 64.75 47.7343 64.7533 47.8055 64.7372C47.8533 64.7373 47.9003 64.7246 47.9416 64.7004C48.0081 64.6788 48.0679 64.6404 48.1152 64.5889C48.2065 64.4894 48.287 64.3476 48.2732 64.2075C48.2674 64.1482 48.2622 64.0887 48.2552 64.0294C48.2426 63.9231 48.2225 63.8232 48.1998 63.7195L48.1226 63.3669C48.107 63.299 48.074 63.2363 48.0269 63.1851C47.9895 63.1272 47.9378 63.0798 47.8769 63.0474C47.8175 63.009 47.7489 62.9871 47.6782 62.984C47.6075 62.9681 47.5339 62.9713 47.465 62.9935C47.3357 63.0354 47.2109 63.1155 47.1456 63.2392L47.0917 63.3669C47.0663 63.4599 47.0663 63.5581 47.0917 63.6511ZM18.405 53.2439C19.009 52.9974 19.6472 52.8326 20.2896 52.7226C20.5162 52.6838 20.6635 52.3933 20.5957 52.1836C20.5176 51.9424 20.2985 51.8319 20.0566 51.8775C19.3782 52.0055 18.7334 52.2542 18.123 52.575C17.9617 52.6598 17.9057 52.872 17.9732 53.0321C18.0372 53.1837 18.2357 53.313 18.405 53.2439ZM61.7235 36.2309C61.9634 36.2013 62.1738 36.1445 62.3948 36.0457C62.5846 35.9608 62.7566 35.8389 62.9129 35.7025C63.0642 35.5704 63.2063 35.4074 63.3078 35.234C63.4247 35.0341 63.4706 34.7941 63.5002 34.5681C63.5108 34.4878 63.4534 34.369 63.3958 34.3161C63.337 34.2621 63.2708 34.2287 63.1912 34.2181C63.005 34.193 62.8651 34.3054 62.8002 34.4734C62.7954 34.4862 62.7904 34.4989 62.7852 34.5115L62.8061 34.4619C62.7955 34.4781 62.7894 34.4988 62.7809 34.5162C62.7632 34.5523 62.7442 34.5877 62.7238 34.6224C62.6824 34.6928 62.6318 34.7564 62.5877 34.8247C62.5655 34.8589 62.544 34.8932 62.5203 34.9264C62.5017 34.9525 62.4527 35.0014 62.5359 34.908C62.5246 34.9206 62.5146 34.9346 62.5038 34.9475C62.4515 35.0101 62.3949 35.069 62.3344 35.1237C62.3068 35.1487 62.2762 35.1708 62.2491 35.1962C62.3371 35.1133 62.2933 35.1626 62.2668 35.1818C62.2503 35.1938 62.2336 35.2055 62.2166 35.2169C62.1491 35.2623 62.0784 35.303 62.0052 35.3386C61.9975 35.3424 61.9542 35.3574 61.9499 35.3642C61.9617 35.3453 62.0483 35.325 61.9712 35.3545C61.9332 35.3691 61.8947 35.3822 61.8558 35.3939C61.7777 35.4174 61.6982 35.4342 61.6174 35.4457C61.5292 35.4582 61.4187 35.5533 61.3786 35.6294C61.3359 35.7101 61.3189 35.7934 61.3311 35.8842C61.3549 36.0611 61.5262 36.2552 61.7237 36.2308L61.7235 36.2309ZM50.1617 24.1527C50.1541 24.0813 50.1503 24.0102 50.1387 23.939C50.1345 23.913 50.1288 23.8877 50.1238 23.8618C50.1202 23.8436 50.1104 23.7643 50.1191 23.8442C50.1278 23.9242 50.1199 23.845 50.1184 23.827C50.1127 23.7579 50.112 23.6885 50.1163 23.6194C50.1174 23.6019 50.1194 23.5846 50.1203 23.5671C50.1256 23.4694 50.0982 23.6863 50.1164 23.5914C50.1246 23.5487 50.1326 23.5064 50.1425 23.4642C50.1637 23.3742 50.1888 23.2869 50.2201 23.2C50.2347 23.1594 50.2717 23.1226 50.2042 23.2358C50.2152 23.2173 50.2225 23.1958 50.232 23.1765C50.2514 23.1373 50.2722 23.0989 50.2946 23.0614C50.3194 23.0199 50.3467 22.9806 50.3739 22.9407C50.4221 22.8702 50.3062 23.0176 50.3485 22.9733C50.3633 22.9577 50.3764 22.9397 50.3906 22.9236C50.4484 22.8585 50.5126 22.7998 50.5779 22.7425C50.6114 22.7131 50.6791 22.6786 50.5519 22.7592C50.5702 22.7476 50.5874 22.7336 50.605 22.7211C50.6732 22.6731 50.7408 22.6249 50.7999 22.5659C50.9535 22.4126 51.0006 22.1381 50.8794 21.9502C50.7532 21.7545 50.5334 21.6643 50.3055 21.7166C50.0215 21.7818 49.783 22.013 49.61 22.2369C49.4512 22.4415 49.3299 22.6725 49.2518 22.9194C49.1806 23.143 49.1505 23.3854 49.1727 23.6194C49.1856 23.7549 49.2044 23.8926 49.2438 24.0233C49.2925 24.1853 49.3637 24.3088 49.471 24.4388C49.5728 24.562 49.7772 24.5798 49.913 24.5225C50.0481 24.4654 50.1784 24.3103 50.1616 24.1528L50.1617 24.1527ZM31.7033 63.114C31.9156 62.8327 32.125 62.5518 32.3239 62.2609L32.6162 61.8337C32.7167 61.6866 32.7902 61.5233 32.8706 61.3646C32.9582 61.1918 32.9285 60.989 32.7714 60.8676C32.6284 60.757 32.3928 60.753 32.2656 60.8977C32.1286 61.0535 31.9857 61.2048 31.8699 61.3775L31.5818 61.8071C31.3833 62.1033 31.1974 62.4053 31.013 62.7105C30.9048 62.8896 30.9675 63.1575 31.1564 63.2574C31.3668 63.3685 31.5682 63.2928 31.7033 63.114ZM59.5724 52.9407C59.7917 53.1695 60.0648 53.3322 60.3624 53.4369C60.514 53.4902 60.6684 53.5168 60.8277 53.5362C60.8897 53.5438 60.9476 53.5466 61.0097 53.5389C61.152 53.5212 61.2629 53.5057 61.3738 53.3988C61.393 53.3803 61.4098 53.3606 61.4265 53.3397C61.5072 53.2391 61.5514 53.1434 61.5338 53.012C61.5166 52.8845 61.4506 52.8002 61.3475 52.727C61.2741 52.6748 61.2046 52.6381 61.1109 52.6254C61.0505 52.617 60.9897 52.6128 60.9287 52.6128C60.8406 52.6134 60.7547 52.6128 60.6671 52.6021L60.7874 52.6182C60.653 52.6002 60.5234 52.5629 60.3985 52.5103L60.5028 52.5543C60.3852 52.5033 60.2742 52.4382 60.1722 52.3605L60.2579 52.4266C60.226 52.4015 60.195 52.3753 60.1649 52.3481C60.0026 52.2009 59.7306 52.1758 59.5724 52.3481C59.4162 52.5182 59.4103 52.7714 59.5724 52.9406V52.9407ZM19.5742 36.5659C19.6457 36.5467 19.7188 36.5378 19.7905 36.5207C19.7705 36.5255 19.7042 36.5299 19.7612 36.5258C19.7793 36.5246 19.7973 36.5226 19.8154 36.5215C19.8518 36.5192 19.8882 36.5181 19.9247 36.5182C19.9908 36.5183 20.0822 36.5101 20.1452 36.5318C20.1314 36.5271 20.0369 36.5146 20.1019 36.5268C20.1198 36.5302 20.1376 36.533 20.1554 36.5366C20.1957 36.5445 20.2355 36.5543 20.2757 36.5627C20.3478 36.5778 20.419 36.5954 20.4891 36.6182C20.5242 36.6295 20.5585 36.6434 20.5934 36.6554C20.653 36.6757 20.4915 36.6088 20.548 36.6358C20.5645 36.6437 20.5814 36.6509 20.5978 36.6588C20.6638 36.6911 20.7291 36.7249 20.7935 36.7602C20.8748 36.8038 20.9545 36.8387 21.0457 36.851C21.0243 36.8481 21.2203 36.8739 21.0967 36.857C21.0028 36.8442 21.0926 36.8572 21.108 36.8598C21.2907 36.8909 21.4601 36.853 21.5787 36.6994C21.6934 36.551 21.6955 36.367 21.6138 36.2019C21.5458 36.0647 21.4572 35.9594 21.3274 35.8742C21.2284 35.8094 21.117 35.766 21.0069 35.724C20.8149 35.6509 20.6108 35.6144 20.4067 35.5954C20.2146 35.5775 20.0079 35.6098 19.8211 35.6503C19.6309 35.6916 19.4466 35.7639 19.2738 35.853C19.1011 35.942 19.0427 36.1706 19.1142 36.3401C19.1892 36.5178 19.3849 36.6169 19.5744 36.5659H19.5742ZM40.115 43.5986C40.0721 43.6171 40.031 43.6395 39.9922 43.6654C39.8786 43.7414 39.8026 43.8361 39.7263 43.9491C39.6471 44.0678 39.5906 44.2002 39.5598 44.3396C39.5404 44.4284 39.522 44.5215 39.5269 44.6126C39.5367 44.7966 39.599 44.9687 39.7354 45.0978C39.9056 45.2587 40.1371 45.3096 40.3638 45.2826C40.506 45.2657 40.6459 45.2485 40.7794 45.1949C40.9608 45.1219 41.105 45.0465 41.2501 44.9106C41.386 44.7833 41.4717 44.6269 41.533 44.4536C41.5621 44.3713 41.5699 44.2742 41.579 44.1908C41.5836 44.1477 41.5838 44.1057 41.579 44.0626C41.564 43.9243 41.549 43.8408 41.4972 43.7182C41.4474 43.6002 41.4008 43.5288 41.3119 43.4256C41.1511 43.2389 40.9074 43.1562 40.669 43.143L40.8355 43.1654C40.6606 43.1396 40.5324 43.126 40.357 43.1748C40.2125 43.215 40.0572 43.3133 39.9573 43.4239C39.8514 43.5413 39.7646 43.6716 39.7253 43.8271C39.6881 43.9743 39.6779 44.1669 39.736 44.3102C39.7664 44.4203 39.8249 44.5207 39.9057 44.6014L40.0392 44.7046C40.1402 44.7638 40.2551 44.7949 40.3722 44.7946C40.4604 44.7987 40.5482 44.7791 40.6263 44.7378C40.7077 44.7114 40.7808 44.6645 40.8386 44.6014C40.9016 44.5436 40.9486 44.4705 40.975 44.3891C41.0163 44.311 41.0359 44.2232 41.0318 44.135C41.032 44.0179 41.0009 43.903 40.9418 43.802L40.9374 43.7918L41.0038 43.9494C40.9975 43.9328 40.993 43.9155 40.9905 43.8979L41.014 44.0731C41.0123 44.0562 41.0123 44.0391 41.0142 44.0222L40.9907 44.1972C40.9939 44.1767 40.9993 44.1575 41.0069 44.1382L40.9406 44.2954C40.9507 44.2726 40.963 44.2521 40.978 44.2321L40.8753 44.365C40.8938 44.342 40.9142 44.3219 40.9373 44.3036L40.8046 44.4061C40.845 44.376 40.8894 44.3455 40.9356 44.3254L40.7835 44.3896C40.8003 44.3829 40.8176 44.3774 40.8352 44.3733L40.6687 44.3957C40.687 44.3946 40.7047 44.3952 40.7229 44.3974L40.557 44.375C40.579 44.3786 40.5997 44.3843 40.6203 44.3927L40.472 44.3301C40.4964 44.3414 40.5186 44.355 40.5398 44.3714L40.4148 44.2748C40.4351 44.2916 40.453 44.3098 40.4696 44.3302L40.3735 44.2059C40.394 44.233 40.4106 44.2619 40.4242 44.293L40.3626 44.1473C40.3771 44.1831 40.387 44.2198 40.3929 44.2579L40.3713 44.097C40.3774 44.144 40.3774 44.1906 40.3714 44.2376L40.3929 44.0782C40.3865 44.121 40.375 44.1628 40.3586 44.2027L40.4185 44.0609C40.4014 44.0994 40.3797 44.1345 40.3541 44.168L40.4462 44.0489C40.4147 44.0881 40.379 44.1237 40.3396 44.155L40.4574 44.0639C40.402 44.1065 40.3421 44.1405 40.2782 44.1684L40.4152 44.1106C40.324 44.1482 40.2284 44.1742 40.1307 44.1881L40.2799 44.168C40.249 44.1727 40.2176 44.1738 40.1864 44.1712L40.3345 44.1911C40.3217 44.1891 40.3091 44.1861 40.2969 44.1821L40.4296 44.2381C40.4179 44.2332 40.4069 44.227 40.3967 44.2195L40.5088 44.3062C40.5019 44.3005 40.4956 44.294 40.4902 44.2869L40.5767 44.3988C40.5713 44.3914 40.5666 44.3834 40.5629 44.375L40.6185 44.5068C40.6117 44.4893 40.6071 44.471 40.6046 44.4524L40.6242 44.5984C40.619 44.5459 40.6197 44.493 40.6261 44.4407L40.6069 44.5837C40.6165 44.5121 40.6356 44.442 40.6637 44.3754L40.6111 44.5001C40.6318 44.4532 40.6596 44.4118 40.6838 44.367C40.7072 44.3235 40.7262 44.2793 40.7538 44.2378L40.8009 44.1262C40.8203 44.066 40.8232 44.0017 40.8092 43.94C40.796 43.842 40.7558 43.7406 40.6807 43.6718C40.6215 43.6173 40.5512 43.5763 40.4746 43.5516C40.4144 43.5321 40.35 43.5293 40.2883 43.5433C40.2265 43.546 40.1666 43.5651 40.1146 43.5987L40.115 43.5986ZM44.9703 40.983C45.032 41.5055 45.095 42.0278 45.155 42.5506L45.2427 43.3147C45.2746 43.5929 45.2957 43.8723 45.364 44.1442C45.4307 44.4096 45.8578 44.3586 45.8464 44.0789C45.8352 43.8049 45.7796 43.5381 45.7325 43.2683L45.5966 42.4908C45.5061 41.9723 45.4185 41.4532 45.3296 40.9344C45.2952 40.7335 44.9459 40.7777 44.9702 40.983H44.9703ZM46.519 40.2824L46.6954 41.7837L46.7814 42.5146C46.7961 42.6397 46.8098 42.7649 46.8255 42.8898C46.8351 42.9662 46.8441 43.0482 46.8669 43.1223C46.8886 43.1927 46.931 43.2554 46.9689 43.3177C47.0664 43.4775 47.3246 43.4525 47.3738 43.2648C47.413 43.1149 47.4174 42.9867 47.3944 42.833C47.3758 42.7085 47.3513 42.5845 47.3294 42.4605L47.198 41.7157L46.9351 40.2262C46.8941 39.9938 46.491 40.0446 46.5189 40.2825L46.519 40.2824ZM48.4474 40.1813C48.4924 40.4922 48.5502 40.8013 48.6224 41.1071C48.6584 41.2598 48.6975 41.4118 48.7407 41.5626C48.7623 41.6378 48.7866 41.713 48.8154 41.7858C48.8565 41.8902 48.9246 41.9493 49.0087 42.0175C49.127 42.1135 49.3312 42.095 49.3709 41.9219C49.3934 41.8234 49.423 41.7259 49.4006 41.6245C49.3839 41.5488 49.3567 41.473 49.3328 41.3993C49.2843 41.2501 49.2389 41.0998 49.1966 40.9487C49.113 40.6466 49.0427 40.341 48.986 40.0327C48.9594 39.8887 48.7774 39.794 48.6424 39.8376C48.4836 39.889 48.4249 40.0257 48.4473 40.1812L48.4474 40.1813ZM52.321 39.361L51.8542 39.4777C51.7943 39.4915 51.739 39.5206 51.6937 39.5622C51.6425 39.5952 51.6007 39.6408 51.5722 39.6946C51.5383 39.747 51.5189 39.8076 51.5162 39.87C51.5021 39.9323 51.505 39.9973 51.5246 40.0582L51.5722 40.1709C51.6131 40.2409 51.6714 40.2992 51.7414 40.3402L51.8542 40.3878C51.9363 40.4102 52.0229 40.4102 52.105 40.3878L52.5719 40.271C52.6318 40.2572 52.6871 40.2281 52.7324 40.1866C52.7835 40.1535 52.8254 40.1079 52.8539 40.0542C52.8878 40.0017 52.9072 39.9411 52.9099 39.8787C52.924 39.8164 52.9211 39.7514 52.9015 39.6906L52.8539 39.5778C52.813 39.5078 52.7547 39.4495 52.6846 39.4086L52.5719 39.361C52.4898 39.3385 52.4032 39.3385 52.321 39.361Z" fill="#F45B5B"/>
<path d="M20.5977 64.489C23.7688 71.1536 30.7353 75.5315 38.0163 76.7398C39.5761 76.9986 41.1633 77.1287 42.7405 77.0167C44.5184 76.8905 46.2589 76.4595 47.9873 76.0247C49.127 75.7381 50.2761 75.4453 51.3283 74.9219C52.2253 74.4758 53.0337 73.8706 53.8022 73.228C57.1006 70.4705 59.864 66.6627 60.0313 62.3668C58.0712 65.1783 55.1904 67.3365 51.9415 68.4275C50.3396 68.9655 48.6643 69.2481 46.9921 69.4917C44.282 69.8864 41.5587 70.184 38.8274 70.3839C37.5661 70.4763 36.2956 70.5475 35.0393 70.4019C33.8597 70.2653 32.7113 69.9396 31.5689 69.6151L25.0802 67.7723C24.0765 67.4872 23.065 67.1991 22.1377 66.7205" fill="black"/>
<path d="M20.2494 64.585C20.3742 64.9747 20.5014 65.3637 20.6771 65.733C20.8449 66.0857 21.0235 66.4331 21.2126 66.7748C21.5876 67.4528 22.0208 68.0984 22.4848 68.7191C22.6714 68.9681 22.8622 69.2139 23.057 69.4565C22.9326 69.3017 23.1265 69.5437 23.1679 69.5925C23.2057 69.637 23.2445 69.6807 23.283 69.7245C23.5402 70.0168 23.8053 70.3019 24.0781 70.5797C24.6241 71.1355 25.1993 71.6656 25.8027 72.1587C28.2998 74.1996 31.2165 75.7406 34.2918 76.7049C35.9492 77.2245 37.6551 77.5713 39.3808 77.7641C40.3941 77.8774 41.4162 77.9241 42.435 77.8727C43.4875 77.8196 44.536 77.6621 45.5683 77.4543C46.5494 77.2569 47.5206 77.0125 48.4907 76.7675C49.4717 76.5197 50.4357 76.2405 51.3646 75.8349C52.2895 75.4309 53.1121 74.8563 53.9025 74.235C54.5812 73.7012 55.2292 73.1295 55.8433 72.5225C58.2371 70.1579 60.2391 67.1477 60.7265 63.7589C60.7929 63.2964 60.8431 62.8337 60.8602 62.3667C60.873 62.0185 60.595 61.6456 60.2516 61.5673C59.8738 61.4813 59.5316 61.6324 59.3154 61.9483C59.2384 62.0602 59.1593 62.1706 59.0781 62.2796C59.0345 62.3383 58.9907 62.3968 58.9465 62.4551C58.9357 62.4693 58.8701 62.5536 58.9349 62.4705C59.0022 62.3842 58.9158 62.4943 58.9033 62.5101C58.7285 62.7313 58.5478 62.9479 58.3616 63.1597C57.9889 63.5832 57.5942 63.9869 57.1793 64.3692C56.8719 64.6525 56.5537 64.9238 56.2255 65.1827C56.1928 65.2085 56.1602 65.235 56.1268 65.26C56.1311 65.2568 56.2474 65.1685 56.1719 65.2246C56.1132 65.2682 56.0553 65.3129 55.9965 65.3564C55.5346 65.6984 55.0551 66.0158 54.5598 66.3073C54.0735 66.5935 53.5726 66.8541 53.0591 67.088C53.007 67.1117 52.7208 67.2756 52.6862 67.2521C52.6859 67.2519 52.8354 67.1907 52.7434 67.2274C52.7143 67.239 52.6855 67.2513 52.6565 67.2631C52.5791 67.2946 52.5015 67.3254 52.4235 67.3556C52.1545 67.4599 51.8827 67.5568 51.6083 67.6462C50.3124 68.0688 48.9703 68.328 47.6255 68.5374C46.9393 68.6443 46.2512 68.7396 45.563 68.8337C45.4265 68.8525 45.6949 68.8165 45.5581 68.8344L45.4418 68.8498L45.2091 68.8804C44.666 68.9511 44.1224 69.0179 43.5783 69.0807C42.1792 69.2424 40.7773 69.3784 39.3732 69.4885C37.9848 69.5974 36.5831 69.7077 35.1929 69.5665C35.1038 69.5574 35.015 69.5461 34.9262 69.5361C34.8254 69.5248 34.9526 69.5396 34.965 69.5415C34.9275 69.5358 34.89 69.5306 34.8526 69.5249C34.6779 69.4984 34.5038 69.4684 34.3303 69.435C33.9954 69.3709 33.6628 69.2953 33.3319 69.2129C32.6643 69.0469 32.0036 68.8542 31.3418 68.6666C28.6646 67.9076 25.9792 67.1737 23.3044 66.4078C23.1534 66.3646 23.0072 66.3081 22.8613 66.2501C22.8318 66.2385 22.6695 66.1689 22.7699 66.2133C22.681 66.174 22.591 66.1366 22.5045 66.0925C22.166 65.9197 21.7002 65.9927 21.5096 66.3533C21.3342 66.6853 21.4087 67.1637 21.7705 67.3482C22.3961 67.6675 23.039 68.0057 23.7059 68.2313C24.3729 68.4569 25.0483 68.6442 25.7222 68.836L29.8714 70.0165C31.2337 70.4041 32.5946 70.8411 33.9892 71.0984C35.4542 71.3686 36.921 71.3663 38.4022 71.2673C41.3254 71.0717 44.2435 70.7542 47.1421 70.3286C48.5148 70.1271 49.8881 69.9021 51.2268 69.5317C52.4474 69.1941 53.635 68.7233 54.7531 68.128C56.8307 67.0217 58.6895 65.4675 60.1345 63.6093C60.3449 63.3387 60.5473 63.0636 60.7469 62.785L59.2021 62.3666C59.1931 62.5631 59.1789 62.7592 59.1598 62.9549C59.1506 63.0473 59.1394 63.1393 59.1286 63.2314C59.1048 63.4351 59.1505 63.0939 59.1293 63.2235C59.1177 63.2943 59.108 63.3654 59.0962 63.4363C59.0323 63.8197 58.949 64.1996 58.8464 64.5745C58.741 64.9593 58.6169 65.3387 58.4745 65.7113C58.4416 65.7975 58.4078 65.8834 58.3732 65.9689C58.3689 65.9795 58.2905 66.167 58.3453 66.0378C58.4001 65.9086 58.3198 66.0954 58.3153 66.1059C58.2326 66.2942 58.1458 66.4806 58.0549 66.6649C57.6962 67.3906 57.284 68.0886 56.8217 68.7532C56.7143 68.9078 56.6044 69.0606 56.4921 69.2117C56.4653 69.2478 56.2592 69.523 56.3975 69.3393C56.3344 69.4231 56.2681 69.5046 56.2025 69.5864C55.9456 69.906 55.6789 70.2177 55.4028 70.5209C54.8519 71.1264 54.2655 71.6993 53.6513 72.2404C53.3236 72.5289 52.9882 72.8084 52.6453 73.0785C52.5194 73.1777 52.6217 73.0965 52.647 73.0773C52.5995 73.1134 52.5518 73.1494 52.504 73.1852C52.4179 73.2494 52.331 73.3126 52.2435 73.3749C52.0493 73.5132 51.8509 73.6455 51.6485 73.7715C51.4564 73.8911 51.2601 74.0038 51.0598 74.1093C50.9116 74.1871 50.7611 74.2606 50.6086 74.3296C50.5736 74.3455 50.3342 74.4462 50.5142 74.3725C50.0926 74.5451 49.6613 74.6911 49.2247 74.8206C48.3022 75.0943 47.3628 75.3192 46.4271 75.5426C45.9562 75.655 45.4838 75.7617 45.009 75.8563C44.7595 75.9062 44.5092 75.9524 44.2583 75.9948C44.158 76.0117 44.0576 76.0279 43.957 76.0434C43.8817 76.055 43.8061 76.0657 43.7307 76.077C43.5453 76.1049 43.8553 76.0633 43.6514 76.0878C42.6754 76.2053 41.6975 76.246 40.7153 76.2008C40.2184 76.1774 39.7224 76.1365 39.2284 76.0784C39.1017 76.0637 38.9751 76.0479 38.8486 76.031C39.0161 76.0535 38.7461 76.0157 38.6911 76.0077C37.702 75.8622 36.7221 75.6599 35.7563 75.4016C35.0121 75.2028 34.2783 74.9687 33.553 74.7095C33.1905 74.5799 32.8308 74.4423 32.4743 74.2968C32.3926 74.2634 32.3114 74.2242 32.2282 74.1948C32.4421 74.2702 32.1394 74.1558 32.0961 74.1369C31.915 74.0579 31.7348 73.9768 31.5556 73.8935C30.1726 73.2512 28.8459 72.4859 27.6046 71.5997C27.4214 71.4689 27.2402 71.3355 27.0609 71.1995C27.0561 71.1959 26.9024 71.0793 26.9993 71.1529C27.0962 71.2266 26.943 71.109 26.9382 71.1053C26.8558 71.0406 26.7728 70.9767 26.6903 70.9119C26.8428 71.0317 26.6059 70.8444 26.569 70.8147C26.3555 70.6435 26.1451 70.4683 25.9381 70.2894C25.363 69.7931 24.8144 69.2667 24.2948 68.7125C23.7778 68.1605 23.2676 67.6068 22.7994 67.0117C22.7755 66.9813 22.7517 66.9509 22.728 66.9204C22.8043 67.0188 22.6868 66.8659 22.6824 66.8601C22.6352 66.7979 22.5882 66.7356 22.542 66.6727C22.5074 66.6256 22.4754 66.5766 22.441 66.5293C22.445 66.5349 22.29 66.3397 22.3666 66.4378C22.3005 66.3532 22.2388 66.2647 22.1761 66.1776C21.9535 65.8683 21.7403 65.5524 21.5366 65.2304C21.3381 64.9162 21.1198 64.627 20.9093 64.3067C20.6942 63.9793 20.1185 64.1769 20.2491 64.585H20.2494Z" fill="black"/>
<path d="M33.1028 70.4916C32.9819 70.8444 32.8359 71.2033 32.7659 71.5706C32.7266 71.777 32.6981 71.9861 32.675 72.1948C32.6496 72.4234 32.6102 72.6586 32.7191 72.8717C32.8468 73.1214 33.2284 73.1053 33.3603 72.8717C33.4734 72.6716 33.4415 72.4177 33.4553 72.1948C33.4631 72.0696 33.474 71.9447 33.4882 71.82C33.4897 71.807 33.5078 71.6625 33.4985 71.7337C33.5222 71.553 33.5409 71.3377 33.5612 71.2046C33.5898 71.0178 33.6322 70.8335 33.6879 70.6529C33.7343 70.5012 33.6327 70.3154 33.476 70.2797C33.3075 70.2413 33.1579 70.3307 33.1028 70.4916ZM36.1189 70.6536C36.06 70.803 35.9905 70.9553 35.9531 71.1116C35.9173 71.2627 35.8842 71.4144 35.8539 71.5667C35.7862 71.9042 35.7327 72.2439 35.6874 72.585C35.6511 72.8588 35.5966 73.155 35.621 73.4316C35.6389 73.6339 35.6903 73.8049 35.8377 73.9534C36.0268 74.1439 36.337 74.1463 36.5243 73.9556C36.608 73.8704 36.6479 73.7394 36.6122 73.623C36.6056 73.5995 36.6063 73.6091 36.6142 73.6516C36.6236 73.6948 36.6211 73.7379 36.6066 73.7811C36.615 73.7112 36.6223 73.6595 36.6129 73.59C36.6102 73.5306 36.5918 73.473 36.5596 73.423L36.5877 73.4925C36.5887 73.4803 36.575 73.4387 36.5719 73.4263C36.5662 73.4028 36.5594 73.3791 36.5529 73.3559C36.5314 73.2791 36.5571 73.4504 36.5575 73.3939C36.5577 73.3439 36.5546 73.2945 36.5565 73.2444C36.5671 72.9664 36.5832 72.688 36.6052 72.4108C36.6216 72.2048 36.6425 71.9992 36.6679 71.7941L36.6802 71.6981C36.6683 71.7912 36.6851 71.6637 36.6863 71.6556C36.7095 71.4916 36.7454 71.3273 36.7605 71.1624C36.7732 71.0234 36.7786 70.8836 36.7905 70.7445C36.805 70.5754 36.6492 70.4295 36.494 70.4086C36.3146 70.3845 36.1823 70.4928 36.1189 70.6536ZM39.025 70.7651C38.8931 70.8882 38.8751 71.0868 38.8412 71.2559C38.808 71.4216 38.8012 71.5925 38.7939 71.761C38.7818 72.0426 38.7839 72.3248 38.8003 72.6061C38.8183 72.9165 38.8485 73.2303 38.9064 73.5359C38.9321 73.6714 38.9612 73.8062 38.9935 73.9403C39.0174 74.039 39.0505 74.1435 39.0985 74.2331C39.1446 74.319 39.212 74.3855 39.2799 74.4537C39.4823 74.6569 39.8735 74.5728 39.9399 74.2794C39.9599 74.1908 39.9855 74.103 39.9848 74.0114C39.9843 73.9181 39.9619 73.8109 39.9403 73.7182C39.9092 73.5838 39.8777 73.4497 39.8514 73.3142C39.8251 73.1787 39.7979 73.0442 39.7739 72.9087C39.7619 72.8411 39.7507 72.7733 39.7404 72.7054C39.7358 72.6748 39.7294 72.6437 39.7268 72.6129C39.7367 72.733 39.7261 72.6056 39.7239 72.5874C39.6902 72.3131 39.6701 72.0373 39.6637 71.761C39.6607 71.6298 39.6686 71.497 39.6577 71.3664C39.6438 71.1997 39.6694 70.975 39.5695 70.8352C39.4378 70.651 39.1995 70.6021 39.0249 70.7651H39.025ZM42.1659 72.6521L42.327 72.7839L42.4075 72.8497C42.4545 72.8881 42.5022 72.9326 42.553 72.9645C42.6109 73.0007 42.6699 73.0351 42.7284 73.0704L42.7697 73.0953C42.8233 73.1277 42.8828 73.1437 42.9454 73.1461C42.9735 73.1472 43.0017 73.1465 43.0298 73.1468C43.0999 73.1473 43.1617 73.1139 43.2037 73.0595C43.249 73.0009 43.2569 72.9381 43.2434 72.8664C43.2381 72.8383 43.2333 72.8101 43.2275 72.7821C43.2114 72.7048 43.1573 72.647 43.107 72.5896C43.0615 72.5376 43.017 72.4844 42.9702 72.4336C42.9254 72.3848 42.8687 72.3442 42.8184 72.3011L42.6562 72.1619C42.5854 72.1011 42.507 72.0604 42.411 72.0604C42.3259 72.0604 42.2243 72.0981 42.1658 72.1619C42.1051 72.228 42.0601 72.3147 42.0643 72.4071C42.0681 72.4936 42.0959 72.5951 42.1658 72.6523L42.1659 72.6521ZM47.486 71.7589C47.6951 71.7589 47.8954 71.575 47.8857 71.3592C47.876 71.1433 47.7101 70.9595 47.486 70.9595C47.277 70.9595 47.0767 71.1433 47.0863 71.3592C47.096 71.575 47.2619 71.7589 47.486 71.7589Z" fill="#8170F9"/>
<path d="M6.55427 14.8655C6.77899 13.7469 7.33563 12.7323 8.15611 11.9447C8.26915 11.8362 8.38963 11.7362 8.50427 11.6295C8.62595 11.5163 8.74179 11.3986 8.86155 11.2833C9.05907 11.0931 8.80811 10.7889 8.57563 10.9127C8.29627 11.0614 8.05827 11.2444 7.83907 11.4727C7.62491 11.6957 7.42851 11.9363 7.24907 12.1881C6.90299 12.6737 6.62691 13.2149 6.42763 13.7767C6.3144 14.0966 6.22938 14.4258 6.17355 14.7605C6.15595 14.8655 6.20123 14.9731 6.31147 15.0034C6.40883 15.0301 6.53323 14.9705 6.55435 14.8655L6.55427 14.8655ZM8.04779 17.2275C8.16235 16.7981 8.28587 16.3715 8.40147 15.9425C8.51531 15.5198 8.64835 15.1014 8.81595 14.6967C8.83915 14.6407 8.80259 14.7275 8.82635 14.672C8.85776 14.5986 8.89052 14.5257 8.92459 14.4535C8.96756 14.3619 9.01269 14.2713 9.05995 14.1818C9.1477 14.0156 9.24185 13.853 9.34219 13.6941C9.41489 13.5794 9.49174 13.4673 9.57259 13.3582C9.58507 13.3415 9.59763 13.3248 9.61027 13.3082C9.56851 13.3632 9.63067 13.2829 9.63363 13.2792C9.74722 13.1373 9.86906 13.0022 9.99851 12.8745C10.0721 12.8019 10.1484 12.7321 10.2271 12.6651C10.2665 12.6316 10.3067 12.5993 10.3469 12.5671C10.3935 12.5297 10.2825 12.6129 10.3629 12.5554C10.3839 12.5403 10.4044 12.5249 10.4255 12.5099C10.5972 12.3876 10.7738 12.2662 10.9548 12.1579C11.0195 12.1191 11.0682 12.0582 11.0917 11.9864C11.1152 11.9146 11.1121 11.8367 11.0828 11.7671C11.027 11.6347 10.86 11.5306 10.7136 11.5859C10.512 11.6619 10.3171 11.7453 10.1392 11.8676C9.96606 11.9866 9.80117 12.1172 9.64571 12.2586C9.34763 12.53 9.08843 12.8447 8.86203 13.1778C8.36803 13.9044 8.07715 14.7559 7.87315 15.6047C7.74915 16.1207 7.68427 16.6433 7.62203 17.1698C7.60955 17.2753 7.71403 17.3712 7.80995 17.3826C7.91499 17.3951 8.01939 17.3335 8.04771 17.2274L8.04779 17.2275ZM10.9412 16.4311L11.3788 15.9059C11.4093 15.8776 11.4309 15.8441 11.4436 15.8052C11.4631 15.7679 11.4721 15.7277 11.4705 15.6847C11.4705 15.6079 11.4364 15.5162 11.3788 15.4633C11.3191 15.4085 11.2408 15.3679 11.1575 15.3716C11.0789 15.3751 10.9886 15.4004 10.9361 15.4633L10.4984 15.9885C10.4684 16.0158 10.4461 16.0506 10.4337 16.0892C10.4142 16.1263 10.4049 16.1679 10.4067 16.2098C10.4067 16.2866 10.4408 16.3783 10.4984 16.4311C10.5581 16.4859 10.6364 16.5266 10.7198 16.5228C10.7983 16.5193 10.8887 16.494 10.9412 16.4311ZM30.4135 3.20083C30.0543 3.24267 29.6975 3.30363 29.3472 3.39467C29.0009 3.48467 28.6709 3.61003 28.3454 3.75843C27.7043 4.05075 27.1111 4.43891 26.5748 4.89531C26.0335 5.35603 25.5638 5.89899 25.1808 6.49779C24.9446 6.86715 24.7408 7.27523 24.811 7.72555C24.8823 8.18299 25.2851 8.46475 25.7116 8.55859C26.4788 8.72739 27.4959 8.72419 28.0453 8.06907C28.1895 7.89715 28.2141 7.70699 28.118 7.50571C27.9787 7.21403 27.6344 7.08379 27.3281 7.09715C27.0867 7.10763 26.8517 7.17843 26.6278 7.26491C26.1639 7.44411 25.7496 7.69315 25.3698 8.01427C24.676 8.60075 24.1635 9.42803 23.9354 10.3065C23.8662 10.573 23.8171 10.8531 23.8099 11.1285C23.8027 11.4039 23.8436 11.6795 23.9071 11.9471C23.9603 12.1711 24.1958 12.3076 24.4143 12.2783C24.6304 12.2492 24.8272 12.0549 24.8151 11.8242C24.8048 11.6287 24.8157 11.4347 24.8264 11.2396C24.8314 11.1469 24.8414 11.0546 24.8499 10.9621C24.854 10.9183 24.8827 10.7569 24.8509 10.933C24.8607 10.8782 24.8675 10.8229 24.8778 10.7681C24.922 10.5304 24.9885 10.2974 25.0763 10.0722C25.083 10.0548 25.0901 10.0376 25.0968 10.0203C25.1344 9.92299 25.047 10.133 25.0893 10.0375C25.1307 9.94362 25.1752 9.85114 25.2229 9.76027C25.3125 9.59121 25.4136 9.42853 25.5256 9.27339L25.5669 9.21707C25.614 9.15219 25.5454 9.24515 25.5407 9.25035C25.5719 9.21611 25.5989 9.17707 25.6287 9.14147C25.6945 9.06285 25.7633 8.98674 25.8348 8.91331C25.9321 8.81338 26.0347 8.71871 26.1421 8.62971C26.1636 8.61195 26.1854 8.59467 26.207 8.57715C26.2768 8.52051 26.1188 8.64163 26.1973 8.58491C26.3556 8.47051 26.5178 8.36411 26.691 8.27347C26.7731 8.23052 26.8569 8.19075 26.9421 8.15427C26.8756 8.18211 26.8592 8.18918 26.893 8.17547C26.9933 8.13715 27.0934 8.10003 27.1964 8.06939C27.2469 8.0548 27.2978 8.04212 27.3492 8.03139C27.4392 8.01203 27.2535 8.03139 27.3149 8.03659C27.3431 8.03899 27.3769 8.03579 27.4054 8.03443C27.4777 8.03099 27.3655 8.03027 27.3557 8.02523C27.3716 8.0279 27.3874 8.03139 27.403 8.03571C27.4491 8.05086 27.4337 8.04342 27.3568 8.01339C27.3926 8.03323 27.3891 8.04675 27.319 7.97739C27.3697 8.02763 27.2617 7.86851 27.3151 7.97499L27.3878 7.41163C27.3438 7.46611 27.2949 7.51251 27.2443 7.56059C27.2018 7.60099 27.3227 7.50587 27.274 7.53843C27.2628 7.54595 27.252 7.55419 27.2408 7.56171C27.2071 7.58432 27.1722 7.60504 27.1363 7.62387C27.1083 7.63867 27.0788 7.65043 27.0507 7.66507C27.171 7.60251 27.0671 7.65587 27.0321 7.66723C26.9611 7.69027 26.8884 7.70811 26.8151 7.72171C26.7965 7.72515 26.6842 7.74819 26.763 7.73099C26.8404 7.71403 26.7291 7.73331 26.7089 7.73491C26.6316 7.74088 26.5541 7.74366 26.4764 7.74323C26.3268 7.74259 26.1787 7.72923 26.03 7.71363C25.97 7.70731 26.124 7.72819 26.0636 7.71835C26.0493 7.71603 26.0348 7.71411 26.0205 7.71171C25.982 7.70549 25.9436 7.6981 25.9056 7.68955C25.8724 7.68209 25.8396 7.67339 25.8071 7.66347C25.7888 7.65787 25.7709 7.65027 25.7525 7.64523C25.7023 7.63147 25.8464 7.69627 25.7671 7.65115C25.7388 7.63507 25.7111 7.61827 25.6831 7.60203C25.6345 7.57395 25.7444 7.66211 25.7077 7.61987C25.699 7.60987 25.6878 7.60011 25.6781 7.59091C25.6222 7.53763 25.6971 7.60467 25.6947 7.61427C25.6959 7.60963 25.6594 7.56803 25.6633 7.56035C25.6657 7.55563 25.6942 7.66803 25.674 7.58075C25.6708 7.56683 25.6683 7.53331 25.6601 7.52235C25.6935 7.56731 25.6628 7.60131 25.6664 7.54867C25.6676 7.52891 25.667 7.50699 25.6671 7.48739C25.6675 7.43019 25.6888 7.48003 25.662 7.51027C25.668 7.50347 25.6692 7.47267 25.6712 7.46339C25.6793 7.42648 25.6892 7.39006 25.7008 7.35411C25.7076 7.33323 25.7154 7.31291 25.7224 7.29219C25.7565 7.19251 25.6958 7.34307 25.7232 7.28899C25.796 7.14437 25.8755 7.00323 25.9615 6.86603C26.064 6.70303 26.1735 6.54446 26.2895 6.39075C26.3007 6.37587 26.3181 6.35835 26.3263 6.34243C26.3254 6.34419 26.2774 6.40435 26.307 6.36779C26.358 6.30459 26.4086 6.24115 26.4608 6.17899C26.6627 5.93767 26.8798 5.70955 27.1109 5.49603C27.2227 5.39305 27.3378 5.29364 27.4559 5.19795C27.4875 5.17243 27.5194 5.14755 27.5511 5.12227C27.5856 5.09467 27.5343 5.13523 27.5315 5.13723L27.5801 5.10035C27.8966 4.86201 28.2321 4.64999 28.5832 4.46643C28.736 4.38659 28.8919 4.31395 29.0493 4.24395C29.0629 4.23787 29.1135 4.21699 29.0465 4.24483L29.1028 4.22155C29.1644 4.19642 29.2256 4.17026 29.2863 4.14307C29.3355 4.12091 29.2352 4.16379 29.2855 4.14323L29.3563 4.11427C29.394 4.09902 29.4319 4.08411 29.4699 4.06955C29.8014 3.94208 30.1426 3.84141 30.4901 3.76851C30.6291 3.73947 30.7171 3.58467 30.6971 3.45147C30.6778 3.32323 30.5579 3.18411 30.4133 3.20091L30.4135 3.20083Z" fill="#EDC851"/>
<path d="M55.2903 12.9567C55.3206 12.8642 55.3515 12.772 55.3828 12.6799C55.3985 12.6338 55.4144 12.5879 55.4304 12.5419L55.4485 12.4903C55.4574 12.4665 55.4565 12.4673 55.4458 12.4926L55.4607 12.4599C55.541 12.2855 55.6229 12.1118 55.7064 11.9389C55.8766 11.5851 56.0263 11.2215 56.1988 10.8684C56.5397 10.1711 56.919 9.4925 57.3168 8.82626C57.4851 8.54436 57.6594 8.26611 57.8397 7.9917C57.87 7.94554 57.899 7.90034 57.9239 7.85098C58.0132 7.67394 58.0363 7.53666 57.9951 7.34114C57.9308 7.03578 57.584 6.88122 57.3025 6.94786C56.9862 7.02266 56.8331 7.35266 56.6851 7.61234C56.5887 7.78134 56.4945 7.95154 56.4024 8.1229C56.215 8.47186 56.0378 8.82506 55.8749 9.1861C55.5378 9.9333 55.2348 10.6963 54.9751 11.4738C54.9061 11.6803 54.8563 11.8939 54.8039 12.105C54.7483 12.329 54.6711 12.5467 54.603 12.7671C54.548 12.9453 54.6682 13.1636 54.8519 13.2055C55.0478 13.2502 55.2279 13.1464 55.2903 12.9567H55.2903ZM61.916 16.3712C62.1999 16.0183 62.5062 15.6887 62.8147 15.3573C63.1231 15.0259 63.4186 14.6847 63.7185 14.3463C64.3191 13.6689 64.9245 12.9957 65.5347 12.3269C65.7962 12.04 66.0592 11.7543 66.3235 11.4699C66.3802 11.4086 66.4341 11.3447 66.485 11.2785C66.5541 11.1891 66.609 11.1124 66.6359 10.9943C66.6685 10.8513 66.6592 10.7277 66.632 10.5822C66.6047 10.4359 66.4919 10.303 66.3795 10.2161C66.2513 10.1171 66.1163 10.0742 65.9525 10.0648C65.5261 10.0404 65.2874 10.4029 65.0511 10.6913C64.9111 10.8623 64.7716 11.0336 64.6325 11.2053C64.3461 11.5589 64.0613 11.9138 63.779 12.2707C63.4715 12.6592 63.1709 13.0535 62.8703 13.4474C62.5968 13.8057 62.3168 14.1611 62.0602 14.5318C61.7666 14.9559 61.4814 15.3842 61.1674 15.7935C61.1003 15.8809 61.0867 16.0599 61.1193 16.1608C61.1519 16.2617 61.2062 16.3436 61.2902 16.4085C61.4612 16.5407 61.7671 16.5566 61.9162 16.3712H61.916ZM67.2658 21.034C67.4837 20.9156 67.6683 20.7391 67.8635 20.5864C67.8791 20.5743 67.9463 20.5223 67.8716 20.5798C67.7895 20.6431 67.882 20.5719 67.893 20.5635C67.9339 20.5323 67.9749 20.5013 68.016 20.4704C68.1365 20.38 68.2562 20.2886 68.3752 20.1962L68.2488 20.2939C69.2194 19.5443 70.2656 18.921 71.363 18.3767C71.6732 18.2229 71.9881 18.0786 72.3071 17.9439L72.1342 18.0168C72.2244 17.9788 72.315 17.9415 72.4059 17.9051C72.4725 17.8783 72.539 17.8517 72.6051 17.8238C72.8167 17.7345 72.9706 17.5551 73.0316 17.3324C73.1142 17.0311 72.9763 16.7017 72.7102 16.5424C72.5315 16.4355 72.2978 16.3991 72.0997 16.4715C72.0086 16.5047 71.9197 16.547 71.8304 16.5847C71.5279 16.7126 71.2292 16.8491 70.9347 16.9943C70.5523 17.1833 70.1788 17.3898 69.8155 17.6133C69.0462 18.0855 68.3141 18.6201 67.6235 19.2013C67.4392 19.3573 67.2609 19.5203 67.0889 19.6899C66.8915 19.8833 66.6873 20.0731 66.541 20.3093C66.4221 20.5012 66.455 20.7963 66.6238 20.9512C66.8015 21.1143 67.0516 21.1504 67.2657 21.034H67.2658ZM70.7096 26.9553C71.1676 26.805 71.6204 26.6393 72.0673 26.4586C72.3129 26.3592 72.5569 26.2559 72.7992 26.1488C72.9099 26.0999 73.0202 26.05 73.1301 25.9992C73.1877 25.9726 73.2467 25.9474 73.3031 25.9183C73.416 25.8599 73.4934 25.7702 73.57 25.6707C73.6735 25.5365 73.6501 25.3118 73.57 25.1749C73.4843 25.0283 73.3178 24.9275 73.1459 24.9316C72.8562 24.9387 72.5822 25.1399 72.3283 25.2679C72.1188 25.3736 71.9076 25.4758 71.6947 25.5745C71.4884 25.6701 71.2812 25.7701 71.0691 25.8522C71.1632 25.8157 71.0769 25.8489 71.0572 25.8571L70.9689 25.8937C70.9158 25.9156 70.8627 25.9372 70.8095 25.9587C70.6972 26.0039 70.5846 26.0481 70.4715 26.0915C70.2535 26.1752 70.0792 26.3965 70.1587 26.6423C70.2305 26.864 70.4714 27.0335 70.7096 26.9551V26.9553ZM8.04809 55.9596C6.83985 57.3449 6.02289 59.0756 5.69649 60.884C5.53057 61.8034 5.47001 62.7403 5.57001 63.6704C5.66865 64.5884 5.87457 65.488 6.22521 66.3434C6.62353 67.3152 7.15089 68.1969 7.80705 69.0168L7.69961 68.8776C8.50121 69.9303 9.56529 70.8181 10.7091 71.4768C11.8751 72.1483 13.1764 72.6044 14.519 72.7297C15.896 72.8583 17.3451 72.5409 18.4108 71.6286C19.5631 70.6423 19.9467 69.0385 20.0287 67.5864C20.1013 66.3008 19.7954 64.7923 18.6251 64.062C17.9539 63.6432 17.0703 63.6017 16.3434 63.896C15.9334 64.062 15.5714 64.2782 15.2493 64.586C14.965 64.8578 14.7227 65.1868 14.5319 65.5304C14.173 66.1764 13.9453 66.9051 13.8111 67.6298C13.6768 68.3545 13.6159 69.0961 13.6535 69.8336C13.7289 71.3074 14.1328 72.7601 14.8565 74.0481C15.2067 74.6715 15.6391 75.2629 16.1311 75.782C16.6123 76.2896 17.1748 76.7344 17.7594 77.1161C18.3466 77.4996 18.9797 77.8068 19.6354 78.0544C20.2927 78.3027 20.9669 78.4423 21.665 78.5157C21.8205 78.5323 21.9765 78.544 22.1327 78.5508C22.2951 78.5578 22.4587 78.542 22.6203 78.5488C22.9076 78.561 23.1822 78.2876 23.1693 77.9999C23.1555 77.692 22.9281 77.464 22.6203 77.4509C22.823 77.4595 22.562 77.4442 22.5192 77.4387C22.4172 77.4255 22.6225 77.4537 22.5517 77.443C22.4967 77.4347 22.4418 77.4268 22.387 77.4178C22.3595 77.4133 22.3322 77.4084 22.3047 77.4039C22.268 77.3969 22.231 77.3915 22.1939 77.3876C22.0859 77.3736 22.0899 77.3735 22.2059 77.3872C22.1576 77.3684 22.0921 77.3679 22.041 77.3584C21.81 77.3153 21.5809 77.2626 21.3543 77.2004C20.8986 77.0753 20.4514 76.9213 20.0153 76.7393L20.179 76.8084C19.4743 76.5101 18.8107 76.1229 18.2044 75.656L18.3522 75.7702C17.7408 75.2958 17.1907 74.7396 16.717 74.1276L16.8361 74.2818C16.4016 73.7158 16.0438 73.096 15.7649 72.4394L15.8419 72.622C15.5418 71.9058 15.3365 71.1535 15.2311 70.3842L15.2585 70.5881C15.1558 69.8187 15.1527 69.0391 15.2539 68.2693L15.2264 68.474C15.3153 67.8197 15.4715 67.1674 15.7269 66.5574L15.6494 66.7411C15.7849 66.4236 15.9503 66.121 16.1602 65.8463L16.04 66.0019C16.1837 65.8181 16.3447 65.6498 16.5278 65.505L16.3724 65.6251C16.5405 65.4958 16.7241 65.3882 16.919 65.3047L16.7357 65.382C16.9196 65.3056 17.1127 65.2532 17.31 65.226L17.1062 65.2534C17.2684 65.2337 17.4324 65.2342 17.5944 65.2548L17.3907 65.2275C17.5319 65.2486 17.6678 65.2854 17.7999 65.3396L17.6169 65.2624C17.7523 65.3206 17.8799 65.3954 17.9969 65.485L17.842 65.3653C17.9612 65.4601 18.0685 65.5688 18.1618 65.6891L18.0422 65.5343C18.1643 65.6954 18.2615 65.8715 18.34 66.0576L18.263 65.8749C18.3807 66.1619 18.4523 66.4637 18.4947 66.7705L18.4675 66.5675C18.5419 67.1333 18.5122 67.7025 18.4366 68.2666L18.4638 68.064C18.3918 68.5843 18.2733 69.0984 18.07 69.584L18.1467 69.4024C18.02 69.6985 17.8627 69.9788 17.6671 70.2351L17.7859 70.0813C17.6202 70.2943 17.4292 70.4863 17.2171 70.6532L17.3707 70.5344C17.1257 70.7233 16.8578 70.8763 16.5731 70.997L16.7542 70.9205C16.3959 71.069 16.0199 71.164 15.6363 71.2177L15.8375 71.1907C15.2715 71.2664 14.6979 71.2513 14.1325 71.1772L14.3325 71.204C13.5926 71.1036 12.8704 70.8897 12.1824 70.602L12.3571 70.6757C11.5716 70.3441 10.8334 69.91 10.1583 69.3894L10.3015 69.5C9.61081 68.964 8.99265 68.34 8.45625 67.6498L8.56233 67.7871C8.08097 67.1636 7.67193 66.4849 7.35577 65.7631C7.34724 65.7436 7.33879 65.7241 7.33041 65.7046C7.29041 65.6132 7.35593 65.7657 7.35721 65.7684C7.33457 65.7205 7.31641 65.6694 7.29689 65.6202C7.18269 65.3328 7.0833 65.0397 6.99913 64.7421C6.88665 64.3438 6.8007 63.9386 6.74185 63.5289C6.73569 63.4859 6.72905 63.3939 6.74681 63.569C6.74449 63.5464 6.74097 63.5238 6.73817 63.5013C6.71863 63.3434 6.70292 63.1851 6.69105 63.0264C6.67545 62.8168 6.66113 62.6071 6.65553 62.3967C6.64173 61.881 6.668 61.3649 6.73409 60.8532C6.74641 60.7544 6.73065 60.8875 6.72945 60.8876C6.73121 60.8876 6.74033 60.8116 6.74161 60.803C6.75079 60.741 6.76052 60.679 6.77081 60.6171C6.80452 60.4149 6.84436 60.2139 6.89033 60.0142C6.98441 59.6053 7.10265 59.2012 7.25041 58.8085C7.29045 58.7027 7.33214 58.5975 7.37545 58.493C7.33937 58.5806 7.36945 58.5072 7.37889 58.4853C7.41493 58.4017 7.45213 58.3187 7.49049 58.2361C7.58856 58.0249 7.69429 57.8173 7.80745 57.6138C7.92319 57.4057 8.04683 57.2021 8.17809 57.0034C8.29673 56.8238 8.42175 56.6486 8.55289 56.478C8.53087 56.5065 8.53289 56.504 8.55897 56.4706C8.67521 56.3222 8.71457 56.1026 8.55897 55.9598C8.42289 55.8349 8.18081 55.8077 8.04817 55.9598L8.04809 55.9596Z" fill="#F45B5B"/>
</svg>
