<svg width="101" height="100" viewBox="0 0 101 100" fill="none" xmlns="http://www.w3.org/2000/svg">
<path d="M53.6996 17.9111C42.7187 16.4619 31.5154 16.7096 20.6093 18.6428C14.7897 19.6744 8.49206 21.5747 5.35306 26.5825C3.09996 30.177 2.95146 34.6638 3.00926 38.9057C3.16786 50.5432 4.37266 62.1802 6.87716 73.5461C7.63776 76.9976 8.56376 80.5226 10.6752 83.3569C14.8914 89.0166 22.6799 90.538 29.7347 90.7341C38.9364 90.9899 48.1151 89.7287 57.1723 88.0841C62.513 87.1143 68.1532 85.8433 72.0073 82.0211C74.7186 79.3322 76.2416 75.6185 76.851 71.8488C77.4604 68.0792 77.2197 64.2252 76.8184 60.4278C75.8332 51.1146 73.895 41.9272 71.0342 33.0097C69.9733 29.7035 68.7312 26.3438 66.3928 23.7771C63.7836 20.9133 60.0211 19.3087 56.2086 18.6203C52.3961 17.9319 48.4883 18.081 44.6171 18.2324" fill="#E76D6D"/>
<path d="M53.8371 17.412C44.5295 16.0293 35.0723 15.9113 25.7278 17.0189C21.7353 17.4922 17.6703 18.0474 13.856 19.3699C10.4195 20.5614 7.1861 22.4093 4.9996 25.3836C2.5219 28.7541 2.043 33.087 1.9974 37.1481C1.9455 41.7698 2.1708 46.4065 2.5355 51.0126C2.9109 55.7539 3.4761 60.4815 4.2399 65.1759C4.61793 67.5015 5.04777 69.8184 5.5291 72.1248C5.9664 74.2184 6.4146 76.321 7.0824 78.3555C7.7336 80.3394 8.5981 82.2829 9.861 83.9569C10.9691 85.4258 12.3069 86.6702 13.8383 87.6908C16.8187 89.6772 20.3702 90.7167 23.8828 91.2469C28.0229 91.8718 32.2379 91.8798 36.4124 91.6939C41.2001 91.4807 45.967 90.9277 50.7034 90.2091C53.0339 89.8555 55.3581 89.4597 57.6769 89.0361C59.5802 88.6884 61.4801 88.3058 63.3432 87.7795C67.088 86.7217 70.7814 85.0188 73.4007 82.0543C79.5012 75.1501 78.5533 65.219 77.4261 56.7679C76.8076 52.1308 75.9666 47.5266 74.8842 42.975C73.8472 38.6144 72.6713 34.2258 71.0913 30.0268C70.364 28.0941 69.5016 26.1857 68.2871 24.5058C67.0706 22.8233 65.5563 21.4208 63.7888 20.3297C60.116 18.0626 55.7653 17.2722 51.5101 17.1113C49.207 17.0242 46.917 17.1434 44.6169 17.2333C44.0776 17.2544 43.6179 17.6774 43.6179 18.2323C43.6179 18.7572 44.0753 19.2525 44.6169 19.2313C48.9996 19.0599 53.5364 18.8925 57.813 20.0271C61.4316 20.9871 64.7708 22.8963 66.8698 26.0447C67.9411 27.6516 68.6897 29.3713 69.3293 31.1578C70.0586 33.1948 70.6818 35.2733 71.2767 37.3529C72.5242 41.7158 73.5544 46.1379 74.3634 50.603C75.1607 55.0035 75.797 59.4625 76.073 63.9285C76.3327 68.1317 76.1173 72.3978 74.5214 76.3424C74.2217 77.0831 73.7395 78.0143 73.2669 78.7741C72.7549 79.5974 72.268 80.2423 71.6102 80.9427C70.3408 82.2944 68.932 83.2701 67.2514 84.1147C64.0344 85.7314 60.2329 86.487 56.6122 87.1421C47.581 88.776 38.3933 90.036 29.1933 89.6939C25.7139 89.5645 22.4451 89.1631 19.1041 88.0072C16.0591 86.9536 13.0934 85.0905 11.2602 82.4336C8.956 79.0941 8.1853 74.9457 7.3822 71.0166C6.4664 66.5366 5.746 62.0166 5.2185 57.4746C4.6856 52.8867 4.3497 48.28 4.1576 43.6657C4.0673 41.4955 3.9954 39.3204 4.0063 37.1481C4.0163 35.164 4.1133 33.2065 4.5356 31.2953C4.9452 29.4414 5.6438 27.71 6.7958 26.1882C7.7158 24.9729 9.023 23.8712 10.3673 23.0434C13.2801 21.2496 16.6208 20.3481 19.994 19.6685C28.9075 17.8728 38.0498 17.3968 47.1172 17.8775C49.3164 17.9946 51.5115 18.1784 53.6996 18.4287C54.2736 18.4942 54.4142 17.4978 53.8371 17.412Z" fill="#FF8345"/>
<path d="M31.4191 19.429C29.5529 18.8636 27.6962 18.2348 25.7638 17.9443C23.9444 17.6707 22.1517 17.6349 20.3442 18.0173C18.6506 18.3756 17.0675 19.1208 15.7551 20.255C14.5945 21.258 13.7031 22.5716 13.0747 23.9636C11.6502 27.1193 11.2514 30.666 10.9537 34.0811C10.624 37.8637 10.6166 41.6706 10.8626 45.4584C11.1159 49.3582 11.6528 53.2376 12.3693 57.0782C13.0716 60.8426 13.9075 64.6013 15.0979 68.2442C15.7004 70.0879 16.3556 71.9133 16.9831 73.7474C17.5243 75.3293 18.0315 76.9536 18.7679 78.4581C19.4788 79.9105 20.4689 81.2094 21.7679 82.1833C23.0177 83.1204 24.4747 83.7462 25.9776 84.1491C27.5265 84.5643 29.2832 84.738 30.7837 84.8833C32.7784 85.0764 34.7806 85.2243 36.7795 85.3673C40.7924 85.6545 44.8047 85.9276 48.8207 86.1671C52.8339 86.4065 56.8465 86.6617 60.8619 86.8603C62.6029 86.9464 64.3677 87.1116 66.1113 87.0231C66.8458 86.9858 67.5908 86.8989 68.3037 86.7134C68.4615 86.6729 68.6177 86.6261 68.7717 86.5729C68.8966 86.5292 69.0126 86.4746 69.1373 86.427C68.9212 86.5096 69.1901 86.4105 69.2182 86.399C69.5742 86.2529 69.92 86.0918 70.236 85.8698C70.8704 85.424 71.4058 84.8536 71.7362 84.1458C72.1365 83.2882 72.2552 82.3473 72.2434 81.4077C72.2207 79.6103 71.9734 77.7977 71.6801 76.0271C71.1055 72.5577 70.1767 69.1584 69.1741 65.7917C68.1673 62.4108 67.0822 59.0506 66.2149 55.6298C65.3476 52.209 64.7232 48.9224 64.6096 45.4467C64.5057 42.2674 64.9288 39.0771 64.5783 35.9048C64.3924 34.2224 64.0145 32.5931 63.274 31.0632C62.5934 29.6572 61.5793 28.3869 60.3748 27.3938C58.0238 25.4556 55.1138 24.4907 52.1977 23.764C50.7257 23.3972 49.2456 23.0648 47.7745 22.694C45.9345 22.2302 44.0625 21.8332 42.1834 21.5655C41.2374 21.4307 40.2879 21.3205 39.3335 21.2679C38.3974 21.2163 37.4809 21.2839 36.5475 21.327C36.148 21.3454 35.8072 21.654 35.8072 22.0673C35.8072 22.454 36.1462 22.8261 36.5475 22.8076C37.4687 22.7651 38.4188 22.8775 39.3335 22.9776C40.2311 23.0758 41.1217 23.2322 42.0057 23.4146C43.8232 23.7898 45.6054 24.2951 47.4041 24.7478C50.1826 25.4471 53.0433 25.9536 55.711 27.0272C55.7859 27.0572 55.8605 27.0878 55.935 27.1189C55.7329 27.0339 56.0257 27.1597 56.0419 27.1669C56.1888 27.232 56.3347 27.2991 56.4796 27.3684C56.7972 27.5204 57.1098 27.683 57.4157 27.8574C57.7216 28.0318 58.0198 28.2175 58.3096 28.4164C58.4417 28.5071 58.5708 28.6015 58.7002 28.696C58.9487 28.8776 58.613 28.6244 58.7572 28.7397C59.1135 29.0223 59.4515 29.3272 59.769 29.6528C59.9428 29.8308 60.1101 30.0151 60.2705 30.2052C60.2928 30.2316 60.5308 30.5255 60.4255 30.39C60.9058 31.0078 61.2866 31.6875 61.6171 32.3947C61.6265 32.4148 61.6961 32.5762 61.6366 32.4352C61.6771 32.5313 61.7149 32.6286 61.752 32.726C61.8136 32.8882 61.8716 33.0518 61.9258 33.2166C62.0448 33.5794 62.1473 33.9473 62.2331 34.3193C62.3193 34.6931 62.3913 35.07 62.4488 35.4493C62.4595 35.5186 62.4696 35.5879 62.4793 35.6573C62.4506 35.4496 62.4951 35.7931 62.4959 35.8C62.5203 36.0101 62.5414 36.2206 62.5592 36.4314C62.6919 37.9976 62.6598 39.5713 62.6133 41.1406C62.5678 42.6737 62.5114 44.2068 62.5792 45.7402C62.6572 47.5061 62.8673 49.2663 63.161 51.0088C63.7284 54.375 64.6449 57.6695 65.6294 60.9341C67.5853 67.4199 69.9018 73.9731 70.2399 80.7164C70.2835 81.5852 70.2916 82.2834 70.0403 83.0623C70.0009 83.1844 69.9635 83.2566 69.8684 83.4202C69.8316 83.4834 69.7903 83.5435 69.752 83.6056C69.7251 83.6492 69.6041 83.797 69.7295 83.6449C69.6403 83.7535 69.5447 83.8566 69.4432 83.9537C69.3821 84.0107 69.3194 84.0661 69.2552 84.1196C69.4267 83.9736 69.1957 84.1589 69.1551 84.1858C69.0261 84.271 68.8923 84.3488 68.7545 84.4188C68.7039 84.4446 68.652 84.4678 68.6012 84.4932C68.3562 84.6155 68.7875 84.4433 68.5238 84.5255C68.2129 84.6224 67.9039 84.7147 67.5833 84.7765C67.4939 84.7937 67.4041 84.8081 67.3143 84.8232C67.113 84.8571 67.2763 84.8292 67.3172 84.8243C67.1337 84.8465 66.9493 84.8651 66.7649 84.8782C66.4232 84.9024 66.0799 84.9104 65.7373 84.9083C64.001 84.8977 62.2577 84.6966 60.5258 84.5813C58.5756 84.4515 56.6248 84.3396 54.6733 84.2296C46.8722 83.7897 39.0736 83.3514 31.2635 83.1098C29.709 83.0617 28.1667 82.9933 26.6245 82.799C25.1807 82.6172 23.6821 82.2182 22.4557 81.4147C21.1396 80.5523 20.2498 79.2598 19.5911 77.8525C18.9068 76.3907 18.5249 74.8543 18.107 73.3042C17.6151 71.4797 17.2311 69.6137 16.8342 67.7657C16.4438 65.9522 16.0377 64.1421 15.6158 62.3356C14.7694 58.7041 14.0483 54.973 13.5536 51.3184C13.0652 47.7103 12.7571 43.9632 12.7238 40.2799C12.6913 36.6893 12.8758 33.0431 13.464 29.5096C13.7099 28.0327 14.0514 26.5618 14.6058 25.1678C14.6985 24.9348 14.8343 24.6323 14.9934 24.3172C15.1685 23.9691 15.3616 23.6304 15.572 23.3024C15.7517 23.0233 15.9225 22.783 16.0789 22.5921C16.3364 22.2772 16.6155 21.9805 16.9141 21.7042C18.0116 20.6906 19.3702 20.0791 20.8128 19.7177C22.4359 19.311 24.1489 19.2602 25.8289 19.3887C27.6434 19.5275 29.4315 19.8138 31.2173 20.1605C31.6921 20.2527 31.8912 19.5724 31.4189 19.4293L31.4191 19.429Z" fill="black"/>
<path d="M26.8489 27.9744C26.0286 27.497 24.9903 27.4014 24.1051 27.633C23.2199 27.8646 22.4837 28.3994 21.9605 29.0577C20.9872 30.2823 21.2238 32.6617 22.5402 33.8288C24.8311 35.8597 29.6787 35.5534 30.2973 32.2686C30.6249 30.5293 29.2439 28.5663 27.3034 27.9161C25.3629 27.2659 23.1035 27.9502 22.1014 29.4292" fill="black"/>
<path d="M27.0826 27.5743C26.5793 27.2184 25.9726 26.9834 25.3638 26.892C25.0173 26.84 24.6871 26.816 24.339 26.859C24.0065 26.9001 23.6816 26.9612 23.3655 27.0745C22.7251 27.304 22.1541 27.6456 21.6632 28.1188C21.2302 28.5362 20.921 29.0092 20.7068 29.5685C20.5219 30.0512 20.4482 30.5909 20.4487 31.1057C20.4492 31.6469 20.5378 32.2002 20.7237 32.7093C20.936 33.2905 21.2268 33.8106 21.6403 34.2734C21.9504 34.6205 22.3424 34.9115 22.7398 35.1511C24.2677 36.0724 26.2452 36.3256 27.9588 35.8342C28.7965 35.594 29.6185 35.1545 30.2085 34.5027C30.8844 33.7559 31.2935 32.7744 31.2947 31.761C31.2962 30.5735 30.7511 29.449 29.9677 28.5803C29.1843 27.7116 28.0801 27.0807 26.9308 26.873C26.5377 26.802 26.1578 26.8049 25.7638 26.8625L25.9878 26.8324C25.6169 26.8216 25.2396 26.87 24.875 26.9319C24.5077 26.9942 24.1766 27.12 23.8364 27.2711C23.2706 27.5225 22.7282 27.8963 22.287 28.3301C21.9984 28.6139 21.7987 28.925 21.7297 29.327C21.7031 29.4821 21.7347 29.6325 21.8677 29.7319C21.9901 29.8234 22.16 29.8428 22.2955 29.762C22.3909 29.7051 22.4973 29.6616 22.5864 29.5956L22.693 29.5133C22.7382 29.4776 22.7277 29.4856 22.6615 29.5372C22.6842 29.5269 22.7056 29.5044 22.7258 29.4899C22.7476 29.4743 22.7699 29.4595 22.7916 29.4438C23.1734 29.1682 22.592 29.6097 22.9591 29.3099C23.0021 29.2748 23.0482 29.2408 23.0892 29.2034C22.9497 29.3303 23.102 29.1966 23.1441 29.1673C23.2464 29.0965 23.3518 29.0304 23.4602 28.9694C23.5151 28.9381 23.5712 28.9091 23.6284 28.8824C23.6547 28.8703 23.6814 28.8588 23.7078 28.847C23.7818 28.8137 23.5585 28.9073 23.6616 28.8668C23.7796 28.8204 23.8986 28.7774 24.0199 28.7401C24.2701 28.6642 24.5258 28.6081 24.7847 28.5722L24.5756 28.6003C24.7654 28.5748 24.9547 28.5463 25.1444 28.52L24.9296 28.5489C25.2828 28.5025 25.6327 28.4998 25.9878 28.5176L25.7638 28.4875C26.293 28.6175 26.8275 28.6989 27.3344 28.909L27.114 28.816C27.4836 28.9731 27.832 29.176 28.151 29.4198L27.9624 29.2741C28.2914 29.5286 28.5868 29.8236 28.8416 30.1522L28.6946 29.9619C28.9172 30.2533 29.1047 30.5683 29.2484 30.9059L29.1532 30.6803C29.2714 30.9646 29.3563 31.26 29.4002 31.5649L29.3663 31.3129C29.4018 31.5784 29.405 31.8452 29.3713 32.111L29.4053 31.8582C29.3661 32.1371 29.2917 32.4099 29.1838 32.6701L29.28 32.4422C29.1765 32.6872 29.0427 32.9182 28.8817 33.1298L29.0314 32.9361C28.8618 33.1543 28.6657 33.3505 28.4476 33.5204L28.6419 33.3703C28.3718 33.5787 28.0745 33.7465 27.7605 33.8791L27.9908 33.7819C27.5886 33.9489 27.1654 34.0565 26.7343 34.1154L26.9919 34.0808C26.4327 34.1545 25.8706 34.1419 25.3123 34.0672L25.5712 34.102C25.0507 34.03 24.5405 33.8947 24.056 33.6904L24.2858 33.7874C23.9079 33.6258 23.5491 33.4232 23.2223 33.1734L23.4152 33.3224C23.1919 33.1496 22.9901 32.9566 22.8152 32.7344L22.9632 32.926C22.7695 32.6748 22.6128 32.3998 22.4887 32.1081L22.5834 32.3326C22.4307 31.9653 22.3348 31.5796 22.2807 31.186L22.3138 31.4322C22.2681 31.0794 22.2643 30.7234 22.3105 30.3705L22.2784 30.609C22.3166 30.3356 22.3841 30.0682 22.4892 29.8126L22.401 30.0216C22.4904 29.8107 22.6067 29.6124 22.7471 29.4314L22.6132 29.6047C22.8593 29.2918 23.1455 29.0197 23.4581 28.7739L23.2928 28.9016C23.564 28.6917 23.8605 28.5167 24.1752 28.3806L23.9948 28.4567C24.2807 28.3371 24.5798 28.252 24.8858 28.2032L24.6999 28.2282C24.7955 28.2178 24.8906 28.2034 24.9849 28.1852C25.0394 28.1743 25.1893 28.1745 24.9861 28.1816C25.0682 28.1787 25.1509 28.163 25.2332 28.1576C25.411 28.1458 25.5894 28.1466 25.767 28.16C25.8077 28.1631 25.8481 28.1674 25.8887 28.1713C26.0153 28.1835 25.7859 28.1522 25.9033 28.1732C25.9987 28.1903 26.0936 28.2065 26.1875 28.2306C26.3329 28.2679 26.4754 28.3154 26.614 28.3727C26.5644 28.3519 26.5646 28.3526 26.6146 28.3747C26.8349 28.4745 27.1235 28.4453 27.2486 28.2084C27.3744 27.9702 27.2943 27.7242 27.0823 27.5744L27.0826 27.5743Z" fill="black"/>
<path d="M28.5794 41.2247C27.7591 40.7473 26.7207 40.6517 25.8355 40.8833C24.9503 41.1149 24.2141 41.6497 23.6909 42.308C22.7176 43.5326 22.9542 45.912 24.2706 47.0791C26.5615 49.11 31.4092 48.8037 32.0278 45.5189C32.3554 43.7796 30.9743 41.8166 29.0338 41.1664C27.0933 40.5162 24.8339 41.2005 23.8318 42.6795" fill="#70E8A0"/>
<path d="M28.8133 40.8246C28.31 40.4687 27.7033 40.2337 27.0945 40.1423C26.748 40.0903 26.4178 40.0663 26.0697 40.1093C25.7372 40.1504 25.4123 40.2115 25.0962 40.3248C24.4558 40.5543 23.8848 40.8959 23.3939 41.3691C22.9609 41.7865 22.6517 42.2595 22.4375 42.8188C22.2526 43.3015 22.1789 43.8412 22.1794 44.356C22.1799 44.8972 22.2685 45.4505 22.4544 45.9596C22.6667 46.5408 22.9575 47.0609 23.371 47.5237C23.6811 47.8708 24.0731 48.1618 24.4705 48.4014C25.9984 49.3227 27.9759 49.5759 29.6895 49.0845C30.5272 48.8443 31.3492 48.4048 31.9392 47.753C32.6151 47.0062 33.0242 46.0247 33.0254 45.0113C33.0269 43.8238 32.4818 42.6993 31.6984 41.8306C30.915 40.9619 29.8108 40.331 28.6615 40.1233C28.2684 40.0523 27.8885 40.0552 27.4945 40.1128L27.7185 40.0827C27.3476 40.0719 26.9703 40.1203 26.6057 40.1822C26.2384 40.2445 25.9073 40.3703 25.5671 40.5214C25.0013 40.7728 24.4589 41.1466 24.0177 41.5804C23.7291 41.8642 23.5294 42.1753 23.4604 42.5773C23.4338 42.7324 23.4654 42.8828 23.5984 42.9822C23.7208 43.0737 23.8907 43.0931 24.0262 43.0123C24.1216 42.9554 24.228 42.9119 24.3171 42.8459L24.4237 42.7636C24.4689 42.728 24.4584 42.736 24.3922 42.7875C24.4149 42.7772 24.4363 42.7547 24.4565 42.7402C24.4783 42.7246 24.5006 42.7098 24.5223 42.6941C24.9041 42.4185 24.3227 42.86 24.6898 42.5602C24.7328 42.5251 24.7789 42.4911 24.8199 42.4537C24.6804 42.5806 24.8327 42.4469 24.8748 42.4176C24.9771 42.3468 25.0826 42.2807 25.1909 42.2197C25.2458 42.1884 25.3019 42.1594 25.3591 42.1327C25.3854 42.1206 25.4121 42.1091 25.4385 42.0973C25.5125 42.064 25.2892 42.1576 25.3923 42.1171C25.5103 42.0707 25.6293 42.0277 25.7506 41.9904C26.0008 41.9145 26.2565 41.8584 26.5154 41.8225L26.3063 41.8506C26.4961 41.8251 26.6854 41.7966 26.8751 41.7703L26.6603 41.7992C27.0135 41.7528 27.3634 41.7501 27.7185 41.7679L27.4945 41.7378C28.0237 41.8678 28.5582 41.9492 29.0651 42.1593L28.8447 42.0663C29.2143 42.2234 29.5627 42.4262 29.8817 42.6701L29.6931 42.5244C30.0221 42.7788 30.3175 43.0739 30.5723 43.4025L30.4253 43.2122C30.6479 43.5036 30.8354 43.8186 30.9791 44.1562L30.8839 43.9306C31.0021 44.2149 31.087 44.5103 31.1309 44.8152L31.097 44.5632C31.1325 44.8287 31.1357 45.0955 31.102 45.3613L31.136 45.1085C31.0968 45.3874 31.0224 45.6602 30.9145 45.9204L31.0107 45.6925C30.9072 45.9374 30.7734 46.1685 30.6124 46.3801L30.7621 46.1864C30.5925 46.4046 30.3964 46.6008 30.1783 46.7707L30.3726 46.6206C30.1025 46.829 29.8052 46.9968 29.4912 47.1294L29.7215 47.0322C29.3193 47.1992 28.8961 47.3068 28.465 47.3657L28.7226 47.3311C28.1634 47.4048 27.6013 47.3922 27.043 47.3175L27.3019 47.3523C26.7814 47.2803 26.2712 47.145 25.7867 46.9407L26.0165 47.0377C25.6386 46.8761 25.2798 46.6735 24.953 46.4237L25.1459 46.5727C24.9226 46.3999 24.7208 46.2069 24.5459 45.9847L24.6939 46.1763C24.5002 45.9251 24.3435 45.6501 24.2194 45.3584L24.3141 45.5829C24.1614 45.2156 24.0655 44.8299 24.0114 44.4363L24.0445 44.6825C23.9988 44.3297 23.995 43.9737 24.0412 43.6208L24.0091 43.8593C24.0473 43.5859 24.1148 43.3185 24.2199 43.0629L24.1317 43.2719C24.2211 43.061 24.3375 42.8626 24.4778 42.6817L24.3439 42.855C24.59 42.5421 24.8762 42.27 25.1888 42.0242L25.0235 42.1519C25.2947 41.942 25.5912 41.767 25.9059 41.6309L25.7255 41.707C26.0114 41.5874 26.3105 41.5023 26.6165 41.4535L26.4306 41.4785C26.5262 41.4681 26.6213 41.4537 26.7156 41.4355C26.7701 41.4246 26.92 41.4248 26.7168 41.4319C26.7989 41.429 26.8816 41.4133 26.9639 41.4079C27.1417 41.396 27.3201 41.3969 27.4977 41.4103C27.5384 41.4134 27.5788 41.4177 27.6194 41.4216C27.746 41.4338 27.5166 41.4025 27.634 41.4235C27.7294 41.4406 27.8243 41.4568 27.9182 41.4809C28.0636 41.5182 28.2061 41.5657 28.3447 41.623C28.2951 41.6022 28.2953 41.6029 28.3453 41.625C28.5656 41.7248 28.8542 41.6956 28.9793 41.4587C29.1051 41.2205 29.025 40.9745 28.813 40.8247L28.8133 40.8246Z" fill="#70E8A0"/>
<path d="M30.5107 54.4748C29.6904 53.9974 28.6521 53.9018 27.7669 54.1334C26.8817 54.365 26.1455 54.8998 25.6223 55.5581C24.649 56.7827 24.8856 59.1621 26.202 60.3292C28.4929 62.3601 33.3405 62.0538 33.9591 58.769C34.2867 57.0297 32.9057 55.0667 30.9652 54.4165C29.0247 53.7663 26.7653 54.4506 25.7632 55.9296" fill="#EDC851"/>
<path d="M30.7447 54.0747C30.2414 53.7188 29.6347 53.4838 29.0259 53.3924C28.6794 53.3404 28.3492 53.3164 28.0011 53.3594C27.6686 53.4005 27.3437 53.4616 27.0276 53.5749C26.3872 53.8044 25.8162 54.146 25.3253 54.6192C24.8923 55.0366 24.5831 55.5096 24.3689 56.0689C24.184 56.5516 24.1103 57.0913 24.1108 57.6061C24.1113 58.1473 24.1999 58.7006 24.3858 59.2097C24.5981 59.7909 24.8889 60.311 25.3024 60.7738C25.6125 61.1209 26.0045 61.4119 26.4019 61.6515C27.9298 62.5728 29.9073 62.826 31.6209 62.3346C32.4586 62.0944 33.2806 61.6549 33.8706 61.0031C34.5465 60.2563 34.9556 59.2748 34.9568 58.2614C34.9583 57.0739 34.4132 55.9494 33.6298 55.0807C32.8488 54.2146 31.7422 53.5811 30.5929 53.3734C30.1998 53.3024 29.8199 53.3053 29.4259 53.3629L29.6499 53.3328C29.279 53.322 28.9017 53.3704 28.5371 53.4323C28.1698 53.4946 27.8387 53.6204 27.4985 53.7715C26.9327 54.0229 26.3903 54.3967 25.9491 54.8305C25.6605 55.1143 25.4608 55.4254 25.3918 55.8274C25.3652 55.9825 25.3968 56.1329 25.5298 56.2323C25.6522 56.3238 25.8221 56.3432 25.9576 56.2624C26.053 56.2055 26.1594 56.162 26.2485 56.096L26.3551 56.0137C26.4003 55.9781 26.3898 55.9861 26.3236 56.0376C26.3463 56.0273 26.3677 56.0048 26.3879 55.9903C26.4097 55.9747 26.432 55.9599 26.4537 55.9442C26.8355 55.6686 26.2541 56.1101 26.6212 55.8103C26.6642 55.7752 26.7103 55.7412 26.7513 55.7038C26.6118 55.8307 26.7641 55.697 26.8062 55.6677C26.9085 55.5969 27.014 55.5308 27.1223 55.4698C27.1772 55.4385 27.2333 55.4095 27.2905 55.3828C27.3168 55.3707 27.3435 55.3592 27.3699 55.3474C27.4439 55.3141 27.2206 55.4077 27.3237 55.3672C27.4417 55.3208 27.5607 55.2778 27.682 55.2405C27.9322 55.1646 28.1879 55.1085 28.4468 55.0726L28.2377 55.1007C28.4275 55.0752 28.6168 55.0467 28.8065 55.0204L28.5917 55.0493C28.9449 55.0029 29.2948 55.0002 29.6499 55.018L29.4259 54.9879C29.9551 55.1179 30.4896 55.1993 30.9965 55.4094L30.7761 55.3164C31.1457 55.4735 31.4941 55.6764 31.8131 55.9202L31.6245 55.7745C31.9535 56.0289 32.2489 56.324 32.5037 56.6526L32.3567 56.4623C32.5793 56.7537 32.7668 57.0687 32.9105 57.4063L32.8153 57.1807C32.9335 57.465 33.0184 57.7604 33.0623 58.0653L33.0284 57.8133C33.0639 58.0788 33.0671 58.3456 33.0334 58.6114L33.0674 58.3586C33.0282 58.6375 32.9538 58.9103 32.8459 59.1705L32.9421 58.9426C32.8386 59.1876 32.7048 59.4186 32.5438 59.6302L32.6935 59.4365C32.5239 59.6547 32.3278 59.8509 32.1097 60.0208L32.304 59.8707C32.0339 60.0791 31.7366 60.2469 31.4226 60.3795L31.6529 60.2823C31.2507 60.4493 30.8275 60.5569 30.3964 60.6158L30.654 60.5812C30.0948 60.6549 29.5327 60.6423 28.9744 60.5676L29.2333 60.6024C28.7128 60.5304 28.2026 60.3951 27.7181 60.1908L27.9479 60.2878C27.57 60.1262 27.2112 59.9236 26.8844 59.6738L27.0773 59.8228C26.854 59.65 26.6522 59.457 26.4773 59.2348L26.6253 59.4264C26.4316 59.1752 26.2749 58.9002 26.1508 58.6085L26.2455 58.833C26.0928 58.4657 25.9969 58.08 25.9428 57.6864L25.9759 57.9326C25.9302 57.5798 25.9264 57.2238 25.9726 56.8709L25.9405 57.1094C25.9787 56.836 26.0462 56.5686 26.1513 56.313L26.0631 56.522C26.1525 56.3111 26.2689 56.1128 26.4092 55.9318L26.2753 56.1051C26.5214 55.7922 26.8076 55.5201 27.1202 55.2743L26.9549 55.402C27.2261 55.1921 27.5226 55.0171 27.8373 54.881L27.6569 54.9571C27.9428 54.8375 28.2419 54.7524 28.5479 54.7036L28.362 54.7286C28.4576 54.7182 28.5527 54.7038 28.647 54.6856C28.7015 54.6747 28.8514 54.6749 28.6482 54.682C28.7303 54.6791 28.813 54.6634 28.8953 54.658C29.0731 54.6462 29.2515 54.647 29.4291 54.6604C29.4698 54.6635 29.5102 54.6678 29.5508 54.6717C29.6774 54.6839 29.448 54.6526 29.5654 54.6736C29.6608 54.6907 29.7557 54.7069 29.8496 54.731C29.995 54.7683 30.1375 54.8158 30.2761 54.8731C30.2265 54.8523 30.2267 54.853 30.2767 54.8751C30.497 54.9749 30.7856 54.9457 30.9107 54.7088C31.0365 54.4706 30.9564 54.2246 30.7444 54.0748L30.7447 54.0747Z" fill="#EDC851"/>
<path d="M35.235 67.3248C34.7317 66.9689 34.125 66.7339 33.5162 66.6425C33.1697 66.5905 32.8395 66.5665 32.4914 66.6095C32.1589 66.6506 31.834 66.7117 31.5179 66.825C30.8775 67.0545 30.3065 67.3961 29.8156 67.8693C29.3826 68.2867 29.0734 68.7597 28.8592 69.319C28.6743 69.8017 28.6006 70.3414 28.6011 70.8562C28.6016 71.3974 28.6902 71.9507 28.8761 72.4598C29.0884 73.041 29.3792 73.5611 29.7927 74.0239C30.1028 74.371 30.4948 74.662 30.8922 74.9016C32.4201 75.8229 34.3976 76.0761 36.1112 75.5847C36.9489 75.3445 37.7709 74.905 38.3609 74.2532C39.0368 73.5064 39.4459 72.5249 39.4471 71.5115C39.4486 70.324 38.9035 69.1995 38.1201 68.3308C37.3391 67.4647 36.2325 66.8312 35.0832 66.6235C34.6901 66.5525 34.3102 66.5554 33.9162 66.613L34.1402 66.5829C33.7693 66.5721 33.392 66.6205 33.0274 66.6824C32.6601 66.7447 32.329 66.8705 31.9888 67.0216C31.423 67.273 30.8806 67.6468 30.4394 68.0806C30.1508 68.3644 29.9511 68.6755 29.8821 69.0775C29.8555 69.2326 29.8871 69.383 30.0201 69.4824C30.1425 69.5739 30.3124 69.5933 30.4479 69.5125C30.5433 69.4556 30.6497 69.4121 30.7388 69.3461L30.8454 69.2638C30.8905 69.2282 30.88 69.2362 30.8139 69.2877C30.8366 69.2774 30.858 69.2549 30.8782 69.2404C30.9 69.2248 30.9223 69.21 30.944 69.1943C31.3258 68.9187 30.7444 69.3602 31.1115 69.0604C31.1545 69.0253 31.2006 68.9913 31.2416 68.9539C31.1021 69.0808 31.2544 68.9471 31.2965 68.9178C31.3987 68.8469 31.5042 68.7809 31.6126 68.7199C31.6674 68.6886 31.7235 68.6596 31.7808 68.6329C31.8071 68.6208 31.8338 68.6093 31.8602 68.5975C31.9342 68.5642 31.7109 68.6578 31.814 68.6173C31.932 68.5709 32.051 68.5279 32.1723 68.4906C32.4224 68.4147 32.6781 68.3586 32.9371 68.3227L32.728 68.3508C32.9178 68.3253 33.1071 68.2968 33.2968 68.2705L33.082 68.2994C33.4352 68.253 33.7851 68.2503 34.1402 68.2681L33.9162 68.238C34.4454 68.368 34.9799 68.4494 35.4868 68.6595L35.2664 68.5665C35.6359 68.7236 35.9843 68.9264 36.3034 69.1703L36.1148 69.0246C36.4437 69.279 36.7391 69.5741 36.994 69.9027L36.847 69.7124C37.0696 70.0038 37.2571 70.3188 37.4008 70.6564L37.3056 70.4308C37.4238 70.7151 37.5087 71.0105 37.5526 71.3154L37.5187 71.0634C37.5542 71.3289 37.5574 71.5957 37.5237 71.8615L37.5577 71.6087C37.5185 71.8876 37.444 72.1604 37.3362 72.4206L37.4324 72.1927C37.3289 72.4376 37.1951 72.6686 37.0341 72.8803L37.1838 72.6866C37.0141 72.9048 36.818 73.101 36.6 73.2709L36.7943 73.1208C36.5242 73.3292 36.2269 73.497 35.9129 73.6296L36.1432 73.5324C35.741 73.6994 35.3178 73.807 34.8867 73.8659L35.1443 73.8313C34.5851 73.905 34.023 73.8924 33.4647 73.8177L33.7236 73.8525C33.2031 73.7805 32.6929 73.6452 32.2084 73.4409L32.4382 73.5379C32.0603 73.3763 31.7015 73.1737 31.3747 72.9239L31.5676 73.0729C31.3443 72.9001 31.1425 72.7071 30.9676 72.4849L31.1156 72.6765C30.9219 72.4253 30.7652 72.1503 30.6411 71.8586L30.7358 72.0831C30.5831 71.7158 30.4872 71.3301 30.4331 70.9365L30.4662 71.1827C30.4205 70.8299 30.4167 70.4739 30.4629 70.121L30.4308 70.3595C30.469 70.0861 30.5365 69.8187 30.6416 69.5631L30.5534 69.7721C30.6428 69.5612 30.7591 69.3628 30.8995 69.1819L30.7656 69.3552C31.0117 69.0423 31.2979 68.7702 31.6105 68.5244L31.4452 68.6521C31.7164 68.4422 32.0128 68.2672 32.3276 68.1311L32.1472 68.2072C32.4331 68.0876 32.7322 68.0025 33.0382 67.9537L32.8523 67.9787C32.9478 67.9683 33.0429 67.9539 33.1373 67.9357C33.1918 67.9248 33.3417 67.925 33.1385 67.9321C33.2206 67.9292 33.3033 67.9135 33.3856 67.9081C33.5633 67.8962 33.7417 67.897 33.9194 67.9105C33.9601 67.9136 34.0005 67.9179 34.0411 67.9218C34.1677 67.934 33.9383 67.9027 34.0557 67.9237C34.1511 67.9408 34.246 67.957 34.3399 67.9811C34.4852 68.0184 34.6277 68.0659 34.7664 68.1232C34.7166 68.1024 34.7168 68.1031 34.767 68.1252C34.9873 68.225 35.2759 68.1958 35.401 67.9589C35.5268 67.7207 35.4467 67.4747 35.2347 67.3249L35.235 67.3248Z" fill="black"/>
<path d="M40.038 60.1C40.2129 60.6428 40.6167 61.0834 41.1338 61.3224C41.6906 61.5798 42.3266 61.621 42.9236 61.4971C43.5835 61.3601 44.1722 60.9655 44.6629 60.5183C45.1601 60.0651 45.609 59.524 45.999 58.9765C46.239 58.6396 46.4059 58.2026 46.2948 57.7876C46.1771 57.3478 45.7493 57.0209 45.2912 57.0464C44.5043 57.0901 44.0042 57.7962 43.6248 58.4021C43.22 59.0485 42.956 59.7698 43.1103 60.5366C43.1795 60.8803 43.3505 61.2051 43.5856 61.4639C43.8703 61.7772 44.2716 61.9408 44.6874 61.9738C45.1707 62.0121 45.6335 61.8316 46.0681 61.6448C46.4715 61.4714 46.8714 61.2897 47.2725 61.111C48.0833 60.7498 48.8931 60.3864 49.7019 60.0206C49.9262 59.9192 50.0442 59.5859 49.9709 59.3595C49.8945 59.1233 49.6694 58.9149 49.4064 58.9297C48.9794 58.9538 48.6293 59.1548 48.3884 59.5074C48.2021 59.78 48.1184 60.1437 48.1296 60.4709C48.143 60.8625 48.2717 61.2178 48.5169 61.5222C48.7766 61.8446 49.1776 62.0526 49.5654 62.1761C49.9508 62.2988 50.3654 62.3369 50.7675 62.3582C51.2135 62.3818 51.6605 62.3923 52.1068 62.4084L54.9888 62.5126C56.0642 62.5515 57.1432 62.6232 58.2186 62.5551C58.4535 62.5402 58.6474 62.3878 58.6796 62.1481C58.7074 61.9414 58.5746 61.666 58.3433 61.633C57.4436 61.5047 56.5416 61.4701 55.6347 61.4313L52.9763 61.3175C52.1526 61.2822 51.3205 61.2784 50.4996 61.201C50.4549 61.1968 50.4104 61.1917 50.3657 61.1868C50.2557 61.1748 50.4741 61.2045 50.3653 61.1867C50.2777 61.173 50.1905 61.1566 50.104 61.1374C50.0249 61.1194 49.9466 61.0979 49.8695 61.0729C49.8343 61.0614 49.7994 61.0491 49.7648 61.036C49.7479 61.0296 49.7307 61.021 49.7134 61.0158C49.7649 61.0311 49.8108 61.059 49.7333 61.0211C49.6677 60.9891 49.6043 60.9532 49.5433 60.9134C49.523 60.9001 49.5036 60.8852 49.4833 60.872C49.4322 60.8388 49.5265 60.9054 49.527 60.9061C49.5053 60.8743 49.4587 60.8473 49.4307 60.8199C49.4065 60.7964 49.3826 60.7595 49.3555 60.7401C49.3947 60.7681 49.4334 60.8495 49.3816 60.7705C49.3669 60.748 49.3531 60.725 49.3403 60.7014C49.3317 60.6856 49.3243 60.6693 49.3159 60.6534C49.28 60.5861 49.3401 60.7064 49.342 60.7166C49.3298 60.6519 49.3018 60.5854 49.2862 60.5207C49.2584 60.4054 49.2938 60.6396 49.2894 60.5525C49.2876 60.5161 49.2843 60.48 49.2841 60.4435C49.2839 60.4117 49.2861 60.3802 49.2873 60.3485C49.2918 60.2297 49.2633 60.4672 49.281 60.382C49.2941 60.3174 49.3106 60.2536 49.3305 60.1908C49.3663 60.0775 49.2666 60.3121 49.3222 60.2117C49.3364 60.1862 49.3507 60.1607 49.3653 60.1354C49.3726 60.1225 49.3883 60.1076 49.3929 60.0945C49.3899 60.1031 49.2949 60.2048 49.3472 60.1549C49.3672 60.1358 49.3868 60.1147 49.4061 60.0948C49.4799 60.0184 49.2873 60.1626 49.383 60.1141C49.3994 60.1058 49.4383 60.072 49.4569 60.0747C49.4784 60.0779 49.3117 60.1139 49.374 60.1117C49.389 60.1112 49.4205 60.0998 49.4336 60.0951C49.4527 60.0882 49.5149 60.0827 49.406 60.0969C49.291 60.1119 49.3835 60.1014 49.4064 60.1004L49.1109 59.0094C48.0099 59.4907 46.9075 59.9686 45.8037 60.4433L45.5768 60.5407C45.4363 60.6013 45.7007 60.4916 45.5572 60.5486C45.5151 60.5653 45.4732 60.5823 45.4309 60.5984C45.2903 60.6518 45.1469 60.6988 44.9999 60.7308L44.9564 60.7398C44.8876 60.7515 44.8984 60.751 44.989 60.7385C44.9707 60.7469 44.9186 60.7454 44.9023 60.7465C44.8592 60.7494 44.8161 60.7501 44.7729 60.7487C44.7514 60.7482 44.73 60.7469 44.7087 60.7448C44.6609 60.7405 44.6801 60.7432 44.7661 60.753C44.7563 60.7634 44.6544 60.7253 44.6404 60.7223C44.5821 60.7099 44.5851 60.6703 44.6745 60.7418C44.6357 60.7108 44.5752 60.688 44.5311 60.6619C44.4277 60.6009 44.6383 60.7637 44.5536 60.6791C44.5383 60.6638 44.5217 60.65 44.5063 60.6347C44.4869 60.6153 44.4634 60.5766 44.4405 60.5627L44.497 60.6369C44.4839 60.6194 44.4713 60.6015 44.4593 60.5833C44.4286 60.537 44.4041 60.4882 44.3771 60.4398C44.3165 60.3312 44.4264 60.5839 44.3865 60.4655C44.3793 60.4442 44.3711 60.4233 44.364 60.4019C44.3464 60.3481 44.3317 60.2934 44.32 60.238C44.313 60.2052 44.311 60.1694 44.302 60.1372L44.3159 60.2354C44.3135 60.2128 44.3117 60.1901 44.3103 60.1674C44.307 60.1108 44.3064 60.054 44.3086 59.9973C44.3094 59.9691 44.3108 59.941 44.313 59.9129C44.3221 59.7991 44.3284 59.9422 44.3059 59.9521C44.3217 59.9451 44.3424 59.7717 44.3506 59.7404C44.3725 59.657 44.3994 59.5748 44.4299 59.4942C44.4342 59.4827 44.4943 59.3584 44.4478 59.4477C44.4004 59.5386 44.4659 59.4118 44.4703 59.4025C44.5017 59.3368 44.5348 59.272 44.5697 59.2081C44.6466 59.0667 44.7308 58.9293 44.8173 58.7936C44.8565 58.7321 44.8961 58.6709 44.9363 58.6099C44.9535 58.5837 44.9705 58.5575 44.9885 58.5318C45.0311 58.4709 45.0509 58.5023 44.9671 58.5569C45.0089 58.5296 45.0509 58.459 45.0865 58.4226C45.1321 58.376 45.2115 58.3291 45.2471 58.2769C45.1942 58.3544 45.161 58.338 45.2114 58.3072C45.2407 58.2893 45.2686 58.2694 45.2986 58.2524C45.3222 58.239 45.3491 58.2289 45.372 58.2144C45.4346 58.1747 45.2264 58.2577 45.3328 58.2339C45.4922 58.1983 45.1923 58.2406 45.3475 58.2278C45.4517 58.2192 45.2171 58.1995 45.2858 58.2194C45.3304 58.2317 45.3051 58.2195 45.2098 58.183C45.227 58.1911 45.2435 58.2004 45.2593 58.2109C45.2081 58.1992 45.1562 58.1278 45.2096 58.1772C45.2939 58.2552 45.1384 58.0682 45.199 58.1736C45.1386 58.0685 45.1617 58.0848 45.173 58.1321L45.161 58.0454C45.1623 58.069 45.1621 58.0926 45.1604 58.1161C45.1282 58.0787 45.1897 57.9907 45.1646 58.0696C45.1613 58.08 45.1417 58.1785 45.1317 58.1794C45.1489 58.1779 45.1869 58.0631 45.1353 58.1681C45.1144 58.2104 45.0918 58.2518 45.0675 58.2922C44.9991 58.4061 44.9178 58.5111 44.8379 58.6169C44.7972 58.6706 44.7565 58.7241 44.7157 58.7776C44.6545 58.8581 44.7213 58.7712 44.7307 58.7584C44.6984 58.8019 44.664 58.844 44.6304 58.8865C44.4542 59.1092 44.2716 59.3271 44.0755 59.5326C43.9833 59.6295 43.8877 59.7231 43.789 59.8133C43.7399 59.858 43.6899 59.9016 43.639 59.9443C43.6187 59.9613 43.5979 59.9777 43.5776 59.9947C43.5304 60.032 43.5364 60.0278 43.5954 59.982C43.5743 59.998 43.5531 60.0138 43.5318 60.0294C43.4253 60.1077 43.3153 60.1809 43.202 60.2488C43.0994 60.3097 42.9936 60.3649 42.885 60.414C42.8256 60.4401 42.8363 60.4357 42.917 60.401C42.865 60.406 42.8035 60.4435 42.753 60.4593C42.6973 60.4767 42.6411 60.4921 42.5843 60.5054C42.5292 60.5183 42.447 60.5168 42.3963 60.5415L42.4695 60.5319C42.4163 60.5387 42.3629 60.5437 42.3095 60.5468C42.1816 60.5546 42.0534 60.5526 41.9259 60.5408C41.9163 60.5399 41.875 60.5305 41.8627 60.5341C41.9423 60.5453 41.9548 60.5468 41.9004 60.5386C41.8795 60.5353 41.8587 60.5316 41.8379 60.5277C41.7811 60.517 41.7248 60.5042 41.669 60.4893C41.609 60.4732 41.5489 60.4567 41.4897 60.4379C41.4652 60.4302 41.441 60.422 41.4169 60.4134C41.3144 60.3766 41.3998 60.4251 41.4152 60.4158C41.3964 60.4272 41.2763 60.3493 41.251 60.3353C41.1982 60.306 41.1492 60.2724 41.0984 60.24C41.0159 60.1876 41.1491 60.2886 41.1036 60.2457C41.0783 60.2218 41.0497 60.201 41.024 60.1773C40.9799 60.1367 40.9404 60.0926 40.8999 60.0485C40.8512 59.9955 40.9004 60.0509 40.9082 60.0617C40.8841 60.029 40.8613 59.9954 40.8399 59.961C40.8078 59.9083 40.7789 59.8539 40.7532 59.7979C40.6714 59.6218 40.4289 59.5686 40.2647 59.6378C40.0929 59.7103 39.978 59.9125 40.0382 60.0993L40.038 60.1Z" fill="#EDC851"/>
<path d="M38.8239 47.4C40.3739 47.3505 41.6802 46.2643 42.2338 44.8517C42.3882 44.4577 42.4748 44.0208 42.4721 43.5974C42.4706 43.3571 42.2975 43.1048 42.0549 43.0495C41.8156 42.995 41.5345 43.0828 41.4133 43.3106C41.1144 43.8724 40.8103 44.4471 40.6343 45.0614C40.4551 45.6868 40.3747 46.4215 40.5886 47.0495C40.7981 47.6642 41.2877 48.147 41.937 48.2733C42.5378 48.3901 43.1494 48.2815 43.6765 47.9696C44.245 47.6332 44.6697 47.1259 45.074 46.6149L44.0762 46.034C43.9155 46.5724 43.7942 47.11 43.8829 47.6728C43.9572 48.1442 44.2571 48.5958 44.6632 48.8456C45.1194 49.1263 45.6741 49.0812 46.132 48.8354C46.3227 48.733 46.4938 48.592 46.6601 48.4551C46.7321 48.3958 46.8028 48.335 46.8743 48.2751C46.9123 48.2432 46.9505 48.2117 46.9892 48.1806C47.0034 48.1691 47.0187 48.1582 47.0325 48.1461C46.9142 48.2497 47.0044 48.1686 47.0329 48.1484C47.1066 48.0959 47.1835 48.0482 47.2632 48.0056C47.3061 47.9828 47.3661 47.9655 47.4049 47.9371C47.4029 47.9386 47.2995 47.9768 47.3588 47.9576C47.3897 47.9476 47.42 47.9347 47.4509 47.9244C47.5438 47.8934 47.6384 47.868 47.7343 47.8481C47.7794 47.8387 47.8247 47.8311 47.87 47.8233C47.9722 47.8057 47.8503 47.8289 47.8368 47.8274C47.8658 47.8306 47.9059 47.8199 47.9359 47.8173C48.1481 47.7987 48.3518 47.8099 48.5632 47.8312C48.603 47.8352 48.6639 47.8249 48.5291 47.8259C48.554 47.8257 48.5862 47.834 48.6098 47.8376C48.657 47.8447 48.7041 47.8523 48.7511 47.8604C48.8586 47.8789 48.9658 47.8992 49.0726 47.9212C50.0424 48.1201 51.0104 48.3295 51.9793 48.5327L53.6823 48.89C53.9579 48.9478 54.2329 49.0108 54.5094 49.0638C54.7113 49.1025 54.9222 49.1154 55.1268 49.1383C55.3253 49.1605 55.5174 49.1168 55.7122 49.0812C55.9893 49.0306 56.1949 48.7395 56.2296 48.4808C56.2673 48.2001 56.1372 47.905 55.8848 47.7612C55.7426 47.6802 55.6008 47.594 55.4418 47.5493C55.3148 47.5137 55.183 47.4898 55.0544 47.4606C54.7583 47.3934 54.445 47.3715 54.1434 47.3323L52.6927 47.1435L49.7915 46.7658C49.7342 46.7583 49.6768 46.7492 49.6193 46.7434C49.8554 46.7671 49.5719 46.7366 49.5398 46.7328C49.5132 46.7297 49.4863 46.7274 49.4597 46.7246C49.3587 46.714 49.2577 46.7036 49.1565 46.6949C48.9592 46.677 48.7613 46.6668 48.5632 46.6644C48.1294 46.661 47.6805 46.6765 47.2598 46.7904C46.8111 46.9118 46.4451 47.1472 46.089 47.4373C46.0214 47.4924 45.9545 47.5484 45.8871 47.6036C45.8537 47.6308 45.8179 47.6563 45.7857 47.685C45.9096 47.5743 45.7757 47.6908 45.7419 47.7142C45.6744 47.761 45.6045 47.8046 45.5312 47.8418C45.4171 47.8998 45.6246 47.8163 45.5295 47.8445C45.4865 47.8573 45.4441 47.87 45.4006 47.8812C45.3084 47.905 45.4439 47.8734 45.4554 47.8753C45.4349 47.8718 45.4083 47.8784 45.3873 47.8786C45.3855 47.8786 45.3235 47.8722 45.3178 47.8761C45.3393 47.8613 45.463 47.9046 45.3511 47.8776C45.3342 47.8735 45.3178 47.868 45.301 47.8638C45.1923 47.8368 45.3811 47.9099 45.3287 47.8775C45.2867 47.8516 45.2401 47.8193 45.1965 47.7966C45.1986 47.7976 45.2861 47.8769 45.2477 47.833C45.2288 47.8114 45.2047 47.7928 45.185 47.7718C45.1729 47.759 45.1619 47.7448 45.1497 47.7322C45.1019 47.6827 45.2183 47.84 45.166 47.7518C45.1414 47.7105 45.1146 47.6709 45.0924 47.6282C45.0908 47.6251 45.0685 47.5676 45.061 47.5631C45.088 47.5792 45.1093 47.69 45.0744 47.5858C45.0593 47.5403 45.0466 47.4939 45.0365 47.447C45.033 47.4308 45.0325 47.4096 45.0264 47.3943C45.0364 47.4776 45.039 47.4951 45.0342 47.4468C45.0246 47.3395 45.0245 47.2315 45.0338 47.1242C45.0355 47.1011 45.0377 47.0781 45.0404 47.0552L45.0314 47.1209C45.0142 47.0962 45.0593 46.9657 45.0653 46.9379C45.0785 46.8769 45.0931 46.8162 45.1091 46.7559C45.1448 46.62 45.1861 46.4856 45.2278 46.3514C45.3029 46.1092 45.1804 45.797 44.9535 45.6772C44.7358 45.5622 44.3991 45.5613 44.2299 45.7705C44.0745 45.9628 43.9184 46.155 43.751 46.3372C43.668 46.4282 43.5815 46.5161 43.4917 46.6006C43.452 46.6378 43.4115 46.6742 43.3702 46.7097C43.3496 46.7274 43.3285 46.7443 43.3079 46.762C43.2009 46.8535 43.4165 46.6857 43.3019 46.7669C43.208 46.8335 43.1126 46.8969 43.0114 46.952C42.9601 46.9799 42.9029 47.0008 42.8528 47.0306C42.8607 47.0259 42.9963 46.9758 42.903 47.008C42.8705 47.0193 42.8383 47.0311 42.8053 47.0413C42.7613 47.0549 42.7168 47.0668 42.6717 47.0771C42.6427 47.0837 42.4665 47.1142 42.5822 47.0964C42.6969 47.0788 42.5217 47.099 42.4911 47.1001C42.4338 47.1021 42.3765 47.1013 42.3192 47.0976C42.2967 47.0962 42.2735 47.0923 42.2511 47.0918C42.4087 47.095 42.3597 47.1086 42.3131 47.0997C42.2634 47.0906 42.2141 47.0796 42.1653 47.0667C42.1217 47.0548 42.0666 47.0247 42.0228 47.0203C42.0325 47.0213 42.1628 47.0886 42.0783 47.0427C42.0494 47.027 42.0196 47.0131 41.9911 46.9964C41.9722 46.9854 41.9542 46.9726 41.9353 46.9617C41.8924 46.9369 41.8877 46.8987 41.9795 46.9994C41.9504 46.9674 41.9118 46.942 41.8812 46.9109C41.8616 46.8909 41.8438 46.8694 41.8249 46.8489C41.775 46.7949 41.8922 46.954 41.8517 46.8814C41.8347 46.8509 41.8135 46.8224 41.7965 46.7917C41.7863 46.7733 41.7221 46.6707 41.7721 46.7508C41.8221 46.8309 41.7631 46.7235 41.7571 46.7054C41.7482 46.6785 41.74 46.6515 41.7325 46.6242C41.7172 46.5693 41.7071 46.5136 41.6948 46.4581C41.6693 46.3425 41.6945 46.4881 41.6977 46.4932C41.6839 46.4711 41.6894 46.413 41.6874 46.3862C41.6818 46.3119 41.6791 46.2375 41.6794 46.163C41.6797 46.0472 41.6707 45.899 41.7034 45.7872C41.6657 45.9163 41.6934 45.8549 41.7007 45.8164C41.7076 45.7801 41.7133 45.7435 41.7204 45.7072C41.7345 45.6343 41.7506 45.5619 41.7688 45.49C41.8419 45.1993 41.9422 44.9138 42.054 44.6359C42.0653 44.6078 42.0769 44.5799 42.0882 44.5519C42.1048 44.5121 42.0998 44.5239 42.0732 44.5872L42.1003 44.5243C42.1307 44.4545 42.1616 44.385 42.1932 44.3158C42.2591 44.1713 42.3264 44.0275 42.3948 43.8842L41.336 43.5974C41.3445 43.7606 41.3468 43.9238 41.3338 44.0869C41.331 44.1215 41.3274 44.156 41.3239 44.1905C41.314 44.2883 41.3438 44.0659 41.3214 44.2025C41.3082 44.2829 41.292 44.3629 41.2728 44.4421C41.2359 44.5949 41.1865 44.7429 41.131 44.8898C41.1001 44.9716 41.1682 44.8083 41.1202 44.9159C41.1036 44.9534 41.0863 44.9905 41.0683 45.0273C40.9991 45.1692 40.9208 45.3063 40.8337 45.4379C40.8015 45.4865 40.7683 45.5343 40.7339 45.5814C40.7277 45.5899 40.6821 45.6522 40.7169 45.6055C40.7511 45.5595 40.6762 45.6558 40.6644 45.6699C40.5375 45.8232 40.3984 45.9659 40.2485 46.0968C40.2223 46.1197 40.1957 46.1423 40.1687 46.1644C40.1507 46.1791 40.1327 46.1936 40.1145 46.2081C40.1446 46.1837 40.1439 46.1859 40.1136 46.2083C40.0903 46.2255 40.0674 46.2425 40.0443 46.2603L40.0036 46.2918C40.034 46.268 40.0377 46.2646 40.0148 46.2815C39.9853 46.3001 39.9575 46.3222 39.9286 46.3418C39.8563 46.3909 39.7823 46.4371 39.7066 46.4804C39.5427 46.5741 39.4262 46.628 39.2851 46.6792C39.1099 46.7424 38.9294 46.7898 38.7456 46.8206C38.4163 46.8767 38.4955 47.4104 38.824 47.3999L38.8239 47.4Z" fill="#70E8A0"/>
<path d="M39.6283 33.999C40.649 35.0248 42.3159 35.2392 43.5383 34.4486C44.135 34.0627 44.6255 33.4877 44.858 32.811C44.9656 32.498 44.999 32.1039 44.8777 31.7899C44.7067 31.3475 44.2957 31.0084 43.7987 31.0489C43.3597 31.0847 42.961 31.3274 42.6648 31.6465C42.4019 31.9296 42.163 32.2513 41.9623 32.5814C41.7616 32.9115 41.5866 33.2859 41.5229 33.6703C41.4453 34.139 41.4931 34.5772 41.6971 35.0089C42.0014 35.6526 42.6711 36.0452 43.2979 36.3185C44.0445 36.644 44.8067 36.9381 45.5848 37.1797C46.336 37.4128 47.0986 37.607 47.8697 37.7616C48.6766 37.9233 49.5082 38.0832 50.3335 38.0799C50.5274 38.0791 50.7217 38.0681 50.9153 38.0583C51.1922 38.0444 51.4215 37.8582 51.4591 37.5782C51.4932 37.3242 51.3337 37.0236 51.0625 36.9707C50.7153 36.9029 50.3688 36.8336 50.0213 36.7673C49.9016 36.7445 49.7814 36.7285 49.6604 36.7129C49.6143 36.7069 49.5673 36.7029 49.5214 36.6949C49.7118 36.7282 49.552 36.6988 49.5139 36.6934C48.6349 36.5692 47.7639 36.3937 46.9054 36.1679C46.2279 35.9891 45.5583 35.7818 44.8984 35.5463C44.576 35.4315 44.2561 35.3094 43.9392 35.18C43.8994 35.1638 43.8596 35.144 43.8189 35.1304C44.0035 35.1917 43.8816 35.1569 43.8384 35.138C43.7811 35.113 43.7242 35.0871 43.6677 35.0604C43.5318 34.997 43.3996 34.9258 43.2718 34.8472C43.2197 34.8143 43.1685 34.78 43.1182 34.7445C43.0077 34.6676 43.2341 34.8446 43.1331 34.7564C43.1058 34.7325 43.0777 34.7097 43.0509 34.6851C43.0068 34.6446 42.9646 34.6019 42.9247 34.5572L42.9012 34.5302C42.8589 34.4786 42.8702 34.494 42.9352 34.5763C42.9194 34.5404 42.886 34.5061 42.8653 34.4722C42.8497 34.4466 42.8348 34.4205 42.8208 34.3939L42.8044 34.3615C42.7768 34.3018 42.783 34.3179 42.823 34.4099C42.8338 34.3834 42.7727 34.2554 42.764 34.2172L42.7558 34.1784C42.7439 34.1091 42.7456 34.1267 42.7609 34.2312C42.7691 34.2023 42.7538 34.1447 42.7531 34.1138C42.7517 34.0615 42.753 34.0091 42.7571 33.9569C42.7639 33.8874 42.7607 33.9044 42.7475 34.0079C42.7734 33.9445 42.7745 33.8594 42.7923 33.7921C42.8117 33.7196 42.8345 33.6481 42.8608 33.5778L42.8756 33.5391C42.9012 33.4758 42.896 33.4875 42.8602 33.5742C42.8576 33.5667 42.8954 33.4976 42.8954 33.4976C42.9381 33.4076 42.9852 33.3198 43.0353 33.2337C43.108 33.1097 43.186 32.9889 43.2693 32.8717C43.2941 32.8367 43.3193 32.8019 43.3447 32.7674C43.3645 32.7406 43.4465 32.6183 43.3501 32.7579C43.3957 32.6918 43.451 32.6289 43.5034 32.568C43.5302 32.5368 43.7709 32.2429 43.8122 32.2597L43.7516 32.3071C43.7725 32.2921 43.7938 32.2777 43.8155 32.264C43.8366 32.2508 43.8597 32.2398 43.8805 32.2263C43.9844 32.1587 43.7531 32.2566 43.871 32.2294C43.8932 32.2222 43.9157 32.2162 43.9385 32.2114C43.8383 32.2218 43.82 32.2249 43.8838 32.2207C43.9868 32.232 43.8311 32.2091 43.8305 32.2084L43.8645 32.2162C43.9225 32.2351 43.91 32.2287 43.8272 32.197L43.8546 32.2122C43.9044 32.245 43.8901 32.2329 43.8117 32.176L43.8333 32.1963C43.8725 32.2395 43.8617 32.2236 43.8007 32.1487C43.804 32.1608 43.8261 32.1905 43.8316 32.1989C43.8898 32.2876 43.7979 32.0695 43.8193 32.1752C43.8244 32.2006 43.8295 32.2423 43.8402 32.2654C43.8294 32.1733 43.8259 32.1498 43.8299 32.1948C43.8315 32.2108 43.8324 32.2269 43.8328 32.243C43.834 32.2757 43.8336 32.3083 43.8318 32.3409L43.8296 32.3738C43.8236 32.4341 43.8263 32.4177 43.8377 32.3247C43.8169 32.3705 43.8161 32.4376 43.8025 32.4864C43.7939 32.5176 43.7841 32.5485 43.7732 32.5791C43.7667 32.5974 43.7475 32.6943 43.7626 32.6114C43.7774 32.5296 43.7553 32.6271 43.7462 32.6467C43.7256 32.691 43.7037 32.7348 43.6806 32.7779C43.6518 32.8317 43.6211 32.8845 43.5887 32.9362C43.5576 32.986 43.5138 33.0845 43.4647 33.1172C43.527 33.0758 43.5149 33.0554 43.4811 33.0954C43.4574 33.1234 43.4344 33.152 43.4102 33.1796C43.3618 33.2347 43.3113 33.2879 43.2588 33.3392C43.1971 33.3983 43.1332 33.4551 43.0673 33.5095C42.9948 33.5705 43.0794 33.504 43.0865 33.4952C43.0594 33.5287 43.0024 33.5561 42.9667 33.5801C42.9058 33.621 42.8433 33.6593 42.7793 33.6951C42.7134 33.732 42.6252 33.7959 42.5504 33.8096C42.6442 33.7924 42.6069 33.7873 42.5711 33.8005C42.5252 33.8174 42.4797 33.8351 42.4332 33.8505C42.3637 33.8737 42.2934 33.8947 42.2225 33.9134C42.1401 33.935 42.043 33.9672 41.9574 33.9678C41.9725 33.9677 42.0657 33.957 41.9717 33.9652C41.92 33.9697 41.8686 33.9746 41.8167 33.9771C41.7006 33.9828 41.5843 33.9809 41.4684 33.9716C41.4468 33.9699 41.2818 33.9474 41.3983 33.966C41.2447 33.9423 41.0931 33.9066 40.945 33.8594C40.8837 33.8397 40.8231 33.8176 40.7634 33.7934C40.8007 33.8095 40.8052 33.8113 40.7769 33.7989C40.7008 33.7625 40.6248 33.7272 40.5511 33.686C40.4499 33.6292 40.3524 33.566 40.2593 33.4967C40.316 33.5394 40.2003 33.4466 40.1898 33.4376C40.0324 33.3023 39.7807 33.2714 39.6281 33.4376C39.4822 33.5965 39.4715 33.8419 39.6281 33.9993L39.6283 33.999ZM42.716 69.154C42.8369 69.2503 42.9475 69.3193 43.0888 69.3809C43.2186 69.4376 43.3486 69.4938 43.4786 69.5497C43.7541 69.668 44.0427 69.7581 44.3261 69.8558C44.8683 70.0427 45.4114 70.2202 45.9617 70.3818C47.0607 70.7045 48.1636 70.9994 49.2788 71.2607C51.4895 71.7788 53.7176 72.2349 55.9608 72.5886C56.5976 72.689 57.2353 72.7835 57.8738 72.8721C58.2353 72.9222 58.5981 72.9845 58.9619 73.014C59.283 73.0401 59.6009 73.0742 59.9218 73.0341C60.2047 72.9988 60.4368 72.8456 60.4774 72.5436C60.5169 72.2495 60.3394 72.024 60.0722 71.9229C59.7995 71.8197 59.519 71.7783 59.2331 71.7268C58.9131 71.6692 58.5891 71.6345 58.2668 71.5915C58.2422 71.5882 58.1365 71.5738 58.2356 71.5874L58.2044 71.5831L57.9888 71.5536C57.5656 71.4952 57.1427 71.4342 56.7202 71.3707C55.5956 71.2022 54.4731 71.0199 53.353 70.8238C51.1122 70.4303 48.8896 69.9459 46.6683 69.4563C46.0533 69.3208 45.4395 69.1826 44.823 69.0544C44.5069 68.9886 44.1918 68.9173 43.8754 68.8527C43.7168 68.8203 43.5548 68.8014 43.3947 68.7769C43.2214 68.7503 43.0616 68.725 42.8862 68.7431C42.7891 68.7531 42.7047 68.7953 42.6662 68.8911C42.6334 68.9725 42.6407 69.0941 42.716 69.1541V69.154Z" fill="black"/>
<path d="M90.2153 33.2063C83.7988 37.5528 77.3739 41.9045 70.6315 45.7261C68.9159 46.6985 67.164 47.6477 65.6919 48.96C63.7809 50.6637 64.048 52.7869 61.7996 56.2276C64.8768 55.7682 68.1196 55.7419 71.0729 54.7629C72.526 54.2812 73.8114 53.4069 75.0755 52.5434L90.9997 41.665C92.4628 40.6655 93.985 39.6004 94.7886 38.0212C95.5922 36.442 95.3803 34.1946 93.8598 33.2848C92.3981 32.4102 90.4905 33.1183 89.1222 34.1329C87.7539 35.1475 86.5563 36.4819 84.9388 37.0159" fill="#70E8A0"/>
<path d="M89.9723 32.7906C87.7055 34.2878 85.4393 35.786 83.1568 37.2591C80.8743 38.7322 78.5939 40.1694 76.2774 41.5679C73.9836 42.9534 71.6674 44.3015 69.3297 45.6117C68.2294 46.2281 67.1351 46.8642 66.1268 47.6249C65.6621 47.9755 65.19 48.3356 64.7898 48.7607C64.482 49.0887 64.2102 49.4486 63.9791 49.8345C63.5287 50.5854 63.2328 51.4219 62.9154 52.2344C62.8302 52.4535 62.7431 52.6718 62.6539 52.8893C62.6335 52.939 62.6111 52.9881 62.5921 53.0383C62.6786 52.811 62.6045 53.0086 62.5805 53.0644C62.5292 53.1834 62.4768 53.302 62.4232 53.42C62.184 53.9481 61.9184 54.4639 61.6274 54.9654C61.4595 55.2547 61.2831 55.5389 61.0982 55.8177C60.9189 56.0875 60.9739 56.477 61.1617 56.7201C61.3772 56.999 61.681 57.0609 62.0157 57.0113C62.0753 57.0026 62.135 56.9941 62.1947 56.9857C62.4014 56.9562 62.0105 57.0092 62.2176 56.9825C62.5778 56.9355 62.9385 56.8926 63.2997 56.8537C63.7637 56.8032 64.2282 56.7576 64.6927 56.712C65.698 56.6134 66.7019 56.5103 67.7021 56.3685C69.5947 56.1002 71.4681 55.6737 73.1606 54.7558C73.9735 54.315 74.739 53.7939 75.5022 53.2736L78.0309 51.5496L83.1154 48.0832C84.8011 46.9339 86.4877 45.7859 88.174 44.6374L90.7306 42.8961C91.4681 42.3938 92.2137 41.9011 92.9213 41.3568C94.2774 40.3136 95.5902 39.0041 95.9842 37.277C96.3245 35.7852 96.058 33.9912 94.8535 32.9377C94.1426 32.3159 93.2309 31.9936 92.286 32.0167C91.3411 32.0398 90.4509 32.3527 89.6453 32.8378C89.4778 32.9378 89.3148 33.0452 89.1568 33.1597L88.9982 33.2822C89.087 33.214 89.0973 33.2045 89.0291 33.2538C88.9552 33.3044 88.8825 33.3663 88.8116 33.4235C88.7246 33.494 88.639 33.5663 88.5549 33.6403C88.2487 33.9093 87.9481 34.1895 87.6629 34.4807C87.366 34.7838 87.0183 35.0523 86.6876 35.3185C86.6461 35.3519 86.6041 35.3847 86.5626 35.4181C86.5452 35.4321 86.471 35.4896 86.5608 35.4202C86.4766 35.4852 86.3914 35.5488 86.3053 35.6111C86.1345 35.7354 85.9591 35.8533 85.7794 35.9646C85.6154 36.0655 85.448 36.1606 85.2774 36.2499C85.1843 36.2986 85.0891 36.3424 84.9945 36.3879C84.8389 36.4628 85.0984 36.3469 84.9375 36.4131C84.897 36.4298 84.6543 36.5156 84.7885 36.4705C84.5086 36.5646 84.2957 36.8644 84.3934 37.1664C84.4835 37.4448 84.789 37.6625 85.0893 37.5615C85.5043 37.422 85.9111 37.2683 86.2942 37.0535C86.6478 36.8552 86.9833 36.6262 87.308 36.3839C87.6656 36.1171 88.013 35.8371 88.3586 35.555C88.3859 35.5327 88.4133 35.5076 88.442 35.4869C88.3242 35.5722 88.4721 35.4733 88.4876 35.4623C88.5743 35.4006 88.6613 35.3393 88.7485 35.2782C88.9079 35.1663 89.0689 35.0566 89.2314 34.9492C89.5683 34.7273 89.915 34.519 90.2752 34.3375C90.3707 34.2895 90.4673 34.2435 90.5647 34.1996C90.5598 34.2018 90.6617 34.161 90.6622 34.1555L90.563 34.1987C90.5956 34.1854 90.6283 34.1722 90.6611 34.1593C90.8579 34.0822 91.058 34.0183 91.261 33.9599C91.4445 33.9071 91.6266 33.853 91.814 33.8148C91.8977 33.7978 91.9821 33.7861 92.0661 33.7711C91.7969 33.819 91.9726 33.7845 92.0352 33.7788C92.102 33.7727 92.1689 33.7685 92.2359 33.766C92.3686 33.7608 92.5014 33.7637 92.6337 33.7745C92.7112 33.7808 92.8432 33.8296 92.5975 33.7656C92.7819 33.8137 92.9668 33.8374 93.1481 33.9025C93.2198 33.9283 93.288 33.9896 93.1015 33.8785C93.1438 33.9037 93.1944 33.9204 93.2385 33.9425C93.3122 33.9795 93.3841 34.0198 93.4542 34.0634C93.5276 34.1091 93.7388 34.2997 93.5182 34.0967C93.5794 34.153 93.6455 34.2031 93.7054 34.2611C93.7646 34.3184 93.8211 34.3784 93.8746 34.4411C93.892 34.4614 93.9085 34.4849 93.9271 34.5043C93.7483 34.3171 93.8455 34.3965 93.889 34.4578C93.9843 34.5924 94.0682 34.7348 94.1396 34.8834C94.1576 34.9207 94.173 34.9595 94.1915 34.9966C94.0783 34.7701 94.1294 34.8442 94.1506 34.9025C94.1794 34.9813 94.2085 35.0597 94.2332 35.1399C94.2829 35.3023 94.3214 35.468 94.3484 35.6357C94.3863 35.8686 94.3272 35.4219 94.3506 35.6577C94.3591 35.7438 94.3649 35.8301 94.3681 35.9166C94.374 36.0835 94.3704 36.2507 94.3573 36.4172C94.351 36.4974 94.2973 36.7821 94.3573 36.4666C94.3437 36.5382 94.3348 36.6108 94.3208 36.6824C94.2875 36.8539 94.244 37.0233 94.1906 37.1896C94.1639 37.2724 94.1329 37.3532 94.1032 37.4349C94.0565 37.5636 94.1413 37.3486 94.1423 37.3458C94.1288 37.3859 94.1074 37.4255 94.0895 37.4638C94.0035 37.6462 93.9068 37.8233 93.7998 37.9942C93.7011 38.1534 93.5572 38.3048 93.4722 38.4698C93.5724 38.2752 93.5281 38.3978 93.4791 38.4582C93.3796 38.5807 93.2762 38.6999 93.1691 38.8158C92.8992 39.1082 92.6074 39.3797 92.3035 39.6364C92.1629 39.7552 91.9962 39.8601 91.8665 39.9899C92.0318 39.8243 91.923 39.9461 91.8722 39.9846C91.8294 40.0171 91.7864 40.0493 91.7433 40.0814C91.657 40.1456 91.5703 40.2091 91.4832 40.272C91.1438 40.5171 90.7983 40.7537 90.453 40.9903L87.9822 42.6832L83.0135 46.0876C81.3664 47.2162 79.7183 48.3433 78.0706 49.4712L75.6263 51.1443C74.846 51.6784 74.0724 52.2249 73.273 52.7304C72.9079 52.9612 72.5362 53.182 72.1542 53.3836C71.964 53.4842 71.771 53.5794 71.5754 53.6693C71.5221 53.6937 71.4683 53.717 71.4148 53.7412C71.2289 53.8253 71.5895 53.6727 71.3998 53.7478C71.2906 53.791 71.1816 53.8346 71.0712 53.8747C70.2053 54.1896 69.2991 54.401 68.3942 54.5679C67.9563 54.6479 67.5167 54.7181 67.0757 54.7785C67.0309 54.7847 66.8236 54.8203 67.057 54.7813C66.9971 54.7913 66.936 54.7972 66.8758 54.8049C66.775 54.8178 66.6742 54.8304 66.5733 54.8427C66.3309 54.8722 66.0885 54.9015 65.8459 54.9294C64.9169 55.0362 63.9862 55.1282 63.0581 55.2427C62.5657 55.3039 62.0741 55.3712 61.5834 55.4444L62.5009 56.6379C63.157 55.6087 63.6959 54.5283 64.1536 53.3976C64.323 52.9791 64.48 52.5557 64.6408 52.1338C64.7148 51.9383 64.7911 51.7437 64.8699 51.5501C64.8927 51.4945 64.9721 51.3166 64.8637 51.5627C64.8839 51.5169 64.9031 51.4706 64.9233 51.4248C64.963 51.3343 65.0042 51.2443 65.0467 51.1551C65.2115 50.8095 65.3997 50.4745 65.6242 50.164C65.6413 50.1404 65.7558 49.9893 65.6633 50.1093C65.5737 50.2254 65.6748 50.0962 65.6957 50.0707C65.7644 49.987 65.8356 49.9056 65.9095 49.8265C66.0744 49.6497 66.253 49.4873 66.4357 49.3291C66.5472 49.2325 66.6603 49.1377 66.7748 49.0447C66.8358 48.9951 66.8975 48.9464 66.9591 48.8975C66.9868 48.8755 67.067 48.8037 66.9442 48.9084C66.974 48.883 67.0069 48.8604 67.0381 48.8368C67.2896 48.647 67.5458 48.4637 67.8066 48.287C68.3292 47.9321 68.8672 47.6007 69.4108 47.2793C71.6838 45.9358 73.9838 44.6423 76.2147 43.2279C78.4934 41.7831 80.7424 40.2918 82.9747 38.7765C85.1994 37.2664 87.4114 35.7379 89.6201 34.2044L90.458 33.6225C90.6713 33.4744 90.7693 33.2006 90.6307 32.9638C90.5047 32.7485 90.1899 32.6471 89.972 32.7911L89.9723 32.7906Z" fill="#70E8A0"/>
<path d="M87.7493 34.9498C88.3051 36.7927 89.1872 38.5209 90.3535 40.0522C90.6607 40.4551 91.0109 40.8606 91.4888 41.0288C92.2773 41.3063 93.1266 40.8559 93.8003 40.3611C94.9579 39.5102 95.9746 38.4827 96.8134 37.3162C97.3434 36.5787 97.808 35.7658 97.9557 34.8697C98.1034 33.9736 97.8876 32.9788 97.2248 32.3579C96.5253 31.7026 95.4813 31.5753 94.525 31.6402C92.1224 31.8033 89.8094 33.0144 88.3068 34.8961" fill="black"/>
<path d="M87.5056 35.017C87.5564 35.2777 87.5957 35.5382 87.6361 35.8008C87.6252 35.73 87.6471 35.8776 87.6548 35.9093C87.6616 35.9376 87.6705 35.9656 87.6782 35.9937C87.6956 36.057 87.7135 36.1202 87.7317 36.1833C87.7701 36.3163 87.8102 36.4487 87.8522 36.5806C88.0212 37.1129 88.2285 37.6254 88.4702 38.1287C88.9372 39.1011 89.4921 40.0691 90.1943 40.8926C90.5616 41.3233 91.058 41.6831 91.6273 41.7738C92.2869 41.8789 92.9165 41.7011 93.5017 41.3984C94.0058 41.1376 94.4601 40.7792 94.9013 40.4256C95.3134 40.0953 95.7012 39.7323 96.0682 39.3528C96.465 38.9425 96.83 38.5062 97.178 38.0542C97.5001 37.6359 97.8052 37.2017 98.0571 36.7371C98.6038 35.7289 98.8904 34.5992 98.6463 33.4602C98.5298 32.9168 98.2703 32.4131 97.9076 31.994C97.5395 31.5687 97.0316 31.2821 96.5044 31.1031C95.5077 30.7646 94.3896 30.851 93.3721 31.0367C92.3904 31.2159 91.4348 31.5697 90.559 32.0462C90.1454 32.2719 89.7501 32.5295 89.3766 32.8166C88.9625 33.1342 88.5587 33.4689 88.2113 33.86C88.0215 34.0736 87.8453 34.298 87.6726 34.5255C87.5697 34.6611 87.548 34.935 87.5986 35.0913C87.6487 35.2461 87.7324 35.3728 87.8617 35.4727C88.1306 35.6804 88.5885 35.6951 88.8258 35.4153C89.0631 35.1355 89.3191 34.8753 89.5824 34.621C89.7705 34.4394 89.9667 34.2663 90.1704 34.1023C90.1913 34.0855 90.3307 33.9767 90.217 34.0642C90.1033 34.1517 90.2438 34.0442 90.2652 34.0282C90.8419 33.5968 91.4703 33.2382 92.1327 32.956L91.9528 33.0319C92.665 32.7322 93.412 32.5242 94.1776 32.4184L93.9783 32.4452C94.5239 32.3724 95.0772 32.3446 95.6246 32.4145L95.426 32.3878C95.7341 32.43 96.0353 32.5036 96.3225 32.6239L96.1443 32.5487C96.2786 32.6063 96.408 32.6748 96.5311 32.7536C96.5631 32.7744 96.5946 32.7959 96.6256 32.8182C96.7455 32.9045 96.5847 32.7808 96.5814 32.7831C96.5932 32.7748 96.7349 32.9199 96.7522 32.9372C96.801 32.9861 96.8453 33.0383 96.8908 33.0901C96.9494 33.1568 96.7849 32.9423 96.8547 33.0427C96.876 33.0734 96.898 33.1035 96.9186 33.1347C97.0001 33.2602 97.0707 33.3924 97.1296 33.53L97.0546 33.3524C97.1519 33.5863 97.2165 33.8296 97.2531 34.0802L97.2266 33.8827C97.2669 34.1855 97.2664 34.4923 97.2253 34.7949L97.2518 34.5977C97.1982 34.9647 97.0912 35.3193 96.9487 35.6612L97.0233 35.4843C96.8274 35.9438 96.5718 36.3739 96.2879 36.7842C96.222 36.8793 96.1548 36.9734 96.0864 37.0666C96.0478 37.1191 96.0088 37.1714 95.9696 37.2234C95.9522 37.2464 95.9354 37.2704 95.917 37.2925C95.9554 37.2464 96.0094 37.1738 95.9392 37.2634C95.4784 37.8505 94.9708 38.3992 94.4213 38.9042C94.2394 39.0701 94.054 39.2321 93.8652 39.39C93.7545 39.4832 93.6425 39.5746 93.529 39.6642C93.5146 39.6756 93.3989 39.7639 93.4998 39.6876L93.487 39.6971C93.4584 39.7189 93.4296 39.7406 93.4008 39.7621C93.1795 39.9266 92.9488 40.0798 92.7039 40.207C92.6524 40.2337 92.5497 40.2608 92.5087 40.3011C92.5718 40.2392 92.6334 40.2514 92.5592 40.2794C92.5192 40.2945 92.4795 40.3097 92.4391 40.3235C92.3073 40.3684 92.1717 40.4015 92.034 40.4222L92.2206 40.3971C92.0581 40.4186 91.8935 40.419 91.7309 40.3983L91.9152 40.4231C91.8603 40.4149 91.8059 40.404 91.7522 40.3904C91.7086 40.379 91.6394 40.339 91.5962 40.3405C91.6734 40.3379 91.7218 40.3986 91.6503 40.3626C91.6268 40.3508 91.603 40.3395 91.5798 40.327C91.5219 40.2957 91.4658 40.2615 91.4115 40.2244C91.3906 40.2101 91.369 40.1904 91.3472 40.1785C91.3585 40.1847 91.4719 40.2825 91.389 40.2096C91.3488 40.1743 91.3078 40.1401 91.2686 40.1036C91.1852 40.0253 91.1056 39.9431 91.0299 39.8574C90.9588 39.7771 90.8895 39.6951 90.8223 39.6115C90.7859 39.5666 90.7499 39.5214 90.7141 39.4761L90.66 39.4072C90.6111 39.3456 90.7373 39.5087 90.6655 39.4144C90.5943 39.3209 90.5249 39.226 90.4548 39.1317L90.3569 39.005L90.4011 39.0615C90.3982 39.0461 90.3604 39.0065 90.3486 38.9906C90.305 38.9314 90.2619 38.8719 90.2192 38.812C89.6573 38.0256 89.1793 37.1834 88.7292 36.3291C88.6006 36.0851 88.4912 35.8311 88.3635 35.5871C88.2395 35.3502 88.0962 35.1309 87.9929 34.8828C87.9404 34.7569 87.8255 34.6668 87.682 34.7063C87.5419 34.7448 87.4793 34.8828 87.5055 35.0172L87.5056 35.017ZM64.9051 48.5287C64.8077 49.177 64.7819 49.8293 64.8559 50.4815C64.9352 51.1808 65.1121 51.836 65.3872 52.4835C65.8611 53.599 66.6206 54.6038 67.5697 55.359C68.1384 55.8115 68.7691 56.2358 69.4636 56.467C69.754 56.5637 70.0752 56.3785 70.1878 56.1116C70.2987 55.8488 70.2121 55.4795 69.9366 55.345C69.4378 55.1015 68.9442 54.8756 68.4855 54.558C68.4316 54.5207 68.3782 54.4826 68.3254 54.4438C68.2997 54.4249 68.249 54.3993 68.2309 54.3732C68.2942 54.4644 68.2914 54.4205 68.2424 54.3818C68.1341 54.2962 68.0282 54.2075 67.9249 54.1159C67.6153 53.8417 67.3302 53.5409 67.073 53.2171C67.0504 53.1886 66.9856 53.1259 67.0763 53.222C67.0542 53.1986 67.0363 53.169 67.0171 53.1431C66.7106 52.7285 66.4518 52.2808 66.2454 51.8083C66.2338 51.7818 66.1902 51.6938 66.2396 51.7956C66.224 51.7634 66.2123 51.7286 66.1992 51.6954C66.1675 51.615 66.1372 51.5341 66.1085 51.4526C66.008 51.1678 65.9217 50.8781 65.8498 50.5848C65.8003 50.3832 65.7596 50.1795 65.728 49.9743C65.725 49.955 65.708 49.8313 65.7202 49.925C65.6653 49.4966 65.6497 49.0641 65.6735 48.6328C65.6841 48.4386 65.5165 48.2731 65.3343 48.2486C65.161 48.2253 64.934 48.3362 64.9051 48.5288V48.5287ZM61.9504 54.3869C61.9904 55.239 62.4125 56.066 63.0791 56.5984L60.3765 56.9695C61.074 56.394 61.6229 55.6591 61.9767 54.8269" fill="black"/>
<path d="M61.7066 54.3197C61.635 54.7911 61.6504 55.2878 61.8164 55.7402C61.9872 56.2056 62.318 56.6638 62.6992 56.9781L63.0789 56.0613C62.1288 56.1834 61.1789 56.3036 60.2313 56.4436L60.7619 57.3551C61.1418 57.0334 61.4739 56.6701 61.7413 56.2493C61.8627 56.0582 61.9868 55.8618 62.0823 55.6563C62.1394 55.5334 62.1894 55.4074 62.2417 55.2824C62.2178 55.3395 62.2446 55.2777 62.2557 55.2531C62.2671 55.2278 62.2783 55.2024 62.2893 55.177C62.3233 55.0985 62.3563 55.0197 62.3885 54.9405C62.4684 54.7439 62.3172 54.5107 62.1411 54.4364C61.9626 54.3611 61.695 54.417 61.6075 54.6112C61.5152 54.8161 61.4073 55.0023 61.28 55.1874C61.2171 55.2789 61.1562 55.3718 61.0913 55.4619C61.075 55.4845 61.0586 55.5069 61.0421 55.5292C61.0761 55.4852 61.0759 55.4847 61.0414 55.5276C61.0053 55.5689 60.9708 55.6117 60.9346 55.653C60.6436 55.9845 60.3333 56.3056 59.9906 56.584C59.8237 56.7196 59.8012 56.9981 59.8778 57.1797C59.9534 57.3588 60.1652 57.5417 60.3762 57.5149C61.3265 57.3943 62.2737 57.2548 63.2216 57.1163C63.6045 57.0604 63.7576 56.4566 63.4586 56.2187C63.2944 56.088 63.1362 55.9494 62.9958 55.7931C62.9609 55.7542 62.9279 55.7139 62.8943 55.6739C62.8597 55.6303 62.8618 55.6332 62.9006 55.6825C62.8849 55.6614 62.8694 55.6401 62.8542 55.6186C62.7972 55.538 62.7481 55.4529 62.6945 55.3702C62.4681 55.0206 62.2968 54.7069 62.1939 54.3199C62.134 54.0947 61.7453 54.0638 61.7064 54.3199L61.7066 54.3197ZM65.9639 51.2055C67.6618 50.3733 69.3527 49.5252 71.0376 48.6671C72.7139 47.8134 74.3529 46.8852 75.9879 45.9552C77.6229 45.0252 79.2606 44.0671 80.8793 43.0931C82.4911 42.1231 84.0909 41.1336 85.6786 40.1246C88.0601 38.6111 88.8465 38.0967 90.4156 37.0604C90.526 36.9875 90.6385 36.9171 90.7432 36.8362C90.8582 36.7473 90.9413 36.6031 91.0283 36.4856C91.1257 36.354 91.0873 36.1428 90.9958 36.0244C90.9456 35.9595 90.8775 35.9108 90.7999 35.8844C90.7223 35.8579 90.6386 35.8549 90.5593 35.8756C90.4316 35.909 90.294 35.9327 90.1766 35.9951C90.0669 36.0534 89.9656 36.1389 89.8633 36.2093C89.2833 36.6083 88.7016 37.0047 88.1181 37.3984C87.3379 37.9244 86.5527 38.4428 85.7626 38.9537C84.183 39.9758 82.5911 40.9785 80.9869 41.9617C78.5806 43.4365 77.767 43.9083 76.1394 44.8519C75.3257 45.3237 74.509 45.7905 73.6896 46.2523C72.8704 46.714 72.0409 47.1586 71.2261 47.6279C69.5966 48.5666 67.9543 49.4799 66.294 50.3633C66.0848 50.4746 65.8754 50.5856 65.6659 50.6962C65.5251 50.7706 65.4822 50.9664 65.5601 51.0997C65.6454 51.2456 65.8201 51.2758 65.9636 51.2055H65.9639ZM67.2434 54.3771C68.9903 53.7079 70.6531 52.8363 72.3074 51.9668C73.9485 51.1042 75.5732 50.2107 77.1807 49.2869C78.7945 48.3594 80.3953 47.4092 81.9764 46.4269C83.5575 45.4446 85.1062 44.4413 86.6423 43.4047C88.1839 42.3644 89.7207 41.3169 91.2208 40.2173C91.4068 40.0809 91.5924 39.9441 91.7778 39.807C91.9998 39.6427 92.1344 39.3407 91.9678 39.0824C91.8276 38.865 91.4792 38.7133 91.2432 38.8924C89.7655 40.0136 88.281 41.1314 86.7632 42.1979C85.2454 43.2644 83.7082 44.3018 82.1516 45.3101C80.5893 46.3222 79.0096 47.3094 77.4067 48.2561C75.8105 49.1988 74.1967 50.1114 72.5662 50.9933C70.9367 51.8746 69.2764 52.6987 67.6575 53.5985C67.4565 53.7102 67.2603 53.8309 67.0623 53.9481C66.8418 54.0787 66.9872 54.4752 67.2432 54.3771H67.2434Z" fill="black"/>
<path d="M91.1477 35.3684L92.1187 37.261L92.5929 38.1853C92.6757 38.3467 92.7567 38.5088 92.8463 38.6665C92.9434 38.8374 93.0583 38.9771 93.1887 39.1234C93.3898 39.3489 93.7345 39.1078 93.6715 38.8423C93.6254 38.6478 93.5685 38.4756 93.4822 38.2948C93.4076 38.1384 93.3252 37.9863 93.2441 37.8333L92.7462 36.8942L91.7505 35.0161C91.6622 34.8496 91.4308 34.7985 91.2729 34.8909C91.1026 34.9905 91.0613 35.2002 91.1477 35.3685V35.3684ZM92.9345 33.4722L93.8431 35.5904L94.2925 36.6381C94.4509 37.0073 94.5886 37.396 94.8653 37.6966C95.0795 37.9292 95.5364 37.7564 95.5126 37.4285C95.4811 36.9964 95.2796 36.6086 95.1092 36.2177L94.6441 35.1507L93.7139 33.0166C93.6192 32.7993 93.2846 32.7333 93.0963 32.8547C92.87 33.0006 92.8344 33.2392 92.9344 33.4723L92.9345 33.4722ZM95.6878 33.9797C95.7396 34.007 95.7902 34.0364 95.839 34.0688C95.8608 34.0833 95.8941 34.118 95.9187 34.125C95.9118 34.123 95.8424 34.0635 95.8837 34.0982C95.8961 34.1086 95.9088 34.1187 95.9212 34.1293C96.0127 34.2076 96.0961 34.2949 96.1701 34.3899L96.1065 34.3076C96.2019 34.4314 96.2813 34.5667 96.3428 34.7104L96.3012 34.6118C96.3603 34.7541 96.416 34.9042 96.4546 35.0534C96.5027 35.2394 96.6922 35.3542 96.8772 35.3293C97.0606 35.3047 97.2167 35.1437 97.2112 34.951C97.2062 34.7746 97.1841 34.6006 97.1167 34.4371C97.0493 34.2736 96.9738 34.1176 96.8688 33.9743C96.6622 33.6922 96.4045 33.45 96.0888 33.2938C95.9028 33.2018 95.6503 33.2377 95.5453 33.4363C95.4484 33.6197 95.4915 33.8764 95.6878 33.9798V33.9797ZM45.102 16.7855C46.3564 15.5943 47.7343 14.5405 49.2125 13.6419C50.7171 12.7279 52.2485 11.9754 53.8372 11.4058C55.473 10.8194 57.1671 10.4128 58.8867 10.1664L59.035 10.1456C59.1539 10.129 58.8639 10.1665 59.0561 10.1431C59.155 10.1311 59.2538 10.1184 59.3528 10.107C59.5904 10.0796 59.8285 10.0557 60.0668 10.0355C60.4707 10.0012 60.8757 9.9757 61.2809 9.9649C62.0906 9.94318 62.9008 9.98202 63.7047 10.0811L63.7549 10.0874C63.8376 10.0982 63.8218 10.0959 63.7074 10.0806C63.7449 10.0764 63.7947 10.0928 63.8324 10.0982C64.024 10.126 64.2151 10.1574 64.4055 10.1924C64.7688 10.2591 65.1294 10.3397 65.4865 10.434C65.8244 10.5233 66.1587 10.626 66.4884 10.742C66.6595 10.8023 66.8291 10.8664 66.9972 10.9343L67.111 10.981C67.2143 11.0233 66.9299 10.9014 67.0835 10.9699C67.1727 11.0097 67.2621 11.0489 67.3506 11.0902C67.6718 11.2395 67.985 11.4057 68.2888 11.5879C68.5063 11.7187 68.7183 11.8585 68.9243 12.0069C68.9498 12.0254 68.9753 12.044 69.0006 12.0627C69.0521 12.1008 69.1914 12.2473 69.0266 12.0808C69.1348 12.1901 69.2711 12.2784 69.3868 12.3807C69.5267 12.5042 69.662 12.633 69.7923 12.7666C69.9006 12.8777 70.0054 12.9923 70.1063 13.1102C70.1568 13.1692 70.2053 13.2297 70.2547 13.2896C70.3637 13.4218 70.1399 13.1342 70.2416 13.2718C70.2693 13.3092 70.2974 13.3464 70.3247 13.3841C70.5735 13.7276 70.7887 14.0942 70.9671 14.479C70.9873 14.5225 71.0064 14.5664 71.0261 14.6102C71.0988 14.7714 70.9536 14.4243 71.017 14.5897C71.0836 14.7636 71.1487 14.9374 71.2027 15.1157C71.254 15.2852 71.2979 15.4569 71.3343 15.6303C71.356 15.7341 71.3752 15.8384 71.3918 15.9431C71.3973 15.9779 71.4014 16.0132 71.4074 16.0479C71.3606 15.7796 71.4028 16.0269 71.4086 16.086C71.446 16.4637 71.4527 16.8439 71.4285 17.2227C71.4222 17.3198 71.4139 17.4167 71.4036 17.5135C71.3998 17.5487 71.3954 17.5838 71.3915 17.619C71.3706 17.8105 71.4251 17.4136 71.393 17.6035C71.3604 17.7961 71.3264 17.9878 71.2814 18.178C71.2159 18.4551 71.1345 18.7281 71.0375 18.9958C71.009 19.0747 70.9247 19.2112 70.922 19.295L70.9666 19.1899C70.9386 19.2554 70.9096 19.3206 70.8798 19.3853C70.7527 19.6607 70.6091 19.9281 70.4496 20.1861C70.3558 20.3378 70.2566 20.486 70.152 20.6306C70.1321 20.6582 70.0611 20.7269 70.0565 20.7596L70.125 20.6713C70.1031 20.6994 70.0809 20.7273 70.0586 20.7551C69.9916 20.8384 69.9227 20.9201 69.852 21.0003C69.5989 21.2878 69.3223 21.5538 69.025 21.7954C68.978 21.8335 68.8986 21.9281 69.0435 21.7836C69.005 21.822 68.9509 21.8536 68.907 21.8857C68.6628 22.064 68.4079 22.2269 68.1435 22.3735C67.9622 22.4744 67.7769 22.5679 67.588 22.6536C67.5537 22.6692 67.519 22.6841 67.4847 22.6997C67.3027 22.7822 67.6679 22.6287 67.4815 22.7007C67.3758 22.7415 67.2707 22.7832 67.164 22.8211C66.7717 22.9602 66.3695 23.0696 65.9608 23.1484C65.8677 23.1664 65.7744 23.1829 65.6808 23.1978C65.6377 23.2047 65.5495 23.2019 65.5119 23.223C65.6084 23.1687 65.6704 23.2037 65.5719 23.2141C65.3449 23.2379 65.1186 23.2592 64.8904 23.2684C64.4339 23.2869 63.9767 23.2701 63.5228 23.2179L63.4661 23.2112C63.3704 23.1991 63.3905 23.202 63.5264 23.2198C63.474 23.1797 63.3105 23.1868 63.2445 23.1753C63.0384 23.1393 62.8338 23.0959 62.6307 23.0452C62.3261 22.9691 62.227 22.9363 62.0285 22.8708C61.8941 22.8263 61.7608 22.7785 61.6288 22.7274C61.428 22.6488 61.7752 22.8003 61.6194 22.7235C61.54 22.6844 61.4602 22.6473 61.3829 22.604C61.3368 22.5782 61.2916 22.551 61.2472 22.5224C61.2185 22.5038 61.11 22.3996 61.2073 22.5004C61.3098 22.6066 61.1947 22.4881 61.1757 22.471C61.138 22.4371 61.1048 22.3992 61.0682 22.3644C60.968 22.2692 61.1078 22.403 61.1104 22.4247C61.1076 22.401 61.0289 22.2717 61.0103 22.2553C61.1072 22.3401 61.0632 22.4184 61.0444 22.3243L61.031 22.2757C61.0117 22.1808 61.0137 22.2097 61.0372 22.3625C61.0429 22.3227 61.0347 22.2652 61.0333 22.2243C61.0303 22.1381 61.0902 22.1604 61.0174 22.3226C61.0333 22.2873 61.0408 22.2324 61.0504 22.1943C61.0887 22.0417 60.96 22.3435 61.0219 22.2592C61.0432 22.2301 61.0573 22.192 61.0764 22.161C61.1957 21.9677 60.9748 22.2585 61.0773 22.1519C61.1331 22.0939 61.1863 22.0348 61.2464 21.9809C61.2678 21.9617 61.3967 21.8715 61.2727 21.9539C61.1443 22.0392 61.2863 21.9454 61.306 21.9316C61.4618 21.8231 61.6278 21.7292 61.7986 21.6468C61.842 21.6258 61.9002 21.6095 61.9394 21.582C61.7671 21.7028 61.8368 21.6242 61.9192 21.5922C62.0073 21.5581 62.0965 21.5272 62.1857 21.4962C62.4195 21.4151 62.6544 21.337 62.8903 21.2621C63.8369 20.9617 64.8011 20.7132 65.779 20.5384C66.0007 20.4988 66.223 20.464 66.4457 20.4311C66.6736 20.3975 66.2552 20.4534 66.4838 20.4258C66.5396 20.4191 66.5953 20.4119 66.651 20.4053C66.7847 20.3896 66.9186 20.3754 67.0526 20.3628C67.5311 20.3178 68.0116 20.2933 68.4922 20.2923C68.982 20.2909 69.4715 20.3156 69.9586 20.3662C70.0691 20.3778 70.18 20.389 70.2899 20.4054C70.0621 20.3715 70.2878 20.4065 70.3272 20.4125C70.3933 20.4226 70.4592 20.4333 70.5251 20.4445C70.7672 20.4856 71.0079 20.5341 71.2471 20.59C71.6493 20.6841 72.046 20.8 72.4341 20.9414C72.5593 20.9871 72.6836 21.0351 72.8069 21.0855C72.8972 21.1225 72.8941 21.1738 72.7763 21.0722C72.8352 21.123 72.9482 21.1478 73.0203 21.1811C73.1255 21.2298 73.2298 21.2801 73.3333 21.3322C73.6756 21.5046 74.0081 21.696 74.3291 21.9055C74.493 22.0125 74.6537 22.1242 74.8109 22.2407C74.8394 22.2618 74.8677 22.2834 74.8962 22.3046C75.0488 22.4177 74.7463 22.1835 74.8938 22.303C74.9765 22.37 75.0595 22.4364 75.1407 22.5051C75.4374 22.7554 75.7191 23.0229 75.9843 23.3063C76.1038 23.4344 76.2195 23.5659 76.3311 23.7009C76.3645 23.7413 76.3969 23.7824 76.4301 23.8229C76.5483 23.9671 76.3179 23.6706 76.429 23.8206C76.4913 23.9047 76.5537 23.9886 76.6137 24.0744C76.8279 24.3801 77.0201 24.7008 77.1887 25.0338C77.2316 25.1187 77.2729 25.2045 77.3126 25.2911C77.327 25.3226 77.3407 25.3544 77.3552 25.3858C77.4325 25.5537 77.2869 25.2113 77.3547 25.3836C77.4247 25.5615 77.4917 25.7401 77.5495 25.9224C77.6473 26.2309 77.7232 26.5459 77.7767 26.8651C77.7881 26.9334 77.7798 27.1072 77.781 26.8751C77.7801 27.0449 77.8165 27.2201 77.8225 27.3908C77.8292 27.5796 77.8268 27.7686 77.8153 27.9571C77.8104 28.0391 77.8038 28.121 77.7956 28.2027C77.7913 28.2458 77.7732 28.3071 77.7791 28.3497C77.7772 28.3359 77.8088 28.1536 77.7869 28.2893C77.7554 28.485 77.7197 28.6792 77.6728 28.8719C77.6145 29.1128 77.5415 29.3498 77.4543 29.5818C77.437 29.6283 77.4191 29.6745 77.4008 29.7205C77.3316 29.8942 77.3809 29.7201 77.4023 29.7198C77.3764 29.7202 77.1931 30.1607 77.1665 30.2109C77.0816 30.371 76.9904 30.5277 76.8932 30.6806C76.8721 30.7138 76.5958 31.1326 76.5846 31.1253C76.5835 31.1246 76.7049 30.9745 76.6145 31.0865C76.5837 31.1246 76.5533 31.163 76.522 31.2007C76.3513 31.4073 76.1676 31.6027 75.972 31.7859C75.8603 31.8905 75.7447 31.9908 75.6254 32.0865C75.5616 32.1369 75.5753 32.1267 75.6665 32.0558C75.6146 32.0626 75.5141 32.1683 75.4726 32.1972C75.4072 32.2429 75.3408 32.2871 75.2734 32.3299C75.1125 32.4323 74.9461 32.526 74.7751 32.6105C74.7158 32.6398 74.6035 32.6648 74.5595 32.7108C74.62 32.6476 74.6922 32.6575 74.6102 32.6892C74.5658 32.7063 74.5218 32.7242 74.4772 32.7407C74.3134 32.8015 74.1464 32.8533 73.977 32.8959C73.8531 32.927 73.7279 32.9531 73.6019 32.974L73.5544 32.9816C73.4713 32.9938 73.4909 32.9914 73.6133 32.9744C73.5435 32.9648 73.4427 32.9928 73.3717 32.9978C73.274 33.0047 73.1758 33.0089 73.0778 33.0091C72.998 33.0093 72.9182 33.0062 72.8387 32.9996L72.7904 32.9951C72.7071 32.9855 72.7259 32.9883 72.847 33.0036C72.8277 32.9858 72.7288 32.9831 72.7015 32.9775C72.6566 32.9683 72.1768 32.868 72.1775 32.8215L72.2668 32.86C72.2063 32.8339 72.1466 32.8058 72.0879 32.7757C72.0154 32.7387 71.9445 32.6986 71.8755 32.6554C71.8347 32.6299 71.7957 32.6017 71.7553 32.5757C71.6143 32.4852 71.8823 32.6895 71.7582 32.5795C71.6891 32.5182 71.62 32.4583 71.5569 32.3906C71.5364 32.3686 71.5175 32.3454 71.4971 32.3234C71.389 32.2069 71.5898 32.4704 71.5081 32.3361C71.4706 32.2747 71.4342 32.2127 71.3989 32.15C71.3235 32.0157 71.4505 32.3217 71.4098 32.174C71.4005 32.1401 71.3885 32.107 71.3799 32.0728C71.3717 32.0402 71.3705 32.0001 71.3583 31.9693C71.374 32.1002 71.3785 32.1248 71.3717 32.043C71.3705 32.0214 71.37 31.9998 71.3703 31.9782C71.3703 31.9477 71.3836 31.8966 71.3753 31.8687L71.3598 31.9805C71.3648 31.9502 71.3709 31.9202 71.3781 31.8904C71.3852 31.8606 71.3934 31.831 71.4025 31.8017L71.4165 31.7595C71.4448 31.6843 71.4358 31.7041 71.3895 31.8189C71.4302 31.7783 71.4622 31.6881 71.4941 31.6359C71.5726 31.5074 71.3717 31.7636 71.4787 31.6584C71.5082 31.6294 71.5353 31.5982 71.5657 31.5699C71.6291 31.5109 71.6935 31.5134 71.5414 31.5816C71.5713 31.5682 71.6002 31.54 71.6282 31.522C71.6948 31.4791 71.7647 31.4445 71.8347 31.4078C71.9433 31.3508 71.7899 31.4302 71.7756 31.4311C71.8124 31.4288 71.8659 31.3969 71.9014 31.385C71.9881 31.356 72.0764 31.3318 72.1655 31.3117C72.2328 31.2965 72.3346 31.2994 72.3955 31.2687L72.2894 31.2828C72.3209 31.2789 72.3525 31.2755 72.3841 31.2725C72.4317 31.2679 72.4794 31.2642 72.5272 31.2614C72.7026 31.2512 72.8785 31.2515 73.0538 31.2623C73.1323 31.267 73.2103 31.2754 73.2886 31.2824C73.457 31.2974 73.1068 31.2529 73.2719 31.2795L73.3739 31.2959C73.6022 31.3338 73.8291 31.3782 74.0548 31.4292C74.459 31.5204 74.8584 31.6315 75.2516 31.7621C75.5351 31.8563 75.8151 31.9603 76.0913 32.0741C76.2734 32.148 75.9453 32.0094 76.1252 32.0885C76.1781 32.1118 76.2312 32.1348 76.2839 32.1585C76.6709 32.3322 77.049 32.5249 77.417 32.7358C77.8688 32.9945 78.3047 33.2801 78.7222 33.5911C78.7684 33.6255 78.8159 33.6593 78.8606 33.6956C78.7372 33.5953 78.8198 33.6639 78.8463 33.6851C79.0268 33.8299 79.2057 33.976 79.3795 34.1288C79.6835 34.396 79.9745 34.6775 80.2516 34.9725C80.3835 35.1129 80.5129 35.2556 80.6398 35.4005C80.7412 35.5164 80.8405 35.6342 80.9375 35.7538C80.9554 35.7759 81.0759 35.9293 80.9664 35.786C81.0877 35.9447 81.2044 36.0681 81.4052 36.1234C81.581 36.1718 81.815 36.1499 81.971 36.0494C82.2715 35.8557 82.4839 35.3712 82.2344 35.0448C81.6535 34.2848 81.033 33.5822 80.3053 32.9584C79.5989 32.3528 78.8351 31.8101 78.0219 31.3574C77.2087 30.9047 76.3449 30.5327 75.4581 30.2527C74.6216 29.9886 73.7202 29.7633 72.839 29.7507C72.0045 29.7387 71.0844 29.9283 70.4694 30.5321C69.7977 31.1917 69.6688 32.2692 70.1776 33.0635C71.1666 34.6073 73.2963 34.7939 74.8829 34.2111C78.0747 33.0387 79.9109 29.3829 79.2525 26.1039C78.5578 22.6445 75.5115 20.0423 72.2304 19.0852C70.158 18.4807 67.9744 18.4766 65.8536 18.7865C64.8148 18.9383 63.7898 19.1772 62.784 19.4765C61.8233 19.7624 60.8239 20.0487 60.05 20.7148C59.7015 21.0147 59.4095 21.4443 59.3306 21.903C59.2225 22.5319 59.4089 23.1232 59.8381 23.5939C60.1875 23.9772 60.6697 24.2051 61.1429 24.392C61.5473 24.5517 61.9673 24.6752 62.3917 24.7684C64.2189 25.1697 66.1974 25.0666 67.9384 24.3587C69.6794 23.6508 71.1312 22.4563 72.0603 20.8176C72.9644 19.2229 73.3275 17.3566 73.0255 15.5464C72.7631 13.9733 71.9 12.5043 70.7316 11.4308C69.5515 10.3464 68.0919 9.6131 66.5658 9.151C63.2799 8.156 59.6951 8.3995 56.4099 9.2646C52.7836 10.2196 49.3863 11.9775 46.5405 14.4206C45.8597 15.0051 45.2164 15.6313 44.608 16.2908C44.3035 16.6208 44.7745 17.0949 45.1017 16.7845L45.102 16.7855Z" fill="#EDC851"/>
</svg>
