<svg width="80" height="80" viewBox="0 0 80 80" fill="none" xmlns="http://www.w3.org/2000/svg">
<path d="M51.7235 10.0569C44.2546 8.27804 36.1181 9.48396 29.4862 13.3527C27.4878 14.5185 25.5727 15.9707 24.4103 17.9712C23.5525 19.4473 23.1512 21.142 22.8694 22.8258C22.382 25.7406 22.2199 28.7005 22.3863 31.6511C22.5482 34.5163 22.9971 37.5235 21.851 40.1545C20.0601 44.2661 14.867 46.2758 13.5558 50.5646C12.5731 53.7791 14.1509 57.2472 16.277 59.8508C22.6602 67.6676 33.3798 70.3432 43.4226 71.337C48.3452 71.8241 53.3655 72.0146 58.1926 70.9337C63.0197 69.8528 67.6807 67.3813 70.5946 63.384C73.5086 59.3868 74.3794 53.7459 72.0412 49.3868C71.3479 48.0944 70.4051 46.9447 69.7595 45.6279C66.4157 38.8072 71.9819 30.5628 70.157 23.189C69.2028 19.3337 66.2522 16.1766 62.7528 14.2984C59.2534 12.4203 55.2427 11.6968 51.2783 11.4576" fill="#8170F9"/>
<path d="M51.8247 9.69021C50.1261 9.21541 48.3858 8.83453 46.6288 8.67693C44.8951 8.52149 43.1606 8.52261 41.4278 8.68717C37.8611 9.02589 34.3802 10.0129 31.1456 11.5514C28.1007 12.9997 24.9161 14.9975 23.3837 18.1258C22.5427 19.8428 22.1729 21.7288 21.9059 23.6081C21.6175 25.6392 21.4655 27.6852 21.4806 29.7372C21.4946 31.6252 21.7185 33.5014 21.7559 35.3879C21.7895 37.0741 21.6515 38.7621 20.8492 40.2714C20.6908 40.5683 20.5157 40.856 20.3249 41.1333C20.233 41.2664 20.1385 41.3977 20.0412 41.527C19.9493 41.6501 20.0735 41.4913 19.9758 41.61C19.9155 41.6833 19.8563 41.7576 19.7955 41.8304C19.3463 42.3673 18.8559 42.8677 18.3501 43.3512C17.3503 44.3069 16.2903 45.1996 15.3298 46.1961C14.3207 47.2431 13.4503 48.4033 12.9028 49.7577C12.2554 51.3595 12.2339 53.1425 12.6291 54.8093C13.4063 58.0878 15.6888 60.9094 18.1474 63.1196C20.4789 65.2155 23.1751 66.87 26.0397 68.1308C28.9669 69.4192 32.0335 70.3436 35.1599 71.0052C38.4237 71.6959 41.7439 72.1192 45.0669 72.3946C49.0405 72.7239 53.0506 72.7739 56.9922 72.0947C60.3047 71.5239 63.5634 70.3722 66.3886 68.5309C69.1577 66.7262 71.5499 64.2432 72.9057 61.2011C74.2584 58.1658 74.7208 54.699 73.8413 51.4621C73.6193 50.645 73.3055 49.8469 72.9189 49.0938C72.5042 48.2859 71.9853 47.5388 71.4919 46.7783C71.2427 46.3941 70.9991 46.0059 70.7787 45.6043C70.6767 45.4191 70.5804 45.2308 70.4898 45.0397C70.4503 44.9559 70.4119 44.8716 70.3745 44.7868C70.3316 44.69 70.3689 44.7753 70.3767 44.7939C70.3533 44.7375 70.3305 44.6808 70.3084 44.6239C70.0298 43.9111 69.8345 43.1674 69.7137 42.412C69.7067 42.3678 69.6999 42.3237 69.6932 42.2795C69.6922 42.2726 69.6722 42.1266 69.685 42.2242C69.6978 42.3218 69.6795 42.1755 69.6787 42.1686C69.6735 42.1242 69.6685 42.0797 69.6636 42.0352C69.6428 41.8421 69.6262 41.6485 69.6138 41.4546C69.5903 41.0791 69.5806 40.7028 69.5849 40.3265C69.5927 39.5593 69.6527 38.7934 69.7438 38.0319C69.755 37.9391 69.7665 37.8463 69.7784 37.7536C69.7923 37.6448 69.7793 37.7457 69.7766 37.7655C69.7829 37.7189 69.7894 37.6724 69.7961 37.626C69.827 37.4081 69.8599 37.1905 69.8947 36.9732C69.9576 36.5819 70.025 36.1914 70.097 35.8016C70.2416 35.0138 70.4003 34.2287 70.5559 33.443C71.1894 30.2466 71.7928 26.9689 71.212 23.7172C70.6428 20.53 68.7561 17.6788 66.3056 15.6092C63.5763 13.304 60.2203 11.9285 56.7419 11.2174C55.8189 11.0287 54.8872 10.8872 53.9524 10.771C53.0627 10.6604 52.1723 10.6268 51.2785 10.5718C50.8005 10.5424 50.3927 10.9999 50.3927 11.4576C50.3927 11.9615 50.7991 12.3138 51.2785 12.3433C53.1097 12.4559 54.7918 12.6916 56.5697 13.0752C58.2767 13.4434 59.9874 13.9758 61.5066 14.7037C62.2183 15.0448 62.9089 15.429 63.5691 15.8615C64.2715 16.3216 64.7025 16.65 65.3147 17.1945C65.8726 17.6908 66.396 18.2261 66.8757 18.7985C67.2895 19.2924 67.7267 19.911 68.1121 20.5815C68.84 21.8481 69.3062 23.1632 69.5111 24.712C69.4862 24.5232 69.5229 24.8256 69.5239 24.8343C69.534 24.9264 69.5432 25.0186 69.5515 25.1108C69.5681 25.2956 69.5812 25.4806 69.5908 25.6658C69.6113 26.0687 69.6171 26.4723 69.6083 26.8757C69.5927 27.6293 69.5308 28.3815 69.4403 29.1297C69.4289 29.2241 69.4171 29.3185 69.4047 29.4129C69.4283 29.2329 69.3864 29.5432 69.3861 29.5458C69.3591 29.7352 69.3307 29.9243 69.3009 30.1132C69.2356 30.5244 69.1654 30.9348 69.0902 31.3442C68.9516 32.1031 68.8002 32.8595 68.6505 33.6162C68.3398 35.1873 68.0403 36.7624 67.8706 38.3562C67.7044 39.9164 67.7007 41.4823 67.9679 43.0319C68.2471 44.652 68.9091 46.1388 69.7927 47.5171C70.2676 48.258 70.7759 48.9791 71.1999 49.7516C71.5986 50.4782 71.8103 50.9985 72.0427 51.8121C72.1716 52.2636 72.2732 52.7225 72.3468 53.1862C72.3431 53.1625 72.3883 53.4671 72.3715 53.3438C72.3546 53.2205 72.3931 53.5263 72.3903 53.5024C72.4044 53.6271 72.4166 53.752 72.4269 53.877C72.4917 54.6624 72.4828 55.4535 72.4068 56.2377C72.3707 56.6112 72.3475 56.7826 72.2659 57.2201C72.1928 57.6114 72.1036 57.9994 71.9986 58.3833C71.8513 58.9221 71.6736 59.4521 71.4663 59.9708C71.3927 60.155 71.3668 60.2157 71.2555 60.4572C70.9223 61.181 70.5302 61.8761 70.0833 62.5356C69.6511 63.1728 69.2824 63.6273 68.7315 64.2215C66.649 66.4678 63.9244 68.1115 61.1071 69.1368C57.6912 70.3799 54.1056 70.8056 50.4901 70.818C48.5618 70.8245 46.6347 70.716 44.7141 70.5496C43.88 70.4777 43.0468 70.3952 42.2147 70.3021C41.8414 70.2603 41.4683 70.2159 41.0955 70.169C40.7391 70.1252 40.3832 70.0775 40.0279 70.0259C36.9695 69.5892 33.9301 68.9692 30.9782 68.0504C30.2328 67.8189 29.4938 67.567 28.7623 67.2949C28.2681 67.1108 27.7778 66.9167 27.2915 66.7127C27.4441 66.7772 27.1647 66.6576 27.1668 66.6586C27.0535 66.6096 26.9404 66.56 26.8275 66.5099C25.4562 65.9001 24.1227 65.2029 22.8511 64.4049C22.1298 63.9528 21.4299 63.4673 20.7538 62.9499C20.884 63.0501 20.6481 62.8666 20.6494 62.8677C20.5063 62.7546 20.3644 62.6401 20.2237 62.5241C19.9185 62.2723 19.6193 62.0133 19.3265 61.7472C18.7827 61.2533 18.2621 60.7345 17.7662 60.1925C17.2249 59.6006 16.7476 59.0283 16.3207 58.4213C15.3552 57.0485 14.6455 55.6566 14.3044 54.0381C14.213 53.6042 14.189 53.4282 14.1654 53.0057C14.1434 52.6123 14.157 52.2211 14.1919 51.8289C14.2108 51.6161 14.3137 51.132 14.4135 50.8012C14.4603 50.6463 14.5125 50.493 14.57 50.3417C14.5771 50.3232 14.6775 50.0776 14.6011 50.2566C14.643 50.1589 14.6872 50.0622 14.7337 49.9665C14.8724 49.6807 15.0275 49.4032 15.1983 49.1352C15.2835 49.001 15.3722 48.869 15.4641 48.7392C15.5102 48.6741 15.557 48.6095 15.6045 48.5454C15.6256 48.5169 15.7682 48.3341 15.6615 48.4691C16.0819 47.9373 16.5442 47.4409 17.0251 46.9637C17.9889 46.0072 19.0234 45.1247 19.9788 44.1595C20.9402 43.1884 21.8519 42.1181 22.4522 40.881C23.2503 39.2361 23.4795 37.4194 23.4577 35.6078C23.4353 33.7476 23.2035 31.8972 23.1724 30.0369C23.1395 28.0645 23.2453 26.0829 23.5128 24.128C23.7463 22.4222 24.0334 20.6341 24.7766 19.0656C25.4734 17.595 26.5379 16.4281 27.8361 15.4312C30.3912 13.4691 33.559 12.0578 36.6835 11.1672C39.9199 10.2446 43.3179 9.83301 46.6811 9.93949C48.3436 9.99213 49.9869 10.1067 51.6228 10.424C52.098 10.5161 52.3022 9.82397 51.825 9.69061L51.8247 9.69021Z" fill="#8170F9"/>
<path d="M69.0404 50.0882C68.769 48.252 68.7025 46.344 69.2526 44.5712C69.64 43.3225 70.3723 42.1458 71.3784 41.3304C71.9349 40.8794 72.7474 41.3269 72.6494 42.0365C72.2771 44.7356 71.2082 47.3385 69.5625 49.5109C71.3086 48.2743 73.3994 47.5297 75.5342 47.3844C76.2686 47.3344 77.0554 47.3658 77.6204 47.9076C77.9005 48.1762 78.057 48.5732 77.9808 48.9538C77.8361 49.6759 77.0676 49.8961 76.4038 50.0159C74.2136 50.4107 71.9924 50.6086 69.767 50.6072C71.261 51.0965 72.7779 51.5969 74.0747 52.4856C75.3716 53.3743 76.4415 54.7208 76.6252 56.2821C75.0926 56.4178 73.571 55.7872 72.344 54.8589C71.117 53.9307 70.139 52.7192 69.1742 51.5208C70.2027 54.001 70.5517 56.7592 70.1733 59.4175C70.1022 59.9168 69.9453 60.4972 69.3633 60.5694C68.8896 60.6281 68.4412 60.3029 68.2956 59.8484C67.4111 57.0877 67.4374 54.0476 68.3561 51.2996C67.3826 53.2 65.8727 54.8231 64.0409 55.9222C63.4894 56.2531 62.7575 56.2094 62.3195 55.7385C61.5597 54.9217 62.5137 53.7138 63.4237 53.1187C65.1803 51.9703 67.088 51.0717 69.0922 50.4488C67.6714 50.9575 66.2033 51.4748 64.6546 51.0499C63.9861 50.8665 63.395 50.4479 63.0161 49.8675C62.8004 49.5371 62.6273 49.1032 62.9967 48.7243C63.2613 48.4529 63.6628 48.3533 64.0354 48.4222C66.0234 48.7896 67.8974 49.7431 69.369 51.1283C66.549 50.1337 64.6835 47.0648 64.8774 44.1133C64.9339 43.2544 66.0134 42.8621 66.5605 43.5266C66.9337 43.9797 67.208 44.5637 67.3969 45.1174C68.0831 47.1334 68.3691 49.264 68.2389 51.3896" fill="#70E8A0"/>
<path d="M69.3725 50.0882C69.285 49.3949 69.2263 48.6975 69.2184 47.9985C69.2145 47.6493 69.2232 47.2997 69.2475 46.9513C69.2595 46.7775 69.2755 46.604 69.2956 46.4309C69.3007 46.3876 69.3063 46.3445 69.3115 46.3013C69.3194 46.2358 69.302 46.365 69.3117 46.3001C69.3144 46.2817 69.317 46.2633 69.3195 46.2449C69.332 46.1592 69.3456 46.0737 69.3603 45.9885C69.4203 45.6403 69.5013 45.2965 69.5979 44.9569C69.6426 44.7994 69.6921 44.6433 69.7465 44.4889C69.7827 44.3865 69.8211 44.285 69.8618 44.1843L69.8803 44.1389C69.9123 44.0599 69.8566 44.1923 69.8793 44.1409C70.0027 43.8619 70.1371 43.5892 70.2922 43.3262C70.4055 43.1341 70.5279 42.9476 70.6591 42.7673C70.6815 42.7365 70.7041 42.706 70.727 42.6757C70.7367 42.6629 70.7478 42.6504 70.7565 42.6369C70.6955 42.7306 70.7362 42.6636 70.7535 42.6418C70.941 42.4052 71.1456 42.1827 71.3658 41.9761C71.4597 41.888 71.5566 41.8031 71.6563 41.7215C71.6682 41.7117 71.7283 41.6651 71.6679 41.7107C71.6076 41.7563 71.6882 41.6979 71.706 41.6869C71.7274 41.6738 71.7499 41.6632 71.7715 41.6507C71.8361 41.6133 71.6615 41.6857 71.7562 41.6581C71.7863 41.6494 71.8161 41.6413 71.8467 41.634C71.9437 41.6105 71.7401 41.6384 71.8197 41.6376C71.8461 41.6373 71.8723 41.6356 71.8987 41.6365C71.9211 41.6374 72.0055 41.6473 71.9119 41.6349C71.8143 41.6221 71.9214 41.6397 71.9451 41.6461C71.9569 41.6493 72.0167 41.6607 72.0187 41.67C72.0204 41.6773 71.9129 41.6192 71.9526 41.6421C71.9652 41.6493 71.9791 41.6548 71.9921 41.6617C72.0116 41.672 72.0306 41.6831 72.0491 41.695C72.0615 41.7029 72.0731 41.7124 72.0855 41.7199C72.1291 41.7459 72.004 41.6462 72.0379 41.6839C72.0548 41.7028 72.0763 41.7185 72.0939 41.737C72.1091 41.7529 72.1707 41.8293 72.1125 41.7549C72.0571 41.6841 72.1065 41.7506 72.1178 41.7693C72.1293 41.7884 72.1758 41.8887 72.139 41.8005C72.102 41.7118 72.1391 41.8059 72.1454 41.8274C72.1531 41.8537 72.1563 41.8814 72.164 41.9075C72.1791 41.9585 72.1463 41.8257 72.1545 41.8345C72.1585 41.8389 72.1577 41.882 72.1578 41.8834C72.1588 41.9129 72.1571 41.9421 72.156 41.9717C72.152 42.0837 72.1727 41.8722 72.1567 41.9714C72.1503 42.0109 72.1444 42.0505 72.1381 42.0901C72.0484 42.6494 71.929 43.2036 71.7804 43.7502C71.6033 44.4027 71.3853 45.0435 71.1279 45.6687C71.1212 45.6848 71.0673 45.8136 71.1022 45.731C71.1352 45.653 71.0855 45.7698 71.0756 45.7927C71.0575 45.8347 71.0392 45.8766 71.0207 45.9185C70.956 46.0649 70.8891 46.2105 70.8201 46.3549C70.6819 46.644 70.5354 46.9291 70.3809 47.2098C70.0717 47.7718 69.7286 48.3145 69.3535 48.8349C69.2597 48.9649 69.1638 49.0936 69.066 49.2208C68.991 49.3185 68.9824 49.4729 68.9978 49.5873C69.014 49.7079 69.0635 49.8325 69.1559 49.9173C69.3342 50.081 69.6387 50.1557 69.8524 50.0072C70.5241 49.5412 71.2422 49.146 71.9952 48.8279L71.8535 48.8877C72.8407 48.4734 73.8808 48.1945 74.9415 48.0508L74.7789 48.0726C75.3412 47.9981 75.9244 47.9373 76.4899 48.0121L76.3269 47.9901C76.5282 48.0189 76.7246 48.0672 76.913 48.1443L76.7665 48.0825C76.9081 48.1426 77.0419 48.2197 77.1648 48.3121L77.0407 48.2162C77.1413 48.2949 77.2328 48.3814 77.3123 48.4817L77.2163 48.3574C77.2792 48.4407 77.3325 48.5309 77.3752 48.6261L77.3133 48.4795C77.3535 48.5757 77.3816 48.6739 77.3974 48.7769L77.3755 48.6137C77.387 48.7068 77.3875 48.7986 77.3765 48.8917L77.3984 48.7284C77.3849 48.8188 77.3608 48.9074 77.3265 48.9921L77.3884 48.8453C77.3524 48.9284 77.3061 49.0066 77.2507 49.0782L77.3468 48.9538C77.2908 49.0226 77.2275 49.0852 77.1581 49.1405L77.2826 49.0444C77.1632 49.1365 77.0317 49.2079 76.8931 49.2668L77.0401 49.2048C76.5453 49.4085 75.9904 49.4721 75.4656 49.5524L75.6295 49.5304C74.115 49.7334 72.5894 49.8431 71.0615 49.8589C70.6297 49.8632 70.1981 49.8601 69.7666 49.8495C69.3894 49.8404 69.0712 50.1448 69.0227 50.5063C68.9705 50.8942 69.2052 51.2099 69.5652 51.3373C69.6891 51.3812 69.8128 51.4251 69.9366 51.4692L69.7534 51.3919C70.1363 51.5588 70.5431 51.6734 70.9364 51.8143C71.2793 51.9364 71.6188 52.0677 71.9546 52.2081L71.7705 52.1304C72.5605 52.4646 73.3278 52.8645 74.0103 53.3877L73.8541 53.2671C74.3051 53.616 74.7152 54.0155 75.0653 54.4661L74.9446 54.3098C75.2255 54.6752 75.4639 55.0708 75.6439 55.4955L75.5661 55.311C75.715 55.6689 75.8198 56.042 75.8722 56.4262L75.8446 56.2209C75.8473 56.2412 75.8499 56.2616 75.8523 56.282L76.6248 55.5094C76.263 55.5401 75.9006 55.5296 75.5406 55.4827L75.746 55.5103C75.2158 55.4378 74.701 55.2881 74.2079 55.0812L74.3927 55.1591C73.7682 54.8933 73.1864 54.5401 72.6496 54.1258L72.8063 54.2468C71.6143 53.32 70.6653 52.1398 69.7216 50.9727L69.5648 50.8516C69.4787 50.7958 69.3792 50.7641 69.2767 50.7597C69.1116 50.7375 68.9271 50.7585 68.7827 50.8516C68.6713 50.9233 68.5766 51.0181 68.5048 51.1295C68.4111 51.275 68.358 51.5612 68.4267 51.7265C68.9309 52.939 69.2735 54.2144 69.4503 55.5154L69.423 55.3117C69.6016 56.6494 69.6045 58.0073 69.4254 59.345L69.4524 59.1436C69.421 59.3743 69.3815 59.6041 69.2937 59.8211L69.3699 59.6405C69.3292 59.7365 69.2796 59.8273 69.2169 59.9108L69.3347 59.7583C69.2907 59.8137 69.2419 59.8629 69.1859 59.9062L69.3375 59.7891C69.2913 59.8225 69.2435 59.85 69.1915 59.8733L69.3695 59.7982C69.3035 59.8253 69.2363 59.8432 69.1659 59.8545L69.3629 59.828C69.2786 59.8389 69.1955 59.8392 69.1112 59.8291L69.3069 59.8554C69.2252 59.8431 69.1452 59.8213 69.0685 59.7905L69.2431 59.8641C69.1586 59.8276 69.0789 59.7809 69.0057 59.7252L69.1525 59.8385C69.0799 59.7805 69.0144 59.7141 68.9574 59.6408L69.0699 59.7864C69.0195 59.7183 68.9764 59.6451 68.9415 59.568L69.0135 59.7386C68.8553 59.3632 68.7609 58.9527 68.6701 58.5567C68.577 58.149 68.5024 57.7373 68.4465 57.3229L68.4715 57.5092C68.3087 56.2818 68.3086 55.0382 68.4713 53.8108L68.4464 53.9962C68.5613 53.1427 68.7554 52.3017 69.0261 51.4841C69.1352 51.1552 68.9261 50.7917 68.6236 50.6641C68.3211 50.5365 67.9142 50.6393 67.7556 50.9485C67.4306 51.5822 67.0482 52.1846 66.613 52.7483L66.7214 52.608C66.119 53.3841 65.4214 54.0815 64.6451 54.6837L64.7855 54.5753C64.5806 54.7335 64.3704 54.8847 64.1554 55.0288C63.9487 55.167 63.738 55.3153 63.5099 55.4159L63.6755 55.3461C63.5521 55.3978 63.4228 55.434 63.2906 55.4539L63.4748 55.4291C63.3436 55.4463 63.2133 55.4474 63.0819 55.4313L63.2662 55.4561C63.1466 55.4391 63.0296 55.4071 62.9179 55.3609L63.0835 55.4307C62.9893 55.3892 62.9002 55.337 62.8179 55.2752L62.9583 55.3836C62.8759 55.3189 62.8017 55.2446 62.737 55.1623L62.8454 55.3026C62.7931 55.2329 62.749 55.1575 62.714 55.0777L62.7839 55.2432C62.7529 55.167 62.7312 55.0875 62.719 55.0062L62.7437 55.19C62.7316 55.092 62.732 54.9928 62.7447 54.8949L62.72 55.0783C62.7389 54.9483 62.7758 54.824 62.8253 54.7025L62.7559 54.8669C62.8419 54.6642 62.9589 54.4783 63.0929 54.3041L62.9858 54.4427C63.1844 54.1893 63.4159 53.9645 63.6697 53.7666L63.5319 53.873C63.7998 53.6673 64.0919 53.4909 64.3792 53.3141C64.6939 53.1205 65.0132 52.9346 65.3369 52.7567C65.979 52.4037 66.6419 52.0885 67.3166 51.8029L67.1562 51.8705C67.8479 51.579 68.5535 51.3184 69.2719 51.1005L68.9124 49.7967C68.1016 50.0801 67.2839 50.3625 66.4295 50.4797L66.6143 50.4549C66.1507 50.5157 65.6819 50.5233 65.2176 50.4638L65.4039 50.4889C65.0809 50.4447 64.7618 50.371 64.4603 50.2451L64.6267 50.3153C64.4003 50.2181 64.1866 50.0935 63.9905 49.9442L64.1309 50.0527C63.9444 49.9079 63.7761 49.741 63.6298 49.5557L63.7377 49.6954C63.6247 49.5489 63.5228 49.3936 63.4503 49.2228L63.5196 49.3871C63.4883 49.3085 63.4644 49.2287 63.451 49.1451L63.4755 49.3277C63.4671 49.2635 63.4662 49.1985 63.4729 49.1341L63.4484 49.3165C63.4568 49.2595 63.4715 49.2037 63.4923 49.1501L63.4231 49.3137C63.4489 49.2549 63.4803 49.2016 63.5181 49.1497L63.4111 49.2882C63.4647 49.2207 63.5262 49.1598 63.5942 49.1068L63.4559 49.2137C63.5289 49.16 63.6078 49.1147 63.6911 49.0788L63.5281 49.1476C63.622 49.11 63.72 49.0835 63.82 49.0685L63.6391 49.0929C63.7505 49.0788 63.8632 49.0784 63.9747 49.0917L63.794 49.0675C64.5543 49.1761 65.3163 49.4205 66.0229 49.7165L65.8631 49.6491C66.7131 50.0082 67.5138 50.4744 68.2456 51.0365L68.1102 50.9318C68.3826 51.1423 68.6447 51.3657 68.8958 51.6013L69.5468 50.4829C69.4301 50.4414 69.3146 50.3966 69.2004 50.3485L69.3603 50.4159C68.8634 50.2035 68.3978 49.9265 67.9702 49.5964L68.1056 49.701C67.6414 49.3394 67.2269 48.9192 66.8664 48.4544L66.9711 48.5898C66.5818 48.0834 66.2587 47.5294 66.0095 46.9413L66.0769 47.1012C65.8301 46.5136 65.6581 45.897 65.5708 45.2655L65.5947 45.4433C65.5335 44.9859 65.4963 44.4999 65.5539 44.0401L65.53 44.2179C65.5427 44.1326 65.5647 44.0509 65.5971 43.9709L65.5296 44.1307C65.5622 44.0556 65.6023 43.986 65.6512 43.9203L65.5467 44.0557C65.5998 43.9876 65.6609 43.9262 65.7287 43.8729L65.5934 43.9773C65.6613 43.926 65.735 43.8828 65.813 43.8485L65.6534 43.9159C65.7378 43.8806 65.8264 43.8563 65.9171 43.8436L65.7395 43.8674C65.8232 43.8574 65.9078 43.8578 65.9914 43.8686L65.8139 43.8448C65.8919 43.8568 65.9665 43.8777 66.0394 43.908L65.8799 43.8407C65.9476 43.8709 66.0116 43.9087 66.0707 43.9533L65.9357 43.849C66.0195 43.9154 66.0868 43.9937 66.1526 44.0776L66.0483 43.9426C66.2971 44.2667 66.4907 44.6274 66.6508 45.0024L66.5837 44.8434C66.8182 45.4013 66.988 45.9901 67.1359 46.5761C67.2877 47.1791 67.4055 47.7903 67.4885 48.4066L67.4649 48.2308C67.5345 48.7539 67.5799 49.28 67.5994 49.8073C67.6188 50.3347 67.64 50.8641 67.6081 51.3893C67.5881 51.7192 67.9124 52.0345 68.2387 52.0199C68.5975 52.0038 68.8478 51.7427 68.8692 51.3893C68.8715 51.3517 68.8737 51.3141 68.8758 51.2765L68.8532 51.4441C68.9733 50.6096 68.9379 49.7419 68.8625 48.9049C68.7868 48.0646 68.6553 47.2272 68.46 46.4064C68.2709 45.6114 68.0377 44.8134 67.6848 44.0744C67.5075 43.7029 67.2863 43.3473 67.0159 43.036C66.7512 42.7313 66.3819 42.5819 65.9911 42.5335C65.3471 42.4537 64.6478 42.8593 64.3786 43.4452C64.2775 43.6652 64.2289 43.8581 64.2089 44.1009C64.1966 44.2507 64.1938 44.402 64.1942 44.5523C64.195 44.881 64.2243 45.2068 64.2681 45.5323C64.439 46.8037 64.9258 48.0417 65.6786 49.0825C66.4375 50.1317 67.4367 51.0281 68.6322 51.5489C68.8163 51.629 69.0015 51.7061 69.1907 51.7733C69.3292 51.8225 69.4967 51.7943 69.6264 51.7396C69.755 51.6853 69.8794 51.5927 69.9463 51.4658C70.0826 51.208 70.064 50.8635 69.8417 50.655C68.8027 49.6802 67.6009 48.9291 66.286 48.3877L66.4459 48.4552C65.6927 48.1299 64.8806 47.8548 64.0646 47.7451C63.5647 47.6779 63.0733 47.7958 62.6725 48.1054C62.4287 48.2937 62.2548 48.5352 62.1545 48.827C62.0703 49.0722 62.0829 49.3575 62.1444 49.6059C62.2481 50.0244 62.5248 50.4085 62.8115 50.7209C63.0771 51.0105 63.4063 51.2604 63.7559 51.4395C64.5601 51.8517 65.5039 51.9745 66.396 51.8741C67.3955 51.7616 68.3319 51.4447 69.2715 51.1005C69.4398 51.0388 69.5824 50.9489 69.6755 50.7897C69.7603 50.6449 69.7962 50.4313 69.7436 50.2688C69.6346 49.9318 69.2727 49.6813 68.912 49.7966C67.5878 50.22 66.2956 50.7456 65.0615 51.3868C64.4647 51.6968 63.8791 52.0266 63.3101 52.3853C63.0264 52.5641 62.752 52.7533 62.4983 52.9737C62.2513 53.1881 62.0405 53.4322 61.8464 53.695C61.47 54.2046 61.2324 54.8878 61.4154 55.5175C61.5317 55.9179 61.7898 56.2266 62.1179 56.4723C62.411 56.6917 62.7651 56.7857 63.1233 56.8225C63.8072 56.8928 64.3944 56.5402 64.9353 56.1717C65.469 55.808 65.9784 55.4033 66.4502 54.9621C67.3568 54.1125 68.1292 53.1303 68.7411 52.0489C68.8152 51.9175 68.8868 51.7846 68.9559 51.6503L67.6854 51.1147C67.2307 52.4765 66.9881 53.916 66.9536 55.3509C66.9191 56.7841 67.099 58.2378 67.4911 59.6172C67.536 59.775 67.5707 59.937 67.6259 60.0918C67.712 60.3329 67.8209 60.5175 67.9818 60.7145C68.2074 60.9907 68.5639 61.2095 68.9155 61.2749C69.3234 61.3507 69.7758 61.3123 70.1219 61.0621C70.4592 60.8182 70.6646 60.5 70.7953 60.1072C70.8977 59.7994 70.9268 59.4658 70.9669 59.1464C71.0101 58.8028 71.0412 58.4577 71.0603 58.112C71.099 57.4145 71.0889 56.7145 71.0309 56.0184C70.9107 54.5757 70.6125 53.1473 70.107 51.7896C70.0475 51.6303 69.9854 51.472 69.9207 51.3147L68.6259 52.0685C69.3985 53.0324 70.1817 53.9997 71.1011 54.8294C72.078 55.7111 73.2024 56.4389 74.4724 56.8152C75.1632 57.0199 75.9055 57.1157 76.6247 57.0545C76.8236 57.0376 77.0295 56.9823 77.171 56.8282C77.2998 56.6879 77.4214 56.4803 77.3973 56.2819C77.3548 55.9331 77.2975 55.5915 77.1883 55.2569C77.0821 54.9325 76.948 54.6178 76.7875 54.3165C76.4902 53.7569 76.0904 53.2413 75.6449 52.7921C74.6593 51.7981 73.4186 51.1447 72.1329 50.6264C71.4241 50.3406 70.6991 50.0969 69.9678 49.8766L69.7664 51.3645C71.2411 51.3294 72.7095 51.2026 74.1705 51.0015C74.8753 50.9045 75.5761 50.7818 76.2771 50.6606C76.8058 50.5693 77.3707 50.4718 77.8241 50.1641C78.081 49.9897 78.3154 49.7644 78.4445 49.4773C78.6127 49.1036 78.6635 48.6987 78.5496 48.2991C78.3447 47.5801 77.7088 47.0816 77.0102 46.8818C76.4104 46.7104 75.7687 46.7415 75.1555 46.8041C74.4884 46.8722 73.8272 46.9859 73.1802 47.1625C71.9358 47.5023 70.7327 48.0395 69.6557 48.75C69.5261 48.8356 69.3981 48.9238 69.2719 49.0145L70.0583 49.8009C70.8887 48.685 71.5565 47.4664 72.0791 46.1785C72.5874 44.9247 72.9364 43.6122 73.1179 42.2716C73.1468 42.0585 73.1654 41.8796 73.1277 41.6661C73.1012 41.5214 73.0463 41.3834 72.966 41.2601C72.7885 40.9877 72.5135 40.7757 72.1939 40.7001C71.8712 40.624 71.5259 40.6683 71.2399 40.8399C70.9592 41.0083 70.7098 41.2706 70.488 41.5089C69.5583 42.5079 68.9276 43.7874 68.6577 45.1222C68.3558 46.6156 68.4198 48.1416 68.6358 49.6414C68.6615 49.8201 68.6897 49.9984 68.7196 50.1764C68.7469 50.3388 68.9356 50.4342 69.084 50.4143C69.2307 50.3946 69.3927 50.2521 69.372 50.0881L69.3725 50.0882Z" fill="#70E8A0"/>
<path d="M14.6828 27.6776C11.4544 23.9856 8.69413 19.9092 6.46448 15.541C10.224 17.6888 13.7312 20.2508 16.9206 23.1791C16.7237 18.2044 16.4147 13.2347 15.9936 8.27393L21.2897 22.4942C24.2409 18.1716 27.2083 13.8288 30.8006 10.0222C29.8012 15.0482 28.3324 19.9694 26.4135 24.721C31.711 24.0964 37.0363 23.4708 42.365 23.7088L28.5684 30.2925C32.783 31.3984 36.9725 32.5979 41.1338 33.8898C42.2334 34.2313 43.3854 34.6129 44.1593 35.4655C38.5968 36.1159 32.9938 36.353 27.3962 36.1749C31.6038 39.5304 35.2389 43.6018 38.0981 48.1611C32.1284 47.0898 27.4853 42.4389 21.8937 40.0895C19.4929 43.7798 16.6044 47.1286 13.3066 50.0452C14.033 45.3701 15.2625 40.7871 16.9737 36.3762C12.7424 38.3717 8.46894 40.2765 4.15624 42.0894C7.79772 39.3422 11.3351 36.4596 14.7608 33.4476C12.9232 33.6384 11.0667 33.5263 9.26544 33.1156C6.84104 32.5619 4.48448 31.4652 2 31.5713C4.84872 31.6337 7.63232 30.8014 10.36 29.9774L17.0824 27.9463" fill="#FF8345"/>
<path d="M14.8462 27.5143C13.6515 26.045 12.5483 24.5127 11.4807 22.9504C10.4058 21.3774 9.40704 19.7538 8.48772 18.0851C7.96972 17.1448 7.47668 16.1903 6.99164 15.2329L6.15636 16.0682C9.04924 17.7367 11.8011 19.6451 14.337 21.7782C15.0572 22.384 15.7615 23.0085 16.4532 23.6467C16.8552 24.0176 17.6036 23.7759 17.5816 23.1792C17.4389 19.2944 17.2284 15.4127 16.9402 11.5359C16.8593 10.4482 16.773 9.36091 16.6815 8.27403L15.3303 8.45691L19.4427 19.519L20.6176 22.6795C20.831 23.2535 21.5406 23.3591 21.8913 22.846C23.0386 21.1678 24.1862 19.4895 25.3731 17.839C26.5688 16.1759 27.718 14.6539 29.0229 13.0915C29.7568 12.213 30.5147 11.3548 31.3004 10.5223L30.1188 9.83443C29.3339 13.7575 28.2647 17.6227 26.9172 21.39C26.5397 22.4448 26.1408 23.4917 25.7208 24.5303C25.5573 24.9346 25.9795 25.4903 26.4134 25.4395C30.5456 24.9555 34.6864 24.4734 38.8504 24.3951C40.0224 24.373 41.194 24.3871 42.3649 24.444L41.994 23.0745C38.3966 24.7697 34.8027 26.472 31.2121 28.1814L28.1787 29.6262C27.904 29.757 27.7725 30.1155 27.8101 30.3953C27.8501 30.6927 28.0655 30.9587 28.3631 31.0371C32.6624 32.1693 36.9482 33.3775 41.1853 34.7252C41.4246 34.8013 41.6631 34.8801 41.8986 34.9671C41.9414 34.9829 41.9842 34.999 42.0268 35.0154C42.0492 35.0239 42.2696 35.112 42.1869 35.0779C42.0801 35.0338 42.2848 35.1214 42.2809 35.1196C42.3428 35.1475 42.4042 35.1763 42.4651 35.2061C42.6865 35.3143 42.9018 35.4358 43.1053 35.5749C43.1604 35.6126 43.2151 35.6512 43.268 35.6919C43.1597 35.6087 43.2776 35.7035 43.3168 35.7379C43.4176 35.8269 43.5137 35.9211 43.6047 36.0202L44.1592 34.6816C39.8146 35.1848 35.4452 35.4431 31.0716 35.4555C29.8463 35.4589 28.6209 35.442 27.396 35.406C27.0908 35.3971 26.808 35.6067 26.6932 35.8787C26.5846 36.1362 26.6147 36.5299 26.8523 36.7188C28.492 38.0229 30.0456 39.432 31.4989 40.9412C32.5802 42.064 33.6061 43.2387 34.5731 44.4612C34.6486 44.5567 34.7235 44.6527 34.7986 44.7486C34.9467 44.9375 34.7128 44.636 34.859 44.8264L34.97 44.9715C35.1325 45.1844 35.2932 45.3988 35.4521 45.6144C36.1526 46.5653 36.8177 47.5426 37.4504 48.5398L38.2973 47.4381C37.148 47.2343 36.028 46.8979 34.9446 46.4653C34.883 46.4407 34.8214 46.4158 34.76 46.3906C34.7293 46.3779 34.6988 46.3651 34.668 46.3526C34.6954 46.3637 34.7906 46.4061 34.659 46.3495C34.5267 46.2925 34.395 46.2339 34.264 46.1739C34.0012 46.054 33.7404 45.9296 33.4818 45.8008C32.9515 45.5371 32.4296 45.2564 31.9141 44.9648C29.844 43.7941 27.8772 42.4523 25.8236 41.254C24.6748 40.5837 23.498 39.961 22.2733 39.44C21.8834 39.2742 21.4903 39.3341 21.2439 39.7099C20.7784 40.4205 20.2947 41.1189 19.7932 41.8045C19.5793 42.0969 19.362 42.3868 19.1416 42.6743C19.1176 42.7055 19.0374 42.8093 19.1008 42.7274C18.8408 43.0629 18.5763 43.3949 18.3076 43.7235C17.2243 45.0479 16.0736 46.3158 14.8601 47.5221C14.178 48.2 13.4751 48.8565 12.7551 49.494L14.0584 50.2527C14.6261 46.611 15.4972 43.0182 16.6651 39.5223C16.9952 38.5345 17.3489 37.5547 17.726 36.5838C17.8372 36.2971 17.6699 35.9363 17.4463 35.7635C17.1839 35.5608 16.8714 35.5652 16.5796 35.7025C12.8445 37.4605 9.07672 39.1481 5.2782 40.7645C5.05025 40.8614 4.82228 40.9582 4.59428 41.0549L4.2142 41.2159L4.06212 41.2801L3.94628 41.3289L4.55404 42.7705C7.439 40.5904 10.2634 38.3306 13.017 35.9867C13.7876 35.3306 14.5527 34.6683 15.3124 33.9997C15.5456 33.7946 15.5878 33.417 15.4739 33.1469C15.3635 32.8853 15.0649 32.6359 14.7604 32.667C13.8969 32.7554 13.0285 32.7803 12.1616 32.7353C11.7283 32.7129 11.2961 32.6738 10.8659 32.6183C10.9851 32.6337 10.8496 32.6158 10.832 32.6131C10.7784 32.6051 10.7248 32.5975 10.6712 32.5892C10.3363 32.5377 10.003 32.476 9.6718 32.4043C8.0562 32.0545 6.50756 31.4551 4.89508 31.0931C3.94764 30.8803 2.97212 30.7445 1.99964 30.7835C1.58844 30.8 1.19228 31.1341 1.21188 31.5713C1.23124 32.0039 1.55796 32.3517 1.99964 32.3591C4.04524 32.393 6.07444 31.9923 8.04036 31.4578C10.0149 30.9209 11.9656 30.2903 13.9227 29.6939C15.0424 29.3527 16.1612 29.0089 17.2816 28.6704C17.6572 28.5569 17.9332 28.1392 17.8061 27.7467C17.6833 27.3673 17.2851 27.1005 16.8824 27.2222C14.9084 27.8186 12.9316 28.4056 10.9564 28.9974C9.065 29.5639 7.17348 30.1608 5.22764 30.5141C4.95052 30.5644 4.67252 30.6075 4.39396 30.6487C4.24332 30.6711 4.57868 30.6274 4.32324 30.6579C4.24356 30.6674 4.16396 30.6773 4.0842 30.6863C3.95129 30.7011 3.81825 30.7145 3.68508 30.7263C3.12452 30.7759 2.5622 30.7955 1.99956 30.7836V32.3591C2.40668 32.3447 2.81404 32.3583 3.21948 32.3983C3.32044 32.4082 3.42121 32.4197 3.5218 32.4327C3.38332 32.4147 3.51332 32.4319 3.53836 32.4359C3.58852 32.444 3.63876 32.4513 3.68892 32.4595C3.88988 32.4921 4.08996 32.5299 4.28924 32.5718C5.10724 32.7436 5.90908 32.9821 6.70916 33.2219C8.38212 33.7235 10.0469 34.1498 11.7964 34.275C12.7837 34.3457 13.7758 34.328 14.7605 34.2284L14.2085 32.8958C11.3688 35.3889 8.45273 37.7937 5.46452 40.1067L5.43172 40.1321L5.2714 40.2557C5.17519 40.3298 5.07889 40.4038 4.98252 40.4777C4.57559 40.7897 4.1674 41.0999 3.75796 41.4085C3.4406 41.6478 3.27028 42.0026 3.43524 42.3935C3.57196 42.7175 4.0026 43.0026 4.36572 42.8502C7.77744 41.4173 11.1643 39.9259 14.5248 38.3767C15.4744 37.939 16.4219 37.4968 17.3673 37.0502L16.221 36.169C14.892 39.6071 13.846 43.1519 13.1072 46.7634C12.8989 47.7838 12.7145 48.8091 12.5544 49.8382C12.5024 50.1723 12.5856 50.546 12.9128 50.7188C13.2335 50.8883 13.5884 50.8355 13.8579 50.5969C16.4714 48.2829 18.8184 45.6867 20.885 42.8744C21.4614 42.0894 22.0144 41.2875 22.5432 40.4696L21.6936 40.8154C21.576 40.7662 21.7211 40.8271 21.7621 40.8447C21.8344 40.8758 21.9065 40.9074 21.9784 40.9393C22.1119 40.9987 22.2449 41.0592 22.3773 41.1209C22.6527 41.2494 22.9259 41.3824 23.1969 41.5199C23.7206 41.7852 24.2364 42.0659 24.7466 42.3563C25.7916 42.9514 26.8126 43.5874 27.8329 44.2234C29.8355 45.4716 31.8436 46.7091 34.012 47.6525C35.2632 48.1968 36.5551 48.6342 37.8985 48.8846C38.2024 48.9412 38.4908 48.8696 38.6868 48.6159C38.8656 48.3845 38.9049 48.0393 38.7455 47.7829C36.4986 44.1707 33.7506 40.8772 30.6464 37.9719C29.7755 37.1567 28.8702 36.3779 27.9398 35.6315L27.396 36.9443C31.7665 37.0911 36.144 36.9903 40.5015 36.6203C41.7226 36.5165 42.9419 36.393 44.1591 36.25C44.48 36.2123 44.7428 36.083 44.8756 35.768C45.0004 35.4723 44.9311 35.146 44.7135 34.9115C44.0155 34.159 43.0748 33.722 42.1208 33.3893C41.1041 33.0347 40.063 32.7419 39.032 32.4319C35.6301 31.4089 32.21 30.4477 28.7733 29.5485L28.9577 30.9594C32.5441 29.2447 36.132 27.5333 39.7115 25.8044L42.7357 24.3437C43.0148 24.2089 43.1672 23.8035 43.0735 23.5138C42.9708 23.1963 42.7002 22.9874 42.3648 22.9743C38.2017 22.8115 34.0469 23.1402 29.9117 23.5975C28.7448 23.7265 27.5791 23.8647 26.4133 24.003L27.106 24.9123C28.5997 21.2008 29.824 17.3821 30.7617 13.4927C31.024 12.4036 31.2642 11.3093 31.4821 10.2104C31.5414 9.91163 31.4459 9.56459 31.1572 9.41203C30.8846 9.26795 30.5212 9.28795 30.3005 9.52259C27.4657 12.5357 25.009 15.8791 22.6552 19.2738C21.9945 20.2267 21.3412 21.1847 20.6879 22.1427L21.9616 22.3092L17.8356 11.2509L16.6568 8.09139C16.536 7.76739 16.2602 7.55051 15.9021 7.59867C15.5885 7.64083 15.2765 7.93243 15.3057 8.27427C15.6364 12.148 15.9008 16.0279 16.1044 19.9103C16.1614 20.9998 16.2131 22.0895 16.2596 23.1795L17.388 22.712C14.868 20.4144 12.1385 18.3335 9.25932 16.5063C8.44285 15.9885 7.61372 15.491 6.77268 15.0141C6.22476 14.7032 5.66204 15.3153 5.9374 15.8494C7.6946 19.2578 9.89564 22.4807 12.3618 25.4138C13.0589 26.2423 13.7784 27.0518 14.5195 27.8413C14.7268 28.0624 15.03 27.7406 14.8463 27.5145L14.8462 27.5143Z" fill="#FF8345"/>
<path d="M58.4558 17.8432L55.5153 16.631C53.2265 15.6874 50.8928 14.7325 48.4261 14.5223C48.2373 14.5062 48.0304 14.4869 47.8964 14.3529C47.8142 14.2707 47.7726 14.1565 47.7465 14.0432C47.5349 13.1273 48.1927 12.2354 48.9253 11.6463C50.6289 10.2762 53.0594 9.7592 55.0891 10.5718C57.1188 11.3843 58.5615 13.6154 58.2248 15.7755C58.1326 16.3667 57.9117 16.9498 57.5152 17.3979" fill="#FF8345"/>
<path d="M58.6186 17.5647C57.9517 17.2505 57.2972 16.9086 56.6269 16.6021C55.9835 16.3078 55.341 16.0114 54.6951 15.7224C53.3928 15.1399 52.0699 14.605 50.6879 14.2414C50.3112 14.1418 49.9308 14.0567 49.5476 13.9863C49.1252 13.9094 48.7 13.8707 48.2748 13.8155L48.4586 13.8402C48.3786 13.8284 48.3016 13.8114 48.2263 13.781L48.3917 13.8509C48.3564 13.8346 48.3226 13.8152 48.2908 13.7928L48.4312 13.9012C48.3996 13.8755 48.371 13.8464 48.346 13.8142L48.4545 13.9547C48.4311 13.9198 48.4107 13.8829 48.3937 13.8445L48.4637 14.0104C48.4288 13.9209 48.4085 13.8282 48.3941 13.7334L48.419 13.9184C48.4003 13.7751 48.3998 13.63 48.4174 13.4865L48.3924 13.6722C48.4167 13.4971 48.4654 13.3288 48.5328 13.1657L48.4621 13.3333C48.5558 13.1154 48.6794 12.9142 48.8225 12.7254L48.7122 12.8681C48.9457 12.5661 49.2223 12.3028 49.5232 12.0689L49.38 12.1794C49.8361 11.8291 50.3349 11.5381 50.8644 11.3136L50.6958 11.3848C51.2352 11.1584 51.8006 11.0011 52.38 10.9208L52.1926 10.946C52.7266 10.8746 53.2669 10.8697 53.8013 10.9396L53.6142 10.9145C54.0841 10.9786 54.5443 11.0997 54.9821 11.2826L54.8142 11.2117C55.2052 11.3778 55.5716 11.594 55.9091 11.8519L55.767 11.7421C56.1262 12.0202 56.449 12.3423 56.7278 12.701L56.6181 12.559C56.8944 12.9168 57.1239 13.3084 57.3011 13.7243L57.2304 13.557C57.392 13.9441 57.5052 14.3487 57.5616 14.7646L57.5366 14.5786C57.5842 14.9479 57.586 15.3204 57.538 15.6898L57.563 15.5039C57.5183 15.8304 57.437 16.15 57.3105 16.4546L57.3809 16.2878C57.32 16.4302 57.2505 16.5686 57.1688 16.7002C57.1017 16.808 57.0408 16.911 57.0112 17.0381C56.9957 17.1074 56.978 17.1762 56.958 17.2443C56.8911 17.4662 56.9872 17.7141 57.1651 17.8515C57.3606 18.0026 57.5892 17.9966 57.8066 17.8967C57.8812 17.8625 57.9568 17.8268 58.0266 17.7834C58.1887 17.6829 58.2952 17.5359 58.3916 17.3767C58.5091 17.183 58.599 16.9746 58.6827 16.7645C58.8309 16.3922 58.9019 16.0007 58.9467 15.6041C59.0204 14.9514 58.9392 14.2683 58.7472 13.6417C58.3404 12.314 57.4485 11.1613 56.2879 10.4049C55.1193 9.64328 53.6464 9.35776 52.27 9.52624C51.8861 9.5732 51.5068 9.63704 51.134 9.7404C50.7611 9.84376 50.4038 9.98248 50.051 10.1378C49.3901 10.4292 48.7789 10.8224 48.2398 11.3031C47.9454 11.5667 47.6878 11.8687 47.474 12.201C47.2681 12.5212 47.1056 12.8921 47.0492 13.2703C46.97 13.8009 47.0111 14.3658 47.3647 14.7957C47.6995 15.2027 48.2469 15.1905 48.7228 15.24C48.9197 15.2605 49.1165 15.2807 49.3128 15.3066L49.1328 15.2825C50.3654 15.4485 51.5685 15.777 52.7453 16.1738C53.9301 16.5732 55.1034 17.0006 56.2766 17.433C56.9688 17.6881 57.6748 17.907 58.37 18.1542C58.5213 18.2081 58.6923 18.1054 58.7505 17.9675C58.8081 17.831 58.7641 17.6333 58.6186 17.5647Z" fill="#FF8345"/>
<path d="M34.6308 59.7546C33.8604 60.6373 33.5041 61.8671 33.6836 63.0249C33.8632 64.1826 34.5748 65.247 35.5764 65.855C36.2373 66.2564 36.9994 66.4594 37.7603 66.5974C38.8067 66.7873 39.9691 66.8403 40.8478 66.2413C41.541 65.7687 41.9335 64.9712 42.2302 64.1864C42.5347 63.3811 42.7612 62.4426 42.3434 61.6899C42.0145 61.0974 41.3642 60.7688 40.7421 60.5002C39.3009 59.8778 37.67 59.3859 36.1819 59.8862" fill="#70E8A0"/>
<path d="M34.3823 59.5061C34.3162 59.5762 34.2527 59.6487 34.1919 59.7235C34.145 59.7808 34.0994 59.8393 34.0552 59.8988C34.0472 59.9097 34.0129 59.9553 34.0548 59.9005C34.0223 59.943 33.9888 59.9847 33.9564 60.0272C33.8322 60.1893 33.72 60.3603 33.6208 60.5389C33.4179 60.9056 33.2428 61.315 33.1697 61.7295C33.0924 62.1682 33.0647 62.6121 33.119 63.0551C33.1464 63.2785 33.1796 63.4994 33.2424 63.7157C33.3078 63.9407 33.3954 64.1581 33.4906 64.372C33.8356 65.1477 34.4144 65.809 35.1096 66.2905C35.8681 66.8158 36.788 67.0697 37.6867 67.2269C38.5641 67.3803 39.5027 67.4584 40.3649 67.1786C40.8252 67.0293 41.2397 66.7918 41.596 66.4639C41.9183 66.1673 42.1812 65.7956 42.3898 65.412C42.5984 65.0284 42.7677 64.6156 42.9157 64.2032C43.076 63.7565 43.1882 63.2944 43.2207 62.8195C43.2544 62.326 43.1581 61.8252 42.9273 61.3868C42.7032 60.961 42.3342 60.6244 41.9413 60.3572C41.6161 60.1361 41.2559 59.9671 40.8959 59.8113C40.4327 59.6107 39.9643 59.4214 39.4813 59.2733C38.5262 58.9805 37.5068 58.8366 36.5192 59.0375C36.3892 59.064 36.262 59.0941 36.1396 59.1457C35.9229 59.2372 35.8062 59.4055 35.6747 59.5898C35.5682 59.7389 35.5778 59.9529 35.6451 60.1125C35.7177 60.2845 35.8482 60.3948 36.0256 60.4525C36.0736 60.4681 36.1208 60.4853 36.1684 60.5017C36.3338 60.5591 36.5005 60.5458 36.668 60.5078C36.789 60.4806 36.9111 60.4587 37.034 60.4422L36.8372 60.4687C37.3177 60.4075 37.8041 60.4084 38.2844 60.4713L38.09 60.4453C39.0053 60.5704 39.8806 60.8849 40.7281 61.2425L40.5628 61.1727C40.8964 61.3147 41.2239 61.475 41.5133 61.6956L41.3782 61.5912C41.5144 61.6976 41.6383 61.8149 41.7441 61.9518L41.6411 61.8185C41.7291 61.936 41.8028 62.0638 41.8605 62.1989L41.7942 62.0417C41.8542 62.1911 41.896 62.3472 41.9187 62.5066L41.8952 62.3321C41.9264 62.5717 41.9189 62.8117 41.8873 63.0508L41.9107 62.8768C41.836 63.4023 41.6557 63.9085 41.4503 64.3957L41.5158 64.2405C41.3545 64.6188 41.1649 64.9854 40.9156 65.3138L41.0167 65.183C40.8639 65.3805 40.6913 65.5594 40.4938 65.7124L40.6242 65.6117C40.4552 65.7388 40.2713 65.8451 40.0768 65.928L40.2303 65.8632C39.9756 65.9689 39.7092 66.0356 39.4364 66.0736L39.6066 66.0507C39.1314 66.1129 38.6513 66.0897 38.1774 66.0278L38.3465 66.0505C37.6419 65.9557 36.9388 65.7988 36.2808 65.5255L36.4309 65.5889C36.0941 65.4461 35.7762 65.2677 35.486 65.0446L35.6105 65.1408C35.4016 64.9779 35.2088 64.7954 35.0346 64.5959C34.9915 64.5458 34.9493 64.4949 34.9081 64.4432C34.8795 64.4069 34.8953 64.4274 34.9556 64.5047C34.9247 64.4641 34.8946 64.4229 34.8653 64.3812C34.789 64.2728 34.7181 64.1609 34.6526 64.0457C34.5543 63.8729 34.5272 63.8127 34.4733 63.692C34.4558 63.6528 34.4238 63.5489 34.4845 63.7205C34.4744 63.6918 34.4616 63.6638 34.4505 63.6353C34.4249 63.5688 34.401 63.5016 34.3788 63.4338C34.2957 63.1788 34.2317 62.9179 34.1955 62.652L34.2155 62.8009C34.181 62.5343 34.1729 62.265 34.1913 61.9969C34.1958 61.9329 34.2024 61.8691 34.2093 61.8053C34.2148 61.761 34.2144 61.7628 34.2082 61.8108L34.2218 61.7099C34.2251 61.6782 34.2277 61.6465 34.2313 61.6149C34.2337 61.5939 34.2363 61.5729 34.239 61.5519L34.2298 61.622C34.2429 61.5992 34.2403 61.5533 34.2449 61.5259C34.279 61.3248 34.3277 61.1265 34.3906 60.9325C34.4104 60.8718 34.4316 60.8116 34.4541 60.7519C34.4655 60.7222 34.4772 60.6926 34.489 60.6631C34.5286 60.5634 34.453 60.7414 34.4982 60.6422C34.5516 60.525 34.6058 60.4071 34.6734 60.2973C34.707 60.2426 34.7432 60.1893 34.78 60.1368C34.8107 60.093 34.8423 60.0499 34.8748 60.0074C34.8523 60.0367 34.8538 60.0352 34.8792 60.0029C34.9936 59.8596 35.0296 59.6441 34.8792 59.506C34.7427 59.3807 34.5164 59.3627 34.3822 59.506L34.3823 59.5061Z" fill="#70E8A0"/>
<path d="M47.2045 14.7651C43.8615 14.5264 40.5092 15.1114 37.4934 16.5861C34.4271 18.0854 31.8098 20.4027 29.9032 23.2306C27.9899 26.0686 26.909 29.3599 26.1335 32.6676C25.3136 36.1651 24.8043 39.7311 23.9002 43.2097C23.7943 43.6172 23.6797 44.0228 23.545 44.4219C23.4776 44.6214 23.3999 44.8164 23.3267 45.0137C23.2889 45.1154 23.335 44.9961 23.3411 44.9818C23.3191 45.0329 23.2965 45.0839 23.2735 45.1346C23.2277 45.2356 23.1796 45.3357 23.1294 45.4346C23.0422 45.6069 22.9474 45.7753 22.8454 45.9392C22.7872 46.0324 22.7264 46.124 22.6631 46.2137C22.6393 46.2473 22.6142 46.2799 22.5905 46.3136C22.5297 46.4002 22.6755 46.2199 22.5599 46.3497C22.431 46.4945 22.3047 46.639 22.1633 46.7722C22.0915 46.8398 22.0167 46.9032 21.9422 46.9676C21.9281 46.9798 21.8326 47.0598 21.9229 46.9855C22.0259 46.9008 21.8643 47.0282 21.8427 47.0436C21.5451 47.2564 21.2256 47.4376 20.8961 47.5962C20.8185 47.6334 20.7404 47.6695 20.6618 47.7044C20.6339 47.7168 20.4878 47.7797 20.6043 47.7303C20.7135 47.6841 20.5975 47.7328 20.5798 47.7398C20.3948 47.8139 20.2086 47.8846 20.0211 47.9519C19.311 48.2055 18.5858 48.4144 17.877 48.6716C16.3491 49.2261 14.9039 50.0307 14.0608 51.4776C13.2645 52.8441 13.1329 54.4652 13.4003 55.9979C13.6519 57.4403 14.3351 58.9058 15.3376 59.9815C15.793 60.47 16.4135 60.8266 16.9953 61.1427C18.8339 62.1418 20.8142 62.8823 22.7831 63.5771C25.0558 64.379 27.3531 65.1105 29.6504 65.838C30.6494 66.1536 31.6492 66.4666 32.6497 66.7771C33.3959 67.0093 34.1566 67.1839 34.9099 67.3919C35.036 67.4266 35.162 67.4619 35.2879 67.4975C35.3464 67.5142 35.4047 67.5326 35.4635 67.5479C35.4887 67.5545 35.5133 67.5645 35.5387 67.5699C35.5701 67.5766 35.7572 67.6234 35.5804 67.5796C35.5932 67.5828 35.6071 67.5894 35.6193 67.5938C36.1437 67.7859 36.3698 66.9489 35.8496 66.7583C35.7655 66.7275 35.8803 66.7707 35.8664 66.7644C35.8426 66.7537 35.8183 66.7439 35.7943 66.7335C35.7065 66.6952 35.6178 66.6586 35.5294 66.6215C35.4031 66.5685 35.2765 66.516 35.1498 66.4639C35.0021 66.4032 34.8544 66.3429 34.7064 66.283L34.471 66.1876L34.3305 66.1309C34.3181 66.1258 34.2564 66.1008 34.3234 66.1286C34.4 66.1603 34.2963 66.1165 34.2807 66.1098C33.4074 65.7342 32.5094 65.4312 31.6136 65.1135C29.4379 64.3419 27.2691 63.5539 25.1198 62.7114C24.5625 62.4931 24.0066 62.2711 23.4522 62.0455C23.1226 61.9112 22.7937 61.7753 22.4655 61.6377C22.4298 61.6227 22.3928 61.6089 22.3578 61.5924C22.3564 61.5918 22.5203 61.6614 22.4313 61.6235C22.2997 61.5674 22.1679 61.5117 22.0364 61.4553C21.7799 61.3453 21.525 61.2316 21.2687 61.121C21.2715 61.1222 20.9218 60.9681 21.1108 61.0542C21.2381 61.1122 21.1251 61.0602 21.0927 61.0463C21.0345 61.0215 20.9765 60.9967 20.9185 60.9719C20.7962 60.9193 20.6741 60.8664 20.5521 60.813C20.1027 60.6162 19.6558 60.4134 19.2136 60.2006C18.5118 59.8629 17.8095 59.5068 17.1645 59.0679C17.1054 59.0277 17.0468 58.9866 16.989 58.9446C16.9623 58.9251 16.9359 58.9002 16.9074 58.8839C16.8856 58.8715 17.1266 59.0593 16.9877 58.9457C16.8951 58.8699 16.8033 58.7938 16.7186 58.709C16.6832 58.6737 16.6494 58.6371 16.6163 58.5995C16.5537 58.5283 16.4957 58.4532 16.4353 58.38C16.5665 58.5391 16.4077 58.3398 16.368 58.2838C16.1668 57.9993 15.9863 57.7008 15.8279 57.3904C15.7894 57.3152 15.7522 57.2393 15.7162 57.1629C15.6956 57.1191 15.676 57.075 15.6559 57.0311C15.6475 57.0129 15.598 56.8998 15.6457 57.0102C15.6951 57.1247 15.5982 56.8888 15.5847 56.8535C15.5505 56.7631 15.518 56.6722 15.4872 56.5806C15.3721 56.2387 15.2822 55.8889 15.2183 55.5338C15.21 55.4876 15.1701 55.2495 15.1907 55.376C15.2112 55.5025 15.1786 55.2651 15.174 55.2179C15.1572 55.0417 15.1474 54.8652 15.1447 54.6883C15.1419 54.5133 15.1467 54.3382 15.1588 54.1636C15.1637 54.0942 15.1709 54.0252 15.1771 53.9559C15.1927 53.7808 15.1695 53.9747 15.1691 53.9998C15.1699 53.9438 15.1866 53.8844 15.1962 53.8295C15.2534 53.5014 15.3491 53.1898 15.4573 52.8756C15.4742 52.8267 15.4987 52.7091 15.4395 52.9116C15.4485 52.8806 15.4671 52.8479 15.4811 52.8187C15.5153 52.7473 15.5489 52.6756 15.5857 52.6054C15.6701 52.4444 15.7642 52.2887 15.8675 52.139C15.8865 52.1116 15.9111 52.0843 15.9271 52.0552C15.9892 51.943 15.8199 52.1779 15.9055 52.0814C15.9592 52.0208 16.0085 51.9564 16.0627 51.8962C16.1825 51.7633 16.3102 51.6378 16.445 51.5202C16.5095 51.4638 16.5754 51.4091 16.6428 51.3562C16.4954 51.4718 16.6573 51.3502 16.7175 51.3087C16.8681 51.2056 17.0234 51.1093 17.1827 51.0203C17.3323 50.9369 17.4847 50.8587 17.6396 50.7859C17.7287 50.7439 17.8191 50.7051 17.9088 50.6645C17.7249 50.7478 17.9568 50.6458 18.0275 50.6182C18.3653 50.4857 18.7087 50.368 19.0533 50.2545C19.7556 50.0232 20.4644 49.809 21.1491 49.5277C21.9317 49.2061 22.6524 48.8238 23.3025 48.2761C23.9526 47.7284 24.4636 47 24.8305 46.237C25.6282 44.5782 25.9895 42.7178 26.3628 40.9278C26.7173 39.2278 27.0246 37.5186 27.3605 35.815C27.6795 34.197 28.0253 32.5826 28.4695 30.9938C28.6915 30.2002 28.938 29.4133 29.218 28.6382C29.3599 28.2454 29.5139 27.8578 29.6703 27.4706C29.7099 27.3727 29.6651 27.4822 29.659 27.4969C29.6601 27.4942 29.8115 27.1355 29.7235 27.3427C29.7615 27.253 29.8002 27.1636 29.8395 27.0743C29.9234 26.8831 30.01 26.6929 30.0991 26.504C30.4515 25.7578 30.8455 25.0309 31.285 24.3322C31.5036 23.9846 31.7336 23.6442 31.9747 23.3116C32.0334 23.2307 32.0927 23.1503 32.1527 23.0704C32.1634 23.0562 32.27 22.9153 32.2153 22.9869C32.1667 23.0506 32.2532 22.9382 32.2534 22.9381C32.3966 22.7558 32.5433 22.5763 32.6931 22.3994C33.2109 21.7901 33.7648 21.2123 34.3518 20.6692C34.6539 20.3895 34.9646 20.1191 35.2834 19.8586C35.4318 19.7375 35.5788 19.6147 35.7283 19.4949C35.915 19.3451 35.9213 19.3401 36.1191 19.1926C38.6467 17.308 41.6585 15.9786 44.8031 15.6062C45.6023 15.5115 46.4013 15.5067 47.2043 15.5547C47.713 15.5852 47.7079 14.8012 47.2043 14.7653L47.2045 14.7651ZM56.6693 17.8198C57.9088 18.4314 59.0685 19.2194 60.0596 20.1854C60.9687 21.0714 61.6583 22.0287 62.2796 23.1398C62.434 23.4171 62.579 23.6995 62.7143 23.9866C62.7751 24.1148 62.8342 24.2439 62.8915 24.3738C62.9224 24.4436 62.9528 24.5136 62.9826 24.5839C62.9401 24.4831 63.0268 24.6934 63.0394 24.7247C63.2693 25.2966 63.4677 25.881 63.6395 26.473C63.9783 27.6409 64.2016 28.833 64.3834 30.0341C64.4037 30.1676 64.423 30.3013 64.4415 30.435L64.4584 30.5578C64.4577 30.5526 64.44 30.4098 64.4507 30.5017C64.4601 30.5831 64.4717 30.6643 64.4818 30.7456C64.5166 31.0268 64.5485 31.3084 64.5774 31.5903C64.6336 32.1434 64.6813 32.6974 64.7204 33.252C64.844 34.9774 64.821 36.6979 64.6104 38.4162C64.5858 38.6162 64.5731 38.7043 64.5356 38.9586C64.5029 39.1832 64.4679 39.4075 64.4307 39.6314C64.3526 40.0958 64.2635 40.5583 64.1635 41.0185C63.9667 41.9258 63.7293 42.8241 63.4568 43.7115C62.9128 45.4835 62.2657 47.1228 61.5039 48.7484C60.7122 50.4377 59.777 52.0806 59.2467 53.879C58.9563 54.8641 58.7191 55.939 59.1963 56.9031C59.3913 57.297 59.7031 57.6282 59.9903 57.9562C60.088 58.0674 60.1834 58.1807 60.2763 58.296C60.3343 58.3682 60.3812 58.4351 60.2932 58.3154C60.3429 58.383 60.394 58.4494 60.4431 58.5175C60.8309 59.0547 61.1638 59.6294 61.4367 60.2331C61.4509 60.2644 61.5451 60.4785 61.4898 60.3511C61.4352 60.2253 61.5271 60.4447 61.5373 60.4706C61.567 60.546 61.5958 60.6218 61.6236 60.698C61.7203 60.9627 61.8055 61.2314 61.8789 61.5035C61.9693 61.8391 62.0412 62.1793 62.0944 62.5228C62.0989 62.552 62.1031 62.5812 62.1075 62.6104C62.133 62.7768 62.0937 62.5562 62.0991 62.5481C62.0612 62.6036 62.1371 62.9091 62.1429 62.9858C62.1843 63.5344 62.1676 64.0803 62.1106 64.6269C62.0929 64.7965 62.1395 64.4461 62.1126 64.6141C62.1021 64.6794 62.0923 64.7447 62.0811 64.8098C62.0569 64.9488 62.029 65.0871 61.9972 65.2245C61.9384 65.4792 61.8659 65.7305 61.78 65.9775C61.7423 66.0858 61.6526 66.2302 61.6416 66.3419C61.6413 66.3448 61.7191 66.1675 61.6778 66.2555C61.662 66.289 61.6479 66.3234 61.6325 66.3571C61.4945 66.6607 61.3335 66.9534 61.1509 67.2326C61.0795 67.3417 61.0007 67.445 60.9272 67.5526C60.8733 67.6314 60.9835 67.4816 60.9829 67.482C60.9608 67.4968 60.9273 67.5523 60.9131 67.5698C60.6987 67.8345 60.4633 68.0815 60.2091 68.3083C60.1543 68.3571 59.9721 68.5674 59.8979 68.5685C59.8914 68.5686 60.0488 68.4612 59.9637 68.5168C59.9393 68.5328 59.9163 68.5521 59.8927 68.5692C59.8289 68.6157 59.7642 68.661 59.6987 68.7051C59.4545 68.8692 59.1999 69.0174 58.9367 69.1487C58.8144 69.2099 58.6897 69.265 58.5653 69.3215C58.7814 69.2235 58.5645 69.3199 58.5123 69.3401C58.4309 69.3715 58.349 69.4016 58.2666 69.4303C57.9553 69.5382 57.638 69.6278 57.3162 69.6985C57.2179 69.7206 57.1191 69.7402 57.0198 69.7571C56.9775 69.7642 56.9337 69.7679 56.8917 69.7767C56.8858 69.778 57.1533 69.7473 57.0179 69.7591C56.9921 69.7614 56.9663 69.7651 56.9404 69.7679C56.7468 69.7878 56.5526 69.8002 56.358 69.8052C55.8979 69.8184 55.437 69.7994 54.9781 69.7656C54.715 69.746 54.4522 69.7218 54.1899 69.6931C53.9988 69.6723 53.808 69.6496 53.6174 69.6251C53.581 69.6204 53.5358 69.6087 53.5003 69.6098C53.5437 69.6084 53.6888 69.6357 53.5636 69.6183C51.0615 69.2689 48.5914 68.7159 46.127 68.1675C44.9202 67.8982 43.7108 67.641 42.4988 67.3959C41.4575 67.186 40.4121 66.9796 39.3553 66.8642C39.1598 66.8421 38.963 66.8319 38.7663 66.8336C38.683 66.8345 38.5997 66.8364 38.5165 66.8391C38.4739 66.8406 38.4311 66.8414 38.3885 66.8442C38.3081 66.8489 38.228 66.8587 38.1487 66.8735C38.1505 66.8731 38.3615 66.8579 38.248 66.852C37.84 66.8308 37.4923 67.2146 37.4923 67.6078C37.4923 68.0346 37.8387 68.3423 38.248 68.3635C38.2712 68.3647 38.2943 68.3659 38.3175 68.3673L37.936 68.2641C38.1578 68.3583 38.3743 68.3948 38.6077 68.4471C38.6539 68.4574 38.6998 68.469 38.7461 68.4788C38.7732 68.4846 38.7999 68.4928 38.8271 68.4978C38.8404 68.5002 39.1987 68.5234 38.9819 68.5195C38.8268 68.5168 38.9935 68.5241 39.0402 68.5319C39.099 68.5416 39.1578 68.5516 39.2166 68.5619C39.6939 68.6451 40.171 68.7303 40.6464 68.8233C41.8028 69.0494 42.9523 69.31 44.1009 69.5722C46.6434 70.1524 49.1919 70.7327 51.765 71.1619C53.8283 71.506 56.0706 71.9009 58.1339 71.3551C59.4051 71.0189 60.5995 70.3988 61.5657 69.5026C62.4493 68.683 63.0893 67.6379 63.4915 66.5071C64.3125 64.1988 63.9892 61.6211 63.0116 59.4185C62.7686 58.8711 62.4763 58.347 62.1385 57.8525C61.9362 57.5564 61.7179 57.2703 61.4908 56.9927C61.3922 56.8731 61.2913 56.7554 61.188 56.6397C61.1318 56.5762 61.0751 56.513 61.0199 56.4486C60.9831 56.4058 60.946 56.3627 60.9107 56.3186C60.9686 56.3909 60.9271 56.342 60.8961 56.2961C60.8335 56.2032 60.7751 56.1098 60.7248 56.0097C60.7876 56.1345 60.7083 55.9445 60.6957 55.8969C60.6485 55.7183 60.6812 55.809 60.6847 55.8512C60.6814 55.8038 60.6799 55.7562 60.6802 55.7086C60.6799 55.6448 60.6825 55.5813 60.6871 55.5176C60.6883 55.4998 60.7071 55.3387 60.6983 55.3963C60.6847 55.4861 60.7187 55.2929 60.7218 55.2766C60.7307 55.2295 60.7401 55.1825 60.7499 55.1355C60.7727 55.0262 60.7974 54.9174 60.8239 54.8089C60.8808 54.577 60.9452 54.3471 61.017 54.1194C61.304 53.2063 61.6131 52.5342 62.0271 51.674C62.8634 49.9362 63.6976 48.2074 64.3747 46.399C65.0377 44.6284 65.5748 42.8085 65.9386 40.9525C66.3053 39.0814 66.4963 37.172 66.4615 35.2645C66.4374 33.9374 66.3022 32.6066 66.135 31.2903C65.8143 28.7666 65.2487 26.2815 64.1663 23.9672C63.0389 21.5566 61.2439 19.3982 58.9206 18.0608C58.2926 17.6993 57.6339 17.3957 56.959 17.1331C56.5642 16.9795 56.2895 17.6318 56.6696 17.8194L56.6693 17.8198Z" fill="black"/>
<path d="M22.2882 55.819C24.6675 55.9089 27.0666 56.1265 29.3743 56.4786C31.7441 56.8403 34.0844 57.3437 36.4075 57.9324C38.7307 58.5211 41.0176 59.2536 43.2777 60.0648C44.41 60.4713 45.5387 60.8993 46.6436 61.376C46.5243 61.3245 46.644 61.3762 46.6944 61.3977C46.9123 61.4902 47.1297 61.5841 47.3466 61.6791C48.167 62.0383 48.98 62.414 49.7853 62.8059C50.7592 63.28 51.7235 63.7793 52.636 64.3647C52.8701 64.5146 53.1002 64.6707 53.326 64.8328C53.4309 64.9082 53.5338 64.9864 53.6381 65.0627C53.6899 65.1007 53.7423 65.1381 53.7939 65.1765C53.8159 65.1928 53.838 65.2093 53.86 65.2258C53.8764 65.2381 54.0006 65.3334 53.9182 65.2696C53.8462 65.2137 53.9204 65.2716 53.9323 65.2809C53.9612 65.3038 53.9901 65.3268 54.0188 65.3498C54.0691 65.3902 54.119 65.4311 54.1686 65.4722C54.2747 65.5603 54.3791 65.6504 54.4818 65.7425C54.6799 65.9205 54.8723 66.1045 55.0698 66.283C55.1651 66.3692 55.2572 66.4587 55.3511 66.5463C55.4215 66.6118 55.4979 66.6693 55.5747 66.727C55.5863 66.7357 55.6559 66.7897 55.5882 66.7369C55.6172 66.7596 55.6461 66.7825 55.6748 66.8056C55.8564 66.9505 56.0857 67.0109 56.299 66.8861C56.4791 66.7809 56.6211 66.5119 56.5357 66.3045C56.4175 66.0172 56.2919 65.766 56.1115 65.5135C55.9351 65.2655 55.7398 65.0315 55.5275 64.8135C55.1181 64.3935 54.6755 64.0073 54.2039 63.6586C53.3207 63.0064 52.364 62.4604 51.3887 61.9594C49.2182 60.8445 46.9676 59.8721 44.6858 59.0094C42.4039 58.1467 40.0837 57.4473 37.7276 56.8612C35.3371 56.2665 32.9097 55.8374 30.467 55.5239C28.0503 55.2133 25.6191 55.0278 23.1833 54.9681C22.885 54.961 22.5866 54.9558 22.2882 54.9525C22.054 54.9499 21.855 55.1535 21.855 55.3857C21.855 55.6278 22.0535 55.8102 22.2882 55.819Z" fill="black"/>
<path d="M25.3835 55.6888C28.9859 58.4526 33.2396 60.2914 37.6348 61.431C42.03 62.5706 46.5758 63.0305 51.1124 63.2191C48.6035 62.5254 46.2211 61.4459 43.7798 60.5426C40.3879 59.2877 36.8817 58.3729 33.3823 57.4601C31.3185 56.9219 29.2464 56.3821 27.1275 56.1397" fill="black"/>
<path d="M25.2426 55.9299C25.9173 56.4466 26.5742 56.9844 27.2617 57.485C27.9421 57.9805 28.6833 58.4101 29.4152 58.8243C30.9129 59.6719 32.516 60.3492 34.1312 60.9381C35.7755 61.5375 37.4637 62.0141 39.1705 62.3997C40.0821 62.6057 41.0001 62.7849 41.9204 62.9481C42.3843 63.0305 42.8501 63.1014 43.3141 63.1831C43.5415 63.2232 43.7693 63.2613 43.9971 63.2993C44.0883 63.3145 44.1795 63.3274 44.2712 63.3398C44.068 63.3124 44.3597 63.3517 44.38 63.3545C44.5247 63.374 44.6694 63.3931 44.8141 63.4118C46.675 63.6517 48.5436 63.8096 50.4169 63.9109C50.6486 63.9234 50.8805 63.9347 51.1123 63.9464C51.4735 63.9646 51.7809 63.6556 51.8266 63.3158C51.8502 63.1423 51.8105 62.9662 51.7149 62.8197C51.6192 62.6731 51.4739 62.5659 51.3057 62.5177C49.7583 62.0729 48.2514 61.4923 46.7549 60.902C45.2442 60.3061 43.7351 59.7114 42.1945 59.1961C39.078 58.1536 35.89 57.3342 32.7093 56.5143C31.8214 56.2854 30.9313 56.0641 30.0343 55.8737C29.5783 55.7763 29.1204 55.6886 28.6607 55.6105C28.4309 55.5716 28.2006 55.5357 27.9699 55.5029C27.6891 55.463 27.4084 55.4453 27.1273 55.4128C26.9548 55.3929 26.7307 55.5083 26.6133 55.6257C26.4873 55.7517 26.3923 55.9585 26.4005 56.1397C26.4089 56.3277 26.4706 56.5226 26.6133 56.6537C26.7644 56.7923 26.9249 56.8432 27.1273 56.8665L27.177 56.8723L26.9838 56.8463C27.3916 56.925 27.8053 56.9728 28.2148 57.0412C28.6243 57.1096 29.0344 57.1873 29.442 57.2717C30.2419 57.4372 31.0362 57.6286 31.8279 57.8294C33.4064 58.2297 34.9815 58.6435 36.5529 59.0707C38.1377 59.5014 39.7165 59.9551 41.2782 60.4636C42.8106 60.9625 44.3149 61.5327 45.813 62.1254C47.4923 62.7898 49.1719 63.4529 50.9189 63.9204L51.1123 62.4917C49.2581 62.4302 47.4025 62.3182 45.5555 62.1445C45.0859 62.1003 44.6175 62.0432 44.1479 62.0008C43.9178 61.98 43.6879 61.9579 43.4581 61.9346C43.3513 61.924 43.2447 61.9119 43.1382 61.8985C43.0809 61.891 43.0235 61.8834 42.9661 61.8758C42.8936 61.8662 43.0033 61.8808 43.0081 61.8814C42.9669 61.8762 42.9258 61.8702 42.8848 61.8645C41.9649 61.7378 41.0494 61.5871 40.1386 61.406C38.4153 61.0634 36.7145 60.6242 35.0426 60.0838C34.2363 59.8237 33.4389 59.5363 32.652 59.2223C32.4573 59.1443 32.2633 59.0648 32.0699 58.9837C32.154 59.0189 32.0619 58.9803 32.0292 58.9664C31.8774 58.9016 31.726 58.8358 31.575 58.7689C31.1649 58.5874 30.7576 58.3996 30.3533 58.2056C30.4304 58.2426 30.3374 58.1951 30.3097 58.1822C29.9701 58.0235 29.6332 57.859 29.2991 57.6888C28.9257 57.4984 28.5562 57.3003 28.1909 57.0949C27.4621 56.6847 26.7346 56.2718 26.0311 55.8191C25.8551 55.7059 25.6905 55.5745 25.5245 55.4473C25.4046 55.3556 25.2119 55.4288 25.1425 55.5475C25.0584 55.6913 25.1225 55.8375 25.2426 55.9295V55.9299Z" fill="black"/>
<path d="M33.7471 58.1364C33.5374 58.514 33.3266 58.8934 33.1409 59.2836C32.9436 59.6981 32.7761 60.1344 32.6351 60.5711C32.3743 61.379 32.237 62.2283 32.3111 63.0776C32.3861 63.937 32.6342 64.8066 33.1554 65.506C33.647 66.1658 34.2752 66.7167 35.0008 67.1082C35.6007 67.4319 36.2582 67.6613 36.9329 67.761C37.2969 67.8147 37.6611 67.8514 38.0294 67.8492C38.4021 67.8469 38.7727 67.8071 39.1406 67.749C40.4825 67.537 41.7889 66.8846 42.7275 65.8966C43.3279 65.2646 43.8111 64.4922 44.0302 63.6431C44.2504 62.7897 44.2318 61.8559 43.9558 61.0172C43.9272 60.9309 43.8958 60.8456 43.8614 60.7614C43.8186 60.6555 43.7982 60.5983 43.7367 60.5175C43.6776 60.439 43.6169 60.3617 43.5547 60.2855C43.4714 60.1842 43.3245 60.1326 43.201 60.1161C43.0696 60.0984 42.9228 60.1152 42.8081 60.1892C42.5672 60.3445 42.4674 60.6064 42.525 60.885C42.5458 60.9858 42.559 61.0842 42.5963 61.1805C42.6353 61.2812 42.6701 61.3834 42.7006 61.487C42.7597 61.6889 42.8033 61.895 42.8309 62.1035L42.807 61.9255C42.8528 62.2869 42.8515 62.6527 42.803 63.0138L42.8269 62.8356C42.779 63.174 42.6884 63.5048 42.5571 63.8203L42.6247 63.6602C42.4672 64.0286 42.2584 64.3702 42.0137 64.687L42.1186 64.5512C41.8477 64.8976 41.5353 65.2093 41.1882 65.4794L41.3242 65.3743C40.9326 65.6757 40.5033 65.9226 40.0484 66.115L40.209 66.0473C39.7088 66.2558 39.1835 66.3982 38.6466 66.471L38.8254 66.447C38.2884 66.5188 37.7444 66.52 37.207 66.4509L37.3862 66.475C36.8705 66.4057 36.363 66.273 35.8833 66.071L36.0425 66.1382C35.6312 65.9622 35.2436 65.7354 34.8889 65.4629L35.0217 65.5654C34.7092 65.3228 34.4251 65.047 34.1812 64.7351L34.2823 64.866C34.0572 64.5734 33.8667 64.2593 33.7225 63.9192L33.7854 64.0682C33.6327 63.6998 33.533 63.3141 33.4778 62.9195L33.499 63.0774C33.4589 62.7759 33.4428 62.4718 33.4507 62.1678C33.4546 62.0191 33.4646 61.8706 33.4746 61.7222C33.4821 61.6126 33.4923 61.5031 33.5053 61.394C33.5073 61.3768 33.5071 61.3387 33.5143 61.3206C33.5039 61.3468 33.4994 61.425 33.5103 61.3515C33.6075 60.697 33.7922 60.0701 33.9853 59.439C34.0937 59.0846 34.2135 58.734 34.3367 58.3846C34.3902 58.2331 34.2882 58.0624 34.15 58.0041C34.0062 57.9434 33.8257 57.9948 33.7473 58.136L33.7471 58.1364ZM47.5995 13.791C47.5875 13.6789 47.5844 13.5659 47.5901 13.4532C47.5917 13.4224 47.594 13.3917 47.597 13.361C47.5975 13.3564 47.6119 13.2566 47.6013 13.3219C47.6109 13.2618 47.6227 13.2021 47.6366 13.1428C47.663 13.0323 47.6996 12.9262 47.7387 12.8198C47.773 12.7264 47.7182 12.8605 47.744 12.8062C47.755 12.7831 47.7652 12.7595 47.7756 12.7362C47.8029 12.6746 47.8301 12.6132 47.8608 12.5532C47.9108 12.4556 47.9663 12.3608 48.027 12.2695C48.0621 12.217 48.0986 12.1656 48.1366 12.1153C48.0855 12.1831 48.1294 12.1255 48.1429 12.109C48.1661 12.0806 48.1898 12.0527 48.2139 12.0251C48.3246 11.8993 48.4454 11.7828 48.575 11.6766C48.5879 11.666 48.6657 11.5962 48.5922 11.6621C48.625 11.6327 48.665 11.6083 48.7011 11.5832C48.9038 11.4423 49.1204 11.3224 49.3452 11.221C49.3646 11.2122 49.4694 11.163 49.3606 11.213C49.391 11.199 49.4229 11.1874 49.454 11.1753C49.6325 11.1054 49.8146 11.0452 49.9996 10.9949C50.2405 10.9285 50.4845 10.8737 50.7306 10.8306C50.7977 10.8189 50.8648 10.8079 50.9322 10.7976C50.9634 10.7929 51.1582 10.7553 51.0082 10.7858C51.1476 10.7574 51.2973 10.7512 51.439 10.7391C52.0528 10.6863 52.6712 10.6941 53.2821 10.775L53.1321 10.7549C53.7018 10.8332 54.2604 10.9771 54.7914 11.1991L54.6462 11.1378C55.0726 11.3186 55.4735 11.5554 55.8408 11.8373L55.7094 11.7358C56.0502 12.0006 56.3578 12.3043 56.6222 12.6456L56.5146 12.5063C56.7506 12.8154 56.9518 13.1494 57.1042 13.5074L57.0322 13.3367C57.1627 13.6484 57.2524 13.9756 57.299 14.3102L57.2727 14.1149C57.3219 14.4889 57.3166 14.8674 57.2671 15.2412L57.2939 15.0416C57.2487 15.3639 57.1644 15.6783 57.0383 15.9786L57.114 15.7992C57.0063 16.0512 56.8683 16.2891 56.7031 16.5077L56.8206 16.3557C56.753 16.4431 56.6802 16.5261 56.6126 16.6136C56.4764 16.7898 56.449 16.9844 56.463 17.1964C56.4859 17.5455 56.7275 17.7898 57.0791 17.8126C57.186 17.8194 57.2966 17.8195 57.4006 17.7909C57.5771 17.7422 57.7154 17.6253 57.8279 17.4869C57.9514 17.335 58.0714 17.1789 58.1749 17.0124C58.3478 16.7342 58.4817 16.4268 58.5854 16.1166C58.7793 15.5362 58.845 14.899 58.7686 14.2919C58.726 13.9542 58.6675 13.6242 58.5529 13.3027C58.4405 12.9874 58.3002 12.6778 58.1265 12.3914C57.8089 11.8678 57.3902 11.4008 56.9085 11.0234C56.383 10.6117 55.8228 10.297 55.1988 10.0585C54.5364 9.80537 53.8265 9.67833 53.1204 9.63409C52.4045 9.58929 51.6859 9.64977 50.9798 9.77033C50.309 9.88489 49.6535 10.0678 49.0398 10.3662C47.9028 10.919 46.8842 12.0503 46.9901 13.3915C47.0026 13.5504 47.028 13.7087 47.0698 13.8625C47.1046 13.9908 47.2352 14.0752 47.3655 14.0556C47.4863 14.0375 47.6134 13.926 47.5993 13.7909L47.5995 13.791Z" fill="black"/>
<path d="M51.1612 15.7092C51.9497 15.9835 52.7416 16.2483 53.5349 16.5079C53.9284 16.6366 54.3226 16.7628 54.7176 16.8865C54.9182 16.9494 55.1208 17.0042 55.3237 17.0589C55.4252 17.0863 55.5266 17.1134 55.6281 17.1404C55.7525 17.1735 55.848 17.163 55.9707 17.1304C56.0985 17.0966 56.1461 16.9253 56.0493 16.8327C55.9593 16.7468 55.8834 16.6897 55.7609 16.6587C55.6591 16.6328 55.5573 16.6068 55.4556 16.5807C55.252 16.5283 55.0489 16.4749 54.8439 16.4281C54.4404 16.336 54.0375 16.2413 53.6352 16.144C52.8247 15.9481 52.0185 15.7364 51.2149 15.5143C51.0882 15.4793 51.0393 15.667 51.1611 15.7093L51.1612 15.7092ZM25.4018 48.9746C26.4133 48.7946 27.4301 48.6807 28.454 48.5999C29.4914 48.5179 30.5273 48.4538 31.5682 48.4424C33.6507 48.4198 35.7365 48.5409 37.8013 48.812C37.9121 48.8266 37.8373 48.8168 37.8139 48.8136L37.9189 48.828C37.9713 48.8353 38.0238 48.8426 38.0762 48.8501C38.4698 48.9061 38.8626 48.9674 39.2545 49.0341C39.7689 49.1217 40.2817 49.2184 40.7927 49.3243C41.8164 49.5362 42.8324 49.7857 43.8408 50.0612C44.8511 50.3374 45.8519 50.6476 46.8413 50.9913C47.7646 51.3118 48.6777 51.6608 49.5793 52.0377L49.6777 52.0789C49.6227 52.0559 49.6431 52.0643 49.6858 52.0824C51.6247 52.9067 53.5134 53.8452 55.4031 54.7749C55.6485 54.8956 55.8851 55.0002 56.1462 55.0824C56.4448 55.1763 56.6577 54.7801 56.446 54.5675C56.0617 54.1818 55.5901 53.8965 55.1336 53.6026C54.6868 53.315 54.2393 53.0225 53.772 52.7691C52.8433 52.2657 51.9003 51.7899 50.9341 51.3627C48.9708 50.4947 46.9546 49.7481 44.8933 49.1477C42.8597 48.5554 40.7821 48.1204 38.6834 47.8347C36.5721 47.5474 34.4401 47.3923 32.3086 47.4437C31.2585 47.4688 30.2099 47.5359 29.1652 47.6449C28.099 47.7564 27.0482 47.9451 25.9953 48.1422C25.7345 48.191 25.4745 48.2428 25.2149 48.297C25.029 48.3358 24.9214 48.5545 24.9694 48.7292C25.0236 48.9263 25.2141 49.008 25.4017 48.9747L25.4018 48.9746Z" fill="black"/>
<path d="M45.7573 17.0931C45.2242 17.0999 44.6949 17.1452 44.1669 17.2179L44.0809 17.2299C44.2273 17.2097 44.0038 17.2399 43.9945 17.2412L43.8012 17.2704C43.4224 17.3273 43.0466 17.4017 42.6748 17.4936C41.6626 17.7436 40.6609 18.1123 39.7573 18.6347C39.2158 18.9479 38.7085 19.307 38.215 19.6907L38.3813 19.5622C37.0753 20.5616 36.0169 21.8971 35.1361 23.2751C34.7177 23.9298 34.3781 24.6437 34.0513 25.3475C34.0115 25.4333 33.9721 25.5192 33.9331 25.6053C33.915 25.645 33.897 25.6848 33.8793 25.7247C33.8607 25.7666 33.8426 25.8087 33.8249 25.8511C33.7823 25.9532 33.7764 25.9665 33.8071 25.891C33.8317 25.831 33.8322 25.8288 33.8085 25.8844C33.7131 26.0993 33.6233 26.3168 33.5327 26.5337C33.3828 26.8933 33.237 27.2546 33.0956 27.6176C32.7969 28.382 32.5086 29.1506 32.2237 29.9203C31.9132 30.7595 31.5733 31.5878 31.258 32.4255C30.6244 34.109 30.0421 35.8137 29.5563 37.5461C29.0693 39.2828 28.715 41.0608 28.4912 42.8512C28.4634 43.0731 28.4442 43.2963 28.4233 43.5188C28.4019 43.746 28.7703 43.793 28.8204 43.5726C28.994 42.809 29.1577 42.0429 29.3496 41.2835C29.5378 40.5384 29.756 39.8022 29.9593 39.0613C30.3719 37.5587 30.8629 36.0805 31.4154 34.6238C31.6952 33.8861 31.9885 33.1536 32.2907 32.425C32.4494 32.0424 32.5471 31.8112 32.7099 31.431C32.8613 31.0773 33.0141 30.725 33.1781 30.377C33.7697 29.1219 34.3652 27.8673 35.0297 26.6487C35.3897 25.9884 35.7601 25.3348 36.1677 24.7025C36.5796 24.0636 36.9932 23.4253 37.4578 22.8231L37.3291 22.9896C38.0781 22.0243 38.9444 21.1639 39.9097 20.415L39.7473 20.5405C40.1016 20.2672 40.4705 20.0133 40.8524 19.7799C41.2269 19.5514 41.5997 19.3207 41.9888 19.1171C42.2548 18.9779 42.5259 18.8485 42.8015 18.7293C42.8219 18.7205 42.9089 18.6835 42.8264 18.7183C42.7479 18.7515 42.8177 18.7221 42.8325 18.716C42.8593 18.705 42.8861 18.694 42.913 18.6831C42.9734 18.6586 43.034 18.6345 43.0948 18.611C43.5047 18.4521 43.9233 18.3127 44.3489 18.2027C44.5849 18.1416 44.8241 18.0911 45.0637 18.0465C45.2466 18.0124 45.4303 17.9827 45.6146 17.9573C45.5419 17.9672 45.6153 17.9573 45.6277 17.9559C45.6708 17.9506 45.714 17.9454 45.7572 17.9403C45.9765 17.9146 46.1918 17.7639 46.1808 17.5167C46.1706 17.2896 45.9946 17.09 45.7572 17.0931H45.7573ZM43.1379 37.9851C44.1896 38.8554 45.1764 39.8012 46.0907 40.815C46.9946 41.8174 47.8347 42.8817 48.5928 43.9985C48.8076 44.315 49.016 44.6359 49.2177 44.961C49.4269 45.2982 49.6193 45.6451 49.8851 45.9415C50.0221 46.0942 50.2945 45.9341 50.231 45.7401C50.1211 45.4034 49.9393 45.1062 49.7499 44.8086C49.5657 44.5193 49.3763 44.2335 49.1817 43.9512C48.7867 43.3791 48.3713 42.8212 47.9363 42.2788C47.0798 41.2099 46.1309 40.2137 45.1205 39.2894C44.5464 38.7644 43.9508 38.2634 43.3353 37.7877C43.2752 37.7412 43.1965 37.7303 43.1378 37.7877C43.0877 37.8367 43.0799 37.9372 43.1378 37.9851L43.1379 37.9851ZM47.0072 36.0858C47.9829 37.1428 48.8865 38.2571 49.7244 39.4263C50.7965 40.9221 51.7626 42.491 52.6157 44.1217C52.7091 44.3003 52.7952 44.4842 52.8965 44.6585C52.9471 44.7457 52.9965 44.8335 53.0473 44.9206C53.1073 45.0231 53.1885 45.1091 53.2655 45.199C53.3397 45.2855 53.4866 45.2946 53.5805 45.2396C53.6825 45.1799 53.7261 45.0587 53.7 44.9461C53.6784 44.8528 53.6605 44.7603 53.6233 44.6719C53.5833 44.5772 53.5382 44.4844 53.4946 44.3913C53.4189 44.2296 53.3316 44.0748 53.2444 43.9191C52.7129 42.971 52.1427 42.0452 51.5351 41.144C50.7204 39.936 49.8405 38.7733 48.8994 37.6609C48.3705 37.0359 47.8313 36.4188 47.2727 35.8203C47.1073 35.6431 46.8435 35.9084 47.0072 36.0858ZM48.8193 32.1144C50.2158 33.4756 51.5327 34.972 52.6805 36.5071C53.8541 38.0767 54.9019 39.7379 55.8385 41.4591C56.2319 42.182 56.6019 42.9174 56.9477 43.6642C57.0048 43.7873 57.0812 43.9034 57.1484 44.0211C57.2267 44.1582 57.3024 44.2786 57.4092 44.3962C57.5482 44.5492 57.856 44.4358 57.8365 44.2192C57.825 44.0837 57.7969 43.9501 57.7528 43.8215C57.7129 43.7037 57.6741 43.5853 57.6315 43.4685C57.5413 43.2214 57.4133 42.9835 57.2989 42.7468C57.0826 42.2991 56.8577 41.8556 56.6241 41.4167C56.1626 40.5486 55.6642 39.7005 55.1303 38.875C54.0473 37.2016 52.8341 35.6139 51.5119 34.1227C50.7762 33.2932 50.005 32.496 49.2003 31.7333C48.9487 31.4947 48.5698 31.8715 48.8191 32.1145L48.8193 32.1144Z" fill="#70E8A0"/>
<path d="M46.9147 41.0988C48.2408 40.3152 49.541 39.4886 50.8133 38.6205C52.093 37.7464 53.3438 36.8307 54.5637 35.8749C54.9002 35.6115 55.2342 35.345 55.5658 35.0754C55.9072 34.798 56.2311 34.5054 56.5531 34.2058C56.6502 34.1154 56.6444 33.9499 56.5531 33.8586C56.4502 33.7557 56.3104 33.7762 56.2059 33.8586C55.9037 34.097 55.5985 34.3305 55.3042 34.5786C54.4319 35.3143 53.5418 36.0285 52.6346 36.7206C50.7343 38.1706 48.7619 39.5236 46.7251 40.7746C46.5196 40.9008 46.7057 41.2222 46.9147 41.0988ZM49.4776 43.9582C50.8836 43.2897 52.2545 42.5438 53.5855 41.7362C54.9105 40.9323 56.1905 40.0564 57.4198 39.1125C57.7767 38.8384 58.1296 38.56 58.4749 38.2715C58.8103 37.9914 59.1683 37.7202 59.45 37.3854C59.5472 37.2701 59.5729 37.1118 59.4737 36.9873C59.3847 36.8754 59.2104 36.8239 59.0825 36.9092C58.7431 37.1355 58.449 37.4198 58.139 37.6844C57.8497 37.9309 57.5584 38.1751 57.2652 38.417C56.6764 38.9041 56.0738 39.3745 55.4584 39.8275C54.2144 40.7437 52.922 41.6019 51.5792 42.3667C50.8202 42.7989 50.048 43.2077 49.2638 43.5924C49.1612 43.6428 49.1331 43.7886 49.1878 43.8822C49.2496 43.9878 49.3739 44.0074 49.4776 43.9582ZM52.6799 46.5246C53.972 45.7994 55.2231 45.0036 56.4276 44.1406C56.6076 44.0115 56.7912 43.8848 56.9646 43.7468C57.1293 43.6157 57.2844 43.4702 57.4416 43.3303C57.6846 43.1142 57.3655 42.6941 57.0916 42.8767C56.9365 42.9802 56.7803 43.0818 56.6243 43.1839C56.473 43.2829 56.3318 43.3989 56.1864 43.5062C54.9637 44.4093 53.6908 45.2422 52.3737 46.001C52.232 46.0827 52.1826 46.2751 52.2649 46.4159C52.349 46.5597 52.5365 46.6052 52.6799 46.5247V46.5246ZM57.2344 48.5679C57.4661 48.5679 57.688 48.3642 57.6773 48.125C57.6666 47.8858 57.4828 47.6822 57.2344 47.6822C57.0028 47.6822 56.7808 47.8858 56.7916 48.125C56.8023 48.3642 56.9861 48.5679 57.2344 48.5679ZM22.1584 50.9943C22.0632 51.0372 21.9651 51.0897 21.8687 51.1233C21.7604 51.1611 21.6451 51.1957 21.534 51.2323L20.9029 51.4408C20.4704 51.5837 20.032 51.7153 19.6036 51.8702C19.2372 52.0026 18.8723 52.1557 18.5255 52.3335C18.187 52.507 17.8526 52.7199 17.5911 52.9985C17.2965 53.3123 17.0622 53.6906 16.9531 54.1099C16.888 54.36 16.8592 54.6303 16.8748 54.8887C16.8842 55.0442 16.9064 55.1997 16.9325 55.3531C16.9592 55.5099 17.0321 55.6562 17.094 55.8015C17.2531 56.1746 17.4746 56.5014 17.6893 56.8428C17.8909 57.1634 18.0915 57.4855 18.3197 57.7882C18.586 58.1414 18.9061 58.4666 19.232 58.765C19.5602 59.0655 19.92 59.3258 20.3262 59.51C20.4179 59.5516 20.5228 59.5439 20.587 59.4579C20.6472 59.3774 20.6431 59.2661 20.5712 59.1925C20.3581 58.9744 20.1569 58.7474 19.9541 58.52C19.879 58.4357 19.8061 58.3495 19.7356 58.2614C19.7224 58.245 19.6507 58.1518 19.6935 58.2084C19.6036 58.0896 19.516 57.9695 19.4376 57.8427C19.274 57.5781 19.1251 57.3022 18.9794 57.0274C18.9083 56.8931 18.8422 56.7563 18.7813 56.6171C18.7742 56.6009 18.721 56.4767 18.7569 56.5611C18.7928 56.6455 18.7427 56.5259 18.7348 56.5063C18.705 56.4321 18.6785 56.3567 18.6554 56.2803C18.5448 55.9197 18.4439 55.5507 18.3928 55.1765L18.4188 55.3693C18.394 55.1723 18.3571 54.9783 18.3307 54.7819L18.357 54.9779C18.3357 54.7995 18.3335 54.6224 18.3572 54.4442L18.3311 54.6383C18.3528 54.4957 18.3916 54.3562 18.4467 54.2229L18.3736 54.3959C18.436 54.2529 18.5151 54.1177 18.6095 53.9935L18.4972 54.1387C18.68 53.9025 18.9063 53.6928 19.1413 53.5095L19.0041 53.6155C19.2217 53.4482 19.4529 53.3002 19.6897 53.1617C19.9769 52.9937 20.2632 52.827 20.5463 52.6518L21.4853 52.0702L21.9548 51.7794C22.1188 51.6778 22.2859 51.5937 22.4596 51.5098C22.6047 51.4396 22.6434 51.2327 22.5666 51.1014C22.4781 50.9502 22.3058 50.9279 22.1583 50.9944L22.1584 50.9943ZM53.8386 11.96C53.6589 11.8592 53.4668 11.7433 53.267 11.6899C53.0758 11.6384 52.882 11.5965 52.6866 11.5644C52.2558 11.4947 51.7848 11.4537 51.3557 11.5522C50.6357 11.7177 50.0989 12.2498 49.7082 12.8503C49.6156 12.9927 49.5412 13.1479 49.4704 13.3021C49.4172 13.4177 49.3822 13.532 49.3535 13.6551C49.3244 13.7795 49.3335 13.8757 49.3475 13.9972C49.3629 14.1314 49.4084 14.2454 49.5311 14.3173C49.6423 14.3824 49.7944 14.3875 49.9052 14.3173C49.98 14.2698 50.057 14.225 50.1236 14.1663C50.1763 14.1199 50.2173 14.0588 50.2619 14.0042C50.3768 13.8634 50.4604 13.7074 50.5584 13.5552C50.6336 13.4382 50.7041 13.3184 50.784 13.2044C50.8019 13.1788 50.8276 13.1274 50.853 13.1093C50.8588 13.1051 50.7762 13.2059 50.8128 13.1612C50.8221 13.1499 50.831 13.1383 50.8402 13.127C50.8858 13.0707 50.9337 13.0164 50.9838 12.9641C51.0299 12.9158 51.0782 12.8696 51.1284 12.8256C51.1533 12.8039 51.1804 12.7841 51.2049 12.7618C51.2006 12.7658 51.0952 12.8421 51.1647 12.7939C51.1803 12.7831 51.1956 12.7719 51.2113 12.7612C51.2664 12.7237 51.3236 12.6894 51.3825 12.6583C51.4123 12.6427 51.4431 12.6292 51.4731 12.6141C51.5232 12.5888 51.4079 12.6403 51.4135 12.6388C51.4403 12.6316 51.4669 12.6182 51.4932 12.6091C51.6613 12.5511 51.8397 12.5148 52.0148 12.4854C52.0273 12.4834 52.0904 12.4746 52.0221 12.4839C51.9495 12.4939 52.0308 12.4834 52.0488 12.4814C52.0923 12.4766 52.1357 12.4724 52.1792 12.4687C52.2696 12.4611 52.3602 12.4554 52.4508 12.4518C52.6635 12.443 52.8756 12.4336 53.0884 12.4393C53.2986 12.4449 53.5069 12.4165 53.7172 12.4085C53.9484 12.3997 54.0541 12.0809 53.8386 11.96Z" fill="#70E8A0"/>
<path d="M36.3429 64.679C36.5776 64.5217 36.8255 64.3851 37.0839 64.2707C37.3357 64.1596 37.6012 64.0849 37.8572 63.985C37.9353 63.9545 37.9912 63.8885 37.9779 63.8001C37.9665 63.7239 37.897 63.6461 37.8125 63.654C37.6551 63.6687 37.5092 63.6952 37.3587 63.744C37.2104 63.7927 37.0643 63.848 36.9209 63.9097C36.6481 64.0259 36.3864 64.1665 36.1389 64.3298C36.0478 64.3899 36.0091 64.5086 36.0663 64.6065C36.1189 64.6965 36.2517 64.74 36.3429 64.679ZM37.6621 65.7921C37.9332 65.7375 38.2022 65.6734 38.4688 65.6L38.8537 65.4948C39.0031 65.4539 39.1375 65.3963 39.2773 65.33C39.3693 65.2863 39.4002 65.1585 39.3621 65.0715C39.3173 64.9698 39.2231 64.936 39.1179 64.9517C39.0473 64.9622 38.9735 64.9682 38.9038 64.9836C38.8441 64.9968 38.7862 65.0207 38.7284 65.0401L38.335 65.1722C38.0768 65.2585 37.8217 65.3538 37.5701 65.4578C37.4837 65.4937 37.422 65.5727 37.449 65.671C37.4753 65.7667 37.5701 65.8105 37.6622 65.7921H37.6621Z" fill="#FF8345"/>
<path d="M19.7971 23.8712C19.33 24.8195 18.8921 25.7782 18.4949 26.758C17.8859 28.2611 17.338 29.7882 16.8525 31.3355C16.7902 31.5341 16.8804 31.7597 17.0389 31.8822C17.2173 32.02 17.4181 32.0093 17.6164 31.9228C18.8808 31.3712 20.1459 30.8212 21.4125 30.2745L22.4957 29.8069L21.6006 29.4427C21.6138 29.486 21.6241 29.5287 21.6313 29.5734L21.6094 29.4106C21.6176 29.4866 21.6171 29.5632 21.6079 29.6391L21.6301 29.4736C21.6116 29.597 21.5717 29.7109 21.5257 29.8263L21.5898 29.6745C21.4421 30.0245 21.2014 30.3259 20.9811 30.632L20.2457 31.6541L18.7983 33.6658C18.5234 34.0479 18.2539 34.439 18.001 34.836C17.8645 35.0504 17.9013 35.3477 18.0506 35.5411C18.2034 35.7389 18.4717 35.8397 18.718 35.7687C19.4584 35.5551 20.1933 35.3239 20.9065 35.0303C21.6533 34.7229 22.3788 34.3717 23.0753 33.9624L22.2664 33.4983C22.2541 34.0891 22.2081 34.6755 22.1352 35.2618C22.127 35.3276 22.1494 35.1604 22.1353 35.2605C22.1299 35.2991 22.1245 35.3377 22.1189 35.3763C22.1087 35.447 22.098 35.5176 22.0869 35.5882C22.0637 35.7357 22.0351 35.8823 22.0117 36.0298C22.0005 36.0997 21.9928 36.1703 21.9837 36.2406C21.9817 36.2555 21.9677 36.3647 21.9773 36.2899C21.9914 36.1813 21.9601 36.4153 21.9573 36.4503C21.9548 36.482 21.9541 36.5138 21.953 36.5455C21.9479 36.6974 21.9408 36.8492 21.9318 37.0008C21.9224 37.1619 22.0576 37.3364 22.2145 37.3722C22.368 37.4071 22.5796 37.3535 22.6494 37.1952C22.7785 36.9027 22.9144 36.6112 22.9864 36.2985C23.0545 36.0026 23.0989 35.6985 23.1433 35.3982C23.2362 34.7683 23.3054 34.134 23.3415 33.4983C23.3656 33.0744 22.8717 32.8508 22.5326 33.0341C22.1163 33.2594 21.6902 33.4664 21.2558 33.6544L21.1889 33.6832C21.1326 33.7071 21.1442 33.7023 21.2234 33.6687C21.1838 33.6711 21.1265 33.7091 21.0893 33.7243C20.9157 33.7951 20.7409 33.863 20.5649 33.9278C19.8545 34.1893 19.1257 34.4094 18.3805 34.5444L18.9981 35.6055C19.6224 34.8154 20.1916 33.9827 20.7701 33.1592L21.608 31.9666C21.8782 31.5819 22.1579 31.202 22.4178 30.8103C22.7457 30.3159 22.9809 29.7101 22.7758 29.1188C22.712 28.9347 22.604 28.8003 22.423 28.7239C22.2344 28.6443 22.0621 28.6683 21.8807 28.7547C20.6394 29.3456 19.3986 29.9375 18.1551 30.5236L17.0915 31.0249L17.8554 31.6122C18.1356 30.6183 18.4414 29.6318 18.7725 28.6536C19.0995 27.6878 19.4666 26.7384 19.8219 25.783C20.0256 25.2354 20.2373 24.6909 20.4569 24.1495C20.5243 23.9834 20.3968 23.7865 20.2479 23.7236C20.0929 23.6582 19.8768 23.7095 19.7971 23.8712Z" fill="#70E8A0"/>
</svg>
