<svg width="80" height="80" viewBox="0 0 80 80" fill="none" xmlns="http://www.w3.org/2000/svg">
<path d="M10.1959 74.81C14.9245 68.134 17.9548 60.2653 18.9256 52.1422C19.1461 50.2973 19.3026 48.3304 20.4178 46.8443C21.5901 45.2818 23.5738 44.589 25.4649 44.0996C29.7574 42.9886 34.1842 42.4948 38.6022 42.1201C47.0025 41.4078 55.433 41.1144 63.8624 41.2408C64.8668 41.2558 65.9526 41.3051 66.7348 41.9354C68.0057 42.9596 67.8382 44.9155 67.4925 46.5107C66.4715 51.2205 64.9293 55.7988 63.3902 60.3656C62.2545 63.7354 61.0484 67.224 58.581 69.7846C55.5318 72.949 51.0349 74.2056 46.7138 75.0051C40.4873 76.1571 34.1582 76.6327 27.8438 77.1064C24.0702 77.3896 20.2526 77.6709 16.5207 77.0435C14.3011 76.6703 12.1159 75.9669 10.2069 74.7746" fill="#E76D6D"/>
<path d="M10.3968 75.0109C13.4339 71.1519 15.7209 66.7138 17.3098 62.0761C18.1047 59.7559 18.7151 57.3786 19.1428 54.9637C19.3578 53.7498 19.5111 52.5291 19.6598 51.3059C19.7921 50.2169 19.9502 49.0705 20.428 48.0709C21.3847 46.0696 23.4946 45.2865 25.5101 44.7584C28.1219 44.0739 30.7911 43.6248 33.4706 43.3069C38.997 42.6511 44.5805 42.3322 50.14 42.1251C52.9475 42.0205 55.7567 41.9608 58.5661 41.9529C59.9709 41.949 61.3756 41.9567 62.7803 41.9761C63.8751 41.9912 65.1869 41.8553 66.092 42.4111C66.2271 42.4941 66.4372 42.6857 66.5116 42.7793C66.5082 42.7749 66.6244 42.9482 66.6602 43.0113C66.6847 43.0547 66.7059 43.0994 66.7298 43.143C66.8099 43.2889 66.721 43.0897 66.7704 43.2351C66.8448 43.4537 66.903 43.673 66.9404 43.901C66.9206 43.7804 66.9417 43.9099 66.9435 43.9302C66.9494 43.9961 66.9556 44.062 66.9598 44.1281C66.9683 44.2621 66.9715 44.3962 66.9705 44.5305C66.9663 45.0874 66.9211 45.404 66.8243 45.9124C66.7023 46.5525 66.5466 47.1875 66.3925 47.8205C65.7435 50.4859 64.9438 53.1119 64.0914 55.7185C63.2905 58.1677 62.5057 60.6342 61.5895 63.0433C60.8011 65.1166 59.7649 67.2773 58.265 68.9314C57.8943 69.3396 57.4971 69.723 57.076 70.079C56.6798 70.4143 56.2733 70.7108 55.7888 71.0223C54.8816 71.6057 53.8263 72.131 52.9072 72.4944C50.7745 73.3377 48.5259 73.8461 46.2748 74.2557C40.8517 75.2427 35.353 75.7116 29.8618 76.1284C24.5734 76.5297 19.0015 77.2152 13.8555 75.5483C12.7206 75.1807 11.6418 74.712 10.6153 74.0762C10.2438 73.8461 9.7249 73.9963 9.50842 74.3665C9.28242 74.7529 9.42618 75.2427 9.79866 75.4733C14.5819 78.4358 20.4099 78.4458 25.8427 78.0789C31.514 77.6958 37.1991 77.2636 42.829 76.4633C45.385 76.0999 47.9527 75.6859 50.4486 75.0148C52.7124 74.4062 54.9647 73.5552 56.9128 72.2311C58.9367 70.8554 60.5078 69.0065 61.6564 66.8526C62.8235 64.6643 63.596 62.2917 64.3839 59.9486C65.282 57.2779 66.1637 54.6002 66.9371 51.8902C67.3234 50.5363 67.682 49.1743 67.9993 47.8025C68.2616 46.6685 68.5466 45.501 68.5084 44.3283C68.4735 43.2582 68.1535 42.1334 67.3035 41.4221C66.2832 40.5682 64.9639 40.5009 63.6915 40.4866C60.8252 40.4543 57.9583 40.4714 55.0925 40.5327C49.3295 40.6559 43.5688 40.9676 37.829 41.4997C35.0275 41.7595 32.2307 42.0839 29.4593 42.574C28.0961 42.815 26.7404 43.1009 25.3997 43.4464C24.2856 43.7335 23.1744 44.0769 22.1511 44.6113C21.1277 45.1458 20.2147 45.9097 19.6048 46.9021C18.9754 47.9262 18.6921 49.1191 18.5203 50.296C18.3431 51.5094 18.2335 52.7305 18.0397 53.942C17.8408 55.1849 17.5942 56.4196 17.3004 57.6436C16.1391 62.4843 14.2967 67.188 11.843 71.521C11.2404 72.5851 10.6036 73.6331 9.95066 74.6668C9.7821 74.9337 10.1947 75.268 10.3969 75.0111L10.3968 75.0109Z" fill="#E76D6D"/>
<path d="M10.5178 75.8848C6.95544 75.0554 7.774 66.8723 7.96608 62.6604C8.34792 54.2885 8.73408 45.8794 10.3595 37.6579C10.7578 35.6431 11.3291 33.4811 12.9482 32.2177C14.4237 31.0663 16.4272 30.9325 18.2976 30.8631C20.1301 30.7952 21.9631 30.7438 23.7966 30.709C24.7686 30.6905 25.9506 30.7985 26.3735 31.6739C26.6607 32.2683 26.4639 33.0116 26.7553 33.604C27.1834 34.4746 28.3666 34.5668 29.3364 34.5383L50.6539 33.9119C52.5196 33.8571 54.4678 33.8188 56.1511 34.6252C57.8344 35.4316 56.7448 39.2295 56.1854 41.0103C55.8077 42.2123 57.0714 41.1964 55.8709 41.5789C54.6704 41.9614 53.3861 41.9566 52.1261 41.9642C43.8676 42.0139 36.434 41.5797 28.2972 42.9931C26.4821 43.3084 23.9359 43.148 22.4765 44.2724C20.5406 45.7639 19.5663 49.967 18.8529 52.3043C16.8274 58.9396 14.354 64.4858 12.3285 71.1211C11.9146 72.4771 11.249 74.5537 10.226 75.2682" fill="black"/>
<path d="M10.5971 75.5969C10.299 75.5046 10.0221 75.3426 9.81464 75.1502C9.65624 75.0034 9.57912 74.889 9.47192 74.7583C9.43111 74.7072 9.39241 74.6543 9.35592 74.6C9.302 74.52 9.25111 74.4381 9.20336 74.3542C8.80744 73.6615 8.6056 72.8303 8.47168 72.0002C8.15392 70.0304 8.23512 67.8618 8.32632 65.8286C8.43912 63.3133 8.58544 60.7987 8.71176 58.284C8.87952 54.9435 9.08208 51.6038 9.3984 48.2738C9.71264 44.9655 10.1418 41.6673 10.763 38.4019C11.2225 35.9865 11.7976 33.0522 14.3599 32.0294C15.6361 31.52 17.0366 31.4699 18.3922 31.4258C20.0826 31.3709 21.7733 31.3302 23.4645 31.3037C23.7821 31.2987 24.0997 31.2913 24.417 31.3118C24.6998 31.3301 24.8877 31.353 25.1931 31.4495C25.3581 31.5017 25.3383 31.4933 25.4753 31.5717C25.6122 31.6501 25.5848 31.6288 25.7064 31.7498C25.7822 31.8253 25.7468 31.7908 25.7274 31.7659C25.7459 31.7896 25.7626 31.8161 25.7782 31.8418C25.805 31.8859 25.8334 31.9316 25.8527 31.9787C25.9085 32.1142 25.9267 32.2614 25.9388 32.3997C26.0033 33.1371 26.0347 33.8798 26.608 34.425C27.1006 34.8936 27.7621 35.0626 28.4188 35.1363C29.1187 35.2149 29.8346 35.1575 30.5366 35.1418L33.0812 35.0846C34.7778 35.0466 36.4741 35.0018 38.1705 34.9564L48.3971 34.6822C49.9974 34.6393 51.6176 34.529 53.2163 34.6495C53.9061 34.7015 54.5868 34.8162 55.2924 35.0638C55.4733 35.1272 55.5493 35.1562 55.7011 35.2274C55.7524 35.2515 55.8039 35.2754 55.8531 35.3036C55.8771 35.3173 55.9004 35.3349 55.9248 35.3474C56.0229 35.3979 55.8694 35.3243 55.8748 35.3052C55.8731 35.3111 56.0354 35.4604 56.0516 35.4763C56.1316 35.5553 55.9689 35.3407 56.0475 35.4758C56.0725 35.5186 56.0998 35.5597 56.1231 35.6034C56.1366 35.6288 56.148 35.6556 56.1618 35.6808C56.1965 35.7438 56.1478 35.7079 56.1597 35.6729C56.1667 35.6522 56.1329 35.5934 56.1553 35.6671C56.1618 35.6887 56.1705 35.71 56.1777 35.7314C56.2123 35.8359 56.2403 35.9424 56.2615 36.0504C56.2712 36.0987 56.2773 36.1478 56.2873 36.196C56.3081 36.2958 56.2749 36.0461 56.2809 36.1493C56.2824 36.1749 56.2865 36.2006 56.2889 36.2262C56.3006 36.3499 56.3066 36.4742 56.3087 36.5984C56.3128 36.8443 56.3007 37.0904 56.2786 37.3354C56.2724 37.404 56.2654 37.4724 56.2577 37.5408C56.2546 37.5686 56.2326 37.7451 56.2451 37.6496C56.2577 37.5541 56.2328 37.7317 56.2286 37.7596C56.2163 37.8394 56.2033 37.9192 56.1895 37.9988C56.022 38.967 55.737 39.9041 55.4882 40.8526C55.335 41.4365 55.4141 42.209 56.1486 42.307C56.771 42.3902 57.3289 41.7547 56.9957 41.1594C56.617 40.483 55.7507 40.9289 55.2143 41.0554C54.4693 41.2313 53.7062 41.2654 52.9381 41.2781C49.6714 41.3316 46.4031 41.2537 43.1363 41.259C39.9356 41.2643 36.7323 41.3372 33.5433 41.6266C31.8675 41.7786 30.1961 41.9889 28.5362 42.265C28.3645 42.2936 28.1931 42.3244 28.0213 42.3523C27.9463 42.3644 27.8712 42.3757 27.796 42.3864C27.9129 42.3697 27.7142 42.3963 27.6785 42.4006C27.3655 42.4378 27.0515 42.4665 26.7377 42.4948C26.0612 42.5558 25.3845 42.6171 24.7135 42.725C23.5078 42.9188 22.3334 43.3337 21.4929 44.2574C20.7003 45.1282 20.1855 46.2044 19.7458 47.285C19.3009 48.3781 18.9574 49.5095 18.6282 50.6418C18.2554 51.9236 17.8676 53.1992 17.448 54.4667C16.4542 57.4686 15.3334 60.4255 14.2454 63.3938C13.7018 64.877 13.1654 66.3632 12.6621 67.8605C12.1918 69.2595 11.7914 70.6821 11.3121 72.0776C11.2177 72.3544 11.1159 72.6286 11.0069 72.8999C10.9894 72.9436 10.9715 72.9871 10.9533 73.0305C10.9594 73.0161 10.9832 72.9604 10.9522 73.0313C10.9244 73.0954 10.8958 73.1592 10.8667 73.2227C10.8049 73.3579 10.7395 73.4914 10.6707 73.6232C10.5455 73.8609 10.4052 74.0903 10.2508 74.3102C10.1904 74.3965 10.3114 74.2377 10.2462 74.3176C10.2277 74.3404 10.2093 74.3632 10.1902 74.3856C10.1533 74.4292 10.115 74.4718 10.0756 74.5132C10.0311 74.5598 9.98408 74.6031 9.93736 74.6474C9.82544 74.7533 9.97728 74.6261 9.88808 74.6903C9.59512 74.9013 9.45312 75.273 9.64792 75.6062C9.8172 75.8955 10.2688 76.0586 10.5638 75.8463C11.5814 75.1136 12.0927 73.8722 12.5097 72.7318C13 71.391 13.3791 70.0087 13.8337 68.6553C14.8394 65.6611 15.9578 62.7075 17.0417 59.7412C18.0565 56.9638 19.029 54.1708 19.8501 51.3293C20.1743 50.2071 20.5046 49.0846 20.9243 47.9937C20.977 47.8569 21.0318 47.721 21.0867 47.5851C21.1326 47.4718 21.0735 47.6124 21.1218 47.5008C21.157 47.4194 21.1925 47.3382 21.2289 47.2574C21.3438 47.0008 21.4673 46.7483 21.5994 46.5002C21.73 46.2558 21.8701 46.0163 22.0234 45.7854C22.094 45.6799 22.1672 45.5759 22.2427 45.4738C22.3198 45.3686 22.1926 45.5299 22.2763 45.4321C22.3186 45.3826 22.3594 45.3319 22.4023 45.283C22.5601 45.1035 22.731 44.9346 22.9183 44.786C22.8216 44.8627 22.9377 44.7748 22.9753 44.7493C23.0373 44.7074 23.1006 44.6676 23.1651 44.6299C23.2726 44.567 23.4722 44.4667 23.5207 44.4454C23.6925 44.3699 24.0558 44.2562 24.3099 44.193C24.6217 44.1155 24.9374 44.061 25.2547 44.0118C25.3718 43.9936 25.2438 44.0116 25.3618 43.9968C25.4341 43.9877 25.5066 43.9789 25.5792 43.9705C25.7487 43.9511 25.9183 43.9333 26.0881 43.917C26.4111 43.8858 26.7345 43.8586 27.0576 43.828C27.7546 43.7622 28.441 43.6525 29.1315 43.5402C32.2905 43.0267 35.487 42.7848 38.6841 42.6846C41.8811 42.5845 45.0876 42.6229 48.2893 42.6405C49.9432 42.6495 51.6011 42.6763 53.2546 42.6294C54.0806 42.6059 54.9014 42.5242 55.7062 42.3328C55.864 42.2953 56.0186 42.2483 56.1757 42.2079C56.2122 42.1986 56.3934 42.181 56.2712 42.1809C56.145 42.1808 56.2818 42.1786 56.306 42.1827C56.3196 42.185 56.111 42.1368 56.1782 42.1659L55.9862 41.6824C55.7422 41.4727 55.6943 41.2908 55.8425 41.1366C55.881 41.0785 55.94 41.0251 55.9963 40.9918C56.0622 40.9527 56.1215 40.9388 56.1943 40.929C56.3183 40.9124 56.4769 40.94 56.6102 41.0436C56.7005 41.1138 56.7864 41.2474 56.8052 41.3189C56.8059 41.3218 56.819 41.5157 56.8188 41.3688C56.8186 41.2596 56.777 41.5054 56.8202 41.3758C56.8418 41.3111 56.8586 41.2442 56.8802 41.1792C56.9488 40.9747 57.0158 40.7697 57.0814 40.5642C57.2335 40.0834 57.368 39.5994 57.4778 39.1071C57.7184 38.0282 57.8919 36.9031 57.7178 35.8015C57.6398 35.3078 57.4469 34.8446 57.127 34.459C56.7339 33.9854 56.0919 33.7694 55.5243 33.5922C54.0391 33.1286 52.4475 33.1418 50.9087 33.1919C47.527 33.3019 44.1451 33.4102 40.7633 33.5182C37.3701 33.6266 33.9773 33.7394 30.5846 33.8626C29.8779 33.8882 29.1581 33.9556 28.4518 33.8912C28.439 33.89 28.3039 33.8758 28.3706 33.8841C28.429 33.8913 28.3228 33.8769 28.3232 33.877C28.2592 33.8661 28.1953 33.8546 28.1318 33.8406C28.0695 33.827 28.0076 33.8113 27.9463 33.7936C27.9231 33.7869 27.7169 33.7151 27.8019 33.7505C27.7043 33.71 27.5382 33.6116 27.5045 33.5848C27.5319 33.6066 27.4337 33.5159 27.4128 33.4946C27.3917 33.4736 27.3719 33.4514 27.3533 33.4282C27.3938 33.4805 27.3574 33.4321 27.3432 33.4046C27.2023 33.1314 27.1865 32.8617 27.1631 32.5595C27.1311 32.1464 27.0794 31.745 26.8933 31.3699C26.6073 30.7934 26.0226 30.4362 25.4183 30.2731C24.7979 30.1058 24.1486 30.1107 23.5118 30.1262C22.6742 30.1465 21.8366 30.1702 20.9991 30.1974C19.4594 30.2475 17.8986 30.2481 16.3678 30.4365C14.9399 30.6122 13.5414 30.9989 12.4255 31.9492C11.4173 32.8078 10.8028 34.0274 10.3978 35.2671C9.94472 36.6543 9.71048 38.116 9.46192 39.5504C9.17536 41.2045 8.93488 42.8663 8.72768 44.5321C8.31712 47.834 8.0484 51.1519 7.84376 54.4725C7.65688 57.5055 7.54864 60.5415 7.39192 63.576C7.28576 65.6307 7.1548 67.6943 7.2876 69.7506C7.35264 70.7584 7.46536 71.7732 7.70368 72.7561C7.89752 73.5555 8.1804 74.3779 8.67448 75.0451C9.08344 75.5974 9.69288 76.0421 10.4382 76.1727C10.8115 76.2382 10.9701 75.7125 10.5969 75.5969H10.5971Z" fill="black"/>
<path d="M12.6994 71.1211C11.752 61.9375 12.705 51.3327 14.5918 42.2952C14.771 41.4366 15.0036 40.5124 15.6872 39.9628C16.3143 39.4586 17.1746 39.3895 17.9779 39.3427C29.6104 38.663 41.2548 38.205 52.9047 37.9687C53.6063 37.9544 54.0662 38.6712 53.7948 39.3183C53.5267 39.9571 53.3288 40.6231 53.2045 41.3047L27.8234 43.5153C25.7575 43.6952 23.5458 43.9337 21.9669 45.2781C20.4578 46.5631 19.8486 48.5877 19.3118 50.4956C17.4962 56.9487 14.9854 63.9166 13.1698 70.3696" fill="#EDC851"/>
<path d="M12.9738 71.1211C12.8843 70.009 12.8194 68.8946 12.795 67.7791C12.7707 66.6635 12.7924 65.5399 12.7925 64.4198C12.7926 62.1044 12.8918 59.7889 13.0494 57.4791C13.3586 52.9456 13.9644 48.4371 14.8629 43.9827C14.9701 43.4532 15.0808 42.9245 15.195 42.3965C15.2441 42.1686 15.2964 41.9412 15.3605 41.7168C15.4346 41.4577 15.5161 41.234 15.5998 41.0692C15.6507 40.9681 15.7076 40.8703 15.7703 40.7762C15.7721 40.7736 15.8926 40.6167 15.8195 40.7051C15.8585 40.6577 15.8996 40.6121 15.9426 40.5684C15.9716 40.5391 16.0025 40.5119 16.0318 40.4831C16.1551 40.3616 15.9562 40.5211 16.1058 40.4235C16.1598 40.3883 16.2134 40.3535 16.2697 40.322C16.2899 40.3107 16.4973 40.2132 16.4087 40.2492C16.6305 40.1592 16.8635 40.1112 17.0974 40.0661C17.3053 40.026 16.9776 40.0759 17.1883 40.0523C17.2322 40.0474 17.276 40.0427 17.3199 40.0383C17.4735 40.0234 17.6276 40.0136 17.7817 40.0053C20.2905 39.8716 22.8016 39.7646 25.3112 39.6452C30.379 39.4039 35.4483 39.1974 40.519 39.0258C44.3187 38.8973 48.1193 38.7926 51.9203 38.7115C52.2211 38.7051 52.5219 38.6968 52.8227 38.6927C52.863 38.6921 52.9762 38.6747 53.0163 38.695L52.9312 38.6852C52.9656 38.6924 52.9995 38.7016 53.0329 38.7126C53.0346 38.717 52.8756 38.6227 53.0022 38.7003C53.032 38.7161 53.061 38.7335 53.089 38.7525C53.0108 38.6887 53.0011 38.6825 53.06 38.7339L53.0954 38.7692C53.147 38.8281 53.1408 38.8181 53.077 38.7393C53.088 38.742 53.1559 38.8584 53.1525 38.8691C53.1542 38.8637 53.1132 38.7287 53.1347 38.8371L53.1482 38.886C53.1644 38.9657 53.1642 38.9521 53.1478 38.8452C53.1565 38.8528 53.1573 38.9939 53.1489 39.0014L53.1613 38.9149C53.1547 38.9506 53.1463 38.986 53.136 39.0208C53.0965 39.154 53.0335 39.282 52.9839 39.4118C52.7732 39.9631 52.616 40.5324 52.508 41.1126L53.2046 40.5823C49.0807 40.9415 44.9644 41.3856 40.8415 41.7554C36.7186 42.1252 32.6005 42.4836 28.4785 42.8324C26.7547 42.9784 24.9574 43.0701 23.3374 43.7319C22.5262 44.0631 21.7778 44.5162 21.1593 45.1433C20.5811 45.7295 20.125 46.4339 19.773 47.1755C19.0181 48.7661 18.6185 50.5058 18.1214 52.1871C17.5766 54.0298 17.0005 55.8629 16.4158 57.6932C15.2328 61.3959 13.955 65.0807 12.9394 68.8337C12.8159 69.2903 12.7036 69.7506 12.5754 70.2059C12.488 70.516 12.6826 70.8905 13.0059 70.9641C13.3333 71.0387 13.6706 70.8658 13.7642 70.5335C14.019 69.629 14.3338 68.7415 14.6053 67.8419C14.8827 66.9242 15.1655 66.0081 15.4538 65.0937C16.0302 63.2623 16.6228 61.436 17.2118 59.6086C17.8053 57.7668 18.3956 55.9239 18.9611 54.0733C19.2337 53.1815 19.5026 52.2883 19.757 51.391C19.9862 50.5822 20.1986 49.7678 20.4684 48.9711C20.7294 48.2007 20.965 47.6148 21.4251 46.8939C21.799 46.3079 22.3237 45.7536 22.9198 45.377C24.2274 44.5508 25.8791 44.3263 27.3976 44.1819C31.4257 43.7987 35.4588 43.4645 39.4906 43.1223C43.5551 42.7772 47.6233 42.4725 51.6898 42.1515C52.1949 42.1117 52.6998 42.071 53.2045 42.027C53.5012 42.0011 53.8403 41.8228 53.901 41.4967C54.0138 40.8914 54.1802 40.2977 54.4047 39.7242C54.5111 39.4524 54.6059 39.1967 54.5956 38.8969C54.5855 38.6029 54.5071 38.3036 54.3518 38.052C54.0171 37.5099 53.4502 37.2391 52.8227 37.2479C52.1664 37.2571 51.5101 37.2754 50.8538 37.2902C48.256 37.3486 45.6585 37.4182 43.0613 37.4988C37.8665 37.6599 32.6735 37.8647 27.483 38.1288C24.8602 38.2623 22.2362 38.3921 19.6163 38.5741C19.0047 38.6166 18.3927 38.6557 17.7815 38.704C17.2266 38.7479 16.6557 38.806 16.1329 39.0089C15.555 39.2331 15.0894 39.591 14.7355 40.1007C14.4328 40.5367 14.2544 41.0645 14.1262 41.5754C13.861 42.6326 13.6902 43.7211 13.5034 44.7943C13.3032 45.9454 13.1212 47.0997 12.9577 48.2567C12.623 50.623 12.3426 52.9956 12.1512 55.378C11.961 57.746 11.8555 60.1175 11.8542 62.4933C11.8529 64.8366 12.009 67.1679 12.2424 69.4988C12.2966 70.0403 12.3575 70.5811 12.4249 71.1211C12.4674 71.4627 13.0027 71.4791 12.9738 71.1211Z" fill="#EDC851"/>
<path d="M11.9819 74.1943C12.1612 73.8299 12.3267 73.4565 12.532 73.106C12.7373 72.7554 12.9362 72.4047 13.1161 72.0388C13.4745 71.31 13.825 70.5774 14.1677 69.8411C14.8438 68.3884 15.4964 66.923 16.0987 65.438C17.2986 62.48 18.3836 59.4752 19.3011 56.4176C19.7691 54.8579 20.2037 53.2885 20.6046 51.7103C20.9442 50.3735 21.2046 48.9994 21.7002 47.7084C22.123 46.6075 22.7939 45.6198 23.8902 45.0751C25.0982 44.4748 26.5613 44.4436 27.9256 44.3289C34.7061 43.7586 41.4983 43.2608 48.3005 43.0465C51.6987 42.9395 55.0996 42.9057 58.499 42.9722C60.2077 43.0056 61.916 43.0644 63.6229 43.1518C63.9858 43.1704 64.3505 43.1823 64.7126 43.2145C64.7295 43.216 64.9784 43.2519 64.8042 43.2225C64.88 43.2352 64.9555 43.2491 65.0302 43.2673C65.1034 43.2852 65.1754 43.3066 65.2466 43.3315C65.1169 43.2862 65.2761 43.3531 65.3174 43.3729L65.3778 43.4114C65.3091 43.356 65.3093 43.3594 65.3782 43.4214L65.4266 43.4744C65.371 43.4052 65.3714 43.4148 65.4279 43.5032C65.409 43.3575 65.4593 43.66 65.4297 43.4953C65.4448 43.5793 65.434 43.667 65.4354 43.7515C65.4394 44.0092 65.4518 43.6923 65.4305 43.8405C65.42 43.9131 65.4047 43.985 65.3898 44.0567C65.3428 44.2807 65.2871 44.5032 65.2342 44.7258C63.7412 51.004 61.7075 57.1511 59.633 63.2555C59.3815 63.9957 59.0774 64.7198 58.7822 65.4441C58.6817 65.6908 59.0955 65.8644 59.2135 65.626C59.9576 64.1232 60.706 62.6251 61.4107 61.104C62.106 59.6033 62.7674 58.0977 63.3566 56.5511C64.5408 53.4428 65.5109 50.2733 66.3322 47.0506C66.5349 46.2551 66.7325 45.4577 66.9146 44.6572C67.1027 43.8296 67.1663 42.9332 66.523 42.2766C65.9916 41.7343 65.2065 41.6248 64.4855 41.5812C63.6055 41.528 62.7242 41.4906 61.8433 41.4565C58.3742 41.3224 54.9012 41.3017 51.4303 41.3663C44.4429 41.4962 37.4697 41.9728 30.5089 42.5766C28.8526 42.7203 27.1784 42.8145 25.5336 43.0631C24.0892 43.2814 22.6566 43.7986 21.6609 44.9143C20.7198 45.9688 20.2235 47.3143 19.871 48.6627C19.4853 50.1384 19.1761 51.6338 18.7947 53.1111C17.1624 59.4345 15.0582 65.666 12.4799 71.6669C12.1559 72.4211 11.8802 73.1854 11.5244 73.9268C11.3779 74.232 11.8308 74.5011 11.9818 74.1941L11.9819 74.1943ZM9.26871 75.6779C9.44703 75.7363 9.63743 75.7743 9.80191 75.865C9.98215 75.9644 10.1528 76.0559 10.3497 76.1201C10.7026 76.2352 11.0638 76.2793 11.4305 76.3357C12.1942 76.4531 12.9931 76.4004 13.7633 76.3753C15.3531 76.3237 16.9351 76.152 18.5172 75.9969C21.7918 75.6758 25.0641 75.329 28.3301 74.9289C31.5848 74.5302 34.8393 74.1294 38.0935 73.7264C41.3642 73.3215 44.6391 72.9396 47.9033 72.4844C49.4282 72.2717 50.953 72.0402 52.4595 71.72C53.9706 71.3988 55.543 71.042 56.9438 70.3731C57.2941 70.2058 57.6318 70.0281 57.963 69.8256C58.4528 69.5259 58.1223 68.8224 57.5845 68.9278C56.0926 69.2202 54.6309 69.6398 53.1437 69.9564C52.3906 70.1167 51.6328 70.2535 50.8734 70.3805C50.5006 70.4429 50.127 70.5016 49.753 70.5573C49.4836 70.5974 49.2139 70.636 48.944 70.6734L48.809 70.692C48.7122 70.705 48.689 70.7082 48.7394 70.7016L48.7147 70.7048C45.5618 71.127 42.3992 71.488 39.2422 71.8794C36.0039 72.2808 32.7654 72.6802 29.5267 73.0776C26.2649 73.4776 23.0044 73.8971 19.7518 74.3672C18.1645 74.5967 16.5758 74.8161 14.9932 75.0765C14.2566 75.1977 13.5174 75.3161 12.7711 75.3551C12.0118 75.3947 11.2527 75.369 10.4948 75.3732C10.3166 75.3741 10.1461 75.389 9.96871 75.4062C9.76063 75.4264 9.56863 75.3686 9.36855 75.3159C9.13343 75.254 9.03991 75.6032 9.26871 75.6781V75.6779Z" fill="black"/>
<path d="M54.417 32.3868L32.1173 27.5261C31.3521 27.3593 30.4867 27.1172 30.1443 26.4129C29.7897 25.6836 30.1715 24.8268 30.5481 24.1086C33.8318 17.8469 37.2046 11.4649 42.3197 6.58366C44.1712 4.81678 46.3302 3.22422 48.8436 2.7419C51.186 2.29238 53.5951 2.84886 55.8954 3.4791C62.982 5.4214 69.8498 8.08823 76.3901 11.4374C76.8916 11.6943 77.4134 11.9748 77.7209 12.4469C78.1789 13.15 78.0301 14.1143 77.5865 14.8265C77.1429 15.5386 76.4554 16.0574 75.7928 16.5722C70.8653 20.4005 66.4746 24.9189 62.7892 29.9542C61.7369 31.392 60.6359 32.9555 58.961 33.5632C57.8344 33.9719 56.5925 33.886 55.4062 33.7165C47.7983 32.6295 40.7507 28.3606 33.0655 28.3589C32.0902 28.3587 31.0126 28.3953 30.2659 27.7679C29.4189 27.0562 29.5913 26.3053 30.0607 25.3036C30.53 24.3019 34.7399 19.78 35.5891 19.0709" fill="#54BFBF"/>
<path d="M54.5245 31.9967C53.101 31.6864 51.6836 31.3495 50.2767 30.9698C48.8571 30.5866 47.4089 30.288 45.9773 29.951C43.1405 29.283 40.3064 28.6029 37.4622 27.9677L33.194 27.0145C32.5965 26.881 31.9892 26.7706 31.4123 26.5615C31.3859 26.552 31.2851 26.5022 31.4055 26.5593C31.3464 26.5313 31.2876 26.5033 31.2303 26.4718C31.1737 26.4407 31.1208 26.4045 31.0652 26.3722C30.9009 26.2766 31.1479 26.4679 31.0153 26.3346C30.9871 26.3062 30.955 26.273 30.9251 26.2478C30.7894 26.133 30.9758 26.3571 30.8842 26.2031C30.7891 26.0434 30.7707 26.042 30.7446 25.8403C30.7503 25.884 30.7468 25.9418 30.7499 25.8072C30.7518 25.7287 30.7502 25.6503 30.761 25.5722C30.7419 25.71 30.7924 25.4514 30.7916 25.4549C30.8113 25.375 30.8349 25.2962 30.8607 25.2182C30.9504 24.9478 31.0745 24.7103 31.2305 24.4123C31.5232 23.8529 31.8171 23.294 32.1121 22.7358C32.7036 21.6164 33.3017 20.5003 33.9171 19.3938C36.368 14.9872 39.0538 10.7806 42.6675 7.27999C43.5589 6.41639 44.4173 5.67127 45.4083 5.01543C46.4444 4.32967 47.4059 3.85215 48.5785 3.55951C49.7949 3.25591 51.1885 3.26847 52.4126 3.45287C53.7885 3.66015 55.1343 4.03143 56.4716 4.40847C61.7113 5.88575 66.8463 7.76503 71.7647 10.0146C73.0081 10.5833 74.2405 11.1758 75.4611 11.7918C75.7348 11.9298 76.0101 12.0659 76.2799 12.2116C76.3891 12.2699 76.4964 12.3317 76.6016 12.397C76.664 12.4363 76.7255 12.4772 76.7859 12.5197C76.8568 12.571 76.8649 12.5773 76.8103 12.5384C76.8475 12.5695 76.8837 12.6018 76.9189 12.6352C77.2191 12.9214 77.3384 13.3565 77.2374 13.7315C77.0912 14.2744 76.8856 14.6223 76.4774 15.0346C76.0475 15.4687 75.5519 15.8308 75.0722 16.2066C74.0537 17.0037 73.0563 17.8274 72.0812 18.677C70.1317 20.3772 68.2816 22.1881 66.5402 24.1008C64.7926 26.0203 63.1863 28.049 61.6416 30.1336C61.5531 30.2531 61.4634 30.3718 61.3737 30.4906C61.3576 30.5119 61.2779 30.6135 61.3661 30.5009C61.3202 30.5595 61.2743 30.6182 61.2279 30.6763C61.043 30.9079 60.8522 31.135 60.6518 31.3533C60.4705 31.5507 60.2815 31.7413 60.0823 31.9206C59.9749 32.0175 59.8644 32.1108 59.7509 32.2005C59.8689 32.1073 59.77 32.1854 59.7457 32.2023C59.667 32.257 59.5899 32.3133 59.5096 32.3657C59.289 32.5105 59.0569 32.637 58.8155 32.7437C58.9852 32.6691 58.7626 32.7615 58.742 32.769C58.6618 32.7981 58.5807 32.8248 58.4989 32.8491C58.336 32.8973 58.1707 32.9369 58.0036 32.9676C58.0003 32.9682 57.7257 33.0098 57.8868 32.989C57.8025 32.9998 57.7175 33.0074 57.6327 33.014C57.4907 33.0248 57.3484 33.0311 57.206 33.033C56.8618 33.0379 56.5175 33.0188 56.1748 32.9862C56.0033 32.9698 55.832 32.9503 55.6612 32.9277C55.6986 32.9326 55.7951 32.9469 55.6251 32.9222C55.2134 32.8631 54.8029 32.7953 54.3939 32.7189C53.7665 32.6018 53.1427 32.4654 52.5227 32.3145C51.2773 32.0114 50.047 31.6494 48.8251 31.2633C43.9405 29.7197 39.0791 27.7487 33.8955 27.5532C33.2963 27.5306 32.6959 27.5566 32.0971 27.5269C31.9488 27.5195 31.8 27.5094 31.6529 27.4897C31.8211 27.5122 31.6591 27.4874 31.6173 27.4794C31.5579 27.4682 31.4989 27.4559 31.4402 27.4417C31.3704 27.4248 31.3013 27.4055 31.233 27.3836C31.2091 27.3759 30.9935 27.2882 31.1627 27.3645C31.0324 27.3062 30.9084 27.235 30.7925 27.1518C30.936 27.2555 30.7441 27.1032 30.7289 27.0886C30.6773 27.0395 30.6301 26.9874 30.5824 26.9346C30.6924 27.0564 30.5993 26.9608 30.5755 26.9174C30.5513 26.8734 30.5263 26.8286 30.5011 26.7852C30.5989 26.9538 30.5178 26.8232 30.5014 26.7639L30.4875 26.709C30.4705 26.6189 30.4713 26.6353 30.4899 26.7582C30.4736 26.7482 30.484 26.6058 30.4845 26.5866C30.4861 26.5213 30.4499 26.3742 30.4783 26.567C30.4629 26.4623 30.5385 26.2942 30.5699 26.1953C30.6053 26.0841 30.6469 25.975 30.6907 25.8669C30.6239 26.0317 30.7227 25.7983 30.7291 25.7845C30.7449 25.7502 30.7604 25.7151 30.7776 25.6814C30.7965 25.6444 30.8169 25.6083 30.838 25.5726C30.9571 25.3714 31.0993 25.1839 31.2399 24.9975C31.2854 24.9371 31.3684 24.8885 31.2071 25.0394C31.2351 25.0133 31.2581 24.9742 31.2818 24.9441C31.3255 24.8887 31.3694 24.8336 31.4136 24.7787C31.5288 24.6355 31.6458 24.4936 31.7635 24.3525C32.2895 23.7221 32.8163 23.0926 33.3482 22.4671C33.4801 22.3119 33.6145 22.1586 33.7457 22.0028C33.7935 21.946 34.0003 21.7154 33.8516 21.8765C33.9188 21.8036 33.9751 21.727 34.0364 21.6478C33.9235 21.7937 34.091 21.5775 34.1223 21.5373C34.3859 21.1982 34.7679 20.8322 34.9221 20.4332L34.7723 20.6903C35.016 20.4374 35.2467 20.1722 35.4879 19.9167C35.5758 19.8233 35.6648 19.7309 35.7551 19.6398C35.8146 19.5798 35.8646 19.4979 35.9263 19.4446C35.7789 19.5719 35.925 19.4714 35.9601 19.4418C36.1772 19.2593 36.1484 18.8878 35.9601 18.6995C35.7451 18.4846 35.4354 18.5165 35.2178 18.6995C35.1882 18.7245 35.1593 18.7502 35.1301 18.7756C35.3116 18.6182 35.066 18.8237 35.0178 18.8653C34.9185 18.9514 34.8204 19.039 34.7235 19.1278C34.4851 19.3453 34.2294 19.5598 34.0129 19.7991L33.9807 19.8326C34.0631 19.7601 34.037 19.7784 33.9024 19.8874C33.8655 19.918 33.8297 19.9503 33.7935 19.9818C33.5479 20.1953 33.3037 20.4104 33.0607 20.6269C32.7322 20.9197 32.4302 21.2422 32.124 21.5585C31.5306 22.1714 30.9511 22.8019 30.4087 23.4607C30.0393 23.9093 29.6207 24.3699 29.3593 24.8936C29.0869 25.4391 28.8259 26.0795 28.8568 26.7016C28.8905 27.3775 29.2238 27.9674 29.7451 28.391C30.861 29.2978 32.3014 29.1494 33.6469 29.1889C34.3347 29.209 35.0219 29.2619 35.7052 29.3424C35.7598 29.3488 35.8143 29.3554 35.8687 29.3622C35.8771 29.3632 36.1457 29.3983 35.9764 29.3754C36.1396 29.3975 36.3026 29.4217 36.4652 29.447C36.8179 29.5019 37.1696 29.5637 37.5202 29.6313C38.8486 29.8876 40.1591 30.2293 41.4562 30.6122C44.0531 31.3789 46.5974 32.3104 49.187 33.1002C50.4907 33.4979 51.8065 33.8601 53.1401 34.144C54.5155 34.4369 55.9651 34.7297 57.3771 34.6758C58.8303 34.6203 60.1055 34.0927 61.1927 33.1337C62.1156 32.3196 62.8289 31.2904 63.5479 30.3006C64.3765 29.1597 65.1006 28.2261 66.0042 27.1334C66.8823 26.0717 67.7927 25.0371 68.7342 24.0311C70.6164 22.0193 72.6205 20.1251 74.7352 18.3594C75.2531 17.9272 75.7815 17.5074 76.3139 17.0934C76.8105 16.7074 77.3178 16.3244 77.7335 15.8487C78.6431 14.8081 79.1753 13.1783 78.2729 11.9558C77.8649 11.403 77.2837 11.067 76.6831 10.7597C74.7246 9.75836 72.7356 8.8177 70.7191 7.93903C68.0446 6.77367 65.3259 5.71039 62.5667 4.76231C61.1893 4.289 59.8024 3.84386 58.4068 3.42719C56.9995 3.00703 55.5839 2.59111 54.149 2.27503C52.6794 1.95135 51.1519 1.73567 49.6463 1.88415C48.2694 2.01991 46.9658 2.43815 45.7447 3.08543C43.4014 4.32759 41.4343 6.27255 39.6957 8.24583C37.9199 10.2613 36.3539 12.457 34.9285 14.7312C33.4965 17.0158 32.2016 19.3826 30.9397 21.7643C30.6314 22.3468 30.3243 22.9299 30.0183 23.5137C29.6641 24.1887 29.3131 24.8769 29.2612 25.651C29.2147 26.346 29.5179 27.0333 30.0613 27.4656C30.5638 27.8654 31.1731 28.0686 31.7933 28.2066C34.7759 28.8706 37.7711 29.4917 40.767 30.0927L45.3404 31.0103C46.8757 31.3183 48.4115 31.6809 49.9569 31.93C51.4157 32.1652 52.866 32.4623 54.3093 32.777C54.8168 32.8876 55.0336 32.1078 54.5243 31.9968L54.5245 31.9967Z" fill="#55BFBF"/>
<path d="M49.2772 10.3518C50.9831 10.5198 52.6707 10.8388 54.3202 11.305C54.7814 11.4352 55.2594 11.5573 55.7026 11.7409V11.1004L54.667 11.5178C54.4973 11.5862 54.3458 11.7274 54.3548 11.928C54.3638 12.1286 54.484 12.268 54.667 12.3382C55.1422 12.5202 55.6459 12.6423 56.1335 12.7876L57.6032 13.2254C58.5698 13.5134 59.5387 13.7941 60.5066 14.0776L66.3537 15.7901L68.0018 16.2728L68.8259 16.5142C68.9566 16.5525 69.0869 16.5934 69.219 16.6267C69.3902 16.6698 69.5605 16.689 69.7363 16.7026C70.1489 16.7342 70.2965 16.1186 69.9454 15.9308C69.4744 15.679 68.9393 15.565 68.4286 15.4168L66.9561 14.9894L64.0502 14.1462C62.0999 13.5802 60.1507 13.0102 58.1992 12.4482C57.6491 12.2898 57.0982 12.1342 56.5478 11.9772L55.7222 11.7418C55.447 11.6633 55.1734 11.575 54.8933 11.5178L54.9949 12.2952L55.9586 11.7074C56.1932 11.5643 56.1655 11.1669 55.8793 11.1004C55.4544 11.0017 55.0378 10.8603 54.6151 10.751C54.1924 10.6416 53.7656 10.5412 53.3376 10.4506C51.9986 10.1685 50.642 9.97784 49.2772 9.87993C49.1499 9.87081 49.0412 9.99489 49.0412 10.1159C49.0412 10.2539 49.1498 10.3394 49.2772 10.3519V10.3518ZM45.8379 14.1061C48.2863 14.8873 50.709 15.7398 53.1262 16.6116C55.5433 17.4834 57.9322 18.4244 60.3132 19.3894C60.9793 19.6594 61.6435 19.9337 62.306 20.2124L62.4125 20.2572L62.3862 20.2462L62.4572 20.2762C62.54 20.3112 62.6227 20.3462 62.7054 20.3814C62.8709 20.4516 63.0362 20.5221 63.2014 20.593C63.3982 20.6774 63.5933 20.768 63.7959 20.8378C63.8798 20.8667 63.9658 20.8925 64.0528 20.9103C64.1991 20.9404 64.3287 20.909 64.4694 20.878C64.7205 20.8227 64.8287 20.5086 64.7054 20.2979C64.6582 20.2173 64.6137 20.1274 64.5473 20.0609C64.471 19.9846 64.3606 19.9227 64.2662 19.8696C64.1264 19.7909 63.9786 19.7298 63.8316 19.6663C63.537 19.5391 63.2421 19.4128 62.9468 19.2873C62.3238 19.0224 61.6992 18.7611 61.0732 18.5033C59.8866 18.015 58.6906 17.551 57.4894 17.1C56.2881 16.649 55.07 16.208 53.8526 15.7834C52.6353 15.3587 51.4219 14.9638 50.1974 14.5813C48.8198 14.1508 47.4365 13.7385 46.048 13.3445C45.8494 13.2881 45.6094 13.4135 45.5622 13.6203C45.5131 13.836 45.6273 14.0388 45.8381 14.1061H45.8379ZM44.0914 17.1105C46.2057 18.2146 48.3026 19.3578 50.4642 20.3681C52.6592 21.394 54.879 22.3621 57.1366 23.2422C58.3918 23.7315 59.6543 24.2021 60.9236 24.6538C61.1969 24.751 61.5418 24.5439 61.6049 24.267C61.6756 23.9564 61.5107 23.6898 61.2181 23.5857C58.9665 22.7843 56.7454 21.9076 54.5282 21.0162C53.8454 20.7417 53.1648 20.4615 52.4865 20.1758C52.4632 20.1661 52.3961 20.1379 52.5037 20.1831C52.4685 20.1683 52.4333 20.1534 52.3982 20.1385C51.7065 19.8459 51.0174 19.5474 50.3308 19.2432C50.2695 19.2161 50.2079 19.1896 50.1461 19.1636C50.2568 19.2105 50.1378 19.1598 50.1202 19.1523C49.9796 19.0922 49.8391 19.0317 49.6986 18.971C49.1487 18.7335 48.6004 18.4924 48.0537 18.2476C46.8329 17.701 45.6219 17.1385 44.4317 16.5282C44.2749 16.4478 44.0587 16.4821 43.9705 16.6491C43.8885 16.8043 43.9245 17.0232 44.0914 17.1103V17.1105ZM38.1035 24.5338C38.2244 24.984 38.4942 25.4418 38.8622 25.7343C39.2678 26.0566 39.7372 26.2676 40.2518 26.3367C40.7721 26.4066 41.3028 26.3144 41.7583 26.049C42.1978 25.7929 42.5754 25.3981 42.8048 24.9436C43.081 24.3966 43.1793 23.7888 43.0597 23.1859C43.0008 22.889 42.6158 22.8338 42.4186 23.0166C41.8007 23.5893 41.5549 24.5406 41.8342 25.3392C42.1289 26.1814 42.9173 26.7101 43.7971 26.7547C44.2178 26.7761 44.6396 26.6653 45 26.4494C45.1743 26.345 45.3368 26.2222 45.504 26.107C45.5863 26.0503 45.6697 25.995 45.7563 25.945C45.7979 25.921 45.8402 25.8982 45.8835 25.8772C45.9002 25.8692 45.9187 25.8625 45.9347 25.8535C45.8323 25.9113 45.9002 25.8686 45.9322 25.8577C45.9749 25.8438 46.0182 25.8321 46.0621 25.8225C46.1506 25.8021 45.9778 25.8202 46.0365 25.8254C46.0577 25.8272 46.0812 25.8224 46.1026 25.8225C46.1205 25.8225 46.1382 25.8242 46.1559 25.8245C46.2497 25.8258 46.0551 25.7953 46.1458 25.8248C46.1634 25.8306 46.1823 25.8338 46.2001 25.8393C46.2188 25.845 46.2374 25.8515 46.2556 25.8587L46.2041 25.8382C46.2162 25.8261 46.3111 25.9086 46.3302 25.9149C46.2597 25.8918 46.2817 25.8759 46.3212 25.9106C46.34 25.9272 46.3583 25.9442 46.3762 25.9617C46.4493 26.033 46.5154 26.1108 46.5811 26.1886C46.8538 26.5118 47.1682 26.7912 47.5452 26.9886C47.9837 27.2181 48.464 27.347 48.9582 27.3717C49.2049 27.3839 49.4499 27.3582 49.6907 27.3038C49.8218 27.2741 49.9442 27.232 50.0678 27.1794C50.197 27.1242 50.2968 27.0478 50.4067 26.9592C50.5269 26.8623 50.5447 26.641 50.4639 26.5157C50.3678 26.3666 50.2194 26.3234 50.0506 26.3475C50.159 26.3321 50.0091 26.3501 49.9878 26.3524C49.9173 26.3602 49.8491 26.3738 49.7798 26.3877C49.6906 26.4057 49.6011 26.4227 49.5115 26.4388C49.4142 26.4564 49.595 26.4302 49.5302 26.4366C49.5066 26.439 49.483 26.4419 49.4594 26.4442C49.4167 26.4481 49.3739 26.4509 49.3311 26.4528C49.2403 26.4568 49.1497 26.4624 49.0587 26.4618C48.9678 26.4613 48.8767 26.4563 48.7862 26.447C48.7636 26.4447 48.7374 26.4375 48.7148 26.4389C48.7235 26.4383 48.8286 26.4564 48.7503 26.443C48.703 26.4348 48.6558 26.4268 48.6088 26.417C48.4398 26.3816 48.2743 26.331 48.1144 26.266L48.1694 26.2894C48.1553 26.2684 48.063 26.241 48.039 26.2291C48.0004 26.2101 47.9622 26.1901 47.9246 26.1692C47.8242 26.1137 47.7275 26.0518 47.635 25.9839C47.5614 25.9298 47.6477 25.9911 47.6462 25.9932C47.6463 25.993 47.555 25.917 47.5474 25.9102C47.4792 25.8499 47.4143 25.786 47.3529 25.7188C47.0598 25.3975 46.787 25.0373 46.3273 24.9608C45.8676 24.8843 45.4568 25.0749 45.0862 25.3322C44.9273 25.4426 44.7735 25.5606 44.6102 25.6648C44.5341 25.7134 44.456 25.7594 44.3741 25.7976C44.3102 25.8274 44.3481 25.7831 44.3917 25.791C44.3842 25.7897 44.345 25.8087 44.3414 25.81C44.2573 25.84 44.1709 25.8632 44.083 25.8794C44.0714 25.8814 44.0423 25.8825 44.0302 25.8882C44.1034 25.8534 44.1055 25.8791 44.0522 25.8843C43.9675 25.8925 43.8823 25.8948 43.7972 25.8911C43.76 25.8895 43.6989 25.873 43.663 25.8805C43.7244 25.8677 43.7443 25.8934 43.6976 25.8849C43.6755 25.8808 43.6533 25.8774 43.6312 25.873C43.5474 25.8566 43.4648 25.8345 43.3839 25.807C43.3477 25.7947 43.2262 25.7306 43.3359 25.7917C43.301 25.7722 43.2624 25.7576 43.2268 25.7394C43.1511 25.7008 43.0781 25.6571 43.0085 25.6084L42.9867 25.5928C42.9506 25.5659 42.9579 25.5717 43.0086 25.6102C43.0089 25.6091 42.9643 25.5735 42.9673 25.576C42.9062 25.5236 42.849 25.4668 42.7962 25.4061C42.7987 25.409 42.7609 25.3662 42.7618 25.3649C42.7991 25.4141 42.8045 25.4207 42.7779 25.3849L42.7619 25.3623C42.7041 25.2792 42.6694 25.1827 42.6144 25.0996C42.6587 25.1666 42.6351 25.1524 42.6244 25.1218C42.6153 25.0959 42.6054 25.0704 42.5967 25.0444C42.5796 24.9924 42.5649 24.9396 42.5526 24.8862C42.5426 24.8421 42.5394 24.795 42.5273 24.7516C42.5514 24.8386 42.5335 24.8066 42.5314 24.777C42.5293 24.7495 42.5263 24.7222 42.5246 24.6946C42.5186 24.5934 42.5228 24.4931 42.5311 24.3922C42.5374 24.317 42.5258 24.4102 42.5271 24.4154C42.5216 24.3947 42.5366 24.3559 42.5409 24.3338C42.5596 24.2346 42.5865 24.1372 42.6213 24.0425C42.6251 24.032 42.6326 24.0016 42.6409 23.9913C42.6192 24.0416 42.617 24.0472 42.6342 24.0082L42.6458 23.9833C42.6892 23.8919 42.7422 23.808 42.798 23.7239C42.8166 23.6958 42.8076 23.6822 42.788 23.7355C42.7957 23.7146 42.8266 23.6911 42.8426 23.6741C42.8802 23.6338 42.92 23.5959 42.9614 23.5594L42.3202 23.3902C42.325 23.4174 42.3542 23.4934 42.3231 23.3973C42.3309 23.4212 42.3295 23.4543 42.3316 23.4794C42.3399 23.5797 42.3408 23.6805 42.3345 23.781C42.3317 23.8266 42.3274 23.8722 42.3217 23.9176C42.3291 23.8634 42.3306 23.8513 42.3261 23.8814C42.3065 23.9851 42.2863 24.0875 42.2557 24.1888C42.2424 24.2328 42.2279 24.2763 42.2121 24.3194C42.2042 24.3409 42.1966 24.3789 42.1823 24.3966C42.205 24.3438 42.2077 24.3374 42.1902 24.3774C42.1846 24.39 42.1788 24.4026 42.173 24.415C42.1283 24.511 42.0775 24.604 42.0209 24.6934C41.9964 24.7324 41.9711 24.7709 41.945 24.8089C41.9294 24.8316 41.9129 24.8538 41.8969 24.8762C41.8706 24.9111 41.8749 24.9057 41.9096 24.8602C41.8981 24.8746 41.8865 24.8889 41.8748 24.9031C41.7809 25.0162 41.6769 25.1204 41.564 25.2145C41.539 25.2352 41.4996 25.293 41.5592 25.2198C41.5387 25.245 41.4967 25.2655 41.4699 25.2838C41.3868 25.3404 41.2997 25.3911 41.2095 25.4355C41.189 25.4456 41.1679 25.4546 41.1474 25.4648C41.094 25.4914 41.2394 25.4263 41.1545 25.4621L41.059 25.5024C41.1121 25.4802 41.1184 25.4773 41.0778 25.4935C41.043 25.5058 41.0086 25.5192 40.9735 25.5306C40.8784 25.5614 40.7818 25.5817 40.6838 25.6013C40.5957 25.619 40.7495 25.5951 40.6915 25.601C40.669 25.6034 40.6467 25.6062 40.6242 25.6082C40.4898 25.6201 40.3546 25.6195 40.2203 25.6064C40.2014 25.6046 40.1104 25.601 40.2089 25.6064C40.1034 25.6006 39.9917 25.5673 39.8907 25.5385C39.8213 25.5185 39.7527 25.4957 39.6852 25.4699C39.673 25.4652 39.5896 25.4293 39.6654 25.4629C39.5656 25.4191 39.4687 25.3693 39.3752 25.3135C38.9934 25.0841 38.6918 24.8088 38.4911 24.3711C38.3892 24.1489 38.0431 24.3081 38.1038 24.5344L38.1035 24.5338Z" fill="#EDC851"/>
<path d="M42.179 63.2018C43.2633 63.0825 44.3295 62.8852 45.3768 62.5785C46.4036 62.2777 47.4105 61.8455 48.2933 61.2358C49.9611 60.084 51.2011 58.2784 51.3867 56.2311C51.4315 55.7385 51.3895 55.2318 51.1507 54.7891C50.8668 54.263 50.2282 53.9611 49.6522 54.1907C49.08 54.4187 48.7526 54.9407 48.4851 55.4678C48.2166 55.998 47.9818 56.5446 47.7821 57.1043C47.3987 58.1769 47.1463 59.313 47.0613 60.4498C47.0172 61.0392 47.0756 61.6754 47.3968 62.1873C47.6727 62.6269 48.0879 62.9294 48.5768 63.0934C49.0408 63.249 49.5352 63.2401 50.0128 63.1704C50.457 63.1056 50.8912 62.949 51.2821 62.729C51.7374 62.4727 52.1452 62.1296 52.5476 61.7992C52.7381 61.6433 52.9295 61.4885 53.1218 61.3349C52.9557 61.4679 53.1363 61.3249 53.1762 61.2955C53.2231 61.2608 53.2705 61.2266 53.3183 61.193C53.4179 61.1231 53.5197 61.0565 53.6209 60.9891C53.8227 60.8545 54.0346 60.7363 54.2575 60.6403L53.4831 59.8658C53.3066 60.2203 53.2359 60.5936 53.2887 60.9865C53.3404 61.3712 53.5041 61.7202 53.7603 62.0116C54.2695 62.5905 55.1665 62.7129 55.8387 62.3603C56.0111 62.2699 56.1762 62.1445 56.3074 62.0007C56.3805 61.9205 56.4516 61.8335 56.5039 61.7382C56.5246 61.7005 56.5424 61.6616 56.5595 61.6221C56.5783 61.5783 56.5978 61.5345 56.6147 61.4899C56.6255 61.4613 56.6549 61.3788 56.6024 61.4977C56.6947 61.2885 56.6706 61.0172 56.4452 60.8981C56.255 60.7977 55.9445 60.8314 55.8456 61.0553C55.8521 61.0405 55.9384 60.9434 55.853 61.0541C55.8354 61.0769 55.8195 61.0973 55.8036 61.1205C55.7585 61.1868 55.8656 61.0517 55.8127 61.1095C55.7729 61.1534 55.7317 61.1962 55.6894 61.2377C55.6711 61.2556 55.6523 61.2732 55.6331 61.2902C55.6235 61.2986 55.6126 61.3063 55.6035 61.3152C55.5682 61.3499 55.6564 61.2757 55.653 61.2775C55.6045 61.3018 55.5608 61.341 55.513 61.3678C55.4903 61.3805 55.4671 61.3918 55.4442 61.4038C55.4355 61.4083 55.4186 61.4197 55.409 61.4205C55.3986 61.4213 55.5254 61.3764 55.4729 61.3936C55.4199 61.411 55.3682 61.433 55.3149 61.4501C55.2616 61.4671 55.207 61.4813 55.1519 61.4921C55.1289 61.4965 55.0329 61.5106 55.1327 61.4968C55.2335 61.4828 55.1252 61.4953 55.1002 61.4965C55.0488 61.499 54.9971 61.4985 54.9459 61.4948C54.9331 61.4938 54.9202 61.4916 54.9075 61.4913C54.8505 61.4901 54.9965 61.4974 54.9854 61.5021C54.9683 61.5094 54.9156 61.4891 54.8974 61.4848C54.8575 61.4753 54.7691 61.4637 54.738 61.4346C54.7285 61.4257 54.8563 61.4929 54.8068 61.4629C54.7959 61.4563 54.7832 61.4516 54.7719 61.4457C54.7453 61.432 54.7194 61.4173 54.694 61.4015C54.6725 61.3881 54.6523 61.3718 54.6306 61.3589C54.5819 61.3301 54.7014 61.4074 54.6893 61.4048C54.6815 61.403 54.6662 61.3858 54.6603 61.3803C54.6198 61.3429 54.58 61.3057 54.5436 61.2641C54.5353 61.2546 54.5276 61.2444 54.5191 61.235C54.4758 61.1881 54.592 61.3383 54.5574 61.2846C54.5436 61.2633 54.5281 61.243 54.5144 61.2217C54.4846 61.1751 54.4577 61.1267 54.4338 61.0769C54.4283 61.0653 54.4235 61.0533 54.4178 61.042C54.3895 60.9872 54.4601 61.1609 54.4437 61.1017C54.4358 61.0731 54.4233 61.0454 54.4145 61.017C54.3968 60.9597 54.3848 60.9015 54.3727 60.8428C54.3641 60.8008 54.3753 60.7529 54.3815 60.9133C54.3808 60.8965 54.3779 60.8794 54.3765 60.8625C54.3692 60.7694 54.3718 60.6758 54.3843 60.5832L54.3644 60.7308C54.3749 60.6596 54.3901 60.5896 54.4126 60.5212C54.421 60.4956 54.4652 60.3817 54.4264 60.4817C54.3879 60.5809 54.445 60.4621 54.4606 60.4373C54.7183 60.0263 54.2895 59.4565 53.8214 59.6057C53.3675 59.7504 52.9471 59.9654 52.5599 60.2409C52.168 60.5197 51.7983 60.8282 51.4184 61.1227L51.5443 61.0254C51.1753 61.3104 50.7937 61.5898 50.3624 61.7733L50.5139 61.7093C50.2362 61.8249 49.9479 61.9089 49.6498 61.9511L49.8183 61.9285C49.5804 61.9601 49.3406 61.9651 49.1023 61.9338L49.2705 61.9564C49.1011 61.9322 48.9363 61.89 48.7783 61.8241L48.9292 61.8877C48.8057 61.8347 48.6893 61.7665 48.5827 61.6847L48.7103 61.7833C48.616 61.7082 48.531 61.6221 48.4573 61.5267L48.5559 61.6542C48.4795 61.5517 48.4158 61.4404 48.3659 61.3227L48.4294 61.473C48.3669 61.3182 48.3277 61.1584 48.3044 60.9933L48.3269 61.1603C48.2703 60.7149 48.3238 60.263 48.3832 59.8207L48.3609 59.987C48.5148 58.8668 48.814 57.7714 49.251 56.7285L49.1886 56.8763C49.3455 56.5046 49.5252 56.1459 49.7069 55.7861C49.7424 55.7154 49.7807 55.6463 49.8218 55.5787C49.8424 55.5448 49.8638 55.5115 49.8861 55.4786C49.898 55.4612 49.9115 55.4307 49.9289 55.418C49.9211 55.4237 49.8359 55.5325 49.8887 55.4701C49.9383 55.4113 49.9916 55.3558 50.0484 55.304C50.1187 55.24 49.9459 55.3745 50.0044 55.3375C50.0199 55.3277 50.0346 55.317 50.0503 55.3075C50.0849 55.2865 50.1209 55.2689 50.1582 55.2531L50.0168 55.3128C50.0669 55.2937 50.119 55.2802 50.1721 55.2725L50.0157 55.2935C50.0687 55.2883 50.1222 55.2891 50.175 55.2961L50.0192 55.2751C50.0427 55.2791 50.0657 55.2834 50.0886 55.2897C50.1482 55.3061 50.1699 55.3415 50.0351 55.2621C50.0639 55.2791 50.1824 55.357 50.0919 55.2866C49.9979 55.2136 50.1107 55.3121 50.1335 55.3344C50.2003 55.3998 50.0496 55.211 50.1013 55.2909C50.1144 55.3112 50.1283 55.3306 50.1409 55.3513C50.1645 55.3904 50.1833 55.4313 50.2039 55.4718C50.2344 55.5316 50.1504 55.3308 50.18 55.4164C50.1884 55.4408 50.1976 55.4649 50.2055 55.4894C50.2376 55.5892 50.2592 55.6917 50.2743 55.7953L50.254 55.6439C50.2955 55.9581 50.2683 56.2823 50.2264 56.595L50.2463 56.4469C50.1873 56.8692 50.0796 57.2832 49.9254 57.6806C49.9107 57.7185 49.8956 57.7562 49.8803 57.7938C49.8674 57.826 49.8356 57.8791 49.8992 57.7497C49.888 57.7725 49.879 57.7966 49.8686 57.8198C49.7982 57.9786 49.7213 58.1344 49.6381 58.2868C49.557 58.4353 49.4702 58.5805 49.3779 58.7223C49.2834 58.8677 49.1636 59.0022 49.0755 59.1505C49.149 59.0268 49.0882 59.1339 49.0607 59.1683C49.0349 59.2006 49.0088 59.2327 48.9825 59.2645C48.811 59.4717 48.6283 59.6693 48.4351 59.8564C48.3126 59.9746 48.1892 60.0917 48.0604 60.2032C47.9982 60.257 47.9351 60.3099 47.8712 60.3617C47.8393 60.3875 47.807 60.4128 47.7749 60.4384C47.7254 60.4779 47.8494 60.382 47.7986 60.4201L47.737 60.4667C47.4274 60.6979 47.1011 60.9066 46.7638 61.0949C46.5936 61.1897 46.4206 61.2794 46.245 61.3639C46.1211 61.4236 45.9961 61.4807 45.8699 61.5353L45.8067 61.5625C45.8605 61.5393 45.8332 61.5513 45.7954 61.5669C45.4378 61.7148 45.0731 61.846 44.7012 61.9531C44.2782 62.0749 43.8493 62.1762 43.4173 62.2609C43.2012 62.3032 42.9844 62.3417 42.7669 62.3761C42.607 62.4016 42.4468 62.4252 42.2863 62.4468C42.3017 62.4447 42.3566 62.4377 42.2822 62.4472L42.179 62.4604C41.9873 62.4846 41.7984 62.6135 41.8082 62.8312C41.8163 63.0139 41.9725 63.2247 42.179 63.202V63.2018ZM46.3025 66.6331L47.776 66.6079C48.2608 66.5996 48.7453 66.5713 49.2296 66.5495C50.1985 66.506 51.1689 66.4749 52.1368 66.4135L52.9532 66.3617C53.2334 66.344 53.5108 66.3081 53.7895 66.2745C53.9615 66.2537 54.1305 66.1365 54.1219 65.9421C54.1138 65.7609 53.9759 65.6113 53.7895 65.6098C52.8122 65.602 51.8373 65.6716 50.8624 65.7375L49.4088 65.8358C48.9243 65.8686 48.4383 65.89 47.9552 65.9361L46.3025 66.0937C46.1575 66.1076 46.0328 66.2078 46.0328 66.3634C46.0328 66.5077 46.1563 66.6356 46.3025 66.6331ZM55.5736 57.4019L55.6418 57.3616L55.671 57.3443C55.7214 57.3145 55.7523 57.2883 55.8064 57.2449C55.8254 57.2298 55.8437 57.2139 55.8623 57.1983L55.8923 57.1731C55.9342 57.1377 55.9693 57.0951 55.9961 57.0473L56.0474 56.9258L56.0655 56.7906L56.0474 56.6554C56.0325 56.5909 56.0011 56.5313 55.9563 56.4825C55.9342 56.4448 55.9028 56.4134 55.8651 56.3913C55.834 56.3602 55.7954 56.3377 55.753 56.3259C55.714 56.3031 55.6698 56.2911 55.6247 56.2912C55.5575 56.276 55.4874 56.2791 55.4219 56.3003C55.3607 56.3099 55.2926 56.3537 55.2349 56.3852C55.2134 56.3969 55.1916 56.4083 55.1704 56.4206C55.1312 56.4434 55.0818 56.4889 55.0399 56.5217L55.0111 56.5442L54.9492 56.5926C54.8999 56.6377 54.8631 56.6949 54.8427 56.7585C54.8105 56.8195 54.7952 56.8881 54.7983 56.957L54.8167 57.094C54.8317 57.1594 54.8635 57.2197 54.9089 57.2692C54.9318 57.3079 54.9626 57.3387 55.0013 57.3616C55.0507 57.407 55.1111 57.4387 55.1765 57.4538L55.3135 57.4722C55.4049 57.4724 55.4948 57.4481 55.5736 57.4019ZM24.0217 48.365C25.0932 47.6576 26.1823 46.971 27.2242 46.2205C27.3212 46.1506 27.3682 46.0277 27.3037 45.9173C27.2462 45.819 27.1002 45.7707 27.0006 45.8379C25.9327 46.5578 24.9086 47.3445 23.871 48.1072C23.7194 48.2185 23.8584 48.4728 24.0217 48.365ZM24.4967 50.7557L26.1262 49.6245C26.6747 49.2438 27.2301 48.8712 27.7693 48.4773C27.9205 48.3669 28.0754 48.26 28.223 48.1447C28.3743 48.0266 28.5177 47.897 28.6642 47.7731C28.8031 47.6557 28.6238 47.4308 28.4717 47.5235C28.292 47.6329 28.1054 47.7357 27.9338 47.8574C27.7611 47.98 27.5882 48.1022 27.4161 48.2257C27.0714 48.4733 26.7353 48.7337 26.3955 48.9879L24.3557 50.5144C24.2149 50.6197 24.3468 50.8596 24.4966 50.7556L24.4967 50.7557ZM26.9102 52.601L27.9294 52.0463C28.0954 51.9559 28.2694 51.8727 28.4274 51.7688C28.592 51.6605 28.7542 51.5485 28.9174 51.4385C29.1005 51.3151 28.9436 51.0608 28.7473 51.1474C28.5663 51.2273 28.3843 51.3052 28.2043 51.3871C28.0321 51.4655 27.869 51.5682 27.7038 51.6605L26.6914 52.2268C26.4477 52.3631 26.665 52.7345 26.9102 52.601ZM31.2395 49.8459C31.4564 49.8459 31.4568 49.5088 31.2395 49.5088C31.0222 49.5088 31.0222 49.8459 31.2395 49.8459ZM30.3761 46.1237C30.5296 46.1237 30.6602 45.9931 30.6602 45.8395C30.6602 45.6859 30.5302 45.5553 30.3761 45.5553C30.2219 45.5553 30.0919 45.6859 30.0919 45.8395C30.0919 45.9931 30.2219 46.1237 30.3761 46.1237ZM23.6598 53.0269H23.7558C23.7942 53.0283 23.8301 53.0203 23.8634 53.0028C23.8979 52.9917 23.9289 52.9718 23.9533 52.945C23.9805 52.9197 23.9997 52.8898 24.011 52.8551C24.0285 52.8218 24.0366 52.786 24.0351 52.7475L24.0251 52.6733C24.0122 52.6267 23.9875 52.5842 23.9533 52.55L23.8967 52.5063C23.8539 52.4813 23.8053 52.4682 23.7558 52.4681H23.6598C23.6225 52.4663 23.5853 52.4747 23.5522 52.4922C23.5178 52.5033 23.4868 52.5232 23.4623 52.55C23.4351 52.5753 23.4159 52.6052 23.4046 52.6399C23.387 52.6729 23.3787 52.7101 23.3805 52.7475L23.3905 52.8217C23.4038 52.869 23.4277 52.9101 23.4623 52.945L23.5189 52.9887C23.5617 53.0137 23.6103 53.0268 23.6598 53.0269ZM30.6638 53.5837C30.8502 53.5837 31.0288 53.4197 31.0202 53.2273C31.0115 53.0349 30.8636 52.871 30.6638 52.871C30.4774 52.871 30.2989 53.0349 30.3075 53.2273C30.3162 53.4197 30.4641 53.5837 30.6638 53.5837ZM4.92081 42.6134C4.19361 40.6473 3.48193 38.6667 3.02489 36.6172C2.90559 36.0801 2.80807 35.5384 2.73257 34.9934C2.73121 34.9837 2.71897 34.891 2.72881 34.9663C2.72155 34.911 2.71457 34.8557 2.70785 34.8003C2.69241 34.6737 2.67833 34.5468 2.66561 34.4199C2.64174 34.1822 2.62283 33.9439 2.60889 33.7054C2.58055 33.2268 2.57364 32.7472 2.58817 32.268C2.59558 32.0282 2.60873 31.7888 2.62761 31.5497C2.64383 31.345 2.66455 31.1407 2.68977 30.9369C2.69161 30.9222 2.70553 30.8102 2.69505 30.8924C2.68497 30.9718 2.69593 30.8864 2.69769 30.8737L2.71225 30.7729C2.7385 30.5965 2.76832 30.4207 2.80169 30.2456C2.8462 30.0123 2.89745 29.7804 2.95537 29.5501C3.07058 29.0897 3.21302 28.6365 3.38193 28.1929C3.40315 28.1374 3.42481 28.0821 3.44689 28.027C3.45929 27.9961 3.52401 27.8379 3.49001 27.9211C3.45561 28.0053 3.48873 27.9248 3.49537 27.9099C3.50921 27.879 3.52257 27.8479 3.53641 27.817C3.56067 27.7629 3.58537 27.7091 3.61049 27.6554C3.71288 27.4365 3.8233 27.2215 3.94153 27.0107C4.14401 26.6502 4.37281 26.3061 4.62137 25.976C4.70105 25.8701 4.53377 26.0859 4.61649 25.9829C4.64881 25.9425 4.68097 25.9021 4.71369 25.8622C4.91507 25.6165 5.12926 25.3816 5.35537 25.1585C5.5709 24.9458 5.79717 24.7443 6.03329 24.5548C6.05633 24.5363 6.07969 24.5183 6.10265 24.4997C6.16697 24.4478 6.02985 24.5553 6.03569 24.5513C6.08345 24.5172 6.12969 24.4808 6.17673 24.4458C6.50617 24.2013 6.85049 23.9781 7.21209 23.7839C7.39201 23.6873 7.57593 23.5996 7.76225 23.5161C7.88425 23.4613 7.58633 23.5877 7.75777 23.5179C7.89892 23.4604 8.04184 23.4073 8.18633 23.3588C8.57265 23.229 8.96849 23.136 9.37105 23.0738C9.50865 23.0526 9.18409 23.0964 9.35745 23.0761C9.51002 23.0583 9.66319 23.0459 9.81665 23.0389C10.0032 23.0307 10.1901 23.0325 10.3765 23.0441C10.4702 23.0499 10.5637 23.0582 10.657 23.0688L10.717 23.076C10.8158 23.0873 10.5278 23.0483 10.6261 23.064C10.6726 23.0714 10.7191 23.0782 10.7655 23.0862C10.9515 23.1184 11.1359 23.1597 11.3179 23.21C11.4999 23.2602 11.6792 23.3209 11.8567 23.3866C11.901 23.403 11.9451 23.4198 11.989 23.437C12.014 23.4469 12.0389 23.4573 12.0639 23.4672C12.1379 23.4963 11.9621 23.4199 11.9667 23.4261C11.9853 23.4501 12.0699 23.4717 12.0959 23.4837C12.1448 23.5062 12.1933 23.5293 12.2416 23.5532C12.4096 23.6362 12.5734 23.7275 12.7323 23.8268C12.8449 23.8971 12.9548 23.9715 13.0618 24.05C13.0778 24.0617 13.0938 24.0735 13.1096 24.0853C13.2138 24.1622 12.9876 23.9879 13.0606 24.0473C13.3482 24.2816 13.5902 24.5401 13.8353 24.8165C13.8898 24.8781 13.7634 24.7257 13.7735 24.7362C13.7902 24.7537 13.8057 24.779 13.8196 24.7981C13.8423 24.8293 13.8646 24.8607 13.8865 24.8924C13.9882 25.0399 14.0801 25.1939 14.1615 25.3535C14.1817 25.3933 14.2013 25.4335 14.2203 25.474C14.2369 25.5092 14.3064 25.6687 14.2522 25.5402C14.1986 25.4129 14.2585 25.5586 14.271 25.592C14.2845 25.6281 14.2974 25.6644 14.3098 25.7009C14.3681 25.8726 14.4135 26.0484 14.4458 26.2269C14.4509 26.2553 14.4758 26.426 14.4567 26.2835C14.4377 26.141 14.4611 26.3383 14.4639 26.3735C14.4727 26.4839 14.4761 26.5946 14.4731 26.7053C14.4719 26.7528 14.4694 26.8002 14.4658 26.8475C14.4633 26.8789 14.4594 26.9103 14.4568 26.9417C14.449 27.0386 14.4852 26.7937 14.463 26.8883C14.4377 26.9956 14.419 27.102 14.3845 27.2072C14.376 27.233 14.3207 27.3776 14.363 27.2735C14.4039 27.173 14.3632 27.2685 14.3508 27.2933C14.3369 27.3209 14.3223 27.3482 14.3068 27.3751C14.288 27.4078 14.2253 27.4743 14.2192 27.5124C14.2194 27.5106 14.3081 27.4083 14.2605 27.4591C14.2416 27.4793 14.2243 27.5011 14.2053 27.5213C14.1717 27.5567 14.1358 27.589 14.0995 27.6217C14.016 27.6968 14.2204 27.5401 14.0906 27.6234C14.0493 27.65 14.0063 27.6723 13.9635 27.6963C13.9434 27.7076 13.8749 27.7332 13.971 27.6961C14.0733 27.6566 13.9834 27.6902 13.9574 27.6993C13.9117 27.7153 13.8653 27.7288 13.8182 27.7397C13.7983 27.7444 13.7775 27.7469 13.7578 27.7521C13.6758 27.7735 13.9043 27.7438 13.8198 27.7433C13.7728 27.7431 13.725 27.746 13.6778 27.7464C13.5576 27.7473 13.8297 27.7817 13.6802 27.7478C13.6348 27.7376 13.5903 27.7145 13.5453 27.706C13.5494 27.7068 13.671 27.7717 13.616 27.7325C13.5939 27.7167 13.567 27.7054 13.5439 27.6908C13.5221 27.6769 13.4419 27.622 13.5267 27.6821C13.6054 27.7377 13.5462 27.6975 13.5313 27.6813C13.4983 27.6454 13.4639 27.6097 13.4302 27.5745C13.3812 27.5236 13.4744 27.6257 13.4725 27.6295C13.4736 27.6273 13.4224 27.5542 13.4253 27.5589C13.3949 27.5103 13.367 27.4603 13.3417 27.4089C13.3321 27.3894 13.3238 27.3693 13.3138 27.35C13.2803 27.2851 13.3424 27.4105 13.3398 27.4129C13.3459 27.4075 13.2935 27.2877 13.287 27.2681C13.2524 27.1636 13.2222 27.0578 13.1963 26.9508C13.1428 26.7299 13.0968 26.5073 13.0584 26.2833C13.04 26.1776 13.023 26.0716 13.0076 25.9653C13.0041 25.9412 13.0024 25.9157 12.9971 25.8917C13.0319 26.0488 13.007 25.9669 13.0021 25.926C12.9942 25.8604 12.9862 25.7948 12.9792 25.7291C12.9545 25.4992 12.9367 25.2686 12.926 25.0376C12.9045 24.5754 12.9104 24.1124 12.9438 23.6509C12.9604 23.4205 12.9998 23.1908 13.0139 22.9606C13.0138 22.962 12.9942 23.0977 13.0064 23.0192C13.0114 22.9865 13.0158 22.9537 13.0207 22.9211C13.0281 22.872 13.0358 22.823 13.0438 22.7741C13.0637 22.6518 13.0856 22.5298 13.1094 22.4082C13.1984 21.9541 13.3139 21.5056 13.4553 21.0649C13.5437 20.7897 13.6424 20.5179 13.751 20.25L13.7791 20.1812C13.805 20.1179 13.8295 20.1396 13.7681 20.2069C13.7958 20.1765 13.8106 20.1086 13.8275 20.0706C13.8544 20.0102 13.8817 19.9501 13.9094 19.8902C14.1042 19.4705 14.3247 19.0633 14.5698 18.6709C14.7389 18.4004 14.9196 18.1372 15.1113 17.8821C15.125 17.8639 15.139 17.8459 15.1525 17.8277C15.2071 17.7541 15.0727 17.9289 15.1295 17.857C15.1625 17.8153 15.1952 17.7734 15.2285 17.732C15.4996 17.3945 15.7895 17.0724 16.0966 16.7673C16.3985 16.4674 16.7165 16.1842 17.049 15.9188C17.0906 15.8857 17.1336 15.8541 17.1744 15.8201C17.1746 15.8199 17.0669 15.9017 17.1273 15.8569C17.1456 15.8433 17.1636 15.8293 17.1818 15.8156C17.2729 15.7471 17.3649 15.6799 17.4579 15.6141C17.6317 15.491 17.8096 15.3748 17.9883 15.2592C18.3457 15.0279 18.7115 14.8117 19.0906 14.6179C19.2796 14.5212 19.4713 14.4298 19.6653 14.3437C19.7134 14.3224 19.7614 14.2973 19.8111 14.2802C19.7099 14.3151 19.7629 14.3004 19.827 14.2742C19.9326 14.2311 20.0389 14.1895 20.1458 14.1495C20.3722 14.0648 20.5889 13.9607 20.8085 13.8602C20.8183 13.8557 20.8875 13.8279 20.824 13.8525C20.755 13.8792 20.8467 13.8456 20.8634 13.8397C20.9136 13.822 20.964 13.8046 21.0144 13.7875C21.1144 13.7537 21.2158 13.7137 21.3183 13.6897C21.581 13.6285 21.7615 13.3134 21.6782 13.0559C21.5894 12.7816 21.3258 12.6303 21.0444 12.696C21.1827 12.6637 20.9387 12.7132 20.8862 12.7224C20.8338 12.7316 20.7811 12.741 20.7286 12.7509C20.669 12.7622 20.6085 12.7725 20.5493 12.7863C20.537 12.7892 20.4641 12.8109 20.5343 12.7925C20.5892 12.7866 20.5741 12.789 20.489 12.7996C20.4487 12.8044 20.4086 12.8101 20.3686 12.8168C20.1481 12.8513 19.9366 12.8937 19.7252 12.9657C19.2631 13.1228 18.8098 13.3092 18.3683 13.5171C17.513 13.92 16.7324 14.4335 15.9995 15.0294C14.5382 16.2178 13.3486 17.7664 12.6017 19.4968C11.7941 21.3679 11.419 23.4214 11.5876 25.4579C11.6314 25.9872 11.7061 26.5162 11.8156 27.036C11.9188 27.5255 12.06 28.0213 12.3702 28.4229C12.719 28.8745 13.2595 29.1572 13.8398 29.1221C14.3831 29.0893 14.937 28.8513 15.2929 28.4296C16.0006 27.5909 16.0753 26.4181 15.797 25.3909C15.5709 24.5565 15.083 23.7973 14.4623 23.2005C13.1986 21.9856 11.3897 21.3309 9.64033 21.4754C7.74761 21.6318 5.98433 22.4873 4.61385 23.7913C3.20817 25.1288 2.24137 26.8993 1.78633 28.7798C1.29361 30.8162 1.32465 32.9404 1.67753 34.9959C2.05033 37.1673 2.77049 39.2616 3.57217 41.3074C3.77009 41.8125 3.97321 42.3156 4.17745 42.8181C4.25577 43.0108 4.43393 43.1469 4.65137 43.0872C4.83905 43.0356 4.99297 42.8094 4.92041 42.6133L4.92081 42.6134Z" fill="#55BFBF"/>
</svg>
