<svg width="330" height="331" viewBox="0 0 330 331" fill="none" xmlns="http://www.w3.org/2000/svg">
<path d="M249.592 71.2363C249.592 71.2363 217.556 36.1368 166.836 37.8158C116.117 39.4948 72.8529 73.5041 37.085 100.113C1.31705 126.722 -8.27146 168.052 12.5209 200.319C33.3132 232.586 66.4473 219.003 108.629 239.946C150.81 260.89 158.823 272.786 205.811 267.693C252.798 262.601 288.566 210.512 283.235 155.026C277.904 99.5403 249.592 71.2363 249.592 71.2363Z" fill="#EBDDCB"/>
<path opacity="0.7" d="M249.592 71.2363C249.592 71.2363 217.556 36.1368 166.836 37.8158C116.117 39.4948 72.8529 73.5041 37.085 100.113C1.31705 126.722 -8.27146 168.052 12.5209 200.319C33.3132 232.586 66.4473 219.003 108.629 239.946C150.81 260.89 158.823 272.786 205.811 267.693C252.798 262.601 288.566 210.512 283.235 155.026C277.904 99.5403 249.592 71.2363 249.592 71.2363Z" fill="white"/>
<path d="M170.998 288C258.241 288 328.965 284.142 328.965 279.382C328.965 274.623 258.241 270.765 170.998 270.765C83.7545 270.765 13.03 274.623 13.03 279.382C13.03 284.142 83.7545 288 170.998 288Z" fill="#EBDDCB"/>
<path opacity="0.3" d="M170.998 288C258.241 288 328.965 284.142 328.965 279.382C328.965 274.623 258.241 270.765 170.998 270.765C83.7545 270.765 13.03 274.623 13.03 279.382C13.03 284.142 83.7545 288 170.998 288Z" fill="white"/>
<path d="M264.352 149.488C264.304 149.488 264.901 146.52 264.965 146.305C265.649 144.188 268.227 140.496 270.718 140.504C271.132 140.516 271.539 140.615 271.912 140.794C272.286 140.974 272.617 141.23 272.885 141.546C273.153 141.862 273.352 142.231 273.468 142.628C273.584 143.026 273.615 143.444 273.559 143.854C273.376 145.613 271.8 147.101 270.376 147.968C268.705 149.01 264.352 149.488 264.352 149.488Z" fill="#EBDDCB"/>
<path d="M259.522 129.507C261.87 130.351 263.039 134.695 262.96 136.923C262.96 137.114 262.514 140.106 262.474 140.106H262.427C262.61 140.791 262.808 141.531 263.007 142.334C263.358 143.83 263.739 145.517 264.034 147.395C264.375 149.409 264.598 151.442 264.702 153.482C264.829 155.766 264.752 158.056 264.472 160.326C264.467 160.352 264.467 160.379 264.472 160.405C264.782 159.745 265.697 157.915 265.784 157.779C267.01 155.917 270.463 153.005 272.874 153.705C273.27 153.827 273.635 154.031 273.946 154.302C274.258 154.574 274.509 154.909 274.683 155.284C274.857 155.659 274.95 156.066 274.957 156.48C274.963 156.893 274.883 157.304 274.72 157.684C274.084 159.323 272.174 160.35 270.575 160.803C268.768 161.32 264.742 160.708 264.424 160.66C264.084 162.961 263.59 165.237 262.944 167.471C262.572 168.776 262.169 170.081 261.734 171.386C262.013 170.821 262.275 170.32 262.315 170.248C263.541 168.386 266.994 165.474 269.405 166.166C269.801 166.287 270.167 166.49 270.479 166.762C270.791 167.033 271.043 167.368 271.217 167.743C271.391 168.119 271.484 168.527 271.49 168.94C271.496 169.354 271.415 169.765 271.251 170.145C270.615 171.792 268.705 172.811 267.105 173.272C265.506 173.734 262.037 173.272 261.129 173.153C260.962 173.646 260.795 174.147 260.62 174.641C259.824 177.028 258.965 179.415 258.233 181.755C257.97 182.55 257.74 183.41 257.509 184.237C257.764 183.736 257.978 183.314 258.018 183.259C259.236 181.397 262.697 178.484 265.1 179.176C265.495 179.298 265.86 179.502 266.172 179.774C266.484 180.046 266.735 180.38 266.91 180.754C267.085 181.129 267.179 181.537 267.186 181.95C267.194 182.364 267.115 182.774 266.954 183.155C266.318 184.794 264.4 185.821 262.801 186.274C261.201 186.728 258.074 186.33 256.992 186.179C256.777 187.038 256.57 187.89 256.403 188.725C256.299 189.298 256.164 189.847 256.093 190.428C256.021 191.009 255.933 191.574 255.854 192.131C255.742 193.221 255.615 194.351 255.536 195.417C255.472 196.157 255.424 196.865 255.376 197.574C255.623 196.778 256.172 195.139 256.212 195.003C257.095 193.254 258.41 191.759 260.031 190.659C260.12 190.459 260.229 190.27 260.358 190.094C260.583 189.747 260.879 189.451 261.226 189.225C261.574 189 261.965 188.85 262.373 188.785C262.782 188.721 263.2 188.743 263.6 188.851C264 188.958 264.373 189.149 264.694 189.41C266.588 191.001 266.111 195.521 265.243 197.574C265.196 197.693 264.487 198.942 264.034 199.722C264.376 199.308 264.694 198.926 265.052 198.465C265.745 197.621 266.461 196.794 267.225 195.903L268.394 194.637C268.776 194.2 269.238 193.794 269.66 193.372C270.654 192.409 271.713 191.478 272.803 190.563C272.055 189.959 269.453 187.754 268.705 186.258C267.957 184.762 267.424 182.67 268.203 181.094C268.374 180.716 268.622 180.377 268.933 180.101C269.243 179.825 269.608 179.618 270.003 179.493C270.399 179.367 270.817 179.327 271.229 179.374C271.642 179.421 272.04 179.554 272.397 179.765C274.506 181.086 274.72 185.582 274.171 187.723C274.171 187.858 273.567 189.362 273.24 190.181C273.901 189.64 274.553 189.091 275.238 188.59C277.211 187.062 279.256 185.582 281.285 184.094L283.139 182.717C282.877 182.503 279.726 179.956 278.882 178.285C278.142 176.797 277.601 174.697 278.381 173.113C278.552 172.735 278.801 172.398 279.112 172.123C279.422 171.848 279.786 171.641 280.182 171.515C280.577 171.39 280.994 171.349 281.407 171.395C281.819 171.442 282.217 171.574 282.574 171.784C284.683 173.113 284.898 177.609 284.349 179.741C284.309 179.909 283.489 182.073 283.251 182.614C284.611 181.595 285.956 180.577 287.229 179.519C288.973 178.095 290.621 176.559 292.163 174.919C292.043 174.824 288.741 172.182 287.882 170.463C287.134 168.975 286.601 166.875 287.381 165.299C287.55 164.921 287.798 164.583 288.107 164.307C288.417 164.031 288.781 163.823 289.176 163.698C289.571 163.572 289.988 163.532 290.4 163.579C290.812 163.626 291.209 163.759 291.566 163.97C293.683 165.291 293.898 169.787 293.348 171.927C293.309 172.063 292.688 173.718 292.37 174.498L292.497 174.569C294.006 172.879 295.362 171.058 296.547 169.126C297.208 168.076 297.789 167.034 298.33 165.999C297.661 165.57 294.645 163.612 293.699 162.116C292.752 160.62 292.036 158.694 292.632 157.039C292.761 156.65 292.969 156.291 293.244 155.987C293.519 155.682 293.854 155.439 294.229 155.271C294.603 155.103 295.008 155.015 295.418 155.013C295.828 155.011 296.235 155.094 296.611 155.257C298.863 156.339 299.563 160.787 299.253 162.991C299.253 163.111 298.934 164.312 298.704 165.188C298.934 164.718 299.189 164.241 299.404 163.787C300.2 162.084 300.876 160.477 301.433 159.013C301.751 158.217 302.014 157.421 302.229 156.761C301.791 155.965 300.088 152.902 299.921 151.191C299.754 149.48 300.025 147.379 301.322 146.186C301.617 145.895 301.971 145.671 302.36 145.526C302.748 145.382 303.162 145.321 303.576 145.347C303.99 145.373 304.393 145.486 304.76 145.679C305.127 145.871 305.449 146.139 305.706 146.464C307.202 148.461 305.778 152.727 304.489 154.549C304.377 154.7 302.348 156.936 302.324 156.936V156.888C302.101 157.565 301.863 158.289 301.576 159.068C301.051 160.509 300.43 162.14 299.651 163.843C298.82 165.71 297.882 167.527 296.842 169.286C295.683 171.256 294.352 173.12 292.863 174.856L292.807 174.919C293.428 174.529 295.195 173.519 295.346 173.455C297.399 172.58 301.871 172.079 303.51 173.964C303.773 174.285 303.965 174.656 304.075 175.055C304.185 175.454 304.21 175.872 304.149 176.282C304.087 176.691 303.941 177.083 303.718 177.432C303.496 177.782 303.202 178.08 302.857 178.309C301.417 179.328 299.253 179.105 297.669 178.619C295.879 178.054 292.895 175.325 292.616 175.11C291.065 176.841 289.398 178.466 287.627 179.972C286.593 180.863 285.534 181.723 284.444 182.566C284.993 182.256 285.487 181.977 285.558 181.946C287.603 181.07 292.075 180.569 293.714 182.455C293.978 182.774 294.172 183.146 294.283 183.545C294.393 183.945 294.419 184.363 294.357 184.773C294.296 185.183 294.149 185.575 293.925 185.924C293.702 186.273 293.408 186.572 293.062 186.8C291.63 187.818 289.465 187.595 287.882 187.11C286.298 186.624 283.649 184.333 282.964 183.72L281.715 184.683C279.71 186.219 277.736 187.738 275.787 189.29C275.11 189.839 274.466 190.404 273.813 190.961C274.307 190.683 274.713 190.452 274.784 190.428C276.829 189.545 281.301 189.051 282.94 190.929C283.205 191.248 283.4 191.62 283.511 192.019C283.623 192.419 283.649 192.838 283.587 193.248C283.525 193.658 283.378 194.051 283.154 194.4C282.93 194.749 282.635 195.047 282.288 195.274C280.848 196.293 278.691 196.07 277.108 195.592C275.524 195.115 273.129 193.03 272.333 192.306C271.689 192.903 271.036 193.492 270.439 194.104C270.034 194.526 269.644 194.9 269.246 195.354C268.848 195.807 268.45 196.213 268.1 196.643C267.408 197.486 266.684 198.361 266.023 199.205C265.562 199.786 265.132 200.351 264.702 200.916C265.363 200.367 266.7 199.324 266.819 199.237C268.705 198.059 273.049 196.889 274.959 198.497C275.268 198.774 275.514 199.114 275.683 199.493C275.852 199.872 275.939 200.282 275.939 200.697C275.939 201.112 275.852 201.522 275.683 201.901C275.514 202.28 275.268 202.619 274.959 202.897C273.694 204.115 271.53 204.25 269.89 203.995C268.076 203.709 264.798 201.608 264.392 201.306C263.676 202.245 262.991 203.168 262.355 204.051C260.151 207.098 258.432 209.716 257.254 211.57L257.135 211.754L255.607 211.013C255.687 210.894 255.766 210.783 255.846 210.655C257.079 208.809 258.878 206.199 261.169 203.168C261.893 202.213 262.681 201.202 263.501 200.168C262.648 199.24 261.851 198.262 261.114 197.239C259.355 197.924 255.703 197.956 255.233 197.956C255.162 199.133 255.098 200.279 255.05 201.361C254.891 205.125 254.907 208.26 254.947 210.449V210.711L253.268 209.915C253.268 207.743 253.355 204.791 253.578 201.314C253.65 200.112 253.753 198.831 253.872 197.526C253.403 197.407 249.607 196.428 248.175 195.282C246.878 194.248 245.509 192.561 245.557 190.802C245.553 190.387 245.636 189.976 245.801 189.596C245.967 189.215 246.211 188.874 246.517 188.595C246.824 188.315 247.186 188.104 247.58 187.974C247.974 187.844 248.391 187.799 248.804 187.842C251.278 188.16 253.347 192.155 253.761 194.343C253.761 194.47 253.888 195.934 253.936 196.81C253.992 196.269 254.032 195.751 254.087 195.218C254.199 194.128 254.342 193.038 254.493 191.868C254.581 191.311 254.676 190.746 254.764 190.173C254.851 189.6 255.002 189.012 255.122 188.423C255.424 187.07 255.79 185.709 256.196 184.349C255.241 184.245 251.859 183.847 250.403 183.02C248.947 182.192 247.355 180.728 247.141 178.985C247.073 178.576 247.092 178.156 247.198 177.755C247.304 177.353 247.493 176.979 247.754 176.656C248.015 176.332 248.341 176.068 248.711 175.88C249.081 175.692 249.487 175.584 249.902 175.564C252.392 175.5 255.05 179.137 255.782 181.237C255.83 181.373 256.188 182.94 256.363 183.808C256.618 183.012 256.856 182.168 257.159 181.357C257.955 178.97 258.854 176.63 259.729 174.267C260 173.543 260.254 172.819 260.525 172.102C260.183 172.102 256.148 171.681 254.525 170.75C253.085 169.954 251.477 168.458 251.255 166.715C251.189 166.306 251.211 165.888 251.317 165.487C251.424 165.087 251.614 164.713 251.874 164.39C252.134 164.068 252.46 163.804 252.828 163.615C253.197 163.426 253.602 163.316 254.016 163.294C256.514 163.23 259.172 166.867 259.904 168.967C259.96 169.126 260.469 171.354 260.572 171.967C261.145 170.376 261.71 168.784 262.164 167.193C262.837 165.044 263.369 162.854 263.755 160.636C263.596 160.636 259.379 160.238 257.724 159.283C256.276 158.488 254.668 156.992 254.453 155.249C254.388 154.84 254.41 154.421 254.516 154.021C254.623 153.62 254.813 153.247 255.073 152.924C255.333 152.602 255.658 152.337 256.027 152.148C256.396 151.959 256.801 151.85 257.215 151.827C259.705 151.772 262.363 155.4 263.095 157.501C263.143 157.644 263.533 159.363 263.7 160.182H263.843C264.171 157.941 264.299 155.675 264.225 153.411C264.225 152.162 264.106 150.976 263.986 149.814C263.19 149.814 259.578 149.814 257.986 149.13C256.395 148.446 254.7 147.188 254.286 145.477C254.176 145.077 254.151 144.657 254.214 144.246C254.277 143.835 254.426 143.442 254.652 143.093C254.877 142.744 255.174 142.446 255.522 142.219C255.87 141.993 256.263 141.842 256.673 141.777C259.148 141.443 262.188 144.761 263.151 146.774C263.198 146.886 263.612 148.056 263.891 148.907C263.835 148.39 263.779 147.849 263.708 147.355C263.461 145.485 263.111 143.783 262.793 142.287C262.602 141.435 262.419 140.695 262.236 139.955C261.44 139.557 258.321 137.918 257.246 136.589C256.172 135.26 255.233 133.359 255.655 131.648C255.746 131.24 255.922 130.856 256.172 130.522C256.423 130.187 256.741 129.909 257.107 129.707C257.472 129.505 257.877 129.382 258.293 129.348C258.709 129.313 259.128 129.368 259.522 129.507Z" fill="#EBDDCB"/>
<path d="M304.624 167.965C302.674 167.885 298.775 165.888 298.775 165.88C298.775 165.872 300.868 163.715 301.019 163.596C302.762 162.204 306.947 160.548 309.024 161.925C309.363 162.164 309.648 162.472 309.86 162.829C310.072 163.185 310.207 163.582 310.255 163.994C310.304 164.406 310.266 164.824 310.143 165.22C310.02 165.616 309.815 165.982 309.542 166.294C308.428 167.63 306.287 168.028 304.624 167.965Z" fill="#EBDDCB"/>
<g opacity="0.5">
<path d="M264.352 149.488C264.304 149.488 264.901 146.52 264.965 146.305C265.649 144.188 268.227 140.496 270.718 140.504C271.132 140.516 271.539 140.615 271.912 140.794C272.286 140.974 272.617 141.23 272.885 141.546C273.153 141.862 273.352 142.231 273.468 142.628C273.584 143.026 273.615 143.444 273.559 143.854C273.376 145.613 271.8 147.101 270.376 147.968C268.705 149.01 264.352 149.488 264.352 149.488Z" fill="white"/>
<path d="M259.522 129.507C261.87 130.351 263.039 134.695 262.96 136.923C262.96 137.114 262.514 140.106 262.474 140.106H262.427C262.61 140.791 262.808 141.531 263.007 142.334C263.358 143.83 263.739 145.517 264.034 147.395C264.375 149.409 264.598 151.442 264.702 153.482C264.829 155.766 264.752 158.056 264.472 160.326C264.467 160.352 264.467 160.379 264.472 160.405C264.782 159.745 265.697 157.915 265.784 157.779C267.01 155.917 270.463 153.005 272.874 153.705C273.27 153.827 273.635 154.031 273.946 154.302C274.258 154.574 274.509 154.909 274.683 155.284C274.857 155.659 274.95 156.066 274.957 156.48C274.963 156.893 274.883 157.304 274.72 157.684C274.084 159.323 272.174 160.35 270.575 160.803C268.768 161.32 264.742 160.708 264.424 160.66C264.084 162.961 263.59 165.237 262.944 167.471C262.572 168.776 262.169 170.081 261.734 171.386C262.013 170.821 262.275 170.32 262.315 170.248C263.541 168.386 266.994 165.474 269.405 166.166C269.801 166.287 270.167 166.49 270.479 166.762C270.791 167.033 271.043 167.368 271.217 167.743C271.391 168.119 271.484 168.527 271.49 168.94C271.496 169.354 271.415 169.765 271.251 170.145C270.615 171.792 268.705 172.811 267.105 173.272C265.506 173.734 262.037 173.272 261.129 173.153C260.962 173.646 260.795 174.147 260.62 174.641C259.824 177.028 258.965 179.415 258.233 181.755C257.97 182.55 257.74 183.41 257.509 184.237C257.764 183.736 257.978 183.314 258.018 183.259C259.236 181.397 262.697 178.484 265.1 179.176C265.495 179.298 265.86 179.502 266.172 179.774C266.484 180.046 266.735 180.38 266.91 180.754C267.085 181.129 267.179 181.537 267.186 181.95C267.194 182.364 267.115 182.774 266.954 183.155C266.318 184.794 264.4 185.821 262.801 186.274C261.201 186.728 258.074 186.33 256.992 186.179C256.777 187.038 256.57 187.89 256.403 188.725C256.299 189.298 256.164 189.847 256.093 190.428C256.021 191.009 255.933 191.574 255.854 192.131C255.742 193.221 255.615 194.351 255.536 195.417C255.472 196.157 255.424 196.865 255.376 197.574C255.623 196.778 256.172 195.139 256.212 195.003C257.095 193.254 258.41 191.759 260.031 190.659C260.12 190.459 260.229 190.27 260.358 190.094C260.583 189.747 260.879 189.451 261.226 189.225C261.574 189 261.965 188.85 262.373 188.785C262.782 188.721 263.2 188.743 263.6 188.851C264 188.958 264.373 189.149 264.694 189.41C266.588 191.001 266.111 195.521 265.243 197.574C265.196 197.693 264.487 198.942 264.034 199.722C264.376 199.308 264.694 198.926 265.052 198.465C265.745 197.621 266.461 196.794 267.225 195.903L268.394 194.637C268.776 194.2 269.238 193.794 269.66 193.372C270.654 192.409 271.713 191.478 272.803 190.563C272.055 189.959 269.453 187.754 268.705 186.258C267.957 184.762 267.424 182.67 268.203 181.094C268.374 180.716 268.622 180.377 268.933 180.101C269.243 179.825 269.608 179.618 270.003 179.493C270.399 179.367 270.817 179.327 271.229 179.374C271.642 179.421 272.04 179.554 272.397 179.765C274.506 181.086 274.72 185.582 274.171 187.723C274.171 187.858 273.567 189.362 273.24 190.181C273.901 189.64 274.553 189.091 275.238 188.59C277.211 187.062 279.256 185.582 281.285 184.094L283.139 182.717C282.877 182.503 279.726 179.956 278.882 178.285C278.142 176.797 277.601 174.697 278.381 173.113C278.552 172.735 278.801 172.398 279.112 172.123C279.422 171.848 279.786 171.641 280.182 171.515C280.577 171.39 280.994 171.349 281.407 171.395C281.819 171.442 282.217 171.574 282.574 171.784C284.683 173.113 284.898 177.609 284.349 179.741C284.309 179.909 283.489 182.073 283.251 182.614C284.611 181.595 285.956 180.577 287.229 179.519C288.973 178.095 290.621 176.559 292.163 174.919C292.043 174.824 288.741 172.182 287.882 170.463C287.134 168.975 286.601 166.875 287.381 165.299C287.55 164.921 287.798 164.583 288.107 164.307C288.417 164.031 288.781 163.823 289.176 163.698C289.571 163.572 289.988 163.532 290.4 163.579C290.812 163.626 291.209 163.759 291.566 163.97C293.683 165.291 293.898 169.787 293.348 171.927C293.309 172.063 292.688 173.718 292.37 174.498L292.497 174.569C294.006 172.879 295.362 171.058 296.547 169.126C297.208 168.076 297.789 167.034 298.33 165.999C297.661 165.57 294.645 163.612 293.699 162.116C292.752 160.62 292.036 158.694 292.632 157.039C292.761 156.65 292.969 156.291 293.244 155.987C293.519 155.682 293.854 155.439 294.229 155.271C294.603 155.103 295.008 155.015 295.418 155.013C295.828 155.011 296.235 155.094 296.611 155.257C298.863 156.339 299.563 160.787 299.253 162.991C299.253 163.111 298.934 164.312 298.704 165.188C298.934 164.718 299.189 164.241 299.404 163.787C300.2 162.084 300.876 160.477 301.433 159.013C301.751 158.217 302.014 157.421 302.229 156.761C301.791 155.965 300.088 152.902 299.921 151.191C299.754 149.48 300.025 147.379 301.322 146.186C301.617 145.895 301.971 145.671 302.36 145.526C302.748 145.382 303.162 145.321 303.576 145.347C303.99 145.373 304.393 145.486 304.76 145.679C305.127 145.871 305.449 146.139 305.706 146.464C307.202 148.461 305.778 152.727 304.489 154.549C304.377 154.7 302.348 156.936 302.324 156.936V156.888C302.101 157.565 301.863 158.289 301.576 159.068C301.051 160.509 300.43 162.14 299.651 163.843C298.82 165.71 297.882 167.527 296.842 169.286C295.683 171.256 294.352 173.12 292.863 174.856L292.807 174.919C293.428 174.529 295.195 173.519 295.346 173.455C297.399 172.58 301.871 172.079 303.51 173.964C303.773 174.285 303.965 174.656 304.075 175.055C304.185 175.454 304.21 175.872 304.149 176.282C304.087 176.691 303.941 177.083 303.718 177.432C303.496 177.782 303.202 178.08 302.857 178.309C301.417 179.328 299.253 179.105 297.669 178.619C295.879 178.054 292.895 175.325 292.616 175.11C291.065 176.841 289.398 178.466 287.627 179.972C286.593 180.863 285.534 181.723 284.444 182.566C284.993 182.256 285.487 181.977 285.558 181.946C287.603 181.07 292.075 180.569 293.714 182.455C293.978 182.774 294.172 183.146 294.283 183.545C294.393 183.945 294.419 184.363 294.357 184.773C294.296 185.183 294.149 185.575 293.925 185.924C293.702 186.273 293.408 186.572 293.062 186.8C291.63 187.818 289.465 187.595 287.882 187.11C286.298 186.624 283.649 184.333 282.964 183.72L281.715 184.683C279.71 186.219 277.736 187.738 275.787 189.29C275.11 189.839 274.466 190.404 273.813 190.961C274.307 190.683 274.713 190.452 274.784 190.428C276.829 189.545 281.301 189.051 282.94 190.929C283.205 191.248 283.4 191.62 283.511 192.019C283.623 192.419 283.649 192.838 283.587 193.248C283.525 193.658 283.378 194.051 283.154 194.4C282.93 194.749 282.635 195.047 282.288 195.274C280.848 196.293 278.691 196.07 277.108 195.592C275.524 195.115 273.129 193.03 272.333 192.306C271.689 192.903 271.036 193.492 270.439 194.104C270.034 194.526 269.644 194.9 269.246 195.354C268.848 195.807 268.45 196.213 268.1 196.643C267.408 197.486 266.684 198.361 266.023 199.205C265.562 199.786 265.132 200.351 264.702 200.916C265.363 200.367 266.7 199.324 266.819 199.237C268.705 198.059 273.049 196.889 274.959 198.497C275.268 198.774 275.514 199.114 275.683 199.493C275.852 199.872 275.939 200.282 275.939 200.697C275.939 201.112 275.852 201.522 275.683 201.901C275.514 202.28 275.268 202.619 274.959 202.897C273.694 204.115 271.53 204.25 269.89 203.995C268.076 203.709 264.798 201.608 264.392 201.306C263.676 202.245 262.991 203.168 262.355 204.051C260.151 207.098 258.432 209.716 257.254 211.57L257.135 211.754L255.607 211.013C255.687 210.894 255.766 210.783 255.846 210.655C257.079 208.809 258.878 206.199 261.169 203.168C261.893 202.213 262.681 201.202 263.501 200.168C262.648 199.24 261.851 198.262 261.114 197.239C259.355 197.924 255.703 197.956 255.233 197.956C255.162 199.133 255.098 200.279 255.05 201.361C254.891 205.125 254.907 208.26 254.947 210.449V210.711L253.268 209.915C253.268 207.743 253.355 204.791 253.578 201.314C253.65 200.112 253.753 198.831 253.872 197.526C253.403 197.407 249.607 196.428 248.175 195.282C246.878 194.248 245.509 192.561 245.557 190.802C245.553 190.387 245.636 189.976 245.801 189.596C245.967 189.215 246.211 188.874 246.517 188.595C246.824 188.315 247.186 188.104 247.58 187.974C247.974 187.844 248.391 187.799 248.804 187.842C251.278 188.16 253.347 192.155 253.761 194.343C253.761 194.47 253.888 195.934 253.936 196.81C253.992 196.269 254.032 195.751 254.087 195.218C254.199 194.128 254.342 193.038 254.493 191.868C254.581 191.311 254.676 190.746 254.764 190.173C254.851 189.6 255.002 189.012 255.122 188.423C255.424 187.07 255.79 185.709 256.196 184.349C255.241 184.245 251.859 183.847 250.403 183.02C248.947 182.192 247.355 180.728 247.141 178.985C247.073 178.576 247.092 178.156 247.198 177.755C247.304 177.353 247.493 176.979 247.754 176.656C248.015 176.332 248.341 176.068 248.711 175.88C249.081 175.692 249.487 175.584 249.902 175.564C252.392 175.5 255.05 179.137 255.782 181.237C255.83 181.373 256.188 182.94 256.363 183.808C256.618 183.012 256.856 182.168 257.159 181.357C257.955 178.97 258.854 176.63 259.729 174.267C260 173.543 260.254 172.819 260.525 172.102C260.183 172.102 256.148 171.681 254.525 170.75C253.085 169.954 251.477 168.458 251.255 166.715C251.189 166.306 251.211 165.888 251.317 165.487C251.424 165.087 251.614 164.713 251.874 164.39C252.134 164.068 252.46 163.804 252.828 163.615C253.197 163.426 253.602 163.316 254.016 163.294C256.514 163.23 259.172 166.867 259.904 168.967C259.96 169.126 260.469 171.354 260.572 171.967C261.145 170.376 261.71 168.784 262.164 167.193C262.837 165.044 263.369 162.854 263.755 160.636C263.596 160.636 259.379 160.238 257.724 159.283C256.276 158.488 254.668 156.992 254.453 155.249C254.388 154.84 254.41 154.421 254.516 154.021C254.623 153.62 254.813 153.247 255.073 152.924C255.333 152.602 255.658 152.337 256.027 152.148C256.396 151.959 256.801 151.85 257.215 151.827C259.705 151.772 262.363 155.4 263.095 157.501C263.143 157.644 263.533 159.363 263.7 160.182H263.843C264.171 157.941 264.299 155.675 264.225 153.411C264.225 152.162 264.106 150.976 263.986 149.814C263.19 149.814 259.578 149.814 257.986 149.13C256.395 148.446 254.7 147.188 254.286 145.477C254.176 145.077 254.151 144.657 254.214 144.246C254.277 143.835 254.426 143.442 254.652 143.093C254.877 142.744 255.174 142.446 255.522 142.219C255.87 141.993 256.263 141.842 256.673 141.777C259.148 141.443 262.188 144.761 263.151 146.774C263.198 146.886 263.612 148.056 263.891 148.907C263.835 148.39 263.779 147.849 263.708 147.355C263.461 145.485 263.111 143.783 262.793 142.287C262.602 141.435 262.419 140.695 262.236 139.955C261.44 139.557 258.321 137.918 257.246 136.589C256.172 135.26 255.233 133.359 255.655 131.648C255.746 131.24 255.922 130.856 256.172 130.522C256.423 130.187 256.741 129.909 257.107 129.707C257.472 129.505 257.877 129.382 258.293 129.348C258.709 129.313 259.128 129.368 259.522 129.507Z" fill="white"/>
<path d="M304.624 167.965C302.674 167.885 298.775 165.888 298.775 165.88C298.775 165.872 300.868 163.715 301.019 163.596C302.762 162.204 306.947 160.548 309.024 161.925C309.363 162.164 309.648 162.472 309.86 162.829C310.072 163.185 310.207 163.582 310.255 163.994C310.304 164.406 310.266 164.824 310.143 165.22C310.02 165.616 309.815 165.982 309.542 166.294C308.428 167.63 306.287 168.028 304.624 167.965Z" fill="white"/>
</g>
<path d="M281.858 216.791C281.858 216.791 270.026 188.264 263.405 189.505C256.785 190.746 274.744 234.973 274.744 234.973C274.744 234.973 253.928 195.704 239.732 195.704C225.537 195.704 244.937 239.111 262.912 253.577C262.912 253.577 234.528 222.989 217.969 229.602C201.41 236.214 251.087 267.216 251.087 267.216C251.087 267.216 222.227 258.121 225.537 265.147C228.847 272.173 237.839 273.414 237.839 273.414L205.214 275.07H318.764L293.213 272.587C293.213 272.587 319.711 259.362 312.613 253.991C305.515 248.62 289.903 260.189 289.903 260.189C289.903 260.189 316.87 230.429 311.666 219.265C306.462 208.101 283.275 239.524 283.275 239.524C283.275 239.524 302.205 199.428 298.393 192.402C294.582 185.375 281.858 216.791 281.858 216.791Z" fill="#EBDDCB"/>
<path opacity="0.4" d="M281.858 216.791C281.858 216.791 270.026 188.264 263.405 189.505C256.785 190.746 274.744 234.973 274.744 234.973C274.744 234.973 253.928 195.704 239.732 195.704C225.537 195.704 244.937 239.111 262.912 253.577C262.912 253.577 234.528 222.989 217.969 229.602C201.41 236.214 251.087 267.216 251.087 267.216C251.087 267.216 222.227 258.121 225.537 265.147C228.847 272.173 237.839 273.414 237.839 273.414L205.214 275.07H318.764L293.213 272.587C293.213 272.587 319.711 259.362 312.613 253.991C305.515 248.62 289.903 260.189 289.903 260.189C289.903 260.189 316.87 230.429 311.666 219.265C306.462 208.101 283.275 239.524 283.275 239.524C283.275 239.524 302.205 199.428 298.393 192.402C294.582 185.375 281.858 216.791 281.858 216.791Z" fill="white"/>
<path d="M285.646 218.286C275.23 249.041 275.23 270.804 275.23 270.804C275.23 270.804 287.532 271.274 300.311 261.813" stroke="#263238" stroke-linecap="round" stroke-linejoin="round"/>
<path d="M280.442 234.853C278.294 225.657 275.445 216.639 271.92 207.878" stroke="#263238" stroke-linecap="round" stroke-linejoin="round"/>
<path d="M249.687 216.87L276.177 256.139C276.177 256.139 294.16 241.02 300.311 232.482" stroke="#263238" stroke-linecap="round" stroke-linejoin="round"/>
<path d="M275.707 265.608C275.707 265.608 247.793 252.359 236.438 244.816" stroke="#263238" stroke-linecap="round" stroke-linejoin="round"/>
<path d="M250.65 53.8416H165.634C162.154 53.8416 159.332 56.6631 159.332 60.1437V268.767C159.332 272.248 162.154 275.069 165.634 275.069H250.65C254.13 275.069 256.952 272.248 256.952 268.767V60.1437C256.952 56.6631 254.13 53.8416 250.65 53.8416Z" fill="white" stroke="#263238" stroke-linecap="round" stroke-linejoin="round"/>
<path d="M253.69 92.5696C253.346 92.5696 253.016 92.4329 252.772 92.1897C252.529 91.9464 252.393 91.6165 252.393 91.2725V73.8859C252.418 73.5584 252.566 73.2527 252.808 73.0296C253.049 72.8066 253.365 72.6827 253.694 72.6827C254.022 72.6827 254.338 72.8066 254.58 73.0296C254.821 73.2527 254.969 73.5584 254.995 73.8859V91.2407C254.998 91.4141 254.966 91.5863 254.902 91.7474C254.838 91.9085 254.742 92.0552 254.621 92.1789C254.499 92.3027 254.354 92.4009 254.195 92.468C254.035 92.5351 253.863 92.5696 253.69 92.5696Z" fill="#263238"/>
<path d="M253.69 108.675C253.346 108.675 253.016 108.538 252.772 108.295C252.529 108.052 252.393 107.722 252.393 107.378V97.6623C252.418 97.3348 252.566 97.029 252.808 96.806C253.049 96.583 253.365 96.4591 253.694 96.4591C254.022 96.4591 254.338 96.583 254.58 96.806C254.821 97.029 254.969 97.3348 254.995 97.6623V107.378C254.992 107.723 254.854 108.053 254.61 108.296C254.365 108.539 254.034 108.675 253.69 108.675Z" fill="#263238"/>
<path d="M243.289 53.8416H158.274C154.793 53.8416 151.972 56.6631 151.972 60.1437V268.767C151.972 272.248 154.793 275.069 158.274 275.069H243.289C246.77 275.069 249.592 272.248 249.592 268.767V60.1437C249.592 56.6631 246.77 53.8416 243.289 53.8416Z" fill="#263238" stroke="#263238" stroke-linecap="round" stroke-linejoin="round"/>
<path d="M243.09 68.5704H158.473V258.319H243.09V68.5704Z" fill="#EBDDCB"/>
<path d="M188.217 62.507H210.744" stroke="white" stroke-width="3" stroke-linecap="round" stroke-linejoin="round"/>
<path d="M197.75 265.035C197.75 266.587 196.779 267.844 195.578 267.844C194.376 267.844 193.413 266.587 193.413 265.035C193.413 263.484 194.384 262.219 195.578 262.219C196.771 262.219 197.75 263.476 197.75 265.035Z" fill="white"/>
<path d="M200.782 115.789C208.885 115.789 215.455 108.129 215.455 98.6807C215.455 89.2322 208.885 81.5726 200.782 81.5726C192.678 81.5726 186.108 89.2322 186.108 98.6807C186.108 108.129 192.678 115.789 200.782 115.789Z" fill="white"/>
<path d="M200.782 98.4659C203.858 98.4659 206.352 95.5553 206.352 91.9648C206.352 88.3744 203.858 85.4637 200.782 85.4637C197.705 85.4637 195.211 88.3744 195.211 91.9648C195.211 95.5553 197.705 98.4659 200.782 98.4659Z" fill="#263238" stroke="#263238" stroke-linecap="round" stroke-linejoin="round"/>
<path d="M200.782 100.193C195.212 100.193 190.652 104.466 190.652 109.741C190.657 110.232 190.702 110.722 190.787 111.205C192.023 112.647 193.556 113.805 195.281 114.599C197.006 115.392 198.883 115.803 200.782 115.803C202.681 115.803 204.557 115.392 206.282 114.599C208.007 113.805 209.54 112.647 210.776 111.205C210.855 110.721 210.898 110.232 210.903 109.741C210.903 104.466 206.368 100.193 200.782 100.193Z" fill="#263238" stroke="#263238" stroke-linecap="round" stroke-linejoin="round"/>
<path d="M218.622 173.2H182.941C181.997 173.163 181.106 172.752 180.465 172.059C179.823 171.365 179.483 170.445 179.52 169.5V147.475C179.52 134.783 189.068 124.454 200.782 124.454C212.495 124.454 222.035 134.799 222.035 147.475V169.484C222.056 169.953 221.983 170.42 221.823 170.861C221.662 171.301 221.416 171.705 221.099 172.05C220.782 172.395 220.4 172.675 219.975 172.872C219.55 173.069 219.09 173.181 218.622 173.2ZM186.355 165.8H215.2V147.498C215.2 138.889 208.731 131.878 200.782 131.878C192.832 131.878 186.355 138.889 186.355 147.498V165.8Z" fill="#263238"/>
<path d="M225.552 158.169H176.01V205.037H225.552V158.169Z" fill="white"/>
<path d="M207.999 190.436L204.323 181.595C205.136 180.981 205.793 180.184 206.242 179.269C206.692 178.354 206.92 177.347 206.909 176.328C206.909 172.803 204.275 169.962 201.021 169.962C197.766 169.962 195.14 172.811 195.14 176.328C195.128 177.346 195.355 178.353 195.802 179.268C196.25 180.183 196.906 180.98 197.718 181.595L194.05 190.436H207.999Z" fill="#263238" stroke="#263238" stroke-linecap="round" stroke-linejoin="round"/>
<path d="M185.687 247.155C185.763 247.211 185.855 247.242 185.949 247.243C186.017 247.243 186.083 247.226 186.143 247.194C186.203 247.162 186.254 247.116 186.291 247.06L243.09 169.803V168.339L185.623 246.551C185.587 246.594 185.561 246.645 185.545 246.699C185.529 246.753 185.524 246.81 185.529 246.866C185.535 246.922 185.552 246.977 185.579 247.026C185.606 247.076 185.643 247.12 185.687 247.155Z" fill="white"/>
<path d="M231.664 96.405C231.63 96.4508 231.606 96.5029 231.592 96.5582C231.579 96.6136 231.576 96.671 231.585 96.7273C231.594 96.7836 231.614 96.8375 231.644 96.886C231.674 96.9345 231.713 96.9765 231.759 97.0097C231.853 97.076 231.968 97.1032 232.081 97.0853C232.194 97.0675 232.296 97.006 232.364 96.9142L243.091 82.3286V80.8962L231.664 96.405Z" fill="white"/>
<path d="M158.473 197.438L228.592 102.086C228.66 101.994 228.688 101.878 228.67 101.764C228.652 101.651 228.59 101.549 228.497 101.482C228.404 101.414 228.288 101.386 228.175 101.404C228.061 101.422 227.96 101.484 227.892 101.577L158.505 195.974L158.473 197.438Z" fill="white"/>
<path d="M179.098 256.561C179.166 256.56 179.232 256.543 179.293 256.513C179.354 256.483 179.407 256.439 179.448 256.386L183.427 251.007C183.461 250.961 183.485 250.909 183.499 250.853C183.512 250.798 183.515 250.741 183.506 250.684C183.497 250.628 183.477 250.574 183.447 250.526C183.417 250.477 183.378 250.435 183.331 250.402C183.238 250.336 183.123 250.308 183.01 250.326C182.897 250.344 182.795 250.406 182.727 250.497L178.748 255.869C178.714 255.914 178.689 255.966 178.675 256.021C178.661 256.076 178.657 256.133 178.666 256.189C178.674 256.245 178.693 256.299 178.722 256.348C178.751 256.397 178.79 256.44 178.836 256.473C178.91 256.532 179.003 256.563 179.098 256.561Z" fill="white"/>
<path d="M243.091 185.272L196.461 248.699C196.414 248.763 196.385 248.84 196.379 248.919C196.372 248.999 196.388 249.078 196.425 249.149C196.461 249.22 196.516 249.28 196.585 249.321C196.653 249.363 196.731 249.384 196.811 249.383C196.879 249.385 196.947 249.369 197.008 249.339C197.069 249.308 197.121 249.264 197.161 249.208L243.091 186.728V185.272Z" fill="white"/>
<path d="M79.3222 96.1266C80.1112 94.3784 80.4921 92.4737 80.4362 90.5565C80.4362 86.9996 76.1313 84.9387 71.0705 84.3737C66.0097 83.8087 63.7657 85.8697 64.5137 87.1826C65.291 88.2655 66.2398 89.2142 67.3226 89.9915C67.3226 89.9915 62.2618 87.1826 58.8879 89.4345C55.514 91.6864 60.3918 90.7475 59.4529 92.9914C58.5139 95.2354 53.2701 94.3044 51.9571 100.296C50.6442 106.288 54.392 112.288 51.0182 114.914C47.6443 117.54 37.4908 113.975 34.5307 120.532C31.5706 127.088 35.772 130.001 28.6583 134.123C21.5445 138.244 16.3563 142.271 18.4173 152.384C20.4782 162.498 27.226 166.039 40.5305 162.466C53.835 158.893 52.8961 150.849 57.2408 142.573C61.5854 134.298 68.3013 136.016 70.3623 131.33C72.4232 126.643 69.7973 121.025 69.9883 116.712C70.1793 112.399 74.4841 111.468 76.1711 106.368C77.858 101.267 79.3222 96.1266 79.3222 96.1266Z" fill="#263238" stroke="#263238" stroke-linecap="round" stroke-linejoin="round"/>
<path d="M19.9688 152.193C19.6199 152.898 19.4426 153.675 19.4516 154.461" stroke="white" stroke-width="0.5" stroke-linecap="round" stroke-linejoin="round"/>
<path d="M72.1287 92.4105C72.1287 92.4105 69.7892 89.705 74.2931 90.9623C79.9666 92.5537 73.3064 99.1185 70.7441 100.439C65.6037 103.073 58.8082 102.23 54.8296 107.02C51.217 111.349 56.0948 115.861 53.9304 119.29C51.766 122.72 43.1006 120.73 40.22 124.86C37.3395 128.99 45.448 137.854 37.1486 142.724C31.1488 146.249 24.5761 147.602 21.4011 150.395" stroke="white" stroke-width="0.5" stroke-linecap="round" stroke-linejoin="round"/>
<path d="M58.673 108.421C58.1812 109.571 58.032 110.84 58.2433 112.073C58.9595 115.137 63.1131 120.914 59.3255 124.16C55.5378 127.407 49.0367 127.224 47.9625 131.027C46.8883 134.831 49.0447 145.279 45.4401 150.125C41.8354 154.971 34.7932 154.636 31.0056 157.883C27.2179 161.13 27.759 162.936 27.759 162.936" stroke="white" stroke-width="0.5" stroke-linecap="round" stroke-linejoin="round"/>
<path d="M60.5827 104.856C60.2547 105.319 59.9519 105.8 59.6755 106.296" stroke="white" stroke-width="0.5" stroke-linecap="round" stroke-linejoin="round"/>
<path d="M81.7491 151.907L82.6642 159.069C82.6642 159.069 87.4386 163.843 90.9477 166.795C94.4569 169.747 103.449 175.994 103.449 175.994L98.8891 177.291C98.8891 177.291 83.9851 168.458 81.0409 167.742C78.0967 167.026 75.8926 162.777 74.9775 161.488C74.0624 160.198 79.354 150.618 81.7491 151.907Z" fill="white" stroke="#263238" stroke-linecap="round" stroke-linejoin="round"/>
<path d="M90.8521 268.425C90.8521 268.425 95.3559 272.229 97.2179 273.502C99.0799 274.775 101.252 275.348 100.91 276.04C100.568 276.733 99.6369 277.425 95.2525 276.836C90.868 276.247 89.6028 274.759 88.7912 274.528C87.9795 274.298 86.0221 274.878 84.5261 273.955C83.0301 273.032 85.4014 267.534 85.4014 267.534C86.0585 268.302 86.9662 268.813 87.9638 268.976C88.9614 269.139 89.9846 268.944 90.8521 268.425Z" fill="white" stroke="#263238" stroke-linecap="round" stroke-linejoin="round"/>
<path d="M100.894 276.04C100.898 276.003 100.898 275.966 100.894 275.929C98.3628 276.162 95.8103 275.921 93.3667 275.221C90.5339 274.552 89.6984 273.048 87.0009 273.048C85.9423 273.058 84.8899 272.886 83.8896 272.539C83.8606 272.805 83.8969 273.073 83.9954 273.321C84.0938 273.57 84.2515 273.79 84.4545 273.964C85.9505 274.887 87.9159 274.306 88.7196 274.536C89.5233 274.767 90.7965 276.271 95.1809 276.844C99.5654 277.417 100.544 276.733 100.894 276.04Z" fill="white" stroke="#263238" stroke-linecap="round" stroke-linejoin="round"/>
<path d="M67.2748 114.635C67.2748 114.635 68.1421 120.476 67.0281 122.831C65.9141 125.186 62.4288 125.441 59.4528 125.942C56.4768 126.444 49.6415 129.046 50.3815 135.754C51.1216 142.462 59.6995 156.992 59.6995 161.09C59.6995 165.188 57.0895 167.296 54.2328 175.246C51.3762 183.195 51.7502 197.98 52.6414 207.544C53.2946 213.857 54.5415 220.094 56.3654 226.172C56.3654 226.172 49.2039 237.726 46.021 242.691C42.838 247.657 31.6979 269.277 31.6979 269.277C31.6979 269.277 31.6979 270.017 33.4326 270.518C34.653 270.815 35.9156 270.898 37.1645 270.765C37.1645 270.765 58.5218 245.055 62.5004 240.71C66.4791 236.365 70.2031 228.774 70.6964 225.305C71.1898 221.835 70.5771 200.59 70.5771 200.59C70.5771 200.59 75.0411 211.268 78.5343 216.735C80.6531 220.08 82.5972 223.533 84.3591 227.079C83.8699 231.575 83.8699 236.111 84.3591 240.607C85.2264 246.813 84.4943 266.754 85.3617 268.369C86.229 269.985 89.5949 269.308 90.3429 268.568C91.0909 267.828 91.441 262.998 91.441 262.998C91.441 262.998 92.929 247.88 93.8282 240.766C94.7274 233.652 96.2154 227.596 95.6982 225.981C95.1809 224.366 92.0935 207.099 89.7302 198.926C87.3669 190.754 80.1815 175.453 78.59 171.482C76.9986 167.511 76.0994 163.899 76.354 162.657C76.6087 161.416 81.4467 153.968 82.7199 151.979C83.4457 150.63 83.846 149.13 83.8888 147.6C83.9317 146.069 83.6158 144.549 82.9665 143.162C81.4785 139.931 82.9665 135.579 82.7199 132.977C82.4732 130.375 78.6219 129.245 76.6326 128.258C74.6432 127.271 73.8953 125.027 73.8953 123.165C74.0167 121.597 74.3958 120.059 75.0172 118.614C75.0172 118.614 68.8901 114.635 67.2748 114.635Z" fill="white" stroke="#263238" stroke-linecap="round" stroke-linejoin="round"/>
<path d="M82.33 141.204C81.6756 139.542 81.1307 137.838 80.6987 136.104" stroke="#263238" stroke-linecap="round" stroke-linejoin="round"/>
<path d="M66.2006 155.034C66.2006 155.034 68.4445 155.528 72.9404 153.284" stroke="#263238" stroke-linecap="round" stroke-linejoin="round"/>
<path d="M89.7541 198.847C87.5022 191.017 80.826 176.718 78.8288 171.999C69.28 175.58 60.352 172.524 56.1585 170.551C55.5538 171.872 54.9013 173.399 54.2328 175.246C51.3762 183.203 51.7502 197.979 52.6414 207.544C53.2946 213.857 54.5415 220.094 56.3654 226.172C56.3654 226.172 49.2039 237.726 46.021 242.691C42.838 247.657 31.6979 269.277 31.6979 269.277C31.6979 269.277 31.6979 270.017 33.4326 270.518C34.653 270.815 35.9156 270.898 37.1645 270.765C37.1645 270.765 58.5218 245.055 62.5004 240.71C66.4791 236.365 70.2031 228.774 70.6964 225.305C71.1898 221.835 70.5771 200.589 70.5771 200.589C70.5771 200.589 75.0411 211.268 78.5343 216.735C80.6531 220.08 82.5972 223.533 84.3591 227.079C83.8699 231.575 83.8699 236.111 84.3591 240.607C85.2264 246.813 84.4943 266.754 85.3617 268.369C86.229 269.985 89.5949 269.308 90.3429 268.568C91.0909 267.828 91.441 262.998 91.441 262.998C91.441 262.998 92.929 247.879 93.8282 240.766C94.7274 233.652 96.2154 227.596 95.6982 225.981C95.1809 224.366 92.1174 207.043 89.7541 198.847Z" fill="#263238" stroke="#263238" stroke-linecap="round" stroke-linejoin="round"/>
<path d="M138.405 190.961V189.338H139.765V176.59H138.405H124.973H123.612V189.338H124.973V190.961H123.604V193.921H128.848V192.927H134.53V193.921H139.773V190.961H138.405Z" fill="#EBDDCB" stroke="#263238" stroke-linecap="round" stroke-linejoin="round"/>
<path d="M51.5911 172.779H145.296C145.671 172.779 146.032 172.928 146.297 173.194C146.563 173.459 146.712 173.82 146.712 174.195V177.044C146.712 177.42 146.563 177.78 146.297 178.045C146.032 178.311 145.671 178.46 145.296 178.46H51.5911V172.771V172.779Z" fill="#EBDDCB" stroke="#263238" stroke-linecap="round" stroke-linejoin="round"/>
<path d="M118.846 171.927H113.14C112.705 171.927 112.353 172.28 112.353 172.715V178.532C112.353 178.967 112.705 179.32 113.14 179.32H118.846C119.281 179.32 119.634 178.967 119.634 178.532V172.715C119.634 172.28 119.281 171.927 118.846 171.927Z" fill="#EBDDCB" stroke="#263238" stroke-linecap="round" stroke-linejoin="round"/>
<path d="M54.5228 178.016C55.8431 169.954 50.3775 162.348 42.3152 161.028C34.2529 159.707 26.6468 165.173 25.3266 173.235C24.0063 181.298 29.4718 188.904 37.5342 190.224C45.5965 191.544 53.2026 186.079 54.5228 178.016Z" fill="#EBDDCB" stroke="#263238" stroke-linecap="round" stroke-linejoin="round"/>
<path d="M42.9654 175.588C43.823 175.177 44.5508 174.538 45.0688 173.741C45.5868 172.943 45.875 172.019 45.9016 171.068C45.9016 168.164 43.228 165.808 39.9257 165.808C36.6235 165.808 33.9498 168.196 33.9498 171.068C33.9747 172.019 34.2622 172.944 34.7804 173.742C35.2986 174.54 36.0274 175.179 36.8861 175.588C36.0279 176 35.2998 176.64 34.7818 177.439C34.2638 178.238 33.976 179.164 33.9498 180.116C33.9498 183.02 36.6235 185.375 39.9257 185.375C43.228 185.375 45.9016 182.988 45.9016 180.116C45.8737 179.164 45.5852 178.239 45.0674 177.441C44.5496 176.642 43.8225 176.001 42.9654 175.588Z" fill="white" stroke="#263238" stroke-linecap="round" stroke-linejoin="round"/>
<path d="M100.528 178.588C100.528 178.588 105.159 180.545 106.592 180.545C108.024 180.545 109.679 179.105 110.499 177.362C111.318 175.62 111.294 174.792 110.809 175.206L109.783 176.002C109.783 176.002 110.578 174.259 109.679 174.466C109.056 174.673 108.54 175.116 108.239 175.699C108.239 175.699 108.135 174.155 107.316 174.903C106.773 175.395 106.29 175.947 105.875 176.551C105.875 176.551 105.772 174.601 105.255 175.11C104.738 175.62 102.796 178.397 102.796 178.397L100.528 178.588Z" fill="white" stroke="#263238" stroke-linecap="round" stroke-linejoin="round"/>
<path d="M105.875 176.535C105.875 176.535 105.565 179.002 104.029 179.415Z" fill="white"/>
<path d="M105.875 176.535C105.875 176.535 105.565 179.002 104.029 179.415" stroke="#263238" stroke-linecap="round" stroke-linejoin="round"/>
<path d="M108.239 175.715C108.239 175.715 107.443 179.614 106.186 180.235Z" fill="white"/>
<path d="M108.239 175.715C108.239 175.715 107.443 179.614 106.186 180.235" stroke="#263238" stroke-linecap="round" stroke-linejoin="round"/>
<path d="M109.783 176.017C109.372 177.44 108.82 178.818 108.135 180.131Z" fill="white"/>
<path d="M109.783 176.017C109.372 177.44 108.82 178.818 108.135 180.131" stroke="#263238" stroke-linecap="round" stroke-linejoin="round"/>
<path d="M76.338 128.019C75.5366 127.478 74.8875 126.74 74.4528 125.877C74.0181 125.013 73.8124 124.052 73.8554 123.086C73.998 121.542 74.3904 120.032 75.0171 118.614C75.0171 118.614 68.9298 114.635 67.3145 114.635C67.3145 114.635 68.1818 120.476 67.0678 122.831C66.7027 123.564 66.1073 124.156 65.3729 124.518C66.8441 128.479 68.8378 132.225 71.3011 135.658C73.5371 138.467 74.6272 132.547 76.338 128.019Z" fill="white" stroke="#263238" stroke-linecap="round" stroke-linejoin="round"/>
<path d="M57.5511 126.746C56.0326 127.005 54.5953 127.614 53.3524 128.524C52.1095 129.434 51.0952 130.621 50.3895 131.99C47.9387 136.717 37.2282 158.169 38.1433 159.45C43.3474 166.771 62.2777 172.039 64.2034 173.965C66.1285 175.978 68.2414 177.803 70.5135 179.415C72.4391 180.641 76.2825 180.115 76.9827 179.765C77.683 179.415 78.2081 177.84 76.9827 177.84C76.5145 177.846 76.0584 177.691 75.6906 177.402C75.3227 177.112 75.0654 176.705 74.9616 176.248C74.7865 175.548 76.8872 176.948 77.9376 176.423C78.9879 175.898 75.5902 173.98 74.5398 173.105C73.4895 172.23 72.6142 171.012 71.2137 171.012C69.8132 171.012 67.1794 171.012 67.1794 171.012C67.1794 171.012 60.734 166.341 56.8349 162.864C53.801 160.127 50.4917 157.711 46.96 155.655L58.7765 136.215" fill="white"/>
<path d="M57.5511 126.746C56.0326 127.005 54.5953 127.614 53.3524 128.524C52.1095 129.434 51.0952 130.621 50.3895 131.99C47.9387 136.717 37.2282 158.169 38.1433 159.45C43.3474 166.771 62.2777 172.039 64.2034 173.965C66.1285 175.978 68.2414 177.803 70.5135 179.415C72.4391 180.641 76.2825 180.115 76.9827 179.765C77.683 179.415 78.2081 177.84 76.9827 177.84C76.5145 177.846 76.0584 177.691 75.6906 177.402C75.3227 177.112 75.0654 176.705 74.9616 176.248C74.7865 175.548 76.8872 176.948 77.9376 176.423C78.9879 175.898 75.5902 173.98 74.5398 173.105C73.4895 172.23 72.6142 171.012 71.2137 171.012C69.8132 171.012 67.1794 171.012 67.1794 171.012C67.1794 171.012 60.734 166.341 56.8349 162.864C53.801 160.127 50.4917 157.711 46.96 155.655L58.7765 136.215" stroke="#263238" stroke-linecap="round" stroke-linejoin="round"/>
<path d="M74.5319 173.113C73.4815 172.238 72.6062 171.02 71.2058 171.02C69.8053 171.02 67.1714 171.02 67.1714 171.02C67.1714 171.02 60.726 166.349 56.827 162.872C53.7931 160.134 50.4838 157.718 46.952 155.663L51.6786 147.881C49.2622 146.418 46.4981 145.629 43.6736 145.597C40.4907 152.233 37.6341 158.79 38.1035 159.482C43.3076 166.803 62.2379 172.071 64.1636 173.996C66.0887 176.01 68.2016 177.835 70.4737 179.447C72.3993 180.672 76.2427 180.147 76.9429 179.797C77.6432 179.447 78.1684 177.871 76.9429 177.871C76.4748 177.878 76.0187 177.723 75.6508 177.433C75.2829 177.144 75.0256 176.737 74.9218 176.28C74.7467 175.58 76.8475 176.98 77.8978 176.455C78.9482 175.93 75.5823 173.996 74.5319 173.113Z" fill="white" stroke="#263238" stroke-linecap="round" stroke-linejoin="round"/>
<path d="M80.9375 106.065C80.3168 104.824 80.3168 103.829 80.5635 102.087C80.8102 100.344 79.3221 96.1187 79.3221 96.1187C77.8023 98.7445 73.4099 100.304 71.4683 100.893C69.3278 101.546 72.455 103.026 72.1208 105.007C71.7866 106.988 67.5136 108.134 67.5136 108.134C67.5136 108.134 66.2643 105.564 64.5296 105.564C62.7949 105.564 61.5615 109.543 62.5482 111.651C62.8053 112.235 63.2532 112.715 63.8184 113.011C64.3837 113.308 65.0328 113.403 65.6595 113.282C65.6595 113.282 65.5402 117.014 67.8955 118.128C70.4087 119.328 73.0305 120.284 75.7255 120.985C77.2135 121.232 78.7015 120.492 79.3221 118.256C79.8075 116.002 80.1398 113.719 80.3168 111.42C81.3587 110.739 82.3175 109.938 83.1735 109.033C83.7703 108.174 81.5581 107.307 80.9375 106.065Z" fill="white" stroke="#263238" stroke-linecap="round" stroke-linejoin="round"/>
<path d="M78.5184 106.121C78.5184 106.805 78.2956 107.354 78.0251 107.354C77.7545 107.354 77.5317 106.805 77.5317 106.121C77.5317 105.437 77.7545 104.888 78.0251 104.888C78.2956 104.888 78.5184 105.437 78.5184 106.121Z" fill="#263238"/>
<path d="M76.3779 104.068C76.3779 104.068 77.6988 102.58 78.6855 102.914" stroke="#263238" stroke-linecap="round" stroke-linejoin="round"/>
<path d="M78.6855 114.269C78.0892 114.449 77.4563 114.47 76.8492 114.331C76.2422 114.191 75.682 113.896 75.2241 113.473" stroke="#263238" stroke-linecap="round" stroke-linejoin="round"/>
<path d="M31.7536 269.277C31.7536 269.277 28.7856 275.229 28.897 276.04C29.0084 276.852 34.8968 281.117 37.65 282.613C40.4032 284.109 45.3844 284.348 45.0343 282.271C44.6842 280.194 39.9576 278.809 38.8038 275.69C38.1893 274.077 37.6581 272.433 37.2123 270.765C35.2889 270.793 33.3965 270.277 31.7536 269.277Z" fill="white" stroke="#263238" stroke-linecap="round" stroke-linejoin="round"/>
<path d="M45.0501 282.303C42.9316 282.587 40.7757 282.281 38.8196 281.419C34.5465 279.565 30.4088 275.778 29.2709 274.703C29.0688 275.133 28.9397 275.593 28.8889 276.064C29.0083 276.86 34.8887 281.141 37.6419 282.637C40.3951 284.133 45.3366 284.34 45.0501 282.303Z" fill="white" stroke="#263238" stroke-linecap="round" stroke-linejoin="round"/>
</svg>
