<svg width="160" height="33" viewBox="0 0 160 33" fill="none" xmlns="http://www.w3.org/2000/svg">
<g id="CashMate">
<path d="M13.683 32.2492C10.8925 32.2492 8.4654 31.7601 6.40181 30.7818C4.33823 29.7808 2.75536 28.3702 1.65322 26.5502C0.551072 24.7301 0 22.6143 0 20.2027C0 16.8583 0.644871 13.8893 1.93461 11.2958C3.24781 8.70217 5.01827 6.7001 7.24601 5.28956C9.47375 3.85626 11.9477 3.13961 14.6679 3.13961C17.2005 3.13961 19.1234 3.77663 20.4366 5.05067C21.7498 6.30196 22.4064 7.96277 22.4064 10.0331C22.4064 11.4209 22.1484 12.5357 21.6325 13.3775C21.1401 14.2192 20.4248 14.6401 19.4868 14.6401C18.8302 14.6401 18.3143 14.4922 17.9391 14.1965C17.564 13.9007 17.3764 13.4685 17.3764 12.8997C17.3764 12.6949 17.4233 12.3195 17.5171 11.7735C17.6578 11.091 17.7281 10.545 17.7281 10.1355C17.7281 8.06515 16.5908 7.02999 14.3161 7.02999C12.7685 7.02999 11.2911 7.51913 9.88412 8.49741C8.47713 9.4757 7.33981 10.9204 6.47216 12.8314C5.60452 14.7198 5.1707 16.9721 5.1707 19.5884C5.1707 22.3185 5.95627 24.4343 7.52741 25.9359C9.09855 27.4147 11.4201 28.1541 14.492 28.1541C16.0163 28.1541 17.5522 27.9721 19.0999 27.6081C20.6711 27.2213 22.4064 26.6412 24.3058 25.8676C24.6575 25.7311 24.9507 25.6629 25.1852 25.6629C25.5604 25.6629 25.8418 25.7994 26.0294 26.0724C26.217 26.3454 26.3108 26.698 26.3108 27.1303C26.3108 28.5181 25.5369 29.5419 23.9892 30.2017C22.3243 30.9069 20.589 31.4302 18.7833 31.7715C17.0012 32.09 15.301 32.2492 13.683 32.2492Z" fill="#E2F3EB"/>
<path d="M13.683 32.2492C10.8925 32.2492 8.4654 31.7601 6.40181 30.7818C4.33823 29.7808 2.75536 28.3702 1.65322 26.5502C0.551072 24.7301 0 22.6143 0 20.2027C0 16.8583 0.644871 13.8893 1.93461 11.2958C3.24781 8.70217 5.01827 6.7001 7.24601 5.28956C9.47375 3.85626 11.9477 3.13961 14.6679 3.13961C17.2005 3.13961 19.1234 3.77663 20.4366 5.05067C21.7498 6.30196 22.4064 7.96277 22.4064 10.0331C22.4064 11.4209 22.1484 12.5357 21.6325 13.3775C21.1401 14.2192 20.4248 14.6401 19.4868 14.6401C18.8302 14.6401 18.3143 14.4922 17.9391 14.1965C17.564 13.9007 17.3764 13.4685 17.3764 12.8997C17.3764 12.6949 17.4233 12.3195 17.5171 11.7735C17.6578 11.091 17.7281 10.545 17.7281 10.1355C17.7281 8.06515 16.5908 7.02999 14.3161 7.02999C12.7685 7.02999 11.2911 7.51913 9.88412 8.49741C8.47713 9.4757 7.33981 10.9204 6.47216 12.8314C5.60452 14.7198 5.1707 16.9721 5.1707 19.5884C5.1707 22.3185 5.95627 24.4343 7.52741 25.9359C9.09855 27.4147 11.4201 28.1541 14.492 28.1541C16.0163 28.1541 17.5522 27.9721 19.0999 27.6081C20.6711 27.2213 22.4064 26.6412 24.3058 25.8676C24.6575 25.7311 24.9507 25.6629 25.1852 25.6629C25.5604 25.6629 25.8418 25.7994 26.0294 26.0724C26.217 26.3454 26.3108 26.698 26.3108 27.1303C26.3108 28.5181 25.5369 29.5419 23.9892 30.2017C22.3243 30.9069 20.589 31.4302 18.7833 31.7715C17.0012 32.09 15.301 32.2492 13.683 32.2492Z" fill="#E76D6D"/>
<path d="M27.8777 32.2492C26.4238 32.2492 25.263 31.7373 24.3954 30.7135C23.5277 29.6898 23.0939 28.3475 23.0939 26.6867C23.0939 24.8666 23.5277 23.1489 24.3954 21.5336C25.263 19.8956 26.4121 18.5874 27.8425 17.6091C29.2964 16.6081 30.8324 16.1075 32.4504 16.1075C32.9663 16.1075 33.3063 16.2099 33.4705 16.4147C33.6581 16.5967 33.8105 16.938 33.9277 17.4385C34.4202 17.3475 34.9361 17.302 35.4754 17.302C36.6245 17.302 37.199 17.7001 37.199 18.4964C37.199 18.9741 37.0231 20.1117 36.6714 21.909C36.132 24.5253 35.8624 26.3454 35.8624 27.3692C35.8624 27.7104 35.9444 27.9835 36.1086 28.1882C36.2962 28.393 36.5307 28.4953 36.8121 28.4953C37.2576 28.4953 37.797 28.2223 38.4301 27.6763C39.0633 27.1075 39.9192 26.1975 40.9979 24.9462C41.2793 24.6277 41.5959 24.4685 41.9476 24.4685C42.2524 24.4685 42.4869 24.605 42.6511 24.878C42.8387 25.151 42.9325 25.5264 42.9325 26.0041C42.9325 26.9142 42.7097 27.6194 42.2642 28.12C41.3027 29.2802 40.2827 30.2585 39.204 31.0548C38.1253 31.8511 37.0817 32.2492 36.0734 32.2492C35.2996 32.2492 34.5843 31.999 33.9277 31.4984C33.2946 30.9752 32.8139 30.2699 32.4856 29.3826C31.2662 31.2937 29.7302 32.2492 27.8777 32.2492ZM29.144 28.8025C29.6599 28.8025 30.1523 28.5067 30.6213 27.9152C31.0903 27.3237 31.4303 26.5388 31.6414 25.5605L32.9428 19.2813C31.958 19.304 31.0434 19.668 30.1992 20.3733C29.3785 21.0558 28.7219 21.9659 28.2294 23.1034C27.737 24.241 27.4908 25.4467 27.4908 26.7208C27.4908 27.4261 27.6315 27.9493 27.9129 28.2906C28.2177 28.6319 28.6281 28.8025 29.144 28.8025Z" fill="#E2F3EB"/>
<path d="M27.8777 32.2492C26.4238 32.2492 25.263 31.7373 24.3954 30.7135C23.5277 29.6898 23.0939 28.3475 23.0939 26.6867C23.0939 24.8666 23.5277 23.1489 24.3954 21.5336C25.263 19.8956 26.4121 18.5874 27.8425 17.6091C29.2964 16.6081 30.8324 16.1075 32.4504 16.1075C32.9663 16.1075 33.3063 16.2099 33.4705 16.4147C33.6581 16.5967 33.8105 16.938 33.9277 17.4385C34.4202 17.3475 34.9361 17.302 35.4754 17.302C36.6245 17.302 37.199 17.7001 37.199 18.4964C37.199 18.9741 37.0231 20.1117 36.6714 21.909C36.132 24.5253 35.8624 26.3454 35.8624 27.3692C35.8624 27.7104 35.9444 27.9835 36.1086 28.1882C36.2962 28.393 36.5307 28.4953 36.8121 28.4953C37.2576 28.4953 37.797 28.2223 38.4301 27.6763C39.0633 27.1075 39.9192 26.1975 40.9979 24.9462C41.2793 24.6277 41.5959 24.4685 41.9476 24.4685C42.2524 24.4685 42.4869 24.605 42.6511 24.878C42.8387 25.151 42.9325 25.5264 42.9325 26.0041C42.9325 26.9142 42.7097 27.6194 42.2642 28.12C41.3027 29.2802 40.2827 30.2585 39.204 31.0548C38.1253 31.8511 37.0817 32.2492 36.0734 32.2492C35.2996 32.2492 34.5843 31.999 33.9277 31.4984C33.2946 30.9752 32.8139 30.2699 32.4856 29.3826C31.2662 31.2937 29.7302 32.2492 27.8777 32.2492ZM29.144 28.8025C29.6599 28.8025 30.1523 28.5067 30.6213 27.9152C31.0903 27.3237 31.4303 26.5388 31.6414 25.5605L32.9428 19.2813C31.958 19.304 31.0434 19.668 30.1992 20.3733C29.3785 21.0558 28.7219 21.9659 28.2294 23.1034C27.737 24.241 27.4908 25.4467 27.4908 26.7208C27.4908 27.4261 27.6315 27.9493 27.9129 28.2906C28.2177 28.6319 28.6281 28.8025 29.144 28.8025Z" fill="#E76D6D"/>
<path d="M46.6162 33C45.3968 33 44.4588 32.727 43.8022 32.181C43.1691 31.635 42.8525 31.0207 42.8525 30.3382C42.8525 29.7466 43.0753 29.2347 43.5208 28.8025C43.9664 28.3702 44.623 28.1541 45.4906 28.1541C45.7955 28.1541 46.1472 28.1882 46.5459 28.2565C46.968 28.302 47.2846 28.3361 47.4956 28.3588C47.4722 27.7673 47.3314 27.2099 47.0735 26.6867C46.839 26.1634 46.5342 25.6629 46.159 25.1851C45.7838 24.6846 45.432 24.2523 45.1037 23.8883C44.3768 25.2306 43.6498 26.3454 42.9229 27.2327C42.2194 28.12 41.4455 28.9617 40.6013 29.758C40.1792 30.1675 39.7337 30.3723 39.2647 30.3723C38.8895 30.3723 38.5846 30.2472 38.3502 29.9969C38.1157 29.7239 37.9984 29.394 37.9984 29.0072C37.9984 28.5522 38.1626 28.1313 38.4908 27.7446L38.9481 27.1986C40.2379 25.6515 41.211 24.3775 41.8676 23.3764C42.2663 22.7166 42.7353 21.8407 43.2746 20.7487C43.814 19.6339 44.3416 18.485 44.8575 17.302C45.303 16.3009 46.2293 15.8004 47.6363 15.8004C48.2929 15.8004 48.7502 15.8573 49.0081 15.971C49.2661 16.0848 49.395 16.2668 49.395 16.5171C49.395 16.6536 49.3481 16.8697 49.2543 17.1655C49.1605 17.4612 49.0316 17.757 48.8674 18.0527C48.4453 18.8718 48.2343 19.5657 48.2343 20.1344C48.2343 20.4757 48.3515 20.8511 48.586 21.2606C48.844 21.6701 49.2309 22.182 49.7468 22.7963C50.4972 23.7518 51.06 24.5708 51.4352 25.2534C51.8338 25.9131 52.0331 26.6412 52.0331 27.4374C52.0331 27.6649 52.0097 27.9834 51.9628 28.393C53.1118 27.9607 54.4602 26.8118 56.0079 24.9462C56.2893 24.6277 56.6059 24.4685 56.9576 24.4685C57.2625 24.4685 57.497 24.605 57.6611 24.878C57.8487 25.151 57.9425 25.5264 57.9425 26.0041C57.9425 26.8687 57.7197 27.5739 57.2742 28.12C56.1017 29.5305 54.9761 30.4974 53.8974 31.0207C52.8422 31.5212 51.529 31.7942 49.9578 31.8397C49.0198 32.6132 47.906 33 46.6162 33Z" fill="#E2F3EB"/>
<path d="M46.6162 33C45.3968 33 44.4588 32.727 43.8022 32.181C43.1691 31.635 42.8525 31.0207 42.8525 30.3382C42.8525 29.7466 43.0753 29.2347 43.5208 28.8025C43.9664 28.3702 44.623 28.1541 45.4906 28.1541C45.7955 28.1541 46.1472 28.1882 46.5459 28.2565C46.968 28.302 47.2846 28.3361 47.4956 28.3588C47.4722 27.7673 47.3314 27.2099 47.0735 26.6867C46.839 26.1634 46.5342 25.6629 46.159 25.1851C45.7838 24.6846 45.432 24.2523 45.1037 23.8883C44.3768 25.2306 43.6498 26.3454 42.9229 27.2327C42.2194 28.12 41.4455 28.9617 40.6013 29.758C40.1792 30.1675 39.7337 30.3723 39.2647 30.3723C38.8895 30.3723 38.5846 30.2472 38.3502 29.9969C38.1157 29.7239 37.9984 29.394 37.9984 29.0072C37.9984 28.5522 38.1626 28.1313 38.4908 27.7446L38.9481 27.1986C40.2379 25.6515 41.211 24.3775 41.8676 23.3764C42.2663 22.7166 42.7353 21.8407 43.2746 20.7487C43.814 19.6339 44.3416 18.485 44.8575 17.302C45.303 16.3009 46.2293 15.8004 47.6363 15.8004C48.2929 15.8004 48.7502 15.8573 49.0081 15.971C49.2661 16.0848 49.395 16.2668 49.395 16.5171C49.395 16.6536 49.3481 16.8697 49.2543 17.1655C49.1605 17.4612 49.0316 17.757 48.8674 18.0527C48.4453 18.8718 48.2343 19.5657 48.2343 20.1344C48.2343 20.4757 48.3515 20.8511 48.586 21.2606C48.844 21.6701 49.2309 22.182 49.7468 22.7963C50.4972 23.7518 51.06 24.5708 51.4352 25.2534C51.8338 25.9131 52.0331 26.6412 52.0331 27.4374C52.0331 27.6649 52.0097 27.9834 51.9628 28.393C53.1118 27.9607 54.4602 26.8118 56.0079 24.9462C56.2893 24.6277 56.6059 24.4685 56.9576 24.4685C57.2625 24.4685 57.497 24.605 57.6611 24.878C57.8487 25.151 57.9425 25.5264 57.9425 26.0041C57.9425 26.8687 57.7197 27.5739 57.2742 28.12C56.1017 29.5305 54.9761 30.4974 53.8974 31.0207C52.8422 31.5212 51.529 31.7942 49.9578 31.8397C49.0198 32.6132 47.906 33 46.6162 33Z" fill="#E76D6D"/>
<path d="M74.6068 24.4685C74.9117 24.4685 75.1462 24.605 75.3103 24.878C75.4979 25.151 75.5918 25.5264 75.5918 26.0041C75.5918 26.9142 75.369 27.6194 74.9234 28.12C73.8447 29.3257 72.7309 30.3154 71.5818 31.0889C70.4562 31.8625 69.1665 32.2492 67.7126 32.2492C66.5166 32.2492 65.6138 31.9193 65.0041 31.2596C64.3944 30.577 64.0896 29.5988 64.0896 28.3247C64.0896 27.6877 64.2537 26.5502 64.582 24.9121C64.8869 23.4788 65.0393 22.4891 65.0393 21.9431C65.0393 21.5791 64.9103 21.3971 64.6524 21.3971C64.3475 21.3971 63.9137 21.7839 63.3509 22.5574C62.7881 23.3082 62.2253 24.3092 61.6625 25.5605C61.0997 26.8118 60.6425 28.1313 60.2907 29.5191C59.8452 31.3392 58.743 32.2492 56.9843 32.2492C56.2808 32.2492 55.8118 32.0103 55.5773 31.5326C55.3662 31.0321 55.2607 30.1448 55.2607 28.8707C55.2607 28.1427 55.2724 27.5626 55.2959 27.1303L55.3311 24.4002C55.3311 20.8966 55.6945 17.2451 56.4215 13.4457C57.1719 9.64633 58.2623 6.46122 59.6927 3.89038C61.1466 1.29679 62.8819 0 64.8986 0C65.9773 0 66.8449 0.455016 67.5015 1.36505C68.1816 2.25233 68.5216 3.41262 68.5216 4.84592C68.5216 7.14374 67.8298 9.53258 66.4463 12.0124C65.0628 14.4695 62.8116 17.3475 59.6927 20.6463C59.6224 21.8294 59.5872 23.0465 59.5872 24.2978C60.3611 22.364 61.217 20.7942 62.155 19.5884C63.1164 18.3599 64.0544 17.484 64.969 16.9607C65.907 16.4374 66.7629 16.1758 67.5367 16.1758C69.061 16.1758 69.8231 16.9152 69.8231 18.394C69.8231 19.2813 69.5651 20.8852 69.0492 23.2058C68.6037 25.1851 68.3809 26.4933 68.3809 27.1303C68.3809 28.0403 68.7209 28.4953 69.401 28.4953C69.87 28.4953 70.4211 28.2223 71.0542 27.6763C71.7108 27.1075 72.5784 26.1975 73.6571 24.9462C73.9385 24.6277 74.2551 24.4685 74.6068 24.4685ZM64.1599 3.37849C63.7378 3.37849 63.2688 3.97001 62.7529 5.15305C62.237 6.31334 61.7329 7.89452 61.2404 9.89659C60.7714 11.8759 60.3845 14.0372 60.0797 16.3806C61.5336 14.7198 62.7295 12.9111 63.6675 10.9545C64.6289 8.99793 65.1097 7.22337 65.1097 5.63082C65.1097 4.90279 65.0276 4.3454 64.8634 3.95863C64.6993 3.57187 64.4648 3.37849 64.1599 3.37849Z" fill="#E2F3EB"/>
<path d="M74.6068 24.4685C74.9117 24.4685 75.1462 24.605 75.3103 24.878C75.4979 25.151 75.5918 25.5264 75.5918 26.0041C75.5918 26.9142 75.369 27.6194 74.9234 28.12C73.8447 29.3257 72.7309 30.3154 71.5818 31.0889C70.4562 31.8625 69.1665 32.2492 67.7126 32.2492C66.5166 32.2492 65.6138 31.9193 65.0041 31.2596C64.3944 30.577 64.0896 29.5988 64.0896 28.3247C64.0896 27.6877 64.2537 26.5502 64.582 24.9121C64.8869 23.4788 65.0393 22.4891 65.0393 21.9431C65.0393 21.5791 64.9103 21.3971 64.6524 21.3971C64.3475 21.3971 63.9137 21.7839 63.3509 22.5574C62.7881 23.3082 62.2253 24.3092 61.6625 25.5605C61.0997 26.8118 60.6425 28.1313 60.2907 29.5191C59.8452 31.3392 58.743 32.2492 56.9843 32.2492C56.2808 32.2492 55.8118 32.0103 55.5773 31.5326C55.3662 31.0321 55.2607 30.1448 55.2607 28.8707C55.2607 28.1427 55.2724 27.5626 55.2959 27.1303L55.3311 24.4002C55.3311 20.8966 55.6945 17.2451 56.4215 13.4457C57.1719 9.64633 58.2623 6.46122 59.6927 3.89038C61.1466 1.29679 62.8819 0 64.8986 0C65.9773 0 66.8449 0.455016 67.5015 1.36505C68.1816 2.25233 68.5216 3.41262 68.5216 4.84592C68.5216 7.14374 67.8298 9.53258 66.4463 12.0124C65.0628 14.4695 62.8116 17.3475 59.6927 20.6463C59.6224 21.8294 59.5872 23.0465 59.5872 24.2978C60.3611 22.364 61.217 20.7942 62.155 19.5884C63.1164 18.3599 64.0544 17.484 64.969 16.9607C65.907 16.4374 66.7629 16.1758 67.5367 16.1758C69.061 16.1758 69.8231 16.9152 69.8231 18.394C69.8231 19.2813 69.5651 20.8852 69.0492 23.2058C68.6037 25.1851 68.3809 26.4933 68.3809 27.1303C68.3809 28.0403 68.7209 28.4953 69.401 28.4953C69.87 28.4953 70.4211 28.2223 71.0542 27.6763C71.7108 27.1075 72.5784 26.1975 73.6571 24.9462C73.9385 24.6277 74.2551 24.4685 74.6068 24.4685ZM64.1599 3.37849C63.7378 3.37849 63.2688 3.97001 62.7529 5.15305C62.237 6.31334 61.7329 7.89452 61.2404 9.89659C60.7714 11.8759 60.3845 14.0372 60.0797 16.3806C61.5336 14.7198 62.7295 12.9111 63.6675 10.9545C64.6289 8.99793 65.1097 7.22337 65.1097 5.63082C65.1097 4.90279 65.0276 4.3454 64.8634 3.95863C64.6993 3.57187 64.4648 3.37849 64.1599 3.37849Z" fill="#E76D6D"/>
<path d="M79.2131 32.2492C78.3455 32.2492 77.724 32.0672 77.3488 31.7032C76.9736 31.3164 76.786 30.5998 76.786 29.5533C76.786 28.848 76.8564 27.9493 76.9971 26.8573C77.1612 25.7425 77.4192 24.2182 77.7709 22.2844C78.3806 18.7125 78.8614 15.6184 79.2131 13.0021C79.4241 11.364 79.5297 9.99897 79.5297 8.90693C79.5297 7.88314 79.1428 7.37125 78.3689 7.37125C77.7592 7.37125 77.0205 7.67839 76.1529 8.29266C75.3087 8.88418 74.3707 9.83971 73.3389 11.1593C73.0106 11.5915 72.6471 11.8077 72.2485 11.8077C71.9202 11.8077 71.6271 11.6598 71.3691 11.364C71.1346 11.0455 71.0174 10.6929 71.0174 10.3061C71.0174 9.94209 71.0877 9.57808 71.2284 9.21406C71.3926 8.8273 71.6505 8.39504 72.0023 7.91727C73.1279 6.39297 74.3824 5.2213 75.766 4.40227C77.1495 3.5605 78.5331 3.13961 79.9166 3.13961C81.2063 3.13961 82.1912 3.53775 82.8713 4.33402C83.5748 5.1303 83.9265 6.29059 83.9265 7.81489C83.9265 8.42916 83.8679 9.15719 83.7507 9.99897C83.6334 10.818 83.5279 11.4891 83.4341 12.0124C83.3403 12.5357 83.2699 12.8997 83.223 13.1044C84.5597 9.39607 86.0605 6.81386 87.7254 5.35781C89.3903 3.87901 91.2194 3.13961 93.2127 3.13961C94.7369 3.13961 95.9329 3.66287 96.8005 4.70941C97.6916 5.75595 98.1372 7.23475 98.1372 9.14581C98.1372 9.89659 98.0316 10.8294 97.8206 11.9442C98.9931 8.80455 100.365 6.55222 101.936 5.18718C103.507 3.82213 105.313 3.13961 107.353 3.13961C108.994 3.13961 110.249 3.6515 111.117 4.67528C112.008 5.69907 112.453 7.13237 112.453 8.97518C112.453 9.97622 112.301 11.1934 111.996 12.6267L109.85 22.3868C109.616 23.5243 109.499 24.5026 109.499 25.3216C109.499 26.2771 109.721 26.9938 110.167 27.4716C110.636 27.9493 111.281 28.1882 112.102 28.1882C112.875 28.1882 113.626 27.938 114.353 27.4374C115.103 26.9369 115.982 26.1065 116.991 24.9462C117.272 24.6277 117.589 24.4685 117.941 24.4685C118.245 24.4685 118.48 24.605 118.644 24.878C118.832 25.151 118.925 25.5264 118.925 26.0041C118.925 26.8914 118.703 27.5967 118.257 28.12C117.038 29.5533 115.83 30.5998 114.634 31.2596C113.438 31.9193 112.184 32.2492 110.87 32.2492C108.877 32.2492 107.318 31.6805 106.192 30.5429C105.067 29.3826 104.504 27.8356 104.504 25.9018C104.504 24.5595 104.785 22.6143 105.348 20.0662L106.755 13.8211C106.802 13.6163 106.884 13.2523 107.001 12.7291C107.118 12.2058 107.212 11.7166 107.283 11.2616C107.353 10.7839 107.388 10.3175 107.388 9.86246C107.388 9.06618 107.224 8.47466 106.896 8.0879C106.591 7.67839 106.145 7.47363 105.559 7.47363C104.457 7.47363 103.296 8.16753 102.077 9.55533C100.881 10.9204 99.7317 13.1954 98.6296 16.3806C97.5509 19.5657 96.6715 23.7063 95.9915 28.8025C95.8273 30.1675 95.5342 31.0889 95.1121 31.5667C94.7135 32.0217 94.0569 32.2492 93.1423 32.2492C92.345 32.2492 91.7588 32.0672 91.3836 31.7032C91.0318 31.3392 90.856 30.6567 90.856 29.6556C90.856 28.7229 90.9849 27.5057 91.2429 26.0041C91.5008 24.4798 91.8291 22.6939 92.2278 20.6463C93.3065 15.1406 93.8458 11.5915 93.8458 9.99897C93.8458 9.13444 93.67 8.49741 93.3182 8.0879C92.9899 7.67839 92.4857 7.47363 91.8057 7.47363C90.6566 7.47363 89.4724 8.11065 88.253 9.3847C87.0336 10.636 85.8377 12.8769 84.6652 16.1075C83.5162 19.3154 82.5547 23.6608 81.7809 29.1437C81.6167 30.304 81.3705 31.1117 81.0422 31.5667C80.7373 32.0217 80.1276 32.2492 79.2131 32.2492Z" fill="#E2F3EB"/>
<path d="M79.2131 32.2492C78.3455 32.2492 77.724 32.0672 77.3488 31.7032C76.9736 31.3164 76.786 30.5998 76.786 29.5533C76.786 28.848 76.8564 27.9493 76.9971 26.8573C77.1612 25.7425 77.4192 24.2182 77.7709 22.2844C78.3806 18.7125 78.8614 15.6184 79.2131 13.0021C79.4241 11.364 79.5297 9.99897 79.5297 8.90693C79.5297 7.88314 79.1428 7.37125 78.3689 7.37125C77.7592 7.37125 77.0205 7.67839 76.1529 8.29266C75.3087 8.88418 74.3707 9.83971 73.3389 11.1593C73.0106 11.5915 72.6471 11.8077 72.2485 11.8077C71.9202 11.8077 71.6271 11.6598 71.3691 11.364C71.1346 11.0455 71.0174 10.6929 71.0174 10.3061C71.0174 9.94209 71.0877 9.57808 71.2284 9.21406C71.3926 8.8273 71.6505 8.39504 72.0023 7.91727C73.1279 6.39297 74.3824 5.2213 75.766 4.40227C77.1495 3.5605 78.5331 3.13961 79.9166 3.13961C81.2063 3.13961 82.1912 3.53775 82.8713 4.33402C83.5748 5.1303 83.9265 6.29059 83.9265 7.81489C83.9265 8.42916 83.8679 9.15719 83.7507 9.99897C83.6334 10.818 83.5279 11.4891 83.4341 12.0124C83.3403 12.5357 83.2699 12.8997 83.223 13.1044C84.5597 9.39607 86.0605 6.81386 87.7254 5.35781C89.3903 3.87901 91.2194 3.13961 93.2127 3.13961C94.7369 3.13961 95.9329 3.66287 96.8005 4.70941C97.6916 5.75595 98.1372 7.23475 98.1372 9.14581C98.1372 9.89659 98.0316 10.8294 97.8206 11.9442C98.9931 8.80455 100.365 6.55222 101.936 5.18718C103.507 3.82213 105.313 3.13961 107.353 3.13961C108.994 3.13961 110.249 3.6515 111.117 4.67528C112.008 5.69907 112.453 7.13237 112.453 8.97518C112.453 9.97622 112.301 11.1934 111.996 12.6267L109.85 22.3868C109.616 23.5243 109.499 24.5026 109.499 25.3216C109.499 26.2771 109.721 26.9938 110.167 27.4716C110.636 27.9493 111.281 28.1882 112.102 28.1882C112.875 28.1882 113.626 27.938 114.353 27.4374C115.103 26.9369 115.982 26.1065 116.991 24.9462C117.272 24.6277 117.589 24.4685 117.941 24.4685C118.245 24.4685 118.48 24.605 118.644 24.878C118.832 25.151 118.925 25.5264 118.925 26.0041C118.925 26.8914 118.703 27.5967 118.257 28.12C117.038 29.5533 115.83 30.5998 114.634 31.2596C113.438 31.9193 112.184 32.2492 110.87 32.2492C108.877 32.2492 107.318 31.6805 106.192 30.5429C105.067 29.3826 104.504 27.8356 104.504 25.9018C104.504 24.5595 104.785 22.6143 105.348 20.0662L106.755 13.8211C106.802 13.6163 106.884 13.2523 107.001 12.7291C107.118 12.2058 107.212 11.7166 107.283 11.2616C107.353 10.7839 107.388 10.3175 107.388 9.86246C107.388 9.06618 107.224 8.47466 106.896 8.0879C106.591 7.67839 106.145 7.47363 105.559 7.47363C104.457 7.47363 103.296 8.16753 102.077 9.55533C100.881 10.9204 99.7317 13.1954 98.6296 16.3806C97.5509 19.5657 96.6715 23.7063 95.9915 28.8025C95.8273 30.1675 95.5342 31.0889 95.1121 31.5667C94.7135 32.0217 94.0569 32.2492 93.1423 32.2492C92.345 32.2492 91.7588 32.0672 91.3836 31.7032C91.0318 31.3392 90.856 30.6567 90.856 29.6556C90.856 28.7229 90.9849 27.5057 91.2429 26.0041C91.5008 24.4798 91.8291 22.6939 92.2278 20.6463C93.3065 15.1406 93.8458 11.5915 93.8458 9.99897C93.8458 9.13444 93.67 8.49741 93.3182 8.0879C92.9899 7.67839 92.4857 7.47363 91.8057 7.47363C90.6566 7.47363 89.4724 8.11065 88.253 9.3847C87.0336 10.636 85.8377 12.8769 84.6652 16.1075C83.5162 19.3154 82.5547 23.6608 81.7809 29.1437C81.6167 30.304 81.3705 31.1117 81.0422 31.5667C80.7373 32.0217 80.1276 32.2492 79.2131 32.2492Z" fill="#E76D6D"/>
<path d="M120.418 32.2492C118.964 32.2492 117.803 31.7373 116.935 30.7135C116.068 29.6898 115.634 28.3475 115.634 26.6867C115.634 24.8666 116.068 23.1489 116.935 21.5336C117.803 19.8956 118.952 18.5874 120.382 17.6091C121.836 16.6081 123.372 16.1075 124.99 16.1075C125.506 16.1075 125.846 16.2099 126.01 16.4147C126.198 16.5967 126.35 16.938 126.468 17.4385C126.96 17.3475 127.476 17.302 128.015 17.302C129.164 17.302 129.739 17.7001 129.739 18.4964C129.739 18.9741 129.563 20.1117 129.211 21.909C128.672 24.5253 128.402 26.3454 128.402 27.3692C128.402 27.7104 128.484 27.9835 128.649 28.1882C128.836 28.393 129.071 28.4953 129.352 28.4953C129.798 28.4953 130.337 28.2223 130.97 27.6763C131.603 27.1075 132.459 26.1975 133.538 24.9462C133.819 24.6277 134.136 24.4685 134.488 24.4685C134.792 24.4685 135.027 24.605 135.191 24.878C135.379 25.151 135.472 25.5264 135.472 26.0041C135.472 26.9142 135.25 27.6194 134.804 28.12C133.843 29.2802 132.823 30.2585 131.744 31.0548C130.665 31.8511 129.622 32.2492 128.613 32.2492C127.84 32.2492 127.124 31.999 126.468 31.4984C125.835 30.9752 125.354 30.2699 125.026 29.3826C123.806 31.2937 122.27 32.2492 120.418 32.2492ZM121.684 28.8025C122.2 28.8025 122.692 28.5067 123.161 27.9152C123.63 27.3237 123.97 26.5388 124.181 25.5605L125.483 19.2813C124.498 19.304 123.583 19.668 122.739 20.3733C121.918 21.0558 121.262 21.9659 120.769 23.1034C120.277 24.241 120.031 25.4467 120.031 26.7208C120.031 27.4261 120.171 27.9493 120.453 28.2906C120.758 28.6319 121.168 28.8025 121.684 28.8025Z" fill="#E2F3EB"/>
<path d="M120.418 32.2492C118.964 32.2492 117.803 31.7373 116.935 30.7135C116.068 29.6898 115.634 28.3475 115.634 26.6867C115.634 24.8666 116.068 23.1489 116.935 21.5336C117.803 19.8956 118.952 18.5874 120.382 17.6091C121.836 16.6081 123.372 16.1075 124.99 16.1075C125.506 16.1075 125.846 16.2099 126.01 16.4147C126.198 16.5967 126.35 16.938 126.468 17.4385C126.96 17.3475 127.476 17.302 128.015 17.302C129.164 17.302 129.739 17.7001 129.739 18.4964C129.739 18.9741 129.563 20.1117 129.211 21.909C128.672 24.5253 128.402 26.3454 128.402 27.3692C128.402 27.7104 128.484 27.9835 128.649 28.1882C128.836 28.393 129.071 28.4953 129.352 28.4953C129.798 28.4953 130.337 28.2223 130.97 27.6763C131.603 27.1075 132.459 26.1975 133.538 24.9462C133.819 24.6277 134.136 24.4685 134.488 24.4685C134.792 24.4685 135.027 24.605 135.191 24.878C135.379 25.151 135.472 25.5264 135.472 26.0041C135.472 26.9142 135.25 27.6194 134.804 28.12C133.843 29.2802 132.823 30.2585 131.744 31.0548C130.665 31.8511 129.622 32.2492 128.613 32.2492C127.84 32.2492 127.124 31.999 126.468 31.4984C125.835 30.9752 125.354 30.2699 125.026 29.3826C123.806 31.2937 122.27 32.2492 120.418 32.2492ZM121.684 28.8025C122.2 28.8025 122.692 28.5067 123.161 27.9152C123.63 27.3237 123.97 26.5388 124.181 25.5605L125.483 19.2813C124.498 19.304 123.583 19.668 122.739 20.3733C121.918 21.0558 121.262 21.9659 120.769 23.1034C120.277 24.241 120.031 25.4467 120.031 26.7208C120.031 27.4261 120.171 27.9493 120.453 28.2906C120.758 28.6319 121.168 28.8025 121.684 28.8025Z" fill="#E76D6D"/>
<path d="M148.302 24.4685C148.606 24.4685 148.841 24.605 149.005 24.878C149.193 25.151 149.287 25.5264 149.287 26.0041C149.287 26.9142 149.064 27.6194 148.618 28.12C147.61 29.3257 146.508 30.3154 145.312 31.0889C144.116 31.8625 142.744 32.2492 141.196 32.2492C136.413 32.2492 134.021 28.9845 134.021 22.455C134.021 21.454 134.056 20.4416 134.126 19.4178H132.754C132.051 19.4178 131.57 19.2927 131.312 19.0424C131.078 18.7921 130.96 18.394 130.96 17.848C130.96 16.5739 131.488 15.9369 132.543 15.9369H134.548C134.947 13.4343 135.557 11.1479 136.377 9.07756C137.198 7.00724 138.183 5.35781 139.332 4.12927C140.505 2.90072 141.759 2.28645 143.096 2.28645C144.081 2.28645 144.855 2.70734 145.417 3.54912C145.98 4.3909 146.261 5.44881 146.261 6.72285C146.261 10.2492 144.737 13.3206 141.689 15.9369H145.628C146.004 15.9369 146.273 16.0165 146.437 16.1758C146.602 16.3351 146.684 16.6308 146.684 17.0631C146.684 18.6329 145.359 19.4178 142.709 19.4178H138.418C138.371 20.5553 138.347 21.4426 138.347 22.0796C138.347 24.4457 138.629 26.1065 139.191 27.062C139.778 28.0176 140.692 28.4953 141.935 28.4953C142.943 28.4953 143.834 28.1996 144.608 27.6081C145.382 27.0165 146.297 26.1293 147.352 24.9462C147.633 24.6277 147.95 24.4685 148.302 24.4685ZM142.146 5.56257C141.794 5.56257 141.396 5.99483 140.95 6.85936C140.528 7.70114 140.118 8.88418 139.719 10.4085C139.344 11.91 139.027 13.5822 138.769 15.425C140.153 14.2647 141.185 12.9679 141.865 11.5346C142.568 10.0786 142.92 8.75905 142.92 7.57601C142.92 6.23371 142.662 5.56257 142.146 5.56257Z" fill="#E2F3EB"/>
<path d="M148.302 24.4685C148.606 24.4685 148.841 24.605 149.005 24.878C149.193 25.151 149.287 25.5264 149.287 26.0041C149.287 26.9142 149.064 27.6194 148.618 28.12C147.61 29.3257 146.508 30.3154 145.312 31.0889C144.116 31.8625 142.744 32.2492 141.196 32.2492C136.413 32.2492 134.021 28.9845 134.021 22.455C134.021 21.454 134.056 20.4416 134.126 19.4178H132.754C132.051 19.4178 131.57 19.2927 131.312 19.0424C131.078 18.7921 130.96 18.394 130.96 17.848C130.96 16.5739 131.488 15.9369 132.543 15.9369H134.548C134.947 13.4343 135.557 11.1479 136.377 9.07756C137.198 7.00724 138.183 5.35781 139.332 4.12927C140.505 2.90072 141.759 2.28645 143.096 2.28645C144.081 2.28645 144.855 2.70734 145.417 3.54912C145.98 4.3909 146.261 5.44881 146.261 6.72285C146.261 10.2492 144.737 13.3206 141.689 15.9369H145.628C146.004 15.9369 146.273 16.0165 146.437 16.1758C146.602 16.3351 146.684 16.6308 146.684 17.0631C146.684 18.6329 145.359 19.4178 142.709 19.4178H138.418C138.371 20.5553 138.347 21.4426 138.347 22.0796C138.347 24.4457 138.629 26.1065 139.191 27.062C139.778 28.0176 140.692 28.4953 141.935 28.4953C142.943 28.4953 143.834 28.1996 144.608 27.6081C145.382 27.0165 146.297 26.1293 147.352 24.9462C147.633 24.6277 147.95 24.4685 148.302 24.4685ZM142.146 5.56257C141.794 5.56257 141.396 5.99483 140.95 6.85936C140.528 7.70114 140.118 8.88418 139.719 10.4085C139.344 11.91 139.027 13.5822 138.769 15.425C140.153 14.2647 141.185 12.9679 141.865 11.5346C142.568 10.0786 142.92 8.75905 142.92 7.57601C142.92 6.23371 142.662 5.56257 142.146 5.56257Z" fill="#E76D6D"/>
<path d="M159.015 25.4922C159.32 25.4922 159.554 25.6287 159.719 25.9018C159.906 26.1748 160 26.5502 160 27.0279C160 27.8469 159.801 28.5522 159.402 29.1437C158.745 30.122 157.878 30.8842 156.799 31.4302C155.744 31.9762 154.478 32.2492 153 32.2492C150.749 32.2492 149.002 31.6008 147.759 30.304C146.516 28.9845 145.895 27.2099 145.895 24.9804C145.895 23.4105 146.235 21.9545 146.915 20.6122C147.595 19.2472 148.533 18.1665 149.729 17.3702C150.948 16.5739 152.32 16.1758 153.844 16.1758C155.205 16.1758 156.295 16.5739 157.116 17.3702C157.936 18.1437 158.347 19.2017 158.347 20.5439C158.347 22.1138 157.761 23.4674 156.588 24.605C155.439 25.7197 153.469 26.607 150.679 27.2668C151.241 28.3133 152.191 28.8366 153.528 28.8366C154.489 28.8366 155.275 28.6205 155.885 28.1882C156.518 27.7559 157.245 27.0279 158.065 26.0041C158.347 25.6629 158.663 25.4922 159.015 25.4922ZM153.246 19.5202C152.379 19.5202 151.64 20.0093 151.03 20.9876C150.444 21.9659 150.151 23.1489 150.151 24.5367V24.605C151.535 24.2865 152.625 23.8087 153.422 23.1717C154.22 22.5346 154.618 21.7952 154.618 20.9535C154.618 20.5212 154.489 20.1799 154.231 19.9297C153.997 19.6567 153.669 19.5202 153.246 19.5202Z" fill="#E2F3EB"/>
<path d="M159.015 25.4922C159.32 25.4922 159.554 25.6287 159.719 25.9018C159.906 26.1748 160 26.5502 160 27.0279C160 27.8469 159.801 28.5522 159.402 29.1437C158.745 30.122 157.878 30.8842 156.799 31.4302C155.744 31.9762 154.478 32.2492 153 32.2492C150.749 32.2492 149.002 31.6008 147.759 30.304C146.516 28.9845 145.895 27.2099 145.895 24.9804C145.895 23.4105 146.235 21.9545 146.915 20.6122C147.595 19.2472 148.533 18.1665 149.729 17.3702C150.948 16.5739 152.32 16.1758 153.844 16.1758C155.205 16.1758 156.295 16.5739 157.116 17.3702C157.936 18.1437 158.347 19.2017 158.347 20.5439C158.347 22.1138 157.761 23.4674 156.588 24.605C155.439 25.7197 153.469 26.607 150.679 27.2668C151.241 28.3133 152.191 28.8366 153.528 28.8366C154.489 28.8366 155.275 28.6205 155.885 28.1882C156.518 27.7559 157.245 27.0279 158.065 26.0041C158.347 25.6629 158.663 25.4922 159.015 25.4922ZM153.246 19.5202C152.379 19.5202 151.64 20.0093 151.03 20.9876C150.444 21.9659 150.151 23.1489 150.151 24.5367V24.605C151.535 24.2865 152.625 23.8087 153.422 23.1717C154.22 22.5346 154.618 21.7952 154.618 20.9535C154.618 20.5212 154.489 20.1799 154.231 19.9297C153.997 19.6567 153.669 19.5202 153.246 19.5202Z" fill="#E76D6D"/>
</g>
</svg>
