<svg width="330" height="331" viewBox="0 0 330 331" fill="none" xmlns="http://www.w3.org/2000/svg">
<path d="M290.405 51.0948C270.844 6.49316 223.892 -10.3003 186.845 19.6464C172.379 31.3295 163.354 49.9234 145.64 57.3845C129.02 64.3818 107.965 62.3219 89.9923 66.1114C51.7197 74.1308 0.191497 104.557 4.12254 151.439C5.84434 171.975 19.6974 194.782 26.5452 213.997C34.4073 236.106 39.1246 263.764 59.9356 276.981C95.6137 299.671 138.651 281.124 170.791 262.829C188.088 252.993 197.609 246.947 216.234 250.32C233.476 253.465 249.003 264.472 265.852 251.413C278.502 241.609 279.547 221.742 290.169 210.074C302.135 196.929 314.266 195.978 320.485 176.22C328.025 152.249 316.916 137.271 309.408 115.855C301.899 94.4386 299.619 72.0788 290.405 51.0948Z" fill="#EBDDCB"/>
<g opacity="0.7">
<path d="M290.405 51.0948C270.844 6.49316 223.892 -10.3003 186.845 19.6464C172.379 31.3295 163.354 49.9234 145.64 57.3845C129.02 64.3818 107.965 62.3219 89.9923 66.1114C51.7197 74.1308 0.191497 104.557 4.12254 151.439C5.84434 171.975 19.6974 194.782 26.5452 213.997C34.4073 236.106 39.1246 263.764 59.9356 276.981C95.6137 299.671 138.651 281.124 170.791 262.829C188.088 252.993 197.609 246.947 216.234 250.32C233.476 253.465 249.003 264.472 265.852 251.413C278.502 241.609 279.547 221.742 290.169 210.074C302.135 196.929 314.266 195.978 320.485 176.22C328.025 152.249 316.916 137.271 309.408 115.855C301.899 94.4386 299.619 72.0788 290.405 51.0948Z" fill="white"/>
</g>
<path d="M141.56 314.224C208.68 314.224 263.092 310.834 263.092 306.652C263.092 302.471 208.68 299.081 141.56 299.081C74.4393 299.081 20.0275 302.471 20.0275 306.652C20.0275 310.834 74.4393 314.224 141.56 314.224Z" fill="#EBDDCB"/>
<path opacity="0.8" d="M141.56 314.224C208.68 314.224 263.092 310.834 263.092 306.652C263.092 302.471 208.68 299.081 141.56 299.081C74.4393 299.081 20.0275 302.471 20.0275 306.652C20.0275 310.834 74.4393 314.224 141.56 314.224Z" fill="white"/>
<path d="M232.886 18.7503H110.685C102.248 18.7503 95.4091 25.5896 95.4091 34.0263V292.013C95.4091 300.45 102.248 307.289 110.685 307.289H232.886C241.322 307.289 248.162 300.45 248.162 292.013V34.0263C248.162 25.5896 241.322 18.7503 232.886 18.7503Z" fill="#263238"/>
<path d="M241.369 50.4345H102.194V275.605H241.369V50.4345Z" fill="white" stroke="#263238" stroke-width="1.33739" stroke-miterlimit="10"/>
<path d="M193.117 141.613C204.898 129.832 204.898 110.731 193.117 98.9501C181.336 87.1693 162.235 87.1693 150.454 98.9501C138.673 110.731 138.673 129.832 150.454 141.613C162.235 153.393 181.336 153.393 193.117 141.613Z" fill="#EBDDCB"/>
<path d="M211.391 261.445H132.188C132.01 261.446 131.833 261.412 131.668 261.345C131.503 261.277 131.353 261.178 131.227 261.052C131.1 260.926 131 260.777 130.931 260.612C130.863 260.448 130.828 260.271 130.828 260.093C130.827 259.914 130.861 259.737 130.929 259.571C130.997 259.406 131.097 259.255 131.224 259.129C131.35 259.002 131.501 258.902 131.666 258.834C131.832 258.766 132.009 258.732 132.188 258.733H211.391C211.569 258.733 211.745 258.768 211.91 258.836C212.074 258.905 212.224 259.005 212.35 259.132C212.475 259.258 212.575 259.408 212.642 259.573C212.71 259.738 212.744 259.915 212.743 260.093C212.743 260.452 212.6 260.796 212.347 261.049C212.093 261.303 211.749 261.445 211.391 261.445Z" fill="#EBDDCB"/>
<path d="M213.97 167.407H129.601C127.86 167.407 126.449 168.818 126.449 170.559V180.505C126.449 182.246 127.86 183.658 129.601 183.658H213.97C215.711 183.658 217.122 182.246 217.122 180.505V170.559C217.122 168.818 215.711 167.407 213.97 167.407Z" fill="#EBDDCB"/>
<path d="M213.97 197.802H129.601C127.86 197.802 126.449 199.213 126.449 200.954V210.9C126.449 212.641 127.86 214.052 129.601 214.052H213.97C215.711 214.052 217.122 212.641 217.122 210.9V200.954C217.122 199.213 215.711 197.802 213.97 197.802Z" fill="#EBDDCB"/>
<path d="M186.806 135.329L177.93 130.219V125.997C179.215 124.442 180.146 122.626 180.658 120.675C180.964 120.783 181.285 120.839 181.609 120.84C182.71 120.84 183.41 117.427 183.528 114.99C184.809 112.278 183.064 110.69 183.064 110.69C183.064 110.69 183.787 109.966 184.267 107.065C184.746 104.164 182.576 105.375 180.886 102.718C179.196 100.06 177.985 97.1669 172.434 97.1669C170.905 97.1166 169.396 97.5276 168.103 98.3464C166.81 99.1652 165.794 100.354 165.185 101.758C163.804 101.763 162.427 101.924 161.081 102.238C159.383 102.718 158.904 108.276 160.35 110.454C160.998 111.644 161.343 112.975 161.357 114.33C160.971 113.858 160.57 113.732 160.35 114.802C159.871 117.215 161.805 120.596 161.805 120.596L162.803 120.313C163.306 122.398 164.277 124.342 165.641 125.997V130.219L156.765 135.329C155.729 135.928 154.868 136.789 154.269 137.825C153.67 138.861 153.354 140.037 153.353 141.234V144.159C158.632 148.237 165.115 150.449 171.786 150.449C178.457 150.449 184.939 148.237 190.218 144.159V141.234C190.219 140.037 189.904 138.86 189.305 137.824C188.706 136.787 187.844 135.927 186.806 135.329Z" fill="#263238"/>
<path d="M137.935 210.011C137.732 210.009 137.537 209.927 137.393 209.783C137.315 209.714 137.253 209.629 137.211 209.535C137.169 209.44 137.148 209.337 137.149 209.233C137.151 209.091 137.192 208.953 137.267 208.832L138.682 206.568L135.922 206.654C135.818 206.661 135.714 206.645 135.617 206.609C135.519 206.572 135.43 206.515 135.356 206.442C135.228 206.298 135.157 206.112 135.157 205.919C135.157 205.726 135.228 205.54 135.356 205.396C135.429 205.32 135.517 205.261 135.615 205.223C135.713 205.185 135.818 205.169 135.922 205.176L138.643 205.278L137.243 203.022C137.167 202.899 137.126 202.758 137.125 202.613C137.124 202.509 137.146 202.407 137.188 202.312C137.23 202.217 137.292 202.132 137.369 202.063C137.513 201.92 137.708 201.838 137.911 201.835C138.045 201.836 138.176 201.875 138.289 201.947C138.402 202.019 138.492 202.122 138.548 202.244L139.893 204.673L141.221 202.259C141.284 202.131 141.381 202.022 141.502 201.944C141.623 201.866 141.762 201.823 141.905 201.819C142.005 201.82 142.103 201.841 142.194 201.882C142.284 201.922 142.366 201.981 142.432 202.055C142.576 202.205 142.656 202.405 142.652 202.613C142.652 202.748 142.617 202.881 142.55 202.998L141.127 205.278L143.887 205.176C143.991 205.169 144.096 205.185 144.194 205.223C144.292 205.261 144.38 205.32 144.453 205.396C144.587 205.536 144.66 205.722 144.657 205.915C144.657 206.11 144.584 206.298 144.453 206.442C144.379 206.515 144.29 206.572 144.192 206.609C144.095 206.645 143.991 206.661 143.887 206.654L141.111 206.568L142.495 208.809C142.573 208.934 142.613 209.078 142.613 209.225C142.613 209.434 142.53 209.634 142.383 209.781C142.235 209.929 142.035 210.011 141.827 210.011C141.692 210.01 141.561 209.969 141.449 209.893C141.337 209.818 141.25 209.711 141.198 209.587L139.885 207.228L138.58 209.587C138.522 209.71 138.431 209.815 138.317 209.89C138.203 209.965 138.071 210.007 137.935 210.011Z" fill="#263238"/>
<path d="M150.688 210.011C150.484 210.009 150.29 209.927 150.145 209.783C150.068 209.714 150.006 209.629 149.964 209.535C149.922 209.44 149.901 209.337 149.901 209.233C149.904 209.091 149.945 208.953 150.019 208.832L151.434 206.568L148.683 206.654C148.578 206.659 148.473 206.643 148.374 206.606C148.276 206.57 148.185 206.514 148.109 206.442C148.004 206.334 147.935 206.198 147.909 206.05C147.884 205.902 147.903 205.75 147.965 205.614C148.027 205.477 148.128 205.362 148.256 205.284C148.384 205.206 148.533 205.169 148.683 205.176L151.395 205.278L149.996 203.022C149.92 202.899 149.879 202.758 149.878 202.613C149.877 202.509 149.898 202.407 149.94 202.312C149.982 202.217 150.044 202.132 150.121 202.063C150.266 201.92 150.46 201.838 150.664 201.835C150.798 201.836 150.929 201.875 151.042 201.947C151.154 202.019 151.244 202.122 151.301 202.244L152.645 204.673L153.974 202.259C154.037 202.131 154.134 202.022 154.255 201.944C154.375 201.866 154.515 201.823 154.658 201.819C154.757 201.819 154.856 201.84 154.947 201.88C155.038 201.921 155.119 201.981 155.185 202.055C155.258 202.128 155.315 202.216 155.354 202.311C155.393 202.407 155.413 202.51 155.413 202.613C155.41 202.749 155.372 202.882 155.303 202.998L153.88 205.278L156.647 205.192C156.751 205.185 156.854 205.201 156.951 205.239C157.047 205.277 157.134 205.336 157.205 205.412C157.339 205.551 157.413 205.738 157.41 205.931C157.409 206.126 157.336 206.314 157.205 206.458C157.133 206.531 157.045 206.588 156.949 206.624C156.853 206.661 156.75 206.676 156.647 206.67L153.864 206.584L155.248 208.824C155.325 208.949 155.366 209.094 155.366 209.241C155.366 209.449 155.283 209.649 155.135 209.797C154.988 209.944 154.788 210.027 154.579 210.027C154.444 210.025 154.313 209.984 154.201 209.909C154.09 209.833 154.002 209.727 153.95 209.603L152.637 207.244L151.332 209.603C151.272 209.723 151.18 209.825 151.067 209.897C150.953 209.969 150.822 210.008 150.688 210.011Z" fill="#263238"/>
<path d="M163.448 210.011C163.242 210.011 163.044 209.929 162.897 209.783C162.82 209.714 162.758 209.629 162.716 209.535C162.674 209.44 162.653 209.337 162.654 209.233C162.656 209.091 162.697 208.953 162.772 208.832L164.187 206.568L161.435 206.654C161.287 206.66 161.14 206.622 161.014 206.544C160.888 206.467 160.787 206.353 160.726 206.218C160.664 206.083 160.644 205.933 160.668 205.787C160.692 205.64 160.76 205.504 160.861 205.396C160.935 205.321 161.025 205.262 161.124 205.224C161.223 205.186 161.329 205.17 161.435 205.176L164.148 205.278L162.748 203.022C162.672 202.899 162.631 202.758 162.63 202.613C162.633 202.51 162.655 202.408 162.697 202.314C162.739 202.219 162.799 202.134 162.874 202.063C163.02 201.918 163.218 201.836 163.424 201.835C163.557 201.837 163.686 201.877 163.797 201.949C163.909 202.021 163.997 202.123 164.053 202.244L165.398 204.673L166.726 202.259C166.789 202.131 166.886 202.022 167.007 201.944C167.128 201.866 167.267 201.823 167.41 201.819C167.51 201.819 167.608 201.84 167.699 201.88C167.79 201.921 167.871 201.981 167.937 202.055C168.01 202.128 168.068 202.216 168.107 202.311C168.146 202.407 168.166 202.51 168.165 202.613C168.162 202.749 168.124 202.882 168.055 202.998L166.632 205.278L169.399 205.176C169.501 205.166 169.604 205.178 169.701 205.211C169.798 205.244 169.886 205.297 169.961 205.367C170.035 205.437 170.094 205.522 170.133 205.617C170.171 205.711 170.19 205.813 170.186 205.915C170.187 206.109 170.117 206.297 169.989 206.442C169.915 206.515 169.826 206.572 169.729 206.609C169.631 206.645 169.527 206.661 169.423 206.654L166.648 206.568L168.024 208.809C168.101 208.934 168.142 209.078 168.141 209.225C168.139 209.329 168.116 209.43 168.074 209.525C168.033 209.619 167.973 209.704 167.898 209.776C167.829 209.849 167.747 209.908 167.655 209.949C167.563 209.989 167.464 210.011 167.363 210.011C167.229 210.009 167.099 209.968 166.989 209.892C166.879 209.817 166.793 209.711 166.742 209.587L165.421 207.228L164.116 209.587C164.057 209.714 163.963 209.822 163.844 209.897C163.726 209.973 163.588 210.012 163.448 210.011Z" fill="#263238"/>
<path d="M176.2 210.011C175.994 210.011 175.796 209.929 175.65 209.783C175.502 209.638 175.417 209.441 175.414 209.233C175.411 209.092 175.45 208.953 175.524 208.832L176.939 206.568L174.187 206.654C174.082 206.659 173.977 206.643 173.879 206.606C173.78 206.57 173.69 206.514 173.613 206.442C173.485 206.298 173.414 206.112 173.414 205.919C173.414 205.726 173.485 205.54 173.613 205.396C173.689 205.323 173.779 205.266 173.878 205.228C173.977 205.19 174.082 205.173 174.187 205.176L176.908 205.278L175.516 203.022C175.44 202.899 175.399 202.758 175.398 202.613C175.401 202.51 175.423 202.408 175.465 202.314C175.507 202.219 175.567 202.134 175.642 202.063C175.788 201.918 175.986 201.836 176.192 201.835C176.326 201.836 176.457 201.875 176.57 201.947C176.683 202.019 176.772 202.122 176.829 202.244L178.165 204.673L179.494 202.259C179.557 202.131 179.654 202.022 179.775 201.944C179.895 201.866 180.035 201.823 180.178 201.819C180.278 201.819 180.376 201.84 180.467 201.88C180.558 201.921 180.639 201.981 180.705 202.055C180.778 202.128 180.835 202.216 180.875 202.311C180.914 202.407 180.934 202.51 180.933 202.613C180.93 202.749 180.892 202.882 180.823 202.998L179.4 205.278L182.167 205.176C182.269 205.166 182.372 205.178 182.469 205.211C182.565 205.244 182.654 205.297 182.729 205.367C182.803 205.437 182.862 205.522 182.901 205.617C182.939 205.711 182.957 205.813 182.954 205.915C182.955 206.109 182.885 206.297 182.757 206.442C182.683 206.515 182.594 206.572 182.497 206.609C182.399 206.645 182.295 206.661 182.191 206.654L179.416 206.568L180.791 208.809C180.869 208.934 180.91 209.078 180.909 209.225C180.91 209.329 180.889 209.432 180.847 209.527C180.805 209.622 180.743 209.706 180.666 209.776C180.597 209.849 180.515 209.908 180.423 209.949C180.331 209.989 180.231 210.011 180.131 210.011C179.997 210.009 179.867 209.968 179.757 209.892C179.646 209.817 179.561 209.711 179.51 209.587L178.189 207.228L176.884 209.587C176.824 209.717 176.727 209.826 176.606 209.902C176.484 209.977 176.343 210.015 176.2 210.011Z" fill="#263238"/>
<path d="M188.952 210.011C188.746 210.011 188.549 209.929 188.402 209.783C188.28 209.66 188.203 209.5 188.181 209.328C188.16 209.156 188.196 208.982 188.284 208.832L189.691 206.568L186.94 206.654C186.835 206.659 186.73 206.643 186.631 206.606C186.533 206.57 186.442 206.514 186.366 206.442C186.238 206.298 186.167 206.112 186.167 205.919C186.167 205.726 186.238 205.54 186.366 205.396C186.442 205.323 186.532 205.266 186.63 205.228C186.729 205.19 186.834 205.173 186.94 205.176L189.66 205.278L188.261 203.022C188.184 202.899 188.144 202.758 188.143 202.613C188.146 202.406 188.23 202.208 188.378 202.063C188.525 201.918 188.723 201.836 188.929 201.835C189.063 201.836 189.194 201.875 189.306 201.947C189.419 202.019 189.509 202.122 189.566 202.244L190.902 204.673L192.231 202.259C192.294 202.131 192.391 202.022 192.512 201.944C192.632 201.866 192.772 201.823 192.915 201.819C193.016 201.819 193.115 201.839 193.207 201.88C193.3 201.921 193.382 201.98 193.45 202.055C193.594 202.205 193.673 202.405 193.67 202.613C193.667 202.749 193.629 202.882 193.56 202.998L192.137 205.278L194.904 205.176C195.006 205.166 195.109 205.178 195.205 205.211C195.302 205.244 195.391 205.297 195.465 205.367C195.54 205.437 195.598 205.522 195.637 205.617C195.676 205.711 195.694 205.813 195.69 205.915C195.692 206.109 195.622 206.297 195.494 206.442C195.42 206.515 195.331 206.572 195.233 206.609C195.136 206.645 195.032 206.661 194.928 206.654L192.152 206.568L193.528 208.809C193.606 208.934 193.647 209.078 193.646 209.225C193.647 209.329 193.626 209.432 193.583 209.527C193.541 209.622 193.48 209.706 193.402 209.776C193.334 209.849 193.251 209.908 193.159 209.949C193.067 209.989 192.968 210.011 192.868 210.011C192.734 210.009 192.604 209.968 192.494 209.892C192.383 209.817 192.297 209.711 192.247 209.587L190.926 207.228L189.621 209.587C189.562 209.714 189.467 209.822 189.349 209.897C189.23 209.973 189.093 210.012 188.952 210.011Z" fill="#263238"/>
<path d="M201.704 210.011C201.501 210.009 201.306 209.927 201.162 209.783C201.085 209.714 201.023 209.629 200.981 209.535C200.939 209.44 200.918 209.337 200.918 209.233C200.921 209.091 200.961 208.953 201.036 208.832L202.444 206.568L199.692 206.654C199.591 206.662 199.489 206.648 199.393 206.615C199.297 206.581 199.21 206.528 199.136 206.458C199.062 206.388 199.003 206.304 198.964 206.211C198.924 206.117 198.904 206.017 198.906 205.915C198.905 205.819 198.924 205.724 198.96 205.635C198.996 205.546 199.05 205.465 199.118 205.396C199.19 205.32 199.279 205.261 199.376 205.223C199.474 205.185 199.579 205.169 199.684 205.176L202.404 205.278L201.005 203.022C200.929 202.899 200.888 202.758 200.887 202.613C200.89 202.406 200.975 202.208 201.123 202.063C201.269 201.918 201.467 201.836 201.673 201.835C201.807 201.836 201.938 201.875 202.051 201.947C202.163 202.019 202.253 202.122 202.31 202.244L203.646 204.673L204.983 202.259C205.045 202.132 205.141 202.023 205.26 201.946C205.379 201.868 205.517 201.825 205.659 201.819C205.76 201.819 205.859 201.839 205.952 201.88C206.044 201.921 206.126 201.98 206.194 202.055C206.338 202.205 206.417 202.405 206.414 202.613C206.413 202.748 206.378 202.881 206.312 202.998L204.889 205.278L207.648 205.176C207.753 205.169 207.858 205.185 207.956 205.223C208.054 205.261 208.142 205.32 208.214 205.396C208.348 205.536 208.422 205.722 208.419 205.915C208.418 206.11 208.345 206.298 208.214 206.442C208.14 206.515 208.052 206.572 207.954 206.609C207.856 206.645 207.752 206.661 207.648 206.654L204.873 206.568L206.249 208.809C206.326 208.934 206.367 209.078 206.367 209.225C206.364 209.433 206.279 209.63 206.131 209.776C205.988 209.922 205.793 210.006 205.588 210.011C205.455 210.009 205.325 209.968 205.214 209.892C205.104 209.817 205.018 209.711 204.967 209.587L203.646 207.228L202.341 209.587C202.285 209.71 202.195 209.814 202.083 209.889C201.97 209.964 201.839 210.006 201.704 210.011Z" fill="#263238"/>
<g style="mix-blend-mode:multiply">
<path d="M241.369 50.7332H102.194V59.4523H241.369V50.7332Z" fill="#EBDDCB"/>
</g>
<path d="M186.916 34.6711H156.647C156.101 34.6711 155.577 34.454 155.19 34.0677C154.804 33.6814 154.587 33.1575 154.587 32.6112C154.587 32.0649 154.804 31.541 155.19 31.1547C155.577 30.7684 156.101 30.5513 156.647 30.5513H186.916C187.462 30.5513 187.986 30.7684 188.373 31.1547C188.759 31.541 188.976 32.0649 188.976 32.6112C188.976 33.1575 188.759 33.6814 188.373 34.0677C187.986 34.454 187.462 34.6711 186.916 34.6711Z" fill="#EBDDCB" stroke="#263238" stroke-width="1.33739" stroke-linecap="round" stroke-linejoin="round"/>
<path d="M180.037 288.326C180.038 286.693 179.555 285.095 178.649 283.737C177.742 282.378 176.453 281.319 174.944 280.693C173.436 280.067 171.775 279.903 170.173 280.221C168.571 280.539 167.099 281.326 165.944 282.481C164.789 283.636 164.003 285.107 163.685 286.709C163.366 288.312 163.53 289.972 164.156 291.481C164.782 292.99 165.841 294.279 167.2 295.185C168.559 296.092 170.156 296.575 171.789 296.573C173.976 296.571 176.073 295.702 177.619 294.155C179.165 292.609 180.035 290.513 180.037 288.326Z" fill="#EBDDCB"/>
<path d="M175.972 284.143H167.607V292.508H175.972V284.143Z" fill="#EBDDCB" stroke="#263238" stroke-width="1.33739" stroke-linecap="round" stroke-linejoin="round"/>
<path d="M271.434 193.399C271.434 193.399 260.474 165.551 270.231 162.241C280.389 158.79 279.94 177.179 279.547 186.142C278.722 205.294 276.607 208.856 275.027 204.178L271.434 193.399ZM268.139 215.122C271.151 219.053 272 214.98 266.567 196.591C264.02 187.943 258.485 170.449 249.994 177.014C241.841 183.304 261.244 206.104 261.244 206.104L268.139 215.122ZM262.321 231.082C265.191 233.629 265.246 230.414 258.43 217.135C255.23 210.916 248.461 198.328 242.918 204.555C237.595 210.562 255.733 225.162 255.733 225.162L262.321 231.082ZM256.032 250.061C258.901 252.616 258.956 249.393 252.14 236.121C248.94 229.903 242.171 217.307 236.628 223.542C231.337 229.564 249.42 244.164 249.42 244.164L256.032 250.061ZM274.193 211.427C269.602 213.219 273.25 215.169 292.425 215.114C301.42 215.114 319.785 214.705 315.87 204.712C312.12 195.113 284.807 207.338 284.807 207.338L274.193 211.427ZM268.965 224.195C264.106 225.036 267.298 227.678 286.104 231.436C294.918 233.205 312.993 236.467 311.145 225.932C309.376 215.774 280.176 222.331 280.176 222.331L268.965 224.195ZM263.115 239.785C258.98 240.383 261.622 242.686 277.432 246.303C284.846 248.001 300.059 251.185 298.739 242.199C297.481 233.551 272.636 238.441 272.636 238.441L263.115 239.785ZM258.673 254.228C254.624 255.258 257.494 257.27 273.611 259.189C281.159 260.085 296.624 261.642 294.367 252.844C292.19 244.4 268.006 251.877 268.006 251.877L258.673 254.228ZM282.37 195.757C280.011 201.041 284.909 200.239 301.561 185.71C309.36 178.893 325.006 164.631 312.615 157.532C300.72 150.708 287.928 183.634 287.928 183.634L282.37 195.757ZM259.287 273.042C256.794 274.496 259.239 275.062 270.671 272.782C276.033 271.721 286.938 269.362 283.25 264.708C279.681 260.227 265.057 269.661 265.057 269.661L259.287 273.042Z" fill="#EBDDCB"/>
<path opacity="0.3" d="M271.434 193.399C271.434 193.399 260.474 165.551 270.231 162.241C280.389 158.79 279.94 177.179 279.547 186.142C278.722 205.294 276.607 208.856 275.027 204.178L271.434 193.399ZM268.139 215.122C271.151 219.053 272 214.98 266.567 196.591C264.02 187.943 258.485 170.449 249.994 177.014C241.841 183.304 261.244 206.104 261.244 206.104L268.139 215.122ZM262.321 231.082C265.191 233.629 265.246 230.414 258.43 217.135C255.23 210.916 248.461 198.328 242.918 204.555C237.595 210.562 255.733 225.162 255.733 225.162L262.321 231.082ZM256.032 250.061C258.901 252.616 258.956 249.393 252.14 236.121C248.94 229.903 242.171 217.307 236.628 223.542C231.337 229.564 249.42 244.164 249.42 244.164L256.032 250.061ZM274.193 211.427C269.602 213.219 273.25 215.169 292.425 215.114C301.42 215.114 319.785 214.705 315.87 204.712C312.12 195.113 284.807 207.338 284.807 207.338L274.193 211.427ZM268.965 224.195C264.106 225.036 267.298 227.678 286.104 231.436C294.918 233.205 312.993 236.467 311.145 225.932C309.376 215.774 280.176 222.331 280.176 222.331L268.965 224.195ZM263.115 239.785C258.98 240.383 261.622 242.686 277.432 246.303C284.846 248.001 300.059 251.185 298.739 242.199C297.481 233.551 272.636 238.441 272.636 238.441L263.115 239.785ZM258.673 254.228C254.624 255.258 257.494 257.27 273.611 259.189C281.159 260.085 296.624 261.642 294.367 252.844C292.19 244.4 268.006 251.877 268.006 251.877L258.673 254.228ZM282.37 195.757C280.011 201.041 284.909 200.239 301.561 185.71C309.36 178.893 325.006 164.631 312.615 157.532C300.72 150.708 287.928 183.634 287.928 183.634L282.37 195.757ZM259.287 273.042C256.794 274.496 259.239 275.062 270.671 272.782C276.033 271.721 286.938 269.362 283.25 264.708C279.681 260.227 265.057 269.661 265.057 269.661L259.287 273.042Z" fill="white"/>
<path d="M276.269 206.363L274.358 174.577ZM270.223 216.851L258.147 189.515ZM301.388 208.903L272.448 213.054ZM263.965 231.585L248.295 211.482ZM266.716 225.421L288.306 226.506ZM261.606 240.839L278.116 242.474ZM257.62 250.635L249.42 238.299ZM256.676 254.991L276.088 255.171ZM252.745 291.408C252.875 291.398 252.996 291.337 253.082 291.238C253.167 291.139 253.21 291.011 253.201 290.881C251.967 272.342 259.137 241.979 270.64 217.056C277.991 201.127 306.805 169.82 307.112 169.506C307.204 169.413 307.257 169.287 307.257 169.156C307.257 169.025 307.204 168.899 307.112 168.806C307.066 168.761 307.013 168.724 306.953 168.7C306.894 168.675 306.83 168.662 306.766 168.662C306.702 168.662 306.638 168.675 306.579 168.7C306.519 168.724 306.465 168.761 306.42 168.806C306.129 169.121 277.197 200.546 269.783 216.616C258.068 242.144 250.992 271.957 252.25 290.944C252.26 291.069 252.316 291.186 252.408 291.272C252.499 291.358 252.62 291.406 252.745 291.408ZM276.261 206.851C276.391 206.843 276.513 206.784 276.599 206.687C276.686 206.59 276.731 206.462 276.725 206.332L274.846 174.53C274.843 174.465 274.827 174.402 274.799 174.343C274.771 174.285 274.732 174.232 274.684 174.189C274.635 174.146 274.579 174.113 274.518 174.092C274.456 174.07 274.392 174.062 274.327 174.066C274.197 174.074 274.075 174.133 273.988 174.23C273.902 174.327 273.857 174.455 273.863 174.585L275.773 206.371C275.78 206.496 275.834 206.614 275.924 206.701C276.015 206.787 276.136 206.835 276.261 206.835V206.851ZM270.396 217.3C270.514 217.246 270.606 217.149 270.653 217.028C270.7 216.908 270.698 216.774 270.647 216.655L258.563 189.318C258.511 189.2 258.414 189.106 258.293 189.059C258.172 189.012 258.038 189.015 257.919 189.067C257.8 189.119 257.707 189.216 257.659 189.337C257.612 189.458 257.615 189.593 257.667 189.712L269.743 217.048C269.781 217.136 269.844 217.211 269.923 217.264C270.003 217.317 270.096 217.346 270.191 217.347C270.273 217.351 270.354 217.335 270.427 217.3H270.396ZM272.487 213.526L301.412 209.39C301.482 209.389 301.55 209.373 301.614 209.343C301.677 209.313 301.733 209.27 301.778 209.217C301.824 209.164 301.857 209.102 301.877 209.035C301.896 208.968 301.902 208.897 301.892 208.828C301.883 208.759 301.859 208.692 301.822 208.633C301.785 208.574 301.736 208.523 301.678 208.484C301.62 208.445 301.554 208.419 301.485 208.407C301.416 208.395 301.346 208.398 301.278 208.415L272.353 212.551C272.224 212.559 272.104 212.619 272.018 212.716C271.933 212.813 271.889 212.941 271.897 213.07C271.906 213.199 271.965 213.32 272.062 213.405C272.16 213.491 272.287 213.534 272.416 213.526H272.487ZM264.24 231.978C264.343 231.898 264.409 231.78 264.425 231.65C264.442 231.52 264.406 231.39 264.326 231.286L248.649 211.144C248.569 211.039 248.451 210.971 248.32 210.954C248.19 210.937 248.058 210.973 247.953 211.053C247.849 211.133 247.781 211.252 247.764 211.382C247.747 211.513 247.783 211.645 247.863 211.749L263.572 231.923C263.617 231.982 263.676 232.029 263.742 232.062C263.809 232.095 263.882 232.112 263.957 232.112C264.074 232.106 264.186 232.059 264.271 231.978H264.24ZM288.738 226.53C288.742 226.4 288.695 226.273 288.607 226.177C288.519 226.082 288.396 226.025 288.266 226.019L266.716 224.926C266.595 224.934 266.481 224.987 266.397 225.073C266.312 225.16 266.261 225.275 266.256 225.396C266.25 225.517 266.289 225.637 266.365 225.731C266.441 225.826 266.549 225.889 266.669 225.909L288.258 227.001C288.389 227.006 288.515 226.959 288.611 226.87C288.706 226.782 288.763 226.66 288.77 226.53H288.738ZM278.572 242.521C278.58 242.457 278.575 242.391 278.556 242.328C278.538 242.266 278.508 242.208 278.467 242.157C278.426 242.106 278.375 242.065 278.318 242.034C278.26 242.003 278.197 241.985 278.132 241.979L261.622 240.351C261.558 240.345 261.493 240.351 261.431 240.37C261.37 240.388 261.312 240.419 261.263 240.46C261.213 240.501 261.172 240.551 261.142 240.608C261.112 240.665 261.093 240.727 261.087 240.792C261.076 240.921 261.116 241.049 261.198 241.149C261.281 241.249 261.399 241.312 261.527 241.326L278.038 242.962H278.085C278.212 242.97 278.337 242.929 278.434 242.847C278.531 242.765 278.592 242.648 278.604 242.521H278.572ZM257.856 251.044C257.965 250.972 258.041 250.859 258.068 250.731C258.094 250.603 258.069 250.469 257.997 250.36L249.836 238.024C249.762 237.918 249.649 237.845 249.521 237.82C249.394 237.795 249.262 237.82 249.152 237.89C249.043 237.963 248.967 238.075 248.941 238.203C248.914 238.331 248.939 238.465 249.011 238.574L257.172 250.91C257.218 250.978 257.281 251.033 257.353 251.071C257.426 251.109 257.506 251.13 257.588 251.13C257.695 251.136 257.8 251.106 257.887 251.044H257.856ZM276.583 255.171C276.581 255.042 276.53 254.918 276.439 254.826C276.348 254.734 276.225 254.68 276.096 254.676L256.684 254.495C256.555 254.495 256.431 254.547 256.34 254.638C256.248 254.729 256.197 254.853 256.197 254.983C256.195 255.048 256.206 255.112 256.229 255.173C256.253 255.233 256.289 255.289 256.334 255.335C256.38 255.381 256.434 255.418 256.495 255.442C256.555 255.467 256.619 255.479 256.684 255.478L276.096 255.659C276.162 255.662 276.228 255.652 276.291 255.629C276.353 255.606 276.41 255.571 276.459 255.525C276.507 255.48 276.546 255.425 276.573 255.364C276.599 255.303 276.614 255.238 276.615 255.171H276.583ZM250.536 284.198C250.575 284.112 253.885 274.992 263.839 272.814C263.967 272.786 264.079 272.708 264.15 272.597C264.22 272.487 264.244 272.352 264.216 272.224C264.184 272.099 264.105 271.99 263.996 271.921C263.886 271.852 263.754 271.828 263.627 271.855C253.131 274.15 249.648 283.781 249.608 283.876C249.568 284 249.577 284.135 249.635 284.252C249.692 284.37 249.792 284.46 249.915 284.505H250.072C250.177 284.514 250.282 284.489 250.371 284.434C250.46 284.378 250.529 284.296 250.568 284.198H250.536ZM252.745 291.408C252.875 291.398 252.996 291.337 253.082 291.238C253.167 291.139 253.21 291.011 253.201 290.881C251.967 272.342 259.137 241.979 270.64 217.056C277.991 201.127 306.805 169.82 307.112 169.506C307.204 169.413 307.257 169.287 307.257 169.156C307.257 169.025 307.204 168.899 307.112 168.806C307.066 168.761 307.013 168.724 306.953 168.7C306.894 168.675 306.83 168.662 306.766 168.662C306.702 168.662 306.638 168.675 306.579 168.7C306.519 168.724 306.465 168.761 306.42 168.806C306.129 169.121 277.197 200.546 269.783 216.616C258.068 242.144 250.992 271.957 252.25 290.944C252.26 291.069 252.316 291.186 252.408 291.272C252.499 291.358 252.62 291.406 252.745 291.408ZM276.261 206.851C276.391 206.843 276.513 206.784 276.599 206.687C276.686 206.59 276.731 206.462 276.725 206.332L274.846 174.53C274.843 174.465 274.827 174.402 274.799 174.343C274.771 174.285 274.732 174.232 274.684 174.189C274.635 174.146 274.579 174.113 274.518 174.092C274.456 174.07 274.392 174.062 274.327 174.066C274.197 174.074 274.075 174.133 273.988 174.23C273.902 174.327 273.857 174.455 273.863 174.585L275.773 206.371C275.78 206.496 275.834 206.614 275.924 206.701C276.015 206.787 276.136 206.835 276.261 206.835V206.851ZM270.396 217.3C270.514 217.246 270.606 217.149 270.653 217.028C270.7 216.908 270.698 216.774 270.647 216.655L258.563 189.318C258.511 189.2 258.414 189.106 258.293 189.059C258.172 189.012 258.038 189.015 257.919 189.067C257.8 189.119 257.707 189.216 257.659 189.337C257.612 189.458 257.615 189.593 257.667 189.712L269.743 217.048C269.781 217.136 269.844 217.211 269.923 217.264C270.003 217.317 270.096 217.346 270.191 217.347C270.273 217.351 270.354 217.335 270.427 217.3H270.396ZM272.487 213.526L301.412 209.39C301.482 209.389 301.55 209.373 301.614 209.343C301.677 209.313 301.733 209.27 301.778 209.217C301.824 209.164 301.857 209.102 301.877 209.035C301.896 208.968 301.902 208.897 301.892 208.828C301.883 208.759 301.859 208.692 301.822 208.633C301.785 208.574 301.736 208.523 301.678 208.484C301.62 208.445 301.554 208.419 301.485 208.407C301.416 208.395 301.346 208.398 301.278 208.415L272.353 212.551C272.224 212.559 272.104 212.619 272.018 212.716C271.933 212.813 271.889 212.941 271.897 213.07C271.906 213.199 271.965 213.32 272.062 213.405C272.16 213.491 272.287 213.534 272.416 213.526H272.487ZM264.24 231.978C264.343 231.898 264.409 231.78 264.425 231.65C264.442 231.52 264.406 231.39 264.326 231.286L248.649 211.144C248.61 211.092 248.56 211.049 248.503 211.016C248.447 210.984 248.385 210.963 248.32 210.954C248.255 210.946 248.19 210.95 248.127 210.967C248.064 210.984 248.005 211.013 247.953 211.053C247.902 211.093 247.859 211.142 247.826 211.199C247.794 211.255 247.773 211.318 247.764 211.382C247.756 211.447 247.76 211.513 247.777 211.576C247.794 211.638 247.823 211.697 247.863 211.749L263.572 231.923C263.617 231.982 263.676 232.029 263.742 232.062C263.809 232.095 263.882 232.112 263.957 232.112C264.074 232.106 264.186 232.059 264.271 231.978H264.24ZM288.738 226.53C288.742 226.4 288.695 226.273 288.607 226.177C288.519 226.082 288.396 226.025 288.266 226.019L266.716 224.926C266.595 224.934 266.481 224.987 266.397 225.073C266.312 225.16 266.261 225.275 266.256 225.396C266.25 225.517 266.289 225.637 266.365 225.731C266.441 225.826 266.549 225.889 266.669 225.909L288.258 227.001C288.389 227.006 288.515 226.959 288.611 226.87C288.706 226.782 288.763 226.66 288.77 226.53H288.738ZM278.572 242.521C278.58 242.457 278.575 242.391 278.556 242.328C278.538 242.266 278.508 242.208 278.467 242.157C278.426 242.106 278.375 242.065 278.318 242.034C278.26 242.003 278.197 241.985 278.132 241.979L261.622 240.351C261.558 240.345 261.493 240.351 261.431 240.37C261.37 240.388 261.312 240.419 261.263 240.46C261.213 240.501 261.172 240.551 261.142 240.608C261.112 240.665 261.093 240.727 261.087 240.792C261.076 240.921 261.116 241.049 261.198 241.149C261.281 241.249 261.399 241.312 261.527 241.326L278.038 242.962H278.085C278.212 242.97 278.337 242.929 278.434 242.847C278.531 242.765 278.592 242.648 278.604 242.521H278.572ZM257.856 251.044C257.965 250.972 258.041 250.859 258.068 250.731C258.094 250.603 258.069 250.469 257.997 250.36L249.836 238.024C249.762 237.918 249.649 237.845 249.521 237.82C249.394 237.795 249.262 237.82 249.152 237.89C249.043 237.963 248.967 238.075 248.941 238.203C248.914 238.331 248.939 238.465 249.011 238.574L257.172 250.91C257.218 250.978 257.281 251.033 257.353 251.071C257.426 251.109 257.506 251.13 257.588 251.13C257.695 251.136 257.8 251.106 257.887 251.044H257.856ZM276.583 255.171C276.581 255.042 276.53 254.918 276.439 254.826C276.348 254.734 276.225 254.68 276.096 254.676L256.684 254.495C256.555 254.495 256.431 254.547 256.34 254.638C256.248 254.729 256.197 254.853 256.197 254.983C256.195 255.048 256.206 255.112 256.229 255.173C256.253 255.233 256.289 255.289 256.334 255.335C256.38 255.381 256.434 255.418 256.495 255.442C256.555 255.467 256.619 255.479 256.684 255.478L276.096 255.659C276.162 255.662 276.228 255.652 276.291 255.629C276.353 255.606 276.41 255.571 276.459 255.525C276.507 255.48 276.546 255.425 276.573 255.364C276.599 255.303 276.614 255.238 276.615 255.171H276.583ZM250.536 284.198C250.575 284.112 253.885 274.992 263.839 272.814C263.967 272.786 264.079 272.708 264.15 272.597C264.22 272.487 264.244 272.352 264.216 272.224C264.184 272.099 264.105 271.99 263.996 271.921C263.886 271.852 263.754 271.828 263.627 271.855C253.131 274.15 249.648 283.781 249.608 283.876C249.568 284 249.577 284.135 249.635 284.252C249.692 284.37 249.792 284.46 249.915 284.505H250.072C250.177 284.514 250.282 284.489 250.371 284.434C250.46 284.378 250.529 284.296 250.568 284.198H250.536Z" fill="#EBDDCB"/>
<path opacity="0.2" d="M276.269 206.363L274.358 174.577ZM270.223 216.851L258.147 189.515ZM301.388 208.903L272.448 213.054ZM263.965 231.585L248.295 211.482ZM266.716 225.421L288.306 226.506ZM261.606 240.839L278.116 242.474ZM257.62 250.635L249.42 238.299ZM256.676 254.991L276.088 255.171ZM252.745 291.408C252.875 291.398 252.996 291.337 253.082 291.238C253.167 291.139 253.21 291.011 253.201 290.881C251.967 272.342 259.137 241.979 270.64 217.056C277.991 201.127 306.805 169.82 307.112 169.506C307.204 169.413 307.257 169.287 307.257 169.156C307.257 169.025 307.204 168.899 307.112 168.806C307.066 168.761 307.013 168.724 306.953 168.7C306.894 168.675 306.83 168.662 306.766 168.662C306.702 168.662 306.638 168.675 306.579 168.7C306.519 168.724 306.465 168.761 306.42 168.806C306.129 169.121 277.197 200.546 269.783 216.616C258.068 242.144 250.992 271.957 252.25 290.944C252.26 291.069 252.316 291.186 252.408 291.272C252.499 291.358 252.62 291.406 252.745 291.408ZM276.261 206.851C276.391 206.843 276.513 206.784 276.599 206.687C276.686 206.59 276.731 206.462 276.725 206.332L274.846 174.53C274.843 174.465 274.827 174.402 274.799 174.343C274.771 174.285 274.732 174.232 274.684 174.189C274.635 174.146 274.579 174.113 274.518 174.092C274.456 174.07 274.392 174.062 274.327 174.066C274.197 174.074 274.075 174.133 273.988 174.23C273.902 174.327 273.857 174.455 273.863 174.585L275.773 206.371C275.78 206.496 275.834 206.614 275.924 206.701C276.015 206.787 276.136 206.835 276.261 206.835V206.851ZM270.396 217.3C270.514 217.246 270.606 217.149 270.653 217.028C270.7 216.908 270.698 216.774 270.647 216.655L258.563 189.318C258.511 189.2 258.414 189.106 258.293 189.059C258.172 189.012 258.038 189.015 257.919 189.067C257.8 189.119 257.707 189.216 257.659 189.337C257.612 189.458 257.615 189.593 257.667 189.712L269.743 217.048C269.781 217.136 269.844 217.211 269.923 217.264C270.003 217.317 270.096 217.346 270.191 217.347C270.273 217.351 270.354 217.335 270.427 217.3H270.396ZM272.487 213.526L301.412 209.39C301.482 209.389 301.55 209.373 301.614 209.343C301.677 209.313 301.733 209.27 301.778 209.217C301.824 209.164 301.857 209.102 301.877 209.035C301.896 208.968 301.902 208.897 301.892 208.828C301.883 208.759 301.859 208.692 301.822 208.633C301.785 208.574 301.736 208.523 301.678 208.484C301.62 208.445 301.554 208.419 301.485 208.407C301.416 208.395 301.346 208.398 301.278 208.415L272.353 212.551C272.224 212.559 272.104 212.619 272.018 212.716C271.933 212.813 271.889 212.941 271.897 213.07C271.906 213.199 271.965 213.32 272.062 213.405C272.16 213.491 272.287 213.534 272.416 213.526H272.487ZM264.24 231.978C264.343 231.898 264.409 231.78 264.425 231.65C264.442 231.52 264.406 231.39 264.326 231.286L248.649 211.144C248.569 211.039 248.451 210.971 248.32 210.954C248.19 210.937 248.058 210.973 247.953 211.053C247.849 211.133 247.781 211.252 247.764 211.382C247.747 211.513 247.783 211.645 247.863 211.749L263.572 231.923C263.617 231.982 263.676 232.029 263.742 232.062C263.809 232.095 263.882 232.112 263.957 232.112C264.074 232.106 264.186 232.059 264.271 231.978H264.24ZM288.738 226.53C288.742 226.4 288.695 226.273 288.607 226.177C288.519 226.082 288.396 226.025 288.266 226.019L266.716 224.926C266.595 224.934 266.481 224.987 266.397 225.073C266.312 225.16 266.261 225.275 266.256 225.396C266.25 225.517 266.289 225.637 266.365 225.731C266.441 225.826 266.549 225.889 266.669 225.909L288.258 227.001C288.389 227.006 288.515 226.959 288.611 226.87C288.706 226.782 288.763 226.66 288.77 226.53H288.738ZM278.572 242.521C278.58 242.457 278.575 242.391 278.556 242.328C278.538 242.266 278.508 242.208 278.467 242.157C278.426 242.106 278.375 242.065 278.318 242.034C278.26 242.003 278.197 241.985 278.132 241.979L261.622 240.351C261.558 240.345 261.493 240.351 261.431 240.37C261.37 240.388 261.312 240.419 261.263 240.46C261.213 240.501 261.172 240.551 261.142 240.608C261.112 240.665 261.093 240.727 261.087 240.792C261.076 240.921 261.116 241.049 261.198 241.149C261.281 241.249 261.399 241.312 261.527 241.326L278.038 242.962H278.085C278.212 242.97 278.337 242.929 278.434 242.847C278.531 242.765 278.592 242.648 278.604 242.521H278.572ZM257.856 251.044C257.965 250.972 258.041 250.859 258.068 250.731C258.094 250.603 258.069 250.469 257.997 250.36L249.836 238.024C249.762 237.918 249.649 237.845 249.521 237.82C249.394 237.795 249.262 237.82 249.152 237.89C249.043 237.963 248.967 238.075 248.941 238.203C248.914 238.331 248.939 238.465 249.011 238.574L257.172 250.91C257.218 250.978 257.281 251.033 257.353 251.071C257.426 251.109 257.506 251.13 257.588 251.13C257.695 251.136 257.8 251.106 257.887 251.044H257.856ZM276.583 255.171C276.581 255.042 276.53 254.918 276.439 254.826C276.348 254.734 276.225 254.68 276.096 254.676L256.684 254.495C256.555 254.495 256.431 254.547 256.34 254.638C256.248 254.729 256.197 254.853 256.197 254.983C256.195 255.048 256.206 255.112 256.229 255.173C256.253 255.233 256.289 255.289 256.334 255.335C256.38 255.381 256.434 255.418 256.495 255.442C256.555 255.467 256.619 255.479 256.684 255.478L276.096 255.659C276.162 255.662 276.228 255.652 276.291 255.629C276.353 255.606 276.41 255.571 276.459 255.525C276.507 255.48 276.546 255.425 276.573 255.364C276.599 255.303 276.614 255.238 276.615 255.171H276.583ZM250.536 284.198C250.575 284.112 253.885 274.992 263.839 272.814C263.967 272.786 264.079 272.708 264.15 272.597C264.22 272.487 264.244 272.352 264.216 272.224C264.184 272.099 264.105 271.99 263.996 271.921C263.886 271.852 263.754 271.828 263.627 271.855C253.131 274.15 249.648 283.781 249.608 283.876C249.568 284 249.577 284.135 249.635 284.252C249.692 284.37 249.792 284.46 249.915 284.505H250.072C250.177 284.514 250.282 284.489 250.371 284.434C250.46 284.378 250.529 284.296 250.568 284.198H250.536ZM252.745 291.408C252.875 291.398 252.996 291.337 253.082 291.238C253.167 291.139 253.21 291.011 253.201 290.881C251.967 272.342 259.137 241.979 270.64 217.056C277.991 201.127 306.805 169.82 307.112 169.506C307.204 169.413 307.257 169.287 307.257 169.156C307.257 169.025 307.204 168.899 307.112 168.806C307.066 168.761 307.013 168.724 306.953 168.7C306.894 168.675 306.83 168.662 306.766 168.662C306.702 168.662 306.638 168.675 306.579 168.7C306.519 168.724 306.465 168.761 306.42 168.806C306.129 169.121 277.197 200.546 269.783 216.616C258.068 242.144 250.992 271.957 252.25 290.944C252.26 291.069 252.316 291.186 252.408 291.272C252.499 291.358 252.62 291.406 252.745 291.408ZM276.261 206.851C276.391 206.843 276.513 206.784 276.599 206.687C276.686 206.59 276.731 206.462 276.725 206.332L274.846 174.53C274.843 174.465 274.827 174.402 274.799 174.343C274.771 174.285 274.732 174.232 274.684 174.189C274.635 174.146 274.579 174.113 274.518 174.092C274.456 174.07 274.392 174.062 274.327 174.066C274.197 174.074 274.075 174.133 273.988 174.23C273.902 174.327 273.857 174.455 273.863 174.585L275.773 206.371C275.78 206.496 275.834 206.614 275.924 206.701C276.015 206.787 276.136 206.835 276.261 206.835V206.851ZM270.396 217.3C270.514 217.246 270.606 217.149 270.653 217.028C270.7 216.908 270.698 216.774 270.647 216.655L258.563 189.318C258.511 189.2 258.414 189.106 258.293 189.059C258.172 189.012 258.038 189.015 257.919 189.067C257.8 189.119 257.707 189.216 257.659 189.337C257.612 189.458 257.615 189.593 257.667 189.712L269.743 217.048C269.781 217.136 269.844 217.211 269.923 217.264C270.003 217.317 270.096 217.346 270.191 217.347C270.273 217.351 270.354 217.335 270.427 217.3H270.396ZM272.487 213.526L301.412 209.39C301.482 209.389 301.55 209.373 301.614 209.343C301.677 209.313 301.733 209.27 301.778 209.217C301.824 209.164 301.857 209.102 301.877 209.035C301.896 208.968 301.902 208.897 301.892 208.828C301.883 208.759 301.859 208.692 301.822 208.633C301.785 208.574 301.736 208.523 301.678 208.484C301.62 208.445 301.554 208.419 301.485 208.407C301.416 208.395 301.346 208.398 301.278 208.415L272.353 212.551C272.224 212.559 272.104 212.619 272.018 212.716C271.933 212.813 271.889 212.941 271.897 213.07C271.906 213.199 271.965 213.32 272.062 213.405C272.16 213.491 272.287 213.534 272.416 213.526H272.487ZM264.24 231.978C264.343 231.898 264.409 231.78 264.425 231.65C264.442 231.52 264.406 231.39 264.326 231.286L248.649 211.144C248.61 211.092 248.56 211.049 248.503 211.016C248.447 210.984 248.385 210.963 248.32 210.954C248.255 210.946 248.19 210.95 248.127 210.967C248.064 210.984 248.005 211.013 247.953 211.053C247.902 211.093 247.859 211.142 247.826 211.199C247.794 211.255 247.773 211.318 247.764 211.382C247.756 211.447 247.76 211.513 247.777 211.576C247.794 211.638 247.823 211.697 247.863 211.749L263.572 231.923C263.617 231.982 263.676 232.029 263.742 232.062C263.809 232.095 263.882 232.112 263.957 232.112C264.074 232.106 264.186 232.059 264.271 231.978H264.24ZM288.738 226.53C288.742 226.4 288.695 226.273 288.607 226.177C288.519 226.082 288.396 226.025 288.266 226.019L266.716 224.926C266.595 224.934 266.481 224.987 266.397 225.073C266.312 225.16 266.261 225.275 266.256 225.396C266.25 225.517 266.289 225.637 266.365 225.731C266.441 225.826 266.549 225.889 266.669 225.909L288.258 227.001C288.389 227.006 288.515 226.959 288.611 226.87C288.706 226.782 288.763 226.66 288.77 226.53H288.738ZM278.572 242.521C278.58 242.457 278.575 242.391 278.556 242.328C278.538 242.266 278.508 242.208 278.467 242.157C278.426 242.106 278.375 242.065 278.318 242.034C278.26 242.003 278.197 241.985 278.132 241.979L261.622 240.351C261.558 240.345 261.493 240.351 261.431 240.37C261.37 240.388 261.312 240.419 261.263 240.46C261.213 240.501 261.172 240.551 261.142 240.608C261.112 240.665 261.093 240.727 261.087 240.792C261.076 240.921 261.116 241.049 261.198 241.149C261.281 241.249 261.399 241.312 261.527 241.326L278.038 242.962H278.085C278.212 242.97 278.337 242.929 278.434 242.847C278.531 242.765 278.592 242.648 278.604 242.521H278.572ZM257.856 251.044C257.965 250.972 258.041 250.859 258.068 250.731C258.094 250.603 258.069 250.469 257.997 250.36L249.836 238.024C249.762 237.918 249.649 237.845 249.521 237.82C249.394 237.795 249.262 237.82 249.152 237.89C249.043 237.963 248.967 238.075 248.941 238.203C248.914 238.331 248.939 238.465 249.011 238.574L257.172 250.91C257.218 250.978 257.281 251.033 257.353 251.071C257.426 251.109 257.506 251.13 257.588 251.13C257.695 251.136 257.8 251.106 257.887 251.044H257.856ZM276.583 255.171C276.581 255.042 276.53 254.918 276.439 254.826C276.348 254.734 276.225 254.68 276.096 254.676L256.684 254.495C256.555 254.495 256.431 254.547 256.34 254.638C256.248 254.729 256.197 254.853 256.197 254.983C256.195 255.048 256.206 255.112 256.229 255.173C256.253 255.233 256.289 255.289 256.334 255.335C256.38 255.381 256.434 255.418 256.495 255.442C256.555 255.467 256.619 255.479 256.684 255.478L276.096 255.659C276.162 255.662 276.228 255.652 276.291 255.629C276.353 255.606 276.41 255.571 276.459 255.525C276.507 255.48 276.546 255.425 276.573 255.364C276.599 255.303 276.614 255.238 276.615 255.171H276.583ZM250.536 284.198C250.575 284.112 253.885 274.992 263.839 272.814C263.967 272.786 264.079 272.708 264.15 272.597C264.22 272.487 264.244 272.352 264.216 272.224C264.184 272.099 264.105 271.99 263.996 271.921C263.886 271.852 263.754 271.828 263.627 271.855C253.131 274.15 249.648 283.781 249.608 283.876C249.568 284 249.577 284.135 249.635 284.252C249.692 284.37 249.792 284.46 249.915 284.505H250.072C250.177 284.514 250.282 284.489 250.371 284.434C250.46 284.378 250.529 284.296 250.568 284.198H250.536Z" fill="black"/>
<path d="M265.584 277.547H243.326V282.154H245.268L249.286 307.289H259.625L263.642 282.154H265.584V277.547Z" fill="#EBDDCB"/>
<path opacity="0.3" d="M265.584 277.547H243.326V282.154H245.268L249.286 307.289H259.625L263.642 282.154H265.584V277.547Z" fill="white"/>
<path d="M65.1949 138.231L39.3051 129.779L37.0015 123.694L31.7417 123.528L22.1971 121.72L23.345 123.694L35.3583 132.413L38.3223 133.891L65.3994 148.035L65.1949 138.231Z" fill="white" stroke="#263238" stroke-width="1.00396" stroke-miterlimit="10"/>
<path d="M37.0016 123.693L34.5329 122.215L29.6034 124.024L30.421 125.006L37.0016 123.693Z" fill="white" stroke="#263238" stroke-width="1.00396" stroke-linejoin="round"/>
<path d="M65.1949 138.231L39.3051 129.779L37.0015 123.694L31.7417 123.528L22.1971 121.72L23.345 123.694L35.3583 132.413L38.3223 133.891L65.3994 148.035L65.1949 138.231Z" fill="white"/>
<mask id="mask0_25_2285" style="mask-type:luminance" maskUnits="userSpaceOnUse" x="22" y="121" width="44" height="28">
<path d="M65.1949 138.231L39.3051 129.779L37.0015 123.694L31.7417 123.528L22.1971 121.72L23.345 123.694L35.3583 132.413L38.3223 133.891L65.3994 148.035L65.1949 138.231Z" fill="white"/>
</mask>
<g mask="url(#mask0_25_2285)">
<path opacity="0.5" d="M65.1949 138.231L39.3051 129.779L37.0015 123.694L31.7417 123.528L22.1971 121.72L23.345 123.694L35.3583 132.413L38.3223 133.891L65.3994 148.035L65.1949 138.231Z" fill="#EBDDCB" stroke="#263238" stroke-width="1.00396" stroke-miterlimit="10"/>
</g>
<path d="M65.1949 138.231L39.3051 129.779L37.0015 123.694L31.7417 123.528L22.1971 121.72L23.345 123.694L35.3583 132.413L38.3223 133.891L65.3994 148.035L65.1949 138.231Z" stroke="#263238" stroke-width="1.00396" stroke-miterlimit="10"/>
<path d="M37.0016 123.693L34.5329 122.215L29.6034 124.024L30.421 125.006L37.0016 123.693Z" fill="white"/>
<mask id="mask1_25_2285" style="mask-type:luminance" maskUnits="userSpaceOnUse" x="29" y="122" width="9" height="4">
<path d="M37.0016 123.693L34.5329 122.215L29.6034 124.024L30.421 125.006L37.0016 123.693Z" fill="white"/>
</mask>
<g mask="url(#mask1_25_2285)">
<path opacity="0.5" d="M37.0016 123.693L34.5329 122.215L29.6034 124.024L30.421 125.006L37.0016 123.693Z" fill="#EBDDCB" stroke="#263238" stroke-width="1.00396" stroke-linejoin="round"/>
</g>
<path d="M37.0016 123.693L34.5329 122.215L29.6034 124.024L30.421 125.006L37.0016 123.693Z" stroke="#263238" stroke-width="1.00396" stroke-linejoin="round"/>
<path d="M70.6908 83.3768C70.6908 83.3768 70.2898 86.9148 71.2883 89.1869C72.2868 91.459 77.8296 99.156 77.8296 99.156L67.4831 107.451C67.4831 107.451 63.1904 98.8022 62.3727 97.4028C61.555 96.0033 60.5723 89.981 63.2375 85.6647C65.9028 81.3484 69.7395 80.1848 70.6908 83.3768Z" fill="white"/>
<mask id="mask2_25_2285" style="mask-type:luminance" maskUnits="userSpaceOnUse" x="61" y="81" width="17" height="27">
<path d="M70.6908 83.3768C70.6908 83.3768 70.2898 86.9148 71.2883 89.1869C72.2868 91.459 77.8296 99.156 77.8296 99.156L67.4831 107.451C67.4831 107.451 63.1904 98.8022 62.3727 97.4028C61.555 96.0033 60.5723 89.981 63.2375 85.6647C65.9028 81.3484 69.7395 80.1848 70.6908 83.3768Z" fill="white"/>
</mask>
<g mask="url(#mask2_25_2285)">
<g style="mix-blend-mode:multiply" opacity="0.5">
<path d="M65.3761 94.7454L69.8653 104.054L67.4752 107.458L62.9624 99.3998L65.3761 94.7454Z" fill="#EBDDCB"/>
</g>
</g>
<path d="M70.6908 83.3768C70.6908 83.3768 70.2898 86.9148 71.2883 89.1869C72.2868 91.459 77.8296 99.156 77.8296 99.156L67.4831 107.451C67.4831 107.451 63.1904 98.8022 62.3727 97.4028C61.555 96.0033 60.5723 89.981 63.2375 85.6647C65.9028 81.3484 69.7395 80.1848 70.6908 83.3768Z" stroke="#263238" stroke-width="1.00396" stroke-miterlimit="10"/>
<path d="M73.8985 76.8984C73.2617 72.9674 68.7567 64.9716 61.61 65.2783C56.9714 65.4827 54.8015 66.4183 52.7888 67.5583C51.1482 68.5249 49.6189 69.6691 48.2287 70.9704C44.738 75.1609 43.5115 76.3088 44.1876 79.5165C44.1322 80.796 44.3326 82.0736 44.7773 83.2746C45.8465 86.1285 46.5777 87.9918 47.5054 89.352C47.2224 90.6807 46.4834 94.1872 46.4441 94.9891C46.4047 95.791 48.8027 95.2328 50.0134 94.9262C52.262 99.958 56.3817 103.449 57.6633 103.85C59.8961 104.549 63.4262 100.878 65.2974 98.0317C67.1685 95.1857 65.7534 91.9858 65.7612 90.7121C65.7691 89.4385 69.9674 86.6396 71.5241 85.7512C73.0808 84.8627 74.5275 80.8216 73.8985 76.8984Z" fill="white"/>
<mask id="mask3_25_2285" style="mask-type:luminance" maskUnits="userSpaceOnUse" x="44" y="65" width="31" height="39">
<path d="M73.8985 76.8984C73.2617 72.9674 68.7567 64.9716 61.61 65.2783C56.9714 65.4827 54.8015 66.4183 52.7888 67.5583C51.1482 68.5249 49.6189 69.6691 48.2287 70.9704C44.738 75.1609 43.5115 76.3088 44.1876 79.5165C44.1322 80.796 44.3326 82.0736 44.7773 83.2746C45.8465 86.1285 46.5777 87.9918 47.5054 89.352C47.2224 90.6807 46.4834 94.1872 46.4441 94.9891C46.4047 95.791 48.8027 95.2328 50.0134 94.9262C52.262 99.958 56.3817 103.449 57.6633 103.85C59.8961 104.549 63.4262 100.878 65.2974 98.0317C67.1685 95.1857 65.7534 91.9858 65.7612 90.7121C65.7691 89.4385 69.9674 86.6396 71.5241 85.7512C73.0808 84.8627 74.5275 80.8216 73.8985 76.8984Z" fill="white"/>
</mask>
<g mask="url(#mask3_25_2285)">
<g style="mix-blend-mode:multiply" opacity="0.5">
<path d="M44.2189 79.5165C44.1634 80.796 44.3639 82.0736 44.8085 83.2746C45.8778 86.1285 46.6089 87.9919 47.5367 89.352C47.2536 90.6807 46.5146 94.1872 46.4753 94.9891C46.436 95.7911 48.8339 95.2328 50.0447 94.9262C52.2932 99.958 56.413 103.449 57.6945 103.85C59.9273 104.549 63.4574 100.878 65.3286 98.0317C65.7961 97.3212 66.0995 96.5155 66.217 95.6731C66.1148 95.3036 66.044 95.0756 66.044 95.0756C66.044 95.0756 64.9905 99.1246 62.8992 98.5978C60.8079 98.0711 57.608 93.8806 55.8233 92.4339C54.0386 90.9873 54.7698 89.0847 54.416 86.9305C54.0622 84.7763 48.7789 82.8815 48.4251 81.6471C48.0713 80.4128 49.3056 75.3024 49.3056 75.3024C49.3056 75.3024 51.3105 72.6293 50.8781 73.73C50.5724 74.6844 50.4616 75.6905 50.5521 76.6885C50.6425 77.6865 50.9325 78.6562 51.4048 79.5401C51.7362 80.2375 52.262 80.8244 52.9189 81.2303C53.5758 81.6361 54.3359 81.8437 55.1079 81.828L57.0262 72.3227L52.9772 68.9734L48.26 70.939C44.7378 75.1609 43.5349 76.3088 44.2189 79.5165Z" fill="#EBDDCB"/>
</g>
</g>
<path d="M73.8985 76.8984C73.2617 72.9674 68.7567 64.9716 61.61 65.2783C56.9714 65.4827 54.8015 66.4183 52.7888 67.5583C51.1482 68.5249 49.6189 69.6691 48.2287 70.9704C44.738 75.1609 43.5115 76.3088 44.1876 79.5165C44.1322 80.796 44.3326 82.0736 44.7773 83.2746C45.8465 86.1285 46.5777 87.9918 47.5054 89.352C47.2224 90.6807 46.4834 94.1872 46.4441 94.9891C46.4047 95.791 48.8027 95.2328 50.0134 94.9262C52.262 99.958 56.3817 103.449 57.6633 103.85C59.8961 104.549 63.4262 100.878 65.2974 98.0317C67.1685 95.1857 65.7534 91.9858 65.7612 90.7121C65.7691 89.4385 69.9674 86.6396 71.5241 85.7512C73.0808 84.8627 74.5275 80.8216 73.8985 76.8984Z" stroke="#263238" stroke-miterlimit="10"/>
<path d="M48.4805 86.9775L49.2667 89.226C49.2667 89.226 50.957 89.7843 53.0169 87.5357" stroke="#263238" stroke-miterlimit="10" stroke-linecap="round"/>
<path d="M54.2905 97.4813C54.2905 97.4813 56.1617 97.2926 56.9165 94.6667" stroke="#263238" stroke-miterlimit="10" stroke-linecap="round"/>
<path d="M47.1674 85.0986C47.1674 85.0986 47.7256 83.4082 51.0984 83.4082" stroke="#263238" stroke-miterlimit="10" stroke-linecap="round"/>
<path d="M64.4563 62.1491C62.0055 61.7967 59.534 61.6075 57.0581 61.583C57.0581 61.583 49.652 57.3139 42.5368 61.866C35.4216 66.4182 38.8416 74.3904 38.8416 76.3795C38.8416 78.3686 36.5616 78.3764 37.9847 80.9395C39.4077 83.5025 44.2193 82.0874 44.2193 82.0874C44.2701 81.1207 44.5256 80.1758 44.9688 79.3151C45.412 78.4545 46.0328 77.6978 46.7902 77.0949C49.3532 75.1058 51.3974 74.6734 52.2465 75.2473C52.2465 75.2473 51.6804 79.5165 52.5295 81.2225C52.5295 81.2225 55.3756 82.6456 56.2326 82.6456C57.0895 82.6456 55.6744 83.8485 58.5126 84.9177C59.0297 85.1034 59.5828 85.1667 60.1284 85.1026C60.6741 85.0385 61.1975 84.8487 61.6574 84.5482C62.0741 82.8185 62.9861 80.2162 64.6843 80.8216C67.1766 81.71 69.4488 87.8424 66.0759 89.9337C70.1328 90.6728 75.0466 83.4947 75.3375 76.9534C75.6284 70.4121 68.6704 62.8881 64.4563 62.1491Z" fill="#263238"/>
<path d="M52.3721 72.4405C52.3721 72.4405 54.4634 71.3162 57.0264 73.722C59.5895 76.1278 64.574 79.3434 71.1782 77.5744" stroke="white" stroke-width="0.5" stroke-linecap="round" stroke-linejoin="round"/>
<path d="M52.0811 70.5143C52.0811 70.5143 53.5198 68.2658 55.9256 68.2658C58.3314 68.2658 63.9528 71.6386 68.4421 71.6386" stroke="white" stroke-width="0.5" stroke-linecap="round" stroke-linejoin="round"/>
<path d="M50.4459 74.8463C50.4459 74.8463 47.7177 71.4813 45.1547 74.2095C42.5916 76.9376 44.2191 79.5164 44.2191 79.5164" stroke="white" stroke-width="0.5" stroke-linecap="round" stroke-linejoin="round"/>
<path d="M39.5413 77.0948C41.1046 75.6849 42.0765 73.7356 42.2615 71.6385C42.5839 68.1085 47.4034 65.058 50.446 67.9512" stroke="white" stroke-width="0.5" stroke-linecap="round" stroke-linejoin="round"/>
<path d="M44.5099 64.2561C44.5099 64.2561 49.3293 59.6018 53.339 65.5376" stroke="white" stroke-width="0.5" stroke-linecap="round" stroke-linejoin="round"/>
<path d="M83.734 293.098C83.734 293.098 86.698 297.705 86.3678 300.669L86.0454 303.633C86.0454 303.633 75.1722 306.613 72.8686 306.613C70.565 306.613 58.3709 305.457 58.3709 305.457L57.8441 303.366C57.8072 303.212 57.8246 303.049 57.8933 302.906C57.962 302.763 58.0779 302.648 58.2215 302.58L69.0948 297.509L72.5226 293.758L83.734 293.098Z" fill="white" stroke="#263238" stroke-width="1.00396" stroke-miterlimit="10"/>
<path d="M74.5194 304.294C77.4677 304.522 83.0655 302.721 86.3125 301.574L86.0846 303.633C86.0846 303.633 75.172 306.613 72.8684 306.613C70.5648 306.613 58.3707 305.457 58.3707 305.457L57.9933 303.964C59.9431 303.971 70.6198 303.995 74.5194 304.294Z" fill="#EBDDCB" stroke="#263238" stroke-width="1.00396" stroke-miterlimit="10"/>
<path d="M69.1104 297.509L53.284 304.396C53.284 304.396 51.9317 307.784 53.284 308.461C54.6363 309.137 84.1191 308.461 84.1191 308.461C84.1191 308.461 86.1554 303.106 82.9398 299.513C79.7242 295.921 69.1104 297.509 69.1104 297.509Z" fill="white" stroke="#263238" stroke-width="1.00396" stroke-miterlimit="10"/>
<path d="M84.1194 308.461C84.1194 308.461 54.6365 309.137 53.2842 308.461C52.6317 308.131 52.6081 307.179 52.7575 306.275H84.6383C84.5341 307.018 84.3604 307.75 84.1194 308.461Z" fill="#EBDDCB" stroke="#263238" stroke-width="1.00396" stroke-miterlimit="10"/>
<path d="M61.6256 177.84C61.6256 177.84 57.4901 196.166 55.9256 207.629C54.361 219.092 53.4411 242.057 53.7714 244.691C54.1016 247.325 70.5648 291.455 70.5648 291.455L72.208 295.386L83.7338 293.082C83.7338 293.082 78.4662 276.289 76.4928 267.067C74.5194 257.844 70.2031 242.694 70.2031 240.06C70.2031 237.427 80.4238 187.125 81.155 183.823C81.8862 180.521 85.204 175.45 85.204 175.45L63.1351 175.002L61.6256 177.84Z" fill="#EBDDCB" stroke="#263238" stroke-width="1.00396" stroke-miterlimit="10"/>
<path d="M61.6259 177.84C61.6259 177.84 59.2044 194.578 60.2028 206.214C61.2013 217.85 63.3477 242.623 63.3477 246.311C63.3477 249.998 69.2993 272.02 69.6374 278.938C70.1641 288.931 69.4251 293.876 69.4251 293.876L69.0713 297.501C69.0713 297.501 76.0135 298.491 77.5309 298.924C79.2835 299.375 81.0921 299.571 82.9007 299.506C82.9007 299.506 85.4244 288.396 85.4244 278.93C85.4244 269.464 83.3253 249.982 82.2796 242.089C81.2339 234.195 84.5282 203.745 86.3993 198.061C88.2705 192.377 92.3588 180.34 89.6071 174.192C86.8553 168.043 61.6259 177.84 61.6259 177.84Z" fill="#EBDDCB" stroke="#263238" stroke-width="1.00396" stroke-miterlimit="10"/>
<path d="M92.6653 171.11L92.4137 178.594C92.4137 178.594 87.9323 179.483 81.8942 180.529C76.9096 181.393 64.3932 180.301 60.1791 179.892C59.7951 179.858 59.44 179.673 59.1912 179.379C58.9424 179.084 58.8199 178.704 58.8504 178.319L59.2592 171.558L92.6653 171.11Z" fill="#263238"/>
<path d="M75.1484 96.4987C75.1484 96.4987 68.0725 104.148 65.4072 108.905C62.742 113.662 61.6885 120.95 60.69 126.689C59.6915 132.428 62.3961 145.904 61.6334 152.092L59.2198 171.582C59.2198 171.582 58.7009 172.902 60.4384 174.349C62.1759 175.796 70.6591 176.322 78.3247 176.708C81.1236 176.849 89.481 175.049 90.849 174.962C92.5 174.86 92.5551 172.761 92.6258 171.11C92.956 163.35 94.3555 142.665 95.2753 133.655C97.1701 115.281 86.8 97.5443 75.1484 96.4987Z" fill="white" stroke="#263238" stroke-width="1.00396" stroke-miterlimit="10"/>
<g style="mix-blend-mode:multiply">
<path d="M94.4105 144.104C94.725 140.023 95.0394 136.32 95.3146 133.655C95.3932 132.869 95.4404 132.082 95.4797 131.296L76.6815 134.441L60.5327 128.938C60.5345 132.279 60.7235 135.618 61.0988 138.938L76.9409 143.372L94.4105 144.104Z" fill="#EBDDCB"/>
</g>
<g style="mix-blend-mode:multiply">
<path d="M74.4488 97.269C73.3795 98.4562 71.2568 100.87 69.2362 103.433L81.1709 115.564L85.1019 113.992L74.4488 97.269Z" fill="#EBDDCB"/>
</g>
<path d="M75.1485 96.4987C75.1485 96.4987 68.0726 104.148 65.4073 108.905C64.617 110.351 63.9768 111.873 63.4968 113.449L77.7272 97.0097C76.8865 96.755 76.0227 96.5838 75.1485 96.4987Z" fill="#263238"/>
<g style="mix-blend-mode:multiply">
<path d="M61.2405 123.591L76.6816 128.67L95.4327 126.516C95.1388 121.845 94.1011 117.251 92.3586 112.907L77.2398 118.968L63.7249 112.844C62.6198 116.357 61.7892 119.95 61.2405 123.591Z" fill="#EBDDCB"/>
</g>
<g style="mix-blend-mode:multiply">
<path d="M87.8224 163.35C79.9908 164.665 71.9549 164.008 64.4406 161.44L60.6746 160.15L59.5032 169.585L63.7959 170.788C71.9565 173.069 80.4857 173.726 88.8995 172.722L92.3667 172.305C92.5472 171.923 92.6488 171.508 92.6655 171.086C92.7598 168.987 92.9249 165.937 93.1372 162.438L87.8224 163.35Z" fill="#EBDDCB"/>
</g>
<g style="mix-blend-mode:multiply">
<path d="M89.9216 150.503C82.0896 151.823 74.0518 151.164 66.5397 148.585L61.7438 146.942C61.8628 148.655 61.8391 150.375 61.6731 152.084L61.1149 156.62L65.895 157.957C74.0525 160.241 82.5791 160.9 90.9908 159.898L93.3495 159.615C93.546 156.471 93.774 153.121 94.0177 149.811L89.9216 150.503Z" fill="#EBDDCB"/>
</g>
<path d="M16.1602 117.256L31.3618 129.478L32.017 128.664L16.8154 116.441L16.1602 117.256Z" fill="#263238"/>
<path d="M82.4682 104.982C82.4682 104.982 88.0424 108.779 88.1682 117.75C88.2232 121.681 87.8144 125.352 86.9103 131.791C86.0061 138.23 80.3926 159.199 76.0213 161.746C71.65 164.293 64.865 159.482 64.865 159.482L32.0486 137.696L24.1157 131.288L20.1847 123.866L21.419 121.508L31.0973 128.93L25.8847 124.11L26.9068 122.813L28.7937 124.126L34.2971 126.186L35.5001 134.048L37.1983 135.211L68.5916 146.682C68.5916 146.682 68.1985 129.787 68.4894 126.555C68.7803 123.324 69.1813 115.202 72.6406 109.314" fill="white"/>
<mask id="mask4_25_2285" style="mask-type:luminance" maskUnits="userSpaceOnUse" x="20" y="104" width="69" height="59">
<path d="M82.4682 104.982C82.4682 104.982 88.0424 108.779 88.1682 117.75C88.2232 121.681 87.8144 125.352 86.9103 131.791C86.0061 138.23 80.3926 159.199 76.0213 161.746C71.65 164.293 64.865 159.482 64.865 159.482L32.0486 137.696L24.1157 131.288L20.1847 123.866L21.419 121.508L31.0973 128.93L25.8847 124.11L26.9068 122.813L28.7937 124.126L34.2971 126.186L35.5001 134.048L37.1983 135.211L68.5916 146.682C68.5916 146.682 68.1985 129.787 68.4894 126.555C68.7803 123.324 69.1813 115.202 72.6406 109.314" fill="white"/>
</mask>
<g mask="url(#mask4_25_2285)">
<g style="mix-blend-mode:multiply" opacity="0.5">
<path d="M68.3713 133.914C68.3713 139.748 68.5679 146.682 68.5679 146.682L37.206 135.259L35.5078 134.095L34.3049 126.233L28.8014 124.173L26.9224 122.837L25.9003 124.134L31.0971 128.93L21.4189 121.508L20.2474 123.827L24.1785 131.249L32.1113 137.696L34.1083 139.025L77.4678 152.996L68.3713 133.914Z" fill="#EBDDCB"/>
</g>
</g>
<path d="M82.4682 104.982C82.4682 104.982 88.0424 108.779 88.1682 117.75C88.2232 121.681 87.8144 125.352 86.9103 131.791C86.0061 138.23 80.3926 159.199 76.0213 161.746C71.65 164.293 64.865 159.482 64.865 159.482L32.0486 137.696L24.1157 131.288L20.1847 123.866L21.419 121.508L31.0973 128.93L25.8847 124.11L26.9068 122.813L28.7937 124.126L34.2971 126.186L35.5001 134.048L37.1983 135.211L68.5916 146.682C68.5916 146.682 68.1985 129.787 68.4894 126.555C68.7803 123.324 69.1813 115.202 72.6406 109.314" stroke="#263238" stroke-width="1.00396" stroke-miterlimit="10"/>
<path d="M68.5915 146.682L80.5734 155.331L83.6789 149.827C83.6789 149.827 85.8253 148.137 86.1397 146.863C86.4542 145.589 86.0533 143.522 86.3756 142.248C86.6979 140.974 88.3018 139.779 88.4512 136.697C88.6006 133.616 88.4512 131.045 88.4512 131.045C88.4512 131.045 91.0457 120.376 90.7626 115.737C90.4796 111.098 86.0061 102.898 82.421 102.717C78.8359 102.537 74.1736 103.079 70.5571 108.551C66.9405 114.023 67.6795 129.999 67.1135 130.997C66.5474 131.996 67.3336 136.925 67.3336 136.925C67.0194 137.16 66.7587 137.458 66.5689 137.801C66.3791 138.144 66.2646 138.524 66.2329 138.915C66.17 140.196 67.5537 143.349 67.5537 143.349L68.5915 146.682Z" fill="white" stroke="#263238" stroke-width="1.00396" stroke-miterlimit="10"/>
<g style="mix-blend-mode:multiply">
<path d="M67.4281 126.893C67.4528 128.265 67.3501 129.636 67.1215 130.989C66.6183 131.886 67.1922 135.935 67.318 136.76C74.0573 138.853 81.1834 139.391 88.1604 138.333C88.3103 137.786 88.4 137.224 88.4277 136.658C88.585 133.584 88.4277 131.005 88.4277 131.005C88.4277 131.005 88.6558 130.054 88.9702 128.607C81.7445 129.067 74.4903 128.489 67.4281 126.893Z" fill="#EBDDCB"/>
</g>
<g style="mix-blend-mode:multiply">
<path d="M70.0696 109.424C68.9453 111.68 68.3164 115.069 67.9547 118.505C75.092 121.228 82.7872 122.165 90.3695 121.233C90.6721 119.414 90.8063 117.572 90.7705 115.729C90.6344 114.272 90.2902 112.843 89.7484 111.484C83.1279 111.638 76.5147 110.946 70.0696 109.424Z" fill="#EBDDCB"/>
</g>
<path d="M67.5537 143.435L68.5679 146.682L80.5498 155.331L83.6553 149.827C83.6553 149.827 85.8016 148.137 86.1161 146.863C86.1722 146.642 86.2065 146.415 86.2183 146.187C79.9042 146.078 73.6307 145.153 67.5537 143.435Z" fill="#263238"/>
<path d="M76.2257 298.822C76.2257 298.822 76.4931 292.013 77.7982 282.06C79.1033 272.106 75.9663 257.97 75.4395 255.612C74.9128 253.253 75.7068 248.017 75.1801 246.177C74.6533 244.337 72.106 236.491 73.6077 227.387C75.1093 218.282 76.3279 194.216 76.3279 194.216C76.3279 194.216 72.5463 191.142 71.4377 187.141C70.3292 183.139 71.1783 181.881 71.1783 181.881" stroke="#263238" stroke-width="1.00396" stroke-miterlimit="10"/>
<path d="M77.979 182.251L76.5245 190.301" stroke="#263238" stroke-width="1.00396" stroke-miterlimit="10"/>
</svg>
