<svg width="24" height="24" viewBox="0 0 24 24" fill="none" xmlns="http://www.w3.org/2000/svg">
<path fill-rule="evenodd" clip-rule="evenodd" d="M10.173 1H13.827C14.0616 1 14.2659 1 14.4584 1.03111C14.8332 1.09283 15.1888 1.24385 15.4966 1.47209C15.8045 1.70033 16.0561 1.99947 16.2313 2.34556C16.3222 2.52333 16.3859 2.72222 16.4605 2.95L16.5805 3.32222L16.613 3.41667C16.7108 3.69573 16.893 3.93527 17.1328 4.10022C17.3727 4.26517 17.6576 4.34686 17.9459 4.33333H21.1892C21.4042 4.33333 21.6105 4.42113 21.7625 4.57741C21.9146 4.73369 22 4.94565 22 5.16667C22 5.38768 21.9146 5.59964 21.7625 5.75592C21.6105 5.9122 21.4042 6 21.1892 6H2.81081C2.59577 6 2.38954 5.9122 2.23748 5.75592C2.08542 5.59964 2 5.38768 2 5.16667C2 4.94565 2.08542 4.73369 2.23748 4.57741C2.38954 4.42113 2.59577 4.33333 2.81081 4.33333H6.15135C6.44011 4.32622 6.71905 4.22419 6.94727 4.04222C7.17549 3.86026 7.34098 3.60792 7.41946 3.32222L7.54054 2.95C7.61405 2.72222 7.67784 2.52333 7.76757 2.34556C7.94291 1.99933 8.19469 1.70011 8.50276 1.47186C8.81082 1.24361 9.1666 1.09266 9.54162 1.03111C9.73405 1 9.93838 1 10.1719 1M8.76432 4.33333C8.8392 4.18005 8.90245 4.02106 8.95351 3.85778L9.06162 3.52444C9.16 3.22111 9.1827 3.16 9.20541 3.11556C9.26377 3.00001 9.34766 2.90012 9.45035 2.82391C9.55304 2.74769 9.67168 2.69726 9.79676 2.67667C9.93765 2.66384 10.0792 2.6605 10.2205 2.66667H13.7773C14.0886 2.66667 14.1535 2.66889 14.2011 2.67778C14.3261 2.69826 14.4446 2.74851 14.5473 2.82453C14.65 2.90055 14.7339 3.00022 14.7924 3.11556C14.8151 3.16 14.8378 3.22111 14.9362 3.52556L15.0443 3.85889L15.0865 3.98333C15.129 4.10481 15.178 4.22148 15.2335 4.33333H8.76432Z" fill="#8D4A56"/>
<path d="M5.58094 7.80018C5.56695 7.57331 5.47035 7.36175 5.31238 7.21205C5.15441 7.06234 4.94802 6.98675 4.73861 7.00191C4.52919 7.01706 4.33392 7.12172 4.19573 7.29286C4.05755 7.464 3.98777 7.6876 4.00176 7.91447L4.49123 15.8595C4.5809 17.3246 4.65369 18.5086 4.82458 19.4389C5.00286 20.4046 5.30456 21.2115 5.92906 21.8434C6.55356 22.4754 7.31625 22.7497 8.21819 22.8766C9.08532 23 10.1803 23 11.5369 23H12.4642C13.8197 23 14.9157 23 15.7829 22.8766C16.6837 22.7497 17.4475 22.4766 18.072 21.8434C18.6954 21.2115 18.9971 20.4035 19.1754 19.4389C19.3463 18.5098 19.418 17.3246 19.5088 15.8595L19.9982 7.91447C20.0122 7.6876 19.9425 7.464 19.8043 7.29286C19.6661 7.12172 19.4708 7.01706 19.2614 7.00191C19.052 6.98675 18.8456 7.06234 18.6876 7.21205C18.5296 7.36175 18.433 7.57331 18.4191 7.80018L17.9338 15.6858C17.8389 17.2252 17.7713 18.2972 17.6237 19.1029C17.4791 19.8858 17.2787 20.2995 16.9907 20.592C16.7017 20.8846 16.3071 21.0743 15.5772 21.1772C14.825 21.2835 13.8334 21.2857 12.4082 21.2857H11.5918C10.1676 21.2857 9.17604 21.2835 8.42284 21.1772C7.69285 21.0743 7.29832 20.8846 7.00928 20.592C6.72129 20.2995 6.52086 19.8858 6.37634 19.104C6.22865 18.2972 6.16114 17.2252 6.0662 15.6847L5.58094 7.80018Z" fill="#8D4A56"/>
<path d="M8.83053 10.004C9.07405 9.98263 9.31729 10.0469 9.50679 10.1828C9.69628 10.3187 9.81653 10.5151 9.84109 10.7288L10.4565 16.1293C10.4746 16.34 10.398 16.5485 10.2433 16.7104C10.0886 16.8723 9.86789 16.9748 9.6283 16.9959C9.38871 17.0171 9.14919 16.9552 8.96083 16.8236C8.77247 16.6919 8.65018 16.5009 8.62005 16.2913L8.0046 10.8908C7.9802 10.6771 8.05349 10.4637 8.20837 10.2974C8.36324 10.1311 8.58703 10.0256 8.83053 10.004ZM15.1696 10.004C15.4129 10.0256 15.6364 10.131 15.7913 10.297C15.9461 10.463 16.0196 10.6762 15.9955 10.8897L15.3801 16.2902C15.3496 16.4995 15.2272 16.69 15.0391 16.8213C14.8509 16.9526 14.6119 17.0144 14.3726 16.9934C14.1334 16.9725 13.913 16.8704 13.7582 16.7091C13.6033 16.5477 13.5264 16.3397 13.5436 16.1293L14.159 10.7288C14.1836 10.5153 14.3037 10.3191 14.4929 10.1833C14.6821 10.0474 14.9263 9.98293 15.1696 10.004Z" fill="#8D4A56"/>
</svg>
