<svg width="24" height="24" viewBox="0 0 24 24" fill="none" xmlns="http://www.w3.org/2000/svg">
<path d="M9.23308 15.3424L19.2219 5.35359C19.4576 5.11786 19.7326 5 20.0469 5C20.3612 5 20.6362 5.11786 20.8719 5.35359C21.1077 5.58931 21.2255 5.86943 21.2255 6.19394C21.2255 6.51845 21.1077 6.79818 20.8719 7.03312L10.0581 17.8764C9.82239 18.1121 9.54738 18.23 9.23308 18.23C8.91878 18.23 8.64377 18.1121 8.40805 17.8764L3.33999 12.8084C3.10426 12.5726 2.99112 12.2929 3.00054 11.9692C3.00997 11.6454 3.13294 11.3653 3.36945 11.1288C3.60596 10.8923 3.88608 10.7744 4.20981 10.7752C4.53353 10.776 4.81326 10.8939 5.04898 11.1288L9.23308 15.3424Z" fill="black"/>
</svg>
