<svg width="24" height="24" viewBox="0 0 24 24" fill="none" xmlns="http://www.w3.org/2000/svg">
<path fill-rule="evenodd" clip-rule="evenodd" d="M2 6.857C2 5.56884 2.51172 4.33345 3.42258 3.42258C4.33345 2.51172 5.56884 2 6.857 2H12C12.2652 2 12.5196 2.10536 12.7071 2.29289C12.8946 2.48043 13 2.73478 13 3C13 3.26522 12.8946 3.51957 12.7071 3.70711C12.5196 3.89464 12.2652 4 12 4H6.857C6.09928 4 5.37259 4.301 4.8368 4.8368C4.301 5.37259 4 6.09928 4 6.857V17.143C4 17.9007 4.301 18.6274 4.8368 19.1632C5.37259 19.699 6.09928 20 6.857 20H17.143C17.9007 20 18.6274 19.699 19.1632 19.1632C19.699 18.6274 20 17.9007 20 17.143V12C20 11.7348 20.1054 11.4804 20.2929 11.2929C20.4804 11.1054 20.7348 11 21 11C21.2652 11 21.5196 11.1054 21.7071 11.2929C21.8946 11.4804 22 11.7348 22 12V17.143C22 18.4312 21.4883 19.6666 20.5774 20.5774C19.6666 21.4883 18.4312 22 17.143 22H6.857C5.56884 22 4.33345 21.4883 3.42258 20.5774C2.51172 19.6666 2 18.4312 2 17.143V6.857Z" fill="#2E1F47"/>
<path fill-rule="evenodd" clip-rule="evenodd" d="M15.137 13.219L12.932 14.549L11.899 12.836L14.104 11.506L14.107 11.504C14.1915 11.4531 14.2694 11.392 14.339 11.322L19.349 6.28598C19.3992 6.23539 19.4475 6.18302 19.494 6.12898C19.825 5.74298 20.315 4.97898 19.722 4.38298C19.221 3.87898 18.503 4.35498 18.038 4.76398C17.9133 4.87394 17.7932 4.98904 17.678 5.10898L17.644 5.14298L12.704 10.108C12.5867 10.2246 12.4948 10.3642 12.434 10.518L11.61 12.591C11.5944 12.63 11.5914 12.6729 11.6016 12.7137C11.6117 12.7545 11.6345 12.791 11.6666 12.8181C11.6987 12.8453 11.7385 12.8616 11.7804 12.8648C11.8223 12.868 11.8631 12.8579 11.899 12.836L12.932 14.549C11.127 15.637 8.97199 13.809 9.75199 11.851L10.577 9.77898C10.7376 9.37408 10.9792 9.00623 11.287 8.69798L16.226 3.73198L16.255 3.70298C16.402 3.55298 16.896 3.04698 17.495 2.68298C17.822 2.48598 18.344 2.22498 18.989 2.17498C19.729 2.11598 20.519 2.34898 21.139 2.97198C21.6135 3.44077 21.912 4.05882 21.984 4.72198C22.0335 5.23887 21.9545 5.76 21.754 6.23898C21.464 6.95598 20.98 7.48298 20.767 7.69598L15.757 12.732C15.5703 12.9193 15.3637 13.0816 15.137 13.219ZM19.59 6.09298C19.59 6.09298 19.586 6.09598 19.577 6.09898L19.59 6.09298Z" fill="#2E1F47"/>
</svg>
