<svg width="24" height="25" viewBox="0 0 24 25" fill="none" xmlns="http://www.w3.org/2000/svg">
<path d="M5.116 20.5C4.65533 20.5 4.271 20.346 3.963 20.038C3.655 19.73 3.50067 19.3453 3.5 18.884V4.00001C3.5 3.85801 3.548 3.73934 3.644 3.64401C3.74 3.54867 3.859 3.50067 4.001 3.50001C4.143 3.49934 4.26167 3.54734 4.357 3.64401C4.45233 3.74067 4.5 3.85934 4.5 4.00001V18.885C4.5 19.0383 4.564 19.1793 4.692 19.308C4.82 19.4367 4.961 19.5007 5.115 19.5H20C20.142 19.5 20.2607 19.548 20.356 19.644C20.4513 19.74 20.4993 19.859 20.5 20.001C20.5007 20.143 20.4527 20.2617 20.356 20.357C20.2593 20.4523 20.1407 20.5 20 20.5H5.116ZM8.116 17C7.90867 17 7.735 16.93 7.595 16.79C7.455 16.65 7.385 16.4767 7.385 16.27V10.422C7.385 10.2153 7.455 10.042 7.595 9.90201C7.735 9.76201 7.90833 9.69201 8.115 9.69201H8.577C8.80567 9.69201 8.99767 9.76967 9.153 9.92501C9.30767 10.081 9.385 10.2743 9.385 10.505V16.194C9.385 16.4247 9.30733 16.6163 9.152 16.769C8.99733 16.9223 8.80567 16.999 8.577 16.999L8.116 17ZM12.616 17C12.4087 17 12.235 16.93 12.095 16.79C11.955 16.65 11.885 16.4767 11.885 16.27V5.50001C11.885 5.27134 11.9623 5.07967 12.117 4.92501C12.2717 4.77034 12.4633 4.69267 12.692 4.69201H13.154C13.3607 4.69201 13.534 4.76201 13.674 4.90201C13.814 5.04201 13.884 5.21567 13.884 5.42301V16.193C13.884 16.4217 13.807 16.6133 13.653 16.768C13.4977 16.9227 13.3057 17 13.077 17H12.616ZM17.116 17C16.9087 17 16.735 16.93 16.595 16.79C16.455 16.65 16.385 16.4767 16.385 16.27V14.5C16.385 14.2713 16.4623 14.0797 16.617 13.925C16.7717 13.7703 16.9633 13.6927 17.192 13.692H17.654C17.8607 13.692 18.034 13.762 18.174 13.902C18.314 14.042 18.384 14.2157 18.384 14.423V16.193C18.384 16.4217 18.307 16.6133 18.153 16.768C17.999 16.9227 17.807 17 17.577 17H17.116Z" fill="#2E1F47"/>
</svg>
