<svg width="32" height="32" viewBox="0 0 32 32" fill="none" xmlns="http://www.w3.org/2000/svg">
<path d="M9.99999 2.66669C7.61332 4.20002 5.99999 6.90669 5.99999 10C5.99999 13.0934 7.61332 15.8 10.04 17.3334C5.94666 17.3334 2.66666 14.0534 2.66666 10C2.66666 8.0551 3.43927 6.18984 4.81454 4.81457C6.18981 3.43931 8.05507 2.66669 9.99999 2.66669ZM25.4267 4.66669L27.3333 6.57336L6.57332 27.3334L4.66666 25.4267L25.4267 4.66669ZM17.1867 7.90669L15.2133 6.66669L13.2933 8.00002L13.8533 5.73336L12 4.32002L14.3333 4.16002L15.1067 1.96002L16 4.13336L18.3067 4.17336L16.5067 5.68002L17.1867 7.90669ZM12.7867 12.72L11.24 11.7467L9.74666 12.7867L10.2 11.0267L8.74666 9.92002L10.56 9.80002L11.16 8.08002L11.84 9.77336L13.6533 9.81336L12.2533 10.9734L12.7867 12.72ZM25.3333 18C25.3333 19.9449 24.5607 21.8102 23.1854 23.1855C21.8102 24.5607 19.9449 25.3334 18 25.3334C16.3733 25.3334 14.8667 24.8 13.6533 23.9067L23.9067 13.6534C24.8 14.8667 25.3333 16.3734 25.3333 18ZM19.4667 26.7734L23.16 25.24L22.84 29.7067L19.4667 26.7734ZM25.24 23.1734L26.7733 19.48L29.7067 22.8667L25.24 23.1734ZM26.7733 16.56L25.2533 12.8534L29.7067 13.1734L26.7733 16.56ZM12.84 25.24L16.5333 26.7734L13.16 29.6934L12.84 25.24Z" fill="black"/>
</svg>
